%TF.GenerationSoftware,KiCad,Pcbnew,8.0.8-8.0.8-0~ubuntu24.04.1*%
%TF.CreationDate,2025-02-11T11:04:45-03:00*%
%TF.ProjectId,pm100,706d3130-302e-46b6-9963-61645f706362,rev?*%
%TF.SameCoordinates,Original*%
%TF.FileFunction,Legend,Top*%
%TF.FilePolarity,Positive*%
%FSLAX46Y46*%
G04 Gerber Fmt 4.6, Leading zero omitted, Abs format (unit mm)*
G04 Created by KiCad (PCBNEW 8.0.8-8.0.8-0~ubuntu24.04.1) date 2025-02-11 11:04:45*
%MOMM*%
%LPD*%
G01*
G04 APERTURE LIST*
%ADD10C,0.200000*%
%ADD11C,0.150000*%
%ADD12C,0.120000*%
G04 APERTURE END LIST*
D10*
G36*
X152588179Y-46201731D02*
G01*
X152640039Y-46227661D01*
X152688062Y-46275683D01*
X152713560Y-46352177D01*
X152713560Y-46426427D01*
X152113560Y-46426427D01*
X152113560Y-46352177D01*
X152139057Y-46275684D01*
X152187081Y-46227660D01*
X152238939Y-46201731D01*
X152368727Y-46169284D01*
X152458393Y-46169284D01*
X152588179Y-46201731D01*
G37*
G36*
X147496328Y-45931008D02*
G01*
X147541459Y-45976139D01*
X147561740Y-46016701D01*
X147561740Y-46121868D01*
X147541458Y-46162430D01*
X147496329Y-46207559D01*
X147382763Y-46235952D01*
X147140716Y-46235952D01*
X147027151Y-46207560D01*
X146982020Y-46162429D01*
X146961740Y-46121868D01*
X146961740Y-46016701D01*
X146982021Y-45976138D01*
X147027150Y-45931009D01*
X147140716Y-45902618D01*
X147382764Y-45902618D01*
X147496328Y-45931008D01*
G37*
G36*
X152484988Y-45625779D02*
G01*
X152329787Y-45574046D01*
X152484988Y-45522312D01*
X152484988Y-45625779D01*
G37*
G36*
X144860449Y-45420779D02*
G01*
X144912309Y-45446709D01*
X144960332Y-45494731D01*
X144985830Y-45571225D01*
X144985830Y-45645475D01*
X144385830Y-45645475D01*
X144385830Y-45571225D01*
X144411327Y-45494732D01*
X144459351Y-45446708D01*
X144511209Y-45420779D01*
X144640997Y-45388332D01*
X144730663Y-45388332D01*
X144860449Y-45420779D01*
G37*
G36*
X153013560Y-48097071D02*
G01*
X144085830Y-48097071D01*
X144085830Y-47040713D01*
X144185830Y-47040713D01*
X144185830Y-47154999D01*
X144186802Y-47164872D01*
X144186615Y-47167506D01*
X144187402Y-47170969D01*
X144187751Y-47174508D01*
X144188762Y-47176950D01*
X144190962Y-47186622D01*
X144229057Y-47300908D01*
X144237048Y-47318808D01*
X144239403Y-47321523D01*
X144240778Y-47324842D01*
X144253214Y-47339996D01*
X144329404Y-47416186D01*
X144337073Y-47422480D01*
X144338804Y-47424475D01*
X144341811Y-47426368D01*
X144344558Y-47428622D01*
X144346997Y-47429632D01*
X144355394Y-47434918D01*
X144431585Y-47473013D01*
X144433009Y-47473558D01*
X144433591Y-47473989D01*
X144441791Y-47476918D01*
X144449894Y-47480019D01*
X144450613Y-47480070D01*
X144452052Y-47480584D01*
X144604433Y-47518680D01*
X144607814Y-47519180D01*
X144609178Y-47519745D01*
X144616526Y-47520468D01*
X144623825Y-47521548D01*
X144625283Y-47521330D01*
X144628687Y-47521666D01*
X144742973Y-47521666D01*
X144746376Y-47521330D01*
X144747835Y-47521548D01*
X144755133Y-47520468D01*
X144762482Y-47519745D01*
X144763845Y-47519180D01*
X144767227Y-47518680D01*
X144919608Y-47480584D01*
X144921046Y-47480070D01*
X144921767Y-47480019D01*
X144929877Y-47476915D01*
X144938069Y-47473989D01*
X144938650Y-47473558D01*
X144940075Y-47473013D01*
X145016265Y-47434918D01*
X145024659Y-47429634D01*
X145027101Y-47428623D01*
X145029848Y-47426368D01*
X145032856Y-47424475D01*
X145034587Y-47422478D01*
X145042254Y-47416186D01*
X145106425Y-47352016D01*
X146762525Y-47352016D01*
X146765291Y-47390936D01*
X146782741Y-47425835D01*
X146812217Y-47451400D01*
X146830117Y-47459391D01*
X147345512Y-47631189D01*
X146830117Y-47802988D01*
X146812217Y-47810979D01*
X146782741Y-47836545D01*
X146765291Y-47871443D01*
X146762525Y-47910363D01*
X146774863Y-47947379D01*
X146800429Y-47976855D01*
X146835327Y-47994305D01*
X146874247Y-47997071D01*
X146893363Y-47992724D01*
X147693363Y-47726057D01*
X147711263Y-47718066D01*
X147716662Y-47713382D01*
X147723052Y-47710188D01*
X147731267Y-47700716D01*
X147740739Y-47692501D01*
X147743933Y-47686111D01*
X147748617Y-47680712D01*
X147752582Y-47668814D01*
X147758189Y-47657602D01*
X147758695Y-47650474D01*
X147760955Y-47643696D01*
X147760066Y-47631189D01*
X147760955Y-47618682D01*
X147758695Y-47611903D01*
X147758189Y-47604776D01*
X147752579Y-47593557D01*
X147748616Y-47581666D01*
X147743937Y-47576271D01*
X147740740Y-47569877D01*
X147731261Y-47561656D01*
X147723051Y-47552190D01*
X147716664Y-47548996D01*
X147711263Y-47544312D01*
X147693363Y-47536321D01*
X146893363Y-47269655D01*
X146874247Y-47265308D01*
X146835327Y-47268074D01*
X146800428Y-47285524D01*
X146774863Y-47315000D01*
X146762525Y-47352016D01*
X145106425Y-47352016D01*
X145118445Y-47339996D01*
X145130882Y-47324843D01*
X145132257Y-47321523D01*
X145134612Y-47318808D01*
X145142603Y-47300908D01*
X145180698Y-47186621D01*
X145182897Y-47176950D01*
X145183909Y-47174508D01*
X145184257Y-47170968D01*
X145185045Y-47167506D01*
X145184857Y-47164872D01*
X145185830Y-47154999D01*
X145185830Y-47078808D01*
X145184857Y-47068934D01*
X145185045Y-47066301D01*
X145184257Y-47062837D01*
X145183909Y-47059299D01*
X145182897Y-47056856D01*
X145180698Y-47047185D01*
X145142603Y-46932900D01*
X145134612Y-46915000D01*
X145132256Y-46912284D01*
X145130882Y-46908966D01*
X145118446Y-46893812D01*
X145080350Y-46855716D01*
X145065196Y-46843280D01*
X145029148Y-46828348D01*
X145009639Y-46826427D01*
X144742973Y-46826427D01*
X144723464Y-46828348D01*
X144687416Y-46843280D01*
X144659826Y-46870870D01*
X144644894Y-46906918D01*
X144642973Y-46926427D01*
X144642973Y-47078808D01*
X144644894Y-47098317D01*
X144659826Y-47134365D01*
X144687416Y-47161955D01*
X144723464Y-47176887D01*
X144762482Y-47176887D01*
X144798530Y-47161955D01*
X144826120Y-47134365D01*
X144841052Y-47098317D01*
X144842973Y-47078808D01*
X144842973Y-47026427D01*
X144962961Y-47026427D01*
X144985830Y-47095035D01*
X144985830Y-47138772D01*
X144960332Y-47215266D01*
X144912309Y-47263288D01*
X144860449Y-47289218D01*
X144730663Y-47321666D01*
X144640997Y-47321666D01*
X144511209Y-47289218D01*
X144459351Y-47263289D01*
X144411327Y-47215265D01*
X144385830Y-47138772D01*
X144385830Y-47064320D01*
X144413368Y-47009244D01*
X144420374Y-46990936D01*
X144423140Y-46952016D01*
X144410801Y-46915000D01*
X144385237Y-46885523D01*
X144350338Y-46868074D01*
X144311418Y-46865308D01*
X144274402Y-46877647D01*
X144244925Y-46903211D01*
X144234482Y-46919802D01*
X144196387Y-46995992D01*
X144189381Y-47014300D01*
X144189126Y-47017883D01*
X144187751Y-47021204D01*
X144185830Y-47040713D01*
X144085830Y-47040713D01*
X144085830Y-46793094D01*
X146761740Y-46793094D01*
X146761740Y-46869285D01*
X146762712Y-46879158D01*
X146762525Y-46881792D01*
X146763312Y-46885255D01*
X146763661Y-46888794D01*
X146764672Y-46891236D01*
X146766872Y-46900908D01*
X146804967Y-47015194D01*
X146812958Y-47033094D01*
X146815313Y-47035809D01*
X146816688Y-47039128D01*
X146829124Y-47054282D01*
X146905314Y-47130472D01*
X146912983Y-47136766D01*
X146914714Y-47138761D01*
X146917721Y-47140654D01*
X146920468Y-47142908D01*
X146922907Y-47143918D01*
X146931304Y-47149204D01*
X147007495Y-47187299D01*
X147008919Y-47187844D01*
X147009501Y-47188275D01*
X147017701Y-47191204D01*
X147025804Y-47194305D01*
X147026523Y-47194356D01*
X147027962Y-47194870D01*
X147180343Y-47232966D01*
X147183724Y-47233466D01*
X147185088Y-47234031D01*
X147192436Y-47234754D01*
X147199735Y-47235834D01*
X147201193Y-47235616D01*
X147204597Y-47235952D01*
X147318883Y-47235952D01*
X147322286Y-47235616D01*
X147323745Y-47235834D01*
X147331043Y-47234754D01*
X147338392Y-47234031D01*
X147339755Y-47233466D01*
X147343137Y-47232966D01*
X147495518Y-47194870D01*
X147496956Y-47194356D01*
X147497677Y-47194305D01*
X147505787Y-47191201D01*
X147513979Y-47188275D01*
X147514560Y-47187844D01*
X147515985Y-47187299D01*
X147592175Y-47149204D01*
X147600569Y-47143920D01*
X147603011Y-47142909D01*
X147605758Y-47140654D01*
X147608766Y-47138761D01*
X147610497Y-47136764D01*
X147618164Y-47130472D01*
X147694355Y-47054282D01*
X147706792Y-47039129D01*
X147708167Y-47035809D01*
X147710522Y-47033094D01*
X147718513Y-47015194D01*
X147735403Y-46964523D01*
X149337650Y-46964523D01*
X149337650Y-47155000D01*
X149339571Y-47174509D01*
X149340946Y-47177829D01*
X149341201Y-47181413D01*
X149348207Y-47199721D01*
X149386302Y-47275911D01*
X149391588Y-47284309D01*
X149392598Y-47286747D01*
X149394849Y-47289490D01*
X149396745Y-47292502D01*
X149398742Y-47294234D01*
X149405034Y-47301901D01*
X149443129Y-47339995D01*
X149450795Y-47346287D01*
X149452528Y-47348285D01*
X149455536Y-47350178D01*
X149458282Y-47352432D01*
X149460722Y-47353442D01*
X149469118Y-47358727D01*
X149545309Y-47396823D01*
X149563617Y-47403830D01*
X149567202Y-47404084D01*
X149570522Y-47405460D01*
X149590031Y-47407381D01*
X149666221Y-47407381D01*
X149685730Y-47405460D01*
X149689050Y-47404084D01*
X149692634Y-47403830D01*
X149710943Y-47396823D01*
X149787134Y-47358728D01*
X149795532Y-47353441D01*
X149797969Y-47352432D01*
X149800712Y-47350180D01*
X149803724Y-47348285D01*
X149805456Y-47346287D01*
X149813123Y-47339996D01*
X149851217Y-47301901D01*
X149857509Y-47294234D01*
X149859507Y-47292502D01*
X149861400Y-47289493D01*
X149863654Y-47286748D01*
X149864664Y-47284307D01*
X149869950Y-47275911D01*
X149908045Y-47199721D01*
X149908590Y-47198294D01*
X149909021Y-47197714D01*
X149911942Y-47189537D01*
X149915051Y-47181413D01*
X149915102Y-47180690D01*
X149915616Y-47179253D01*
X149951048Y-47037522D01*
X149976977Y-46985665D01*
X149992123Y-46970518D01*
X150032685Y-46950238D01*
X150061662Y-46950238D01*
X150102223Y-46970518D01*
X150117369Y-46985664D01*
X150137650Y-47026225D01*
X150137650Y-47176868D01*
X150104687Y-47275758D01*
X150100340Y-47294874D01*
X150103106Y-47333794D01*
X150120556Y-47368693D01*
X150150032Y-47394258D01*
X150187048Y-47406596D01*
X150225968Y-47403830D01*
X150260867Y-47386380D01*
X150286432Y-47356904D01*
X150294423Y-47339004D01*
X150332518Y-47224717D01*
X150334717Y-47215046D01*
X150335729Y-47212604D01*
X150336077Y-47209064D01*
X150336865Y-47205602D01*
X150336677Y-47202968D01*
X150337650Y-47193095D01*
X150337650Y-47002619D01*
X150335774Y-46983570D01*
X151913560Y-46983570D01*
X151913560Y-47174047D01*
X151915481Y-47193556D01*
X151916856Y-47196876D01*
X151917111Y-47200460D01*
X151924117Y-47218768D01*
X151962212Y-47294958D01*
X151967498Y-47303356D01*
X151968508Y-47305794D01*
X151970759Y-47308537D01*
X151972655Y-47311549D01*
X151974652Y-47313281D01*
X151980944Y-47320948D01*
X152019039Y-47359042D01*
X152026705Y-47365334D01*
X152028438Y-47367332D01*
X152031446Y-47369225D01*
X152034192Y-47371479D01*
X152036632Y-47372489D01*
X152045028Y-47377774D01*
X152121219Y-47415870D01*
X152139527Y-47422877D01*
X152143112Y-47423131D01*
X152146432Y-47424507D01*
X152165941Y-47426428D01*
X152242131Y-47426428D01*
X152261640Y-47424507D01*
X152264960Y-47423131D01*
X152268544Y-47422877D01*
X152286853Y-47415870D01*
X152363044Y-47377775D01*
X152371442Y-47372488D01*
X152373879Y-47371479D01*
X152376622Y-47369227D01*
X152379634Y-47367332D01*
X152381366Y-47365334D01*
X152389033Y-47359043D01*
X152427127Y-47320948D01*
X152433419Y-47313281D01*
X152435417Y-47311549D01*
X152437310Y-47308540D01*
X152439564Y-47305795D01*
X152440574Y-47303354D01*
X152445860Y-47294958D01*
X152483955Y-47218768D01*
X152484500Y-47217341D01*
X152484931Y-47216761D01*
X152487852Y-47208584D01*
X152490961Y-47200460D01*
X152491012Y-47199737D01*
X152491526Y-47198300D01*
X152526958Y-47056569D01*
X152552887Y-47004712D01*
X152568033Y-46989565D01*
X152608595Y-46969285D01*
X152637572Y-46969285D01*
X152678133Y-46989565D01*
X152693279Y-47004711D01*
X152713560Y-47045272D01*
X152713560Y-47195915D01*
X152680597Y-47294805D01*
X152676250Y-47313921D01*
X152679016Y-47352841D01*
X152696466Y-47387740D01*
X152725942Y-47413305D01*
X152762958Y-47425643D01*
X152801878Y-47422877D01*
X152836777Y-47405427D01*
X152862342Y-47375951D01*
X152870333Y-47358051D01*
X152908428Y-47243764D01*
X152910627Y-47234093D01*
X152911639Y-47231651D01*
X152911987Y-47228111D01*
X152912775Y-47224649D01*
X152912587Y-47222015D01*
X152913560Y-47212142D01*
X152913560Y-47021666D01*
X152911639Y-47002157D01*
X152910263Y-46998836D01*
X152910009Y-46995254D01*
X152903003Y-46976945D01*
X152864908Y-46900754D01*
X152859621Y-46892356D01*
X152858611Y-46889916D01*
X152856356Y-46887169D01*
X152854465Y-46884164D01*
X152852471Y-46882434D01*
X152846175Y-46874763D01*
X152808079Y-46836668D01*
X152800412Y-46830376D01*
X152798681Y-46828380D01*
X152795670Y-46826485D01*
X152792925Y-46824232D01*
X152790486Y-46823221D01*
X152782090Y-46817937D01*
X152705900Y-46779842D01*
X152687592Y-46772836D01*
X152684008Y-46772581D01*
X152680688Y-46771206D01*
X152661179Y-46769285D01*
X152584988Y-46769285D01*
X152565479Y-46771206D01*
X152562158Y-46772581D01*
X152558575Y-46772836D01*
X152540267Y-46779842D01*
X152464077Y-46817937D01*
X152455680Y-46823222D01*
X152453240Y-46824233D01*
X152450494Y-46826486D01*
X152447486Y-46828380D01*
X152445753Y-46830377D01*
X152438087Y-46836670D01*
X152399992Y-46874764D01*
X152393700Y-46882430D01*
X152391703Y-46884163D01*
X152389807Y-46887174D01*
X152387556Y-46889918D01*
X152386546Y-46892354D01*
X152381260Y-46900753D01*
X152343165Y-46976944D01*
X152342619Y-46978369D01*
X152342188Y-46978952D01*
X152339260Y-46987145D01*
X152336158Y-46995253D01*
X152336106Y-46995973D01*
X152335593Y-46997412D01*
X152300160Y-47139142D01*
X152274231Y-47191001D01*
X152259084Y-47206147D01*
X152218525Y-47226428D01*
X152189549Y-47226428D01*
X152148986Y-47206147D01*
X152133840Y-47191000D01*
X152113560Y-47150440D01*
X152113560Y-46999797D01*
X152146523Y-46900908D01*
X152150870Y-46881792D01*
X152148104Y-46842872D01*
X152130654Y-46807973D01*
X152101178Y-46782408D01*
X152064162Y-46770070D01*
X152025242Y-46772836D01*
X151990344Y-46790286D01*
X151964778Y-46819762D01*
X151956787Y-46837662D01*
X151918692Y-46951947D01*
X151916492Y-46961618D01*
X151915481Y-46964061D01*
X151915132Y-46967599D01*
X151914345Y-46971063D01*
X151914532Y-46973696D01*
X151913560Y-46983570D01*
X150335774Y-46983570D01*
X150335729Y-46983110D01*
X150334353Y-46979789D01*
X150334099Y-46976207D01*
X150327093Y-46957898D01*
X150288998Y-46881707D01*
X150283711Y-46873309D01*
X150282701Y-46870869D01*
X150280446Y-46868122D01*
X150278555Y-46865117D01*
X150276561Y-46863387D01*
X150270265Y-46855716D01*
X150232169Y-46817621D01*
X150224502Y-46811329D01*
X150222771Y-46809333D01*
X150219760Y-46807438D01*
X150217015Y-46805185D01*
X150214576Y-46804174D01*
X150206180Y-46798890D01*
X150129990Y-46760795D01*
X150111682Y-46753789D01*
X150108098Y-46753534D01*
X150104778Y-46752159D01*
X150085269Y-46750238D01*
X150009078Y-46750238D01*
X149989569Y-46752159D01*
X149986248Y-46753534D01*
X149982665Y-46753789D01*
X149964357Y-46760795D01*
X149888167Y-46798890D01*
X149879770Y-46804175D01*
X149877330Y-46805186D01*
X149874584Y-46807439D01*
X149871576Y-46809333D01*
X149869843Y-46811330D01*
X149862177Y-46817623D01*
X149824082Y-46855717D01*
X149817790Y-46863383D01*
X149815793Y-46865116D01*
X149813897Y-46868127D01*
X149811646Y-46870871D01*
X149810636Y-46873307D01*
X149805350Y-46881706D01*
X149767255Y-46957897D01*
X149766709Y-46959322D01*
X149766278Y-46959905D01*
X149763350Y-46968098D01*
X149760248Y-46976206D01*
X149760196Y-46976926D01*
X149759683Y-46978365D01*
X149724250Y-47120095D01*
X149698321Y-47171954D01*
X149683174Y-47187100D01*
X149642615Y-47207381D01*
X149613639Y-47207381D01*
X149573076Y-47187100D01*
X149557930Y-47171953D01*
X149537650Y-47131393D01*
X149537650Y-46980750D01*
X149570613Y-46881861D01*
X149574960Y-46862745D01*
X149572194Y-46823825D01*
X149554744Y-46788926D01*
X149525268Y-46763361D01*
X149488252Y-46751023D01*
X149449332Y-46753789D01*
X149414434Y-46771239D01*
X149388868Y-46800715D01*
X149380877Y-46818615D01*
X149342782Y-46932900D01*
X149340582Y-46942571D01*
X149339571Y-46945014D01*
X149339222Y-46948552D01*
X149338435Y-46952016D01*
X149338622Y-46954649D01*
X149337650Y-46964523D01*
X147735403Y-46964523D01*
X147756608Y-46900907D01*
X147758807Y-46891236D01*
X147759819Y-46888794D01*
X147760167Y-46885254D01*
X147760955Y-46881792D01*
X147760767Y-46879158D01*
X147761740Y-46869285D01*
X147761740Y-46793094D01*
X147760767Y-46783220D01*
X147760955Y-46780587D01*
X147760167Y-46777123D01*
X147759819Y-46773585D01*
X147758807Y-46771142D01*
X147756608Y-46761471D01*
X147718513Y-46647186D01*
X147710522Y-46629286D01*
X147708166Y-46626570D01*
X147706792Y-46623252D01*
X147694356Y-46608098D01*
X147656260Y-46570002D01*
X147641106Y-46557566D01*
X147605058Y-46542634D01*
X147566040Y-46542634D01*
X147529992Y-46557566D01*
X147502402Y-46585156D01*
X147487470Y-46621204D01*
X147487470Y-46660222D01*
X147502402Y-46696270D01*
X147514838Y-46711424D01*
X147536242Y-46732828D01*
X147561740Y-46809321D01*
X147561740Y-46853058D01*
X147536242Y-46929552D01*
X147488219Y-46977574D01*
X147436359Y-47003504D01*
X147306573Y-47035952D01*
X147216907Y-47035952D01*
X147087119Y-47003504D01*
X147035261Y-46977575D01*
X146987237Y-46929551D01*
X146961740Y-46853058D01*
X146961740Y-46809321D01*
X146987237Y-46732827D01*
X147008641Y-46711423D01*
X147021078Y-46696269D01*
X147036009Y-46660221D01*
X147036008Y-46621203D01*
X147021076Y-46585155D01*
X146993486Y-46557565D01*
X146957438Y-46542634D01*
X146918420Y-46542635D01*
X146882371Y-46557567D01*
X146867218Y-46570003D01*
X146829123Y-46608099D01*
X146816687Y-46623253D01*
X146815312Y-46626571D01*
X146812958Y-46629286D01*
X146804967Y-46647186D01*
X146766872Y-46761471D01*
X146764672Y-46771142D01*
X146763661Y-46773585D01*
X146763312Y-46777123D01*
X146762525Y-46780587D01*
X146762712Y-46783220D01*
X146761740Y-46793094D01*
X144085830Y-46793094D01*
X144085830Y-46576585D01*
X144186074Y-46576585D01*
X144187751Y-46589778D01*
X144187751Y-46603079D01*
X144190190Y-46608967D01*
X144190994Y-46615292D01*
X144197594Y-46626841D01*
X144202683Y-46639127D01*
X144207190Y-46643634D01*
X144210353Y-46649169D01*
X144220867Y-46657311D01*
X144230273Y-46666717D01*
X144236163Y-46669156D01*
X144241202Y-46673059D01*
X144254030Y-46676557D01*
X144266321Y-46681649D01*
X144276298Y-46682631D01*
X144278845Y-46683326D01*
X144280812Y-46683075D01*
X144285830Y-46683570D01*
X145085830Y-46683570D01*
X145105339Y-46681649D01*
X145141387Y-46666717D01*
X145168977Y-46639127D01*
X145183909Y-46603079D01*
X145183909Y-46564061D01*
X145168977Y-46528013D01*
X145141387Y-46500423D01*
X145105339Y-46485491D01*
X145085830Y-46483570D01*
X144662386Y-46483570D01*
X145135444Y-46213251D01*
X145139554Y-46210332D01*
X145141387Y-46209574D01*
X145143253Y-46207707D01*
X145151429Y-46201904D01*
X145159571Y-46191389D01*
X145168977Y-46181984D01*
X145171416Y-46176093D01*
X145175319Y-46171055D01*
X145178817Y-46158227D01*
X145183909Y-46145936D01*
X145183909Y-46139559D01*
X145185586Y-46133411D01*
X145183909Y-46120217D01*
X145183909Y-46106918D01*
X145181469Y-46101029D01*
X145180666Y-46094705D01*
X145174065Y-46083155D01*
X145168977Y-46070870D01*
X145164469Y-46066362D01*
X145161307Y-46060828D01*
X145150792Y-46052685D01*
X145141387Y-46043280D01*
X145135496Y-46040840D01*
X145130458Y-46036938D01*
X145117629Y-46033439D01*
X145105339Y-46028348D01*
X145095361Y-46027365D01*
X145092815Y-46026671D01*
X145090847Y-46026921D01*
X145085830Y-46026427D01*
X144285830Y-46026427D01*
X144266321Y-46028348D01*
X144230273Y-46043280D01*
X144202683Y-46070870D01*
X144187751Y-46106918D01*
X144187751Y-46145936D01*
X144202683Y-46181984D01*
X144230273Y-46209574D01*
X144266321Y-46224506D01*
X144285830Y-46226427D01*
X144709274Y-46226427D01*
X144236216Y-46496746D01*
X144232105Y-46499664D01*
X144230273Y-46500423D01*
X144228406Y-46502289D01*
X144220231Y-46508093D01*
X144212088Y-46518607D01*
X144202683Y-46528013D01*
X144200243Y-46533903D01*
X144196341Y-46538942D01*
X144192842Y-46551770D01*
X144187751Y-46564061D01*
X144187751Y-46570436D01*
X144186074Y-46576585D01*
X144085830Y-46576585D01*
X144085830Y-45993094D01*
X146761740Y-45993094D01*
X146761740Y-46145475D01*
X146763661Y-46164984D01*
X146765036Y-46168304D01*
X146765291Y-46171887D01*
X146772297Y-46190196D01*
X146810392Y-46266387D01*
X146815677Y-46274783D01*
X146816688Y-46277223D01*
X146818941Y-46279969D01*
X146820835Y-46282977D01*
X146822829Y-46284707D01*
X146829124Y-46292377D01*
X146905314Y-46368567D01*
X146920468Y-46381003D01*
X146927334Y-46383847D01*
X146933310Y-46388275D01*
X146951771Y-46394870D01*
X147104152Y-46432966D01*
X147107533Y-46433466D01*
X147108897Y-46434031D01*
X147116245Y-46434754D01*
X147123544Y-46435834D01*
X147125002Y-46435616D01*
X147128406Y-46435952D01*
X147395073Y-46435952D01*
X147398476Y-46435616D01*
X147399935Y-46435834D01*
X147407233Y-46434754D01*
X147414582Y-46434031D01*
X147415945Y-46433466D01*
X147419327Y-46432966D01*
X147571708Y-46394870D01*
X147590169Y-46388275D01*
X147596142Y-46383848D01*
X147603011Y-46381004D01*
X147618164Y-46368567D01*
X147694355Y-46292377D01*
X147700649Y-46284707D01*
X147702645Y-46282977D01*
X147704536Y-46279971D01*
X147706792Y-46277224D01*
X147707803Y-46274782D01*
X147713088Y-46266387D01*
X147744972Y-46202618D01*
X149337650Y-46202618D01*
X149337650Y-46278809D01*
X149338622Y-46288682D01*
X149338435Y-46291316D01*
X149339222Y-46294779D01*
X149339571Y-46298318D01*
X149340582Y-46300760D01*
X149342782Y-46310432D01*
X149380877Y-46424718D01*
X149388868Y-46442618D01*
X149391223Y-46445333D01*
X149392598Y-46448652D01*
X149405034Y-46463806D01*
X149481224Y-46539996D01*
X149488893Y-46546290D01*
X149490624Y-46548285D01*
X149493631Y-46550178D01*
X149496378Y-46552432D01*
X149498817Y-46553442D01*
X149507214Y-46558728D01*
X149583405Y-46596823D01*
X149584829Y-46597368D01*
X149585411Y-46597799D01*
X149593611Y-46600728D01*
X149601714Y-46603829D01*
X149602433Y-46603880D01*
X149603872Y-46604394D01*
X149756253Y-46642490D01*
X149759634Y-46642990D01*
X149760998Y-46643555D01*
X149768346Y-46644278D01*
X149775645Y-46645358D01*
X149777103Y-46645140D01*
X149780507Y-46645476D01*
X149894793Y-46645476D01*
X149898196Y-46645140D01*
X149899655Y-46645358D01*
X149906953Y-46644278D01*
X149914302Y-46643555D01*
X149915665Y-46642990D01*
X149919047Y-46642490D01*
X150071428Y-46604394D01*
X150072866Y-46603880D01*
X150073587Y-46603829D01*
X150081697Y-46600725D01*
X150089889Y-46597799D01*
X150090470Y-46597368D01*
X150091895Y-46596823D01*
X150168085Y-46558728D01*
X150176479Y-46553444D01*
X150178921Y-46552433D01*
X150181668Y-46550178D01*
X150184676Y-46548285D01*
X150186407Y-46546288D01*
X150194074Y-46539996D01*
X150270265Y-46463806D01*
X150282702Y-46448653D01*
X150284077Y-46445333D01*
X150286432Y-46442618D01*
X150294423Y-46424718D01*
X150324011Y-46335951D01*
X151913560Y-46335951D01*
X151913560Y-46526427D01*
X151915481Y-46545936D01*
X151930413Y-46581984D01*
X151958003Y-46609574D01*
X151994051Y-46624506D01*
X152013560Y-46626427D01*
X152813560Y-46626427D01*
X152833069Y-46624506D01*
X152869117Y-46609574D01*
X152896707Y-46581984D01*
X152911639Y-46545936D01*
X152913560Y-46526427D01*
X152913560Y-46335951D01*
X152912587Y-46326077D01*
X152912775Y-46323444D01*
X152911987Y-46319981D01*
X152911639Y-46316442D01*
X152910627Y-46313999D01*
X152908428Y-46304329D01*
X152870333Y-46190042D01*
X152862342Y-46172142D01*
X152859987Y-46169426D01*
X152858612Y-46166107D01*
X152846175Y-46150954D01*
X152769984Y-46074764D01*
X152762317Y-46068471D01*
X152760586Y-46066475D01*
X152757578Y-46064581D01*
X152754831Y-46062327D01*
X152752389Y-46061315D01*
X152743995Y-46056032D01*
X152667805Y-46017937D01*
X152666380Y-46017391D01*
X152665799Y-46016961D01*
X152657607Y-46014034D01*
X152649497Y-46010931D01*
X152648776Y-46010879D01*
X152647338Y-46010366D01*
X152494957Y-45972270D01*
X152491575Y-45971769D01*
X152490212Y-45971205D01*
X152482863Y-45970481D01*
X152475565Y-45969402D01*
X152474106Y-45969619D01*
X152470703Y-45969284D01*
X152356417Y-45969284D01*
X152353013Y-45969619D01*
X152351555Y-45969402D01*
X152344256Y-45970481D01*
X152336908Y-45971205D01*
X152335544Y-45971769D01*
X152332163Y-45972270D01*
X152179782Y-46010366D01*
X152178343Y-46010879D01*
X152177624Y-46010931D01*
X152169521Y-46014031D01*
X152161321Y-46016961D01*
X152160739Y-46017391D01*
X152159315Y-46017937D01*
X152083124Y-46056032D01*
X152074727Y-46061317D01*
X152072288Y-46062328D01*
X152069541Y-46064581D01*
X152066534Y-46066475D01*
X152064803Y-46068469D01*
X152057134Y-46074764D01*
X151980944Y-46150954D01*
X151968508Y-46166108D01*
X151967133Y-46169426D01*
X151964778Y-46172142D01*
X151956787Y-46190042D01*
X151918692Y-46304328D01*
X151916492Y-46313999D01*
X151915481Y-46316442D01*
X151915132Y-46319980D01*
X151914345Y-46323444D01*
X151914532Y-46326077D01*
X151913560Y-46335951D01*
X150324011Y-46335951D01*
X150332518Y-46310431D01*
X150334717Y-46300760D01*
X150335729Y-46298318D01*
X150336077Y-46294778D01*
X150336865Y-46291316D01*
X150336677Y-46288682D01*
X150337650Y-46278809D01*
X150337650Y-46202618D01*
X150336677Y-46192744D01*
X150336865Y-46190111D01*
X150336077Y-46186647D01*
X150335729Y-46183109D01*
X150334717Y-46180666D01*
X150332518Y-46170995D01*
X150294423Y-46056710D01*
X150286432Y-46038810D01*
X150284076Y-46036094D01*
X150282702Y-46032776D01*
X150270266Y-46017622D01*
X150232170Y-45979526D01*
X150217016Y-45967090D01*
X150180968Y-45952158D01*
X150141950Y-45952158D01*
X150105902Y-45967090D01*
X150078312Y-45994680D01*
X150063380Y-46030728D01*
X150063380Y-46069746D01*
X150078312Y-46105794D01*
X150090748Y-46120948D01*
X150112152Y-46142352D01*
X150137650Y-46218845D01*
X150137650Y-46262582D01*
X150112152Y-46339076D01*
X150064129Y-46387098D01*
X150012269Y-46413028D01*
X149882483Y-46445476D01*
X149792817Y-46445476D01*
X149663029Y-46413028D01*
X149611171Y-46387099D01*
X149563147Y-46339075D01*
X149537650Y-46262582D01*
X149537650Y-46218845D01*
X149563147Y-46142351D01*
X149584551Y-46120947D01*
X149596988Y-46105793D01*
X149611919Y-46069745D01*
X149611918Y-46030727D01*
X149596986Y-45994679D01*
X149569396Y-45967089D01*
X149533348Y-45952158D01*
X149494330Y-45952159D01*
X149458281Y-45967091D01*
X149443128Y-45979527D01*
X149405033Y-46017623D01*
X149392597Y-46032777D01*
X149391222Y-46036095D01*
X149388868Y-46038810D01*
X149380877Y-46056710D01*
X149342782Y-46170995D01*
X149340582Y-46180666D01*
X149339571Y-46183109D01*
X149339222Y-46186647D01*
X149338435Y-46190111D01*
X149338622Y-46192744D01*
X149337650Y-46202618D01*
X147744972Y-46202618D01*
X147751183Y-46190196D01*
X147758189Y-46171887D01*
X147758443Y-46168304D01*
X147759819Y-46164984D01*
X147761740Y-46145475D01*
X147761740Y-45993094D01*
X147759819Y-45973585D01*
X147758443Y-45970264D01*
X147758189Y-45966681D01*
X147751183Y-45948373D01*
X147713088Y-45872183D01*
X147707802Y-45863786D01*
X147706792Y-45861346D01*
X147704538Y-45858600D01*
X147702645Y-45855592D01*
X147700647Y-45853859D01*
X147694355Y-45846193D01*
X147618165Y-45770002D01*
X147603011Y-45757566D01*
X147596143Y-45754721D01*
X147590168Y-45750294D01*
X147571708Y-45743699D01*
X147419326Y-45705604D01*
X147415946Y-45705104D01*
X147414582Y-45704539D01*
X147407230Y-45703815D01*
X147399934Y-45702736D01*
X147398475Y-45702953D01*
X147395073Y-45702618D01*
X147128406Y-45702618D01*
X147125003Y-45702953D01*
X147123545Y-45702736D01*
X147116248Y-45703815D01*
X147108897Y-45704539D01*
X147107532Y-45705104D01*
X147104153Y-45705604D01*
X146951772Y-45743699D01*
X146933311Y-45750294D01*
X146927337Y-45754720D01*
X146920467Y-45757566D01*
X146905314Y-45770003D01*
X146829124Y-45846194D01*
X146822831Y-45853860D01*
X146820835Y-45855592D01*
X146818941Y-45858599D01*
X146816687Y-45861347D01*
X146815675Y-45863788D01*
X146810392Y-45872183D01*
X146772297Y-45948373D01*
X146765291Y-45966681D01*
X146765036Y-45970264D01*
X146763661Y-45973585D01*
X146761740Y-45993094D01*
X144085830Y-45993094D01*
X144085830Y-45554999D01*
X144185830Y-45554999D01*
X144185830Y-45745475D01*
X144187751Y-45764984D01*
X144202683Y-45801032D01*
X144230273Y-45828622D01*
X144266321Y-45843554D01*
X144285830Y-45845475D01*
X145085830Y-45845475D01*
X145105339Y-45843554D01*
X145141387Y-45828622D01*
X145168977Y-45801032D01*
X145183909Y-45764984D01*
X145185830Y-45745475D01*
X145185830Y-45687871D01*
X149339571Y-45687871D01*
X149339571Y-45726889D01*
X149354503Y-45762937D01*
X149382093Y-45790527D01*
X149418141Y-45805459D01*
X149437650Y-45807380D01*
X150237650Y-45807380D01*
X150257159Y-45805459D01*
X150293207Y-45790527D01*
X150320797Y-45762937D01*
X150335729Y-45726889D01*
X150337650Y-45707380D01*
X150337650Y-45561539D01*
X151914345Y-45561539D01*
X151915233Y-45574046D01*
X151914345Y-45586553D01*
X151916604Y-45593331D01*
X151917111Y-45600459D01*
X151922717Y-45611670D01*
X151926683Y-45623569D01*
X151931367Y-45628969D01*
X151934561Y-45635357D01*
X151944030Y-45643570D01*
X151952248Y-45653045D01*
X151958637Y-45656239D01*
X151964037Y-45660923D01*
X151981937Y-45668914D01*
X152781937Y-45935581D01*
X152801052Y-45939928D01*
X152839972Y-45937162D01*
X152874871Y-45919712D01*
X152900436Y-45890236D01*
X152912775Y-45853220D01*
X152910009Y-45814300D01*
X152892559Y-45779401D01*
X152863083Y-45753836D01*
X152845183Y-45745845D01*
X152684988Y-45692446D01*
X152684988Y-45455646D01*
X152845183Y-45402248D01*
X152863083Y-45394257D01*
X152892560Y-45368692D01*
X152910009Y-45333793D01*
X152912775Y-45294873D01*
X152900437Y-45257857D01*
X152874872Y-45228381D01*
X152839973Y-45210931D01*
X152801053Y-45208165D01*
X152781937Y-45212512D01*
X151981937Y-45479178D01*
X151964037Y-45487169D01*
X151958636Y-45491853D01*
X151952249Y-45495047D01*
X151944035Y-45504516D01*
X151934561Y-45512734D01*
X151931366Y-45519123D01*
X151926683Y-45524523D01*
X151922717Y-45536420D01*
X151917111Y-45547633D01*
X151916604Y-45554760D01*
X151914345Y-45561539D01*
X150337650Y-45561539D01*
X150337650Y-45326428D01*
X150335729Y-45306919D01*
X150320797Y-45270871D01*
X150293207Y-45243281D01*
X150257159Y-45228349D01*
X150218141Y-45228349D01*
X150182093Y-45243281D01*
X150154503Y-45270871D01*
X150139571Y-45306919D01*
X150137650Y-45326428D01*
X150137650Y-45607380D01*
X149437650Y-45607380D01*
X149418141Y-45609301D01*
X149382093Y-45624233D01*
X149354503Y-45651823D01*
X149339571Y-45687871D01*
X145185830Y-45687871D01*
X145185830Y-45554999D01*
X145184857Y-45545125D01*
X145185045Y-45542492D01*
X145184257Y-45539029D01*
X145183909Y-45535490D01*
X145182897Y-45533047D01*
X145180698Y-45523377D01*
X145142603Y-45409090D01*
X145134612Y-45391190D01*
X145132257Y-45388474D01*
X145130882Y-45385155D01*
X145118445Y-45370002D01*
X145042254Y-45293812D01*
X145034587Y-45287519D01*
X145032856Y-45285523D01*
X145029848Y-45283629D01*
X145027101Y-45281375D01*
X145024659Y-45280363D01*
X145016265Y-45275080D01*
X144940075Y-45236985D01*
X144938650Y-45236439D01*
X144938069Y-45236009D01*
X144929877Y-45233082D01*
X144921767Y-45229979D01*
X144921046Y-45229927D01*
X144919608Y-45229414D01*
X144767227Y-45191318D01*
X144763845Y-45190817D01*
X144762482Y-45190253D01*
X144755133Y-45189529D01*
X144747835Y-45188450D01*
X144746376Y-45188667D01*
X144742973Y-45188332D01*
X144628687Y-45188332D01*
X144625283Y-45188667D01*
X144623825Y-45188450D01*
X144616526Y-45189529D01*
X144609178Y-45190253D01*
X144607814Y-45190817D01*
X144604433Y-45191318D01*
X144452052Y-45229414D01*
X144450613Y-45229927D01*
X144449894Y-45229979D01*
X144441791Y-45233079D01*
X144433591Y-45236009D01*
X144433009Y-45236439D01*
X144431585Y-45236985D01*
X144355394Y-45275080D01*
X144346997Y-45280365D01*
X144344558Y-45281376D01*
X144341811Y-45283629D01*
X144338804Y-45285523D01*
X144337073Y-45287517D01*
X144329404Y-45293812D01*
X144253214Y-45370002D01*
X144240778Y-45385156D01*
X144239403Y-45388474D01*
X144237048Y-45391190D01*
X144229057Y-45409090D01*
X144190962Y-45523376D01*
X144188762Y-45533047D01*
X144187751Y-45535490D01*
X144187402Y-45539028D01*
X144186615Y-45542492D01*
X144186802Y-45545125D01*
X144185830Y-45554999D01*
X144085830Y-45554999D01*
X144085830Y-44941611D01*
X146762899Y-44941611D01*
X146763661Y-44943706D01*
X146763661Y-44945937D01*
X146770301Y-44961967D01*
X146776233Y-44978280D01*
X146777739Y-44979925D01*
X146778593Y-44981985D01*
X146790860Y-44994252D01*
X146802585Y-45007055D01*
X146805229Y-45008621D01*
X146806183Y-45009575D01*
X146808364Y-45010478D01*
X146819451Y-45017046D01*
X147196697Y-45193094D01*
X146819452Y-45369143D01*
X146808365Y-45375709D01*
X146806183Y-45376614D01*
X146805229Y-45377567D01*
X146802585Y-45379134D01*
X146790866Y-45391930D01*
X146778593Y-45404204D01*
X146777739Y-45406265D01*
X146776234Y-45407909D01*
X146770305Y-45424210D01*
X146763661Y-45440252D01*
X146763661Y-45442482D01*
X146762899Y-45444578D01*
X146763661Y-45461917D01*
X146763661Y-45479270D01*
X146764514Y-45481329D01*
X146764612Y-45483558D01*
X146771953Y-45499288D01*
X146778593Y-45515318D01*
X146780169Y-45516894D01*
X146781113Y-45518916D01*
X146793909Y-45530634D01*
X146806183Y-45542908D01*
X146808244Y-45543761D01*
X146809888Y-45545267D01*
X146826189Y-45551195D01*
X146842231Y-45557840D01*
X146845289Y-45558141D01*
X146846557Y-45558602D01*
X146848916Y-45558498D01*
X146861740Y-45559761D01*
X147661740Y-45559761D01*
X147681249Y-45557840D01*
X147717297Y-45542908D01*
X147744887Y-45515318D01*
X147759819Y-45479270D01*
X147759819Y-45440252D01*
X147744887Y-45404204D01*
X147717297Y-45376614D01*
X147681249Y-45361682D01*
X147661740Y-45359761D01*
X147312496Y-45359761D01*
X147475457Y-45283713D01*
X147482598Y-45279482D01*
X147485020Y-45278602D01*
X147486732Y-45277033D01*
X147492323Y-45273722D01*
X147502587Y-45262514D01*
X147513795Y-45252250D01*
X147515673Y-45248224D01*
X147518675Y-45244947D01*
X147523867Y-45230667D01*
X147530296Y-45216893D01*
X147530491Y-45212452D01*
X147532009Y-45208278D01*
X147531341Y-45193095D01*
X147532009Y-45177912D01*
X147530491Y-45173737D01*
X147530296Y-45169297D01*
X147523866Y-45155518D01*
X147518675Y-45141243D01*
X147515675Y-45137967D01*
X147513796Y-45133940D01*
X147502581Y-45123670D01*
X147492323Y-45112468D01*
X147486735Y-45109158D01*
X147485021Y-45107588D01*
X147482596Y-45106706D01*
X147475457Y-45102477D01*
X147312495Y-45026428D01*
X147661740Y-45026428D01*
X147681249Y-45024507D01*
X147717297Y-45009575D01*
X147744887Y-44981985D01*
X147759819Y-44945937D01*
X147759819Y-44906919D01*
X147744887Y-44870871D01*
X147717297Y-44843281D01*
X147681249Y-44828349D01*
X147661740Y-44826428D01*
X146861740Y-44826428D01*
X146848916Y-44827690D01*
X146846557Y-44827587D01*
X146845289Y-44828047D01*
X146842231Y-44828349D01*
X146826200Y-44834989D01*
X146809888Y-44840921D01*
X146808242Y-44842427D01*
X146806183Y-44843281D01*
X146793915Y-44855548D01*
X146781113Y-44867273D01*
X146780169Y-44869294D01*
X146778593Y-44870871D01*
X146771955Y-44886895D01*
X146764612Y-44902630D01*
X146764514Y-44904859D01*
X146763661Y-44906919D01*
X146763661Y-44924270D01*
X146762899Y-44941611D01*
X144085830Y-44941611D01*
X144085830Y-44726428D01*
X153013560Y-44726428D01*
X153013560Y-48097071D01*
G37*
D11*
X154855057Y-57245238D02*
X154807438Y-57340476D01*
X154807438Y-57340476D02*
X154712200Y-57435714D01*
X154712200Y-57435714D02*
X154569342Y-57578571D01*
X154569342Y-57578571D02*
X154521723Y-57673809D01*
X154521723Y-57673809D02*
X154521723Y-57769047D01*
X154759819Y-57721428D02*
X154712200Y-57816666D01*
X154712200Y-57816666D02*
X154616961Y-57911904D01*
X154616961Y-57911904D02*
X154426485Y-57959523D01*
X154426485Y-57959523D02*
X154093152Y-57959523D01*
X154093152Y-57959523D02*
X153902676Y-57911904D01*
X153902676Y-57911904D02*
X153807438Y-57816666D01*
X153807438Y-57816666D02*
X153759819Y-57721428D01*
X153759819Y-57721428D02*
X153759819Y-57530952D01*
X153759819Y-57530952D02*
X153807438Y-57435714D01*
X153807438Y-57435714D02*
X153902676Y-57340476D01*
X153902676Y-57340476D02*
X154093152Y-57292857D01*
X154093152Y-57292857D02*
X154426485Y-57292857D01*
X154426485Y-57292857D02*
X154616961Y-57340476D01*
X154616961Y-57340476D02*
X154712200Y-57435714D01*
X154712200Y-57435714D02*
X154759819Y-57530952D01*
X154759819Y-57530952D02*
X154759819Y-57721428D01*
X154188390Y-56721428D02*
X154140771Y-56816666D01*
X154140771Y-56816666D02*
X154093152Y-56864285D01*
X154093152Y-56864285D02*
X153997914Y-56911904D01*
X153997914Y-56911904D02*
X153950295Y-56911904D01*
X153950295Y-56911904D02*
X153855057Y-56864285D01*
X153855057Y-56864285D02*
X153807438Y-56816666D01*
X153807438Y-56816666D02*
X153759819Y-56721428D01*
X153759819Y-56721428D02*
X153759819Y-56530952D01*
X153759819Y-56530952D02*
X153807438Y-56435714D01*
X153807438Y-56435714D02*
X153855057Y-56388095D01*
X153855057Y-56388095D02*
X153950295Y-56340476D01*
X153950295Y-56340476D02*
X153997914Y-56340476D01*
X153997914Y-56340476D02*
X154093152Y-56388095D01*
X154093152Y-56388095D02*
X154140771Y-56435714D01*
X154140771Y-56435714D02*
X154188390Y-56530952D01*
X154188390Y-56530952D02*
X154188390Y-56721428D01*
X154188390Y-56721428D02*
X154236009Y-56816666D01*
X154236009Y-56816666D02*
X154283628Y-56864285D01*
X154283628Y-56864285D02*
X154378866Y-56911904D01*
X154378866Y-56911904D02*
X154569342Y-56911904D01*
X154569342Y-56911904D02*
X154664580Y-56864285D01*
X154664580Y-56864285D02*
X154712200Y-56816666D01*
X154712200Y-56816666D02*
X154759819Y-56721428D01*
X154759819Y-56721428D02*
X154759819Y-56530952D01*
X154759819Y-56530952D02*
X154712200Y-56435714D01*
X154712200Y-56435714D02*
X154664580Y-56388095D01*
X154664580Y-56388095D02*
X154569342Y-56340476D01*
X154569342Y-56340476D02*
X154378866Y-56340476D01*
X154378866Y-56340476D02*
X154283628Y-56388095D01*
X154283628Y-56388095D02*
X154236009Y-56435714D01*
X154236009Y-56435714D02*
X154188390Y-56530952D01*
X165554819Y-67984666D02*
X165078628Y-68317999D01*
X165554819Y-68556094D02*
X164554819Y-68556094D01*
X164554819Y-68556094D02*
X164554819Y-68175142D01*
X164554819Y-68175142D02*
X164602438Y-68079904D01*
X164602438Y-68079904D02*
X164650057Y-68032285D01*
X164650057Y-68032285D02*
X164745295Y-67984666D01*
X164745295Y-67984666D02*
X164888152Y-67984666D01*
X164888152Y-67984666D02*
X164983390Y-68032285D01*
X164983390Y-68032285D02*
X165031009Y-68079904D01*
X165031009Y-68079904D02*
X165078628Y-68175142D01*
X165078628Y-68175142D02*
X165078628Y-68556094D01*
X165554819Y-67032285D02*
X165554819Y-67603713D01*
X165554819Y-67317999D02*
X164554819Y-67317999D01*
X164554819Y-67317999D02*
X164697676Y-67413237D01*
X164697676Y-67413237D02*
X164792914Y-67508475D01*
X164792914Y-67508475D02*
X164840533Y-67603713D01*
X132895169Y-69649693D02*
X132827825Y-69649693D01*
X132827825Y-69649693D02*
X132693138Y-69582349D01*
X132693138Y-69582349D02*
X132625795Y-69515006D01*
X132625795Y-69515006D02*
X132558451Y-69380319D01*
X132558451Y-69380319D02*
X132558451Y-69245632D01*
X132558451Y-69245632D02*
X132592123Y-69144617D01*
X132592123Y-69144617D02*
X132693138Y-68976258D01*
X132693138Y-68976258D02*
X132794153Y-68875243D01*
X132794153Y-68875243D02*
X132962512Y-68774227D01*
X132962512Y-68774227D02*
X133063527Y-68740556D01*
X133063527Y-68740556D02*
X133198214Y-68740556D01*
X133198214Y-68740556D02*
X133332901Y-68807899D01*
X133332901Y-68807899D02*
X133400245Y-68875243D01*
X133400245Y-68875243D02*
X133467588Y-69009930D01*
X133467588Y-69009930D02*
X133467588Y-69077273D01*
X133736962Y-69346647D02*
X133804306Y-69346647D01*
X133804306Y-69346647D02*
X133905321Y-69380319D01*
X133905321Y-69380319D02*
X134073680Y-69548678D01*
X134073680Y-69548678D02*
X134107352Y-69649693D01*
X134107352Y-69649693D02*
X134107352Y-69717036D01*
X134107352Y-69717036D02*
X134073680Y-69818052D01*
X134073680Y-69818052D02*
X134006336Y-69885395D01*
X134006336Y-69885395D02*
X133871649Y-69952739D01*
X133871649Y-69952739D02*
X133063527Y-69952739D01*
X133063527Y-69952739D02*
X133501260Y-70390471D01*
X134646100Y-70121098D02*
X134713443Y-70188441D01*
X134713443Y-70188441D02*
X134747115Y-70289456D01*
X134747115Y-70289456D02*
X134747115Y-70356800D01*
X134747115Y-70356800D02*
X134713443Y-70457815D01*
X134713443Y-70457815D02*
X134612428Y-70626174D01*
X134612428Y-70626174D02*
X134444069Y-70794533D01*
X134444069Y-70794533D02*
X134275711Y-70895548D01*
X134275711Y-70895548D02*
X134174695Y-70929220D01*
X134174695Y-70929220D02*
X134107352Y-70929220D01*
X134107352Y-70929220D02*
X134006337Y-70895548D01*
X134006337Y-70895548D02*
X133938993Y-70828204D01*
X133938993Y-70828204D02*
X133905321Y-70727189D01*
X133905321Y-70727189D02*
X133905321Y-70659846D01*
X133905321Y-70659846D02*
X133938993Y-70558830D01*
X133938993Y-70558830D02*
X134040008Y-70390472D01*
X134040008Y-70390472D02*
X134208367Y-70222113D01*
X134208367Y-70222113D02*
X134376726Y-70121098D01*
X134376726Y-70121098D02*
X134477741Y-70087426D01*
X134477741Y-70087426D02*
X134545085Y-70087426D01*
X134545085Y-70087426D02*
X134646100Y-70121098D01*
X131752169Y-70792693D02*
X131684825Y-70792693D01*
X131684825Y-70792693D02*
X131550138Y-70725349D01*
X131550138Y-70725349D02*
X131482795Y-70658006D01*
X131482795Y-70658006D02*
X131415451Y-70523319D01*
X131415451Y-70523319D02*
X131415451Y-70388632D01*
X131415451Y-70388632D02*
X131449123Y-70287617D01*
X131449123Y-70287617D02*
X131550138Y-70119258D01*
X131550138Y-70119258D02*
X131651153Y-70018243D01*
X131651153Y-70018243D02*
X131819512Y-69917227D01*
X131819512Y-69917227D02*
X131920527Y-69883556D01*
X131920527Y-69883556D02*
X132055214Y-69883556D01*
X132055214Y-69883556D02*
X132189901Y-69950899D01*
X132189901Y-69950899D02*
X132257245Y-70018243D01*
X132257245Y-70018243D02*
X132324588Y-70152930D01*
X132324588Y-70152930D02*
X132324588Y-70220273D01*
X132358260Y-71533471D02*
X131954199Y-71129410D01*
X132156230Y-71331441D02*
X132863336Y-70624334D01*
X132863336Y-70624334D02*
X132694978Y-70658006D01*
X132694978Y-70658006D02*
X132560291Y-70658006D01*
X132560291Y-70658006D02*
X132459275Y-70624334D01*
X133705130Y-71466128D02*
X133368413Y-71129410D01*
X133368413Y-71129410D02*
X132998024Y-71432456D01*
X132998024Y-71432456D02*
X133065367Y-71432456D01*
X133065367Y-71432456D02*
X133166382Y-71466128D01*
X133166382Y-71466128D02*
X133334741Y-71634487D01*
X133334741Y-71634487D02*
X133368413Y-71735502D01*
X133368413Y-71735502D02*
X133368413Y-71802846D01*
X133368413Y-71802846D02*
X133334741Y-71903861D01*
X133334741Y-71903861D02*
X133166382Y-72072220D01*
X133166382Y-72072220D02*
X133065367Y-72105891D01*
X133065367Y-72105891D02*
X132998024Y-72105891D01*
X132998024Y-72105891D02*
X132897008Y-72072220D01*
X132897008Y-72072220D02*
X132728650Y-71903861D01*
X132728650Y-71903861D02*
X132694978Y-71802846D01*
X132694978Y-71802846D02*
X132694978Y-71735502D01*
X145470057Y-57547739D02*
X145422438Y-57642977D01*
X145422438Y-57642977D02*
X145327200Y-57738215D01*
X145327200Y-57738215D02*
X145184342Y-57881072D01*
X145184342Y-57881072D02*
X145136723Y-57976310D01*
X145136723Y-57976310D02*
X145136723Y-58071548D01*
X145374819Y-58023929D02*
X145327200Y-58119167D01*
X145327200Y-58119167D02*
X145231961Y-58214405D01*
X145231961Y-58214405D02*
X145041485Y-58262024D01*
X145041485Y-58262024D02*
X144708152Y-58262024D01*
X144708152Y-58262024D02*
X144517676Y-58214405D01*
X144517676Y-58214405D02*
X144422438Y-58119167D01*
X144422438Y-58119167D02*
X144374819Y-58023929D01*
X144374819Y-58023929D02*
X144374819Y-57833453D01*
X144374819Y-57833453D02*
X144422438Y-57738215D01*
X144422438Y-57738215D02*
X144517676Y-57642977D01*
X144517676Y-57642977D02*
X144708152Y-57595358D01*
X144708152Y-57595358D02*
X145041485Y-57595358D01*
X145041485Y-57595358D02*
X145231961Y-57642977D01*
X145231961Y-57642977D02*
X145327200Y-57738215D01*
X145327200Y-57738215D02*
X145374819Y-57833453D01*
X145374819Y-57833453D02*
X145374819Y-58023929D01*
X144374819Y-57262024D02*
X144374819Y-56595358D01*
X144374819Y-56595358D02*
X145374819Y-57023929D01*
X142726580Y-89148856D02*
X142774200Y-89196475D01*
X142774200Y-89196475D02*
X142821819Y-89339332D01*
X142821819Y-89339332D02*
X142821819Y-89434570D01*
X142821819Y-89434570D02*
X142774200Y-89577427D01*
X142774200Y-89577427D02*
X142678961Y-89672665D01*
X142678961Y-89672665D02*
X142583723Y-89720284D01*
X142583723Y-89720284D02*
X142393247Y-89767903D01*
X142393247Y-89767903D02*
X142250390Y-89767903D01*
X142250390Y-89767903D02*
X142059914Y-89720284D01*
X142059914Y-89720284D02*
X141964676Y-89672665D01*
X141964676Y-89672665D02*
X141869438Y-89577427D01*
X141869438Y-89577427D02*
X141821819Y-89434570D01*
X141821819Y-89434570D02*
X141821819Y-89339332D01*
X141821819Y-89339332D02*
X141869438Y-89196475D01*
X141869438Y-89196475D02*
X141917057Y-89148856D01*
X142821819Y-88196475D02*
X142821819Y-88767903D01*
X142821819Y-88482189D02*
X141821819Y-88482189D01*
X141821819Y-88482189D02*
X141964676Y-88577427D01*
X141964676Y-88577427D02*
X142059914Y-88672665D01*
X142059914Y-88672665D02*
X142107533Y-88767903D01*
X142155152Y-87339332D02*
X142821819Y-87339332D01*
X141774200Y-87577427D02*
X142488485Y-87815522D01*
X142488485Y-87815522D02*
X142488485Y-87196475D01*
X130355168Y-72062693D02*
X130287824Y-72062693D01*
X130287824Y-72062693D02*
X130153137Y-71995349D01*
X130153137Y-71995349D02*
X130085794Y-71928006D01*
X130085794Y-71928006D02*
X130018450Y-71793319D01*
X130018450Y-71793319D02*
X130018450Y-71658632D01*
X130018450Y-71658632D02*
X130052122Y-71557617D01*
X130052122Y-71557617D02*
X130153137Y-71389258D01*
X130153137Y-71389258D02*
X130254152Y-71288243D01*
X130254152Y-71288243D02*
X130422511Y-71187227D01*
X130422511Y-71187227D02*
X130523526Y-71153556D01*
X130523526Y-71153556D02*
X130658213Y-71153556D01*
X130658213Y-71153556D02*
X130792900Y-71220899D01*
X130792900Y-71220899D02*
X130860244Y-71288243D01*
X130860244Y-71288243D02*
X130927587Y-71422930D01*
X130927587Y-71422930D02*
X130927587Y-71490273D01*
X130961259Y-72803471D02*
X130557198Y-72399410D01*
X130759229Y-72601441D02*
X131466335Y-71894334D01*
X131466335Y-71894334D02*
X131297977Y-71928006D01*
X131297977Y-71928006D02*
X131163290Y-71928006D01*
X131163290Y-71928006D02*
X131062274Y-71894334D01*
X131904068Y-72332067D02*
X132375473Y-72803472D01*
X132375473Y-72803472D02*
X131365320Y-73207533D01*
X155567142Y-70812819D02*
X155233809Y-70336628D01*
X154995714Y-70812819D02*
X154995714Y-69812819D01*
X154995714Y-69812819D02*
X155376666Y-69812819D01*
X155376666Y-69812819D02*
X155471904Y-69860438D01*
X155471904Y-69860438D02*
X155519523Y-69908057D01*
X155519523Y-69908057D02*
X155567142Y-70003295D01*
X155567142Y-70003295D02*
X155567142Y-70146152D01*
X155567142Y-70146152D02*
X155519523Y-70241390D01*
X155519523Y-70241390D02*
X155471904Y-70289009D01*
X155471904Y-70289009D02*
X155376666Y-70336628D01*
X155376666Y-70336628D02*
X154995714Y-70336628D01*
X155948095Y-69908057D02*
X155995714Y-69860438D01*
X155995714Y-69860438D02*
X156090952Y-69812819D01*
X156090952Y-69812819D02*
X156329047Y-69812819D01*
X156329047Y-69812819D02*
X156424285Y-69860438D01*
X156424285Y-69860438D02*
X156471904Y-69908057D01*
X156471904Y-69908057D02*
X156519523Y-70003295D01*
X156519523Y-70003295D02*
X156519523Y-70098533D01*
X156519523Y-70098533D02*
X156471904Y-70241390D01*
X156471904Y-70241390D02*
X155900476Y-70812819D01*
X155900476Y-70812819D02*
X156519523Y-70812819D01*
X157376666Y-70146152D02*
X157376666Y-70812819D01*
X157138571Y-69765200D02*
X156900476Y-70479485D01*
X156900476Y-70479485D02*
X157519523Y-70479485D01*
X155567142Y-65224819D02*
X155233809Y-64748628D01*
X154995714Y-65224819D02*
X154995714Y-64224819D01*
X154995714Y-64224819D02*
X155376666Y-64224819D01*
X155376666Y-64224819D02*
X155471904Y-64272438D01*
X155471904Y-64272438D02*
X155519523Y-64320057D01*
X155519523Y-64320057D02*
X155567142Y-64415295D01*
X155567142Y-64415295D02*
X155567142Y-64558152D01*
X155567142Y-64558152D02*
X155519523Y-64653390D01*
X155519523Y-64653390D02*
X155471904Y-64701009D01*
X155471904Y-64701009D02*
X155376666Y-64748628D01*
X155376666Y-64748628D02*
X154995714Y-64748628D01*
X155948095Y-64320057D02*
X155995714Y-64272438D01*
X155995714Y-64272438D02*
X156090952Y-64224819D01*
X156090952Y-64224819D02*
X156329047Y-64224819D01*
X156329047Y-64224819D02*
X156424285Y-64272438D01*
X156424285Y-64272438D02*
X156471904Y-64320057D01*
X156471904Y-64320057D02*
X156519523Y-64415295D01*
X156519523Y-64415295D02*
X156519523Y-64510533D01*
X156519523Y-64510533D02*
X156471904Y-64653390D01*
X156471904Y-64653390D02*
X155900476Y-65224819D01*
X155900476Y-65224819D02*
X156519523Y-65224819D01*
X157424285Y-64224819D02*
X156948095Y-64224819D01*
X156948095Y-64224819D02*
X156900476Y-64701009D01*
X156900476Y-64701009D02*
X156948095Y-64653390D01*
X156948095Y-64653390D02*
X157043333Y-64605771D01*
X157043333Y-64605771D02*
X157281428Y-64605771D01*
X157281428Y-64605771D02*
X157376666Y-64653390D01*
X157376666Y-64653390D02*
X157424285Y-64701009D01*
X157424285Y-64701009D02*
X157471904Y-64796247D01*
X157471904Y-64796247D02*
X157471904Y-65034342D01*
X157471904Y-65034342D02*
X157424285Y-65129580D01*
X157424285Y-65129580D02*
X157376666Y-65177200D01*
X157376666Y-65177200D02*
X157281428Y-65224819D01*
X157281428Y-65224819D02*
X157043333Y-65224819D01*
X157043333Y-65224819D02*
X156948095Y-65177200D01*
X156948095Y-65177200D02*
X156900476Y-65129580D01*
X168364819Y-75263333D02*
X169079104Y-75263333D01*
X169079104Y-75263333D02*
X169221961Y-75310952D01*
X169221961Y-75310952D02*
X169317200Y-75406190D01*
X169317200Y-75406190D02*
X169364819Y-75549047D01*
X169364819Y-75549047D02*
X169364819Y-75644285D01*
X168698152Y-74358571D02*
X169364819Y-74358571D01*
X168317200Y-74596666D02*
X169031485Y-74834761D01*
X169031485Y-74834761D02*
X169031485Y-74215714D01*
X147747328Y-72917175D02*
X147174908Y-73489595D01*
X147174908Y-73489595D02*
X147141236Y-73590610D01*
X147141236Y-73590610D02*
X147141236Y-73657954D01*
X147141236Y-73657954D02*
X147174908Y-73758969D01*
X147174908Y-73758969D02*
X147309595Y-73893656D01*
X147309595Y-73893656D02*
X147410610Y-73927328D01*
X147410610Y-73927328D02*
X147477954Y-73927328D01*
X147477954Y-73927328D02*
X147578969Y-73893656D01*
X147578969Y-73893656D02*
X148151389Y-73321236D01*
X148387091Y-73691626D02*
X148454434Y-73691626D01*
X148454434Y-73691626D02*
X148555450Y-73725297D01*
X148555450Y-73725297D02*
X148723808Y-73893656D01*
X148723808Y-73893656D02*
X148757480Y-73994671D01*
X148757480Y-73994671D02*
X148757480Y-74062015D01*
X148757480Y-74062015D02*
X148723808Y-74163030D01*
X148723808Y-74163030D02*
X148656465Y-74230374D01*
X148656465Y-74230374D02*
X148521778Y-74297717D01*
X148521778Y-74297717D02*
X147713656Y-74297717D01*
X147713656Y-74297717D02*
X148151389Y-74735450D01*
X148676095Y-64330819D02*
X148676095Y-65140342D01*
X148676095Y-65140342D02*
X148723714Y-65235580D01*
X148723714Y-65235580D02*
X148771333Y-65283200D01*
X148771333Y-65283200D02*
X148866571Y-65330819D01*
X148866571Y-65330819D02*
X149057047Y-65330819D01*
X149057047Y-65330819D02*
X149152285Y-65283200D01*
X149152285Y-65283200D02*
X149199904Y-65235580D01*
X149199904Y-65235580D02*
X149247523Y-65140342D01*
X149247523Y-65140342D02*
X149247523Y-64330819D01*
X149866571Y-64759390D02*
X149771333Y-64711771D01*
X149771333Y-64711771D02*
X149723714Y-64664152D01*
X149723714Y-64664152D02*
X149676095Y-64568914D01*
X149676095Y-64568914D02*
X149676095Y-64521295D01*
X149676095Y-64521295D02*
X149723714Y-64426057D01*
X149723714Y-64426057D02*
X149771333Y-64378438D01*
X149771333Y-64378438D02*
X149866571Y-64330819D01*
X149866571Y-64330819D02*
X150057047Y-64330819D01*
X150057047Y-64330819D02*
X150152285Y-64378438D01*
X150152285Y-64378438D02*
X150199904Y-64426057D01*
X150199904Y-64426057D02*
X150247523Y-64521295D01*
X150247523Y-64521295D02*
X150247523Y-64568914D01*
X150247523Y-64568914D02*
X150199904Y-64664152D01*
X150199904Y-64664152D02*
X150152285Y-64711771D01*
X150152285Y-64711771D02*
X150057047Y-64759390D01*
X150057047Y-64759390D02*
X149866571Y-64759390D01*
X149866571Y-64759390D02*
X149771333Y-64807009D01*
X149771333Y-64807009D02*
X149723714Y-64854628D01*
X149723714Y-64854628D02*
X149676095Y-64949866D01*
X149676095Y-64949866D02*
X149676095Y-65140342D01*
X149676095Y-65140342D02*
X149723714Y-65235580D01*
X149723714Y-65235580D02*
X149771333Y-65283200D01*
X149771333Y-65283200D02*
X149866571Y-65330819D01*
X149866571Y-65330819D02*
X150057047Y-65330819D01*
X150057047Y-65330819D02*
X150152285Y-65283200D01*
X150152285Y-65283200D02*
X150199904Y-65235580D01*
X150199904Y-65235580D02*
X150247523Y-65140342D01*
X150247523Y-65140342D02*
X150247523Y-64949866D01*
X150247523Y-64949866D02*
X150199904Y-64854628D01*
X150199904Y-64854628D02*
X150152285Y-64807009D01*
X150152285Y-64807009D02*
X150057047Y-64759390D01*
X156644819Y-79581333D02*
X157359104Y-79581333D01*
X157359104Y-79581333D02*
X157501961Y-79628952D01*
X157501961Y-79628952D02*
X157597200Y-79724190D01*
X157597200Y-79724190D02*
X157644819Y-79867047D01*
X157644819Y-79867047D02*
X157644819Y-79962285D01*
X157644819Y-78581333D02*
X157644819Y-79152761D01*
X157644819Y-78867047D02*
X156644819Y-78867047D01*
X156644819Y-78867047D02*
X156787676Y-78962285D01*
X156787676Y-78962285D02*
X156882914Y-79057523D01*
X156882914Y-79057523D02*
X156930533Y-79152761D01*
X145520580Y-68219856D02*
X145568200Y-68267475D01*
X145568200Y-68267475D02*
X145615819Y-68410332D01*
X145615819Y-68410332D02*
X145615819Y-68505570D01*
X145615819Y-68505570D02*
X145568200Y-68648427D01*
X145568200Y-68648427D02*
X145472961Y-68743665D01*
X145472961Y-68743665D02*
X145377723Y-68791284D01*
X145377723Y-68791284D02*
X145187247Y-68838903D01*
X145187247Y-68838903D02*
X145044390Y-68838903D01*
X145044390Y-68838903D02*
X144853914Y-68791284D01*
X144853914Y-68791284D02*
X144758676Y-68743665D01*
X144758676Y-68743665D02*
X144663438Y-68648427D01*
X144663438Y-68648427D02*
X144615819Y-68505570D01*
X144615819Y-68505570D02*
X144615819Y-68410332D01*
X144615819Y-68410332D02*
X144663438Y-68267475D01*
X144663438Y-68267475D02*
X144711057Y-68219856D01*
X145615819Y-67267475D02*
X145615819Y-67838903D01*
X145615819Y-67553189D02*
X144615819Y-67553189D01*
X144615819Y-67553189D02*
X144758676Y-67648427D01*
X144758676Y-67648427D02*
X144853914Y-67743665D01*
X144853914Y-67743665D02*
X144901533Y-67838903D01*
X144615819Y-66934141D02*
X144615819Y-66315094D01*
X144615819Y-66315094D02*
X144996771Y-66648427D01*
X144996771Y-66648427D02*
X144996771Y-66505570D01*
X144996771Y-66505570D02*
X145044390Y-66410332D01*
X145044390Y-66410332D02*
X145092009Y-66362713D01*
X145092009Y-66362713D02*
X145187247Y-66315094D01*
X145187247Y-66315094D02*
X145425342Y-66315094D01*
X145425342Y-66315094D02*
X145520580Y-66362713D01*
X145520580Y-66362713D02*
X145568200Y-66410332D01*
X145568200Y-66410332D02*
X145615819Y-66505570D01*
X145615819Y-66505570D02*
X145615819Y-66791284D01*
X145615819Y-66791284D02*
X145568200Y-66886522D01*
X145568200Y-66886522D02*
X145520580Y-66934141D01*
X143615580Y-71000857D02*
X143663200Y-71048476D01*
X143663200Y-71048476D02*
X143710819Y-71191333D01*
X143710819Y-71191333D02*
X143710819Y-71286571D01*
X143710819Y-71286571D02*
X143663200Y-71429428D01*
X143663200Y-71429428D02*
X143567961Y-71524666D01*
X143567961Y-71524666D02*
X143472723Y-71572285D01*
X143472723Y-71572285D02*
X143282247Y-71619904D01*
X143282247Y-71619904D02*
X143139390Y-71619904D01*
X143139390Y-71619904D02*
X142948914Y-71572285D01*
X142948914Y-71572285D02*
X142853676Y-71524666D01*
X142853676Y-71524666D02*
X142758438Y-71429428D01*
X142758438Y-71429428D02*
X142710819Y-71286571D01*
X142710819Y-71286571D02*
X142710819Y-71191333D01*
X142710819Y-71191333D02*
X142758438Y-71048476D01*
X142758438Y-71048476D02*
X142806057Y-71000857D01*
X143710819Y-70048476D02*
X143710819Y-70619904D01*
X143710819Y-70334190D02*
X142710819Y-70334190D01*
X142710819Y-70334190D02*
X142853676Y-70429428D01*
X142853676Y-70429428D02*
X142948914Y-70524666D01*
X142948914Y-70524666D02*
X142996533Y-70619904D01*
X142806057Y-69667523D02*
X142758438Y-69619904D01*
X142758438Y-69619904D02*
X142710819Y-69524666D01*
X142710819Y-69524666D02*
X142710819Y-69286571D01*
X142710819Y-69286571D02*
X142758438Y-69191333D01*
X142758438Y-69191333D02*
X142806057Y-69143714D01*
X142806057Y-69143714D02*
X142901295Y-69096095D01*
X142901295Y-69096095D02*
X142996533Y-69096095D01*
X142996533Y-69096095D02*
X143139390Y-69143714D01*
X143139390Y-69143714D02*
X143710819Y-69715142D01*
X143710819Y-69715142D02*
X143710819Y-69096095D01*
X140261169Y-63553693D02*
X140193825Y-63553693D01*
X140193825Y-63553693D02*
X140059138Y-63486349D01*
X140059138Y-63486349D02*
X139991795Y-63419006D01*
X139991795Y-63419006D02*
X139924451Y-63284319D01*
X139924451Y-63284319D02*
X139924451Y-63149632D01*
X139924451Y-63149632D02*
X139958123Y-63048617D01*
X139958123Y-63048617D02*
X140059138Y-62880258D01*
X140059138Y-62880258D02*
X140160153Y-62779243D01*
X140160153Y-62779243D02*
X140328512Y-62678227D01*
X140328512Y-62678227D02*
X140429527Y-62644556D01*
X140429527Y-62644556D02*
X140564214Y-62644556D01*
X140564214Y-62644556D02*
X140698901Y-62711899D01*
X140698901Y-62711899D02*
X140766245Y-62779243D01*
X140766245Y-62779243D02*
X140833588Y-62913930D01*
X140833588Y-62913930D02*
X140833588Y-62981273D01*
X141102962Y-63250647D02*
X141170306Y-63250647D01*
X141170306Y-63250647D02*
X141271321Y-63284319D01*
X141271321Y-63284319D02*
X141439680Y-63452678D01*
X141439680Y-63452678D02*
X141473352Y-63553693D01*
X141473352Y-63553693D02*
X141473352Y-63621036D01*
X141473352Y-63621036D02*
X141439680Y-63722052D01*
X141439680Y-63722052D02*
X141372336Y-63789395D01*
X141372336Y-63789395D02*
X141237649Y-63856739D01*
X141237649Y-63856739D02*
X140429527Y-63856739D01*
X140429527Y-63856739D02*
X140867260Y-64294471D01*
X141776398Y-63924082D02*
X141843741Y-63924082D01*
X141843741Y-63924082D02*
X141944756Y-63957754D01*
X141944756Y-63957754D02*
X142113115Y-64126113D01*
X142113115Y-64126113D02*
X142146787Y-64227128D01*
X142146787Y-64227128D02*
X142146787Y-64294472D01*
X142146787Y-64294472D02*
X142113115Y-64395487D01*
X142113115Y-64395487D02*
X142045772Y-64462830D01*
X142045772Y-64462830D02*
X141911085Y-64530174D01*
X141911085Y-64530174D02*
X141102963Y-64530174D01*
X141102963Y-64530174D02*
X141540695Y-64967907D01*
X137715523Y-53631180D02*
X137715523Y-52916895D01*
X137715523Y-52916895D02*
X137763142Y-52774038D01*
X137763142Y-52774038D02*
X137858380Y-52678800D01*
X137858380Y-52678800D02*
X138001237Y-52631180D01*
X138001237Y-52631180D02*
X138096475Y-52631180D01*
X136715523Y-52631180D02*
X137286951Y-52631180D01*
X137001237Y-52631180D02*
X137001237Y-53631180D01*
X137001237Y-53631180D02*
X137096475Y-53488323D01*
X137096475Y-53488323D02*
X137191713Y-53393085D01*
X137191713Y-53393085D02*
X137286951Y-53345466D01*
X135763142Y-52631180D02*
X136334570Y-52631180D01*
X136048856Y-52631180D02*
X136048856Y-53631180D01*
X136048856Y-53631180D02*
X136144094Y-53488323D01*
X136144094Y-53488323D02*
X136239332Y-53393085D01*
X136239332Y-53393085D02*
X136334570Y-53345466D01*
X150487142Y-53540819D02*
X150153809Y-53064628D01*
X149915714Y-53540819D02*
X149915714Y-52540819D01*
X149915714Y-52540819D02*
X150296666Y-52540819D01*
X150296666Y-52540819D02*
X150391904Y-52588438D01*
X150391904Y-52588438D02*
X150439523Y-52636057D01*
X150439523Y-52636057D02*
X150487142Y-52731295D01*
X150487142Y-52731295D02*
X150487142Y-52874152D01*
X150487142Y-52874152D02*
X150439523Y-52969390D01*
X150439523Y-52969390D02*
X150391904Y-53017009D01*
X150391904Y-53017009D02*
X150296666Y-53064628D01*
X150296666Y-53064628D02*
X149915714Y-53064628D01*
X151439523Y-53540819D02*
X150868095Y-53540819D01*
X151153809Y-53540819D02*
X151153809Y-52540819D01*
X151153809Y-52540819D02*
X151058571Y-52683676D01*
X151058571Y-52683676D02*
X150963333Y-52778914D01*
X150963333Y-52778914D02*
X150868095Y-52826533D01*
X152391904Y-53540819D02*
X151820476Y-53540819D01*
X152106190Y-53540819D02*
X152106190Y-52540819D01*
X152106190Y-52540819D02*
X152010952Y-52683676D01*
X152010952Y-52683676D02*
X151915714Y-52778914D01*
X151915714Y-52778914D02*
X151820476Y-52826533D01*
X154029580Y-69254666D02*
X154077200Y-69302285D01*
X154077200Y-69302285D02*
X154124819Y-69445142D01*
X154124819Y-69445142D02*
X154124819Y-69540380D01*
X154124819Y-69540380D02*
X154077200Y-69683237D01*
X154077200Y-69683237D02*
X153981961Y-69778475D01*
X153981961Y-69778475D02*
X153886723Y-69826094D01*
X153886723Y-69826094D02*
X153696247Y-69873713D01*
X153696247Y-69873713D02*
X153553390Y-69873713D01*
X153553390Y-69873713D02*
X153362914Y-69826094D01*
X153362914Y-69826094D02*
X153267676Y-69778475D01*
X153267676Y-69778475D02*
X153172438Y-69683237D01*
X153172438Y-69683237D02*
X153124819Y-69540380D01*
X153124819Y-69540380D02*
X153124819Y-69445142D01*
X153124819Y-69445142D02*
X153172438Y-69302285D01*
X153172438Y-69302285D02*
X153220057Y-69254666D01*
X153220057Y-68873713D02*
X153172438Y-68826094D01*
X153172438Y-68826094D02*
X153124819Y-68730856D01*
X153124819Y-68730856D02*
X153124819Y-68492761D01*
X153124819Y-68492761D02*
X153172438Y-68397523D01*
X153172438Y-68397523D02*
X153220057Y-68349904D01*
X153220057Y-68349904D02*
X153315295Y-68302285D01*
X153315295Y-68302285D02*
X153410533Y-68302285D01*
X153410533Y-68302285D02*
X153553390Y-68349904D01*
X153553390Y-68349904D02*
X154124819Y-68921332D01*
X154124819Y-68921332D02*
X154124819Y-68302285D01*
X137570170Y-65599605D02*
X137906888Y-65936323D01*
X136964079Y-65464918D02*
X137570170Y-65599605D01*
X137570170Y-65599605D02*
X137435483Y-64993514D01*
X138748681Y-65094529D02*
X138344620Y-65498590D01*
X138546651Y-65296559D02*
X137839544Y-64589453D01*
X137839544Y-64589453D02*
X137873216Y-64757811D01*
X137873216Y-64757811D02*
X137873216Y-64892498D01*
X137873216Y-64892498D02*
X137839544Y-64993514D01*
X142547169Y-65839693D02*
X142479825Y-65839693D01*
X142479825Y-65839693D02*
X142345138Y-65772349D01*
X142345138Y-65772349D02*
X142277795Y-65705006D01*
X142277795Y-65705006D02*
X142210451Y-65570319D01*
X142210451Y-65570319D02*
X142210451Y-65435632D01*
X142210451Y-65435632D02*
X142244123Y-65334617D01*
X142244123Y-65334617D02*
X142345138Y-65166258D01*
X142345138Y-65166258D02*
X142446153Y-65065243D01*
X142446153Y-65065243D02*
X142614512Y-64964227D01*
X142614512Y-64964227D02*
X142715527Y-64930556D01*
X142715527Y-64930556D02*
X142850214Y-64930556D01*
X142850214Y-64930556D02*
X142984901Y-64997899D01*
X142984901Y-64997899D02*
X143052245Y-65065243D01*
X143052245Y-65065243D02*
X143119588Y-65199930D01*
X143119588Y-65199930D02*
X143119588Y-65267273D01*
X143388962Y-65536647D02*
X143456306Y-65536647D01*
X143456306Y-65536647D02*
X143557321Y-65570319D01*
X143557321Y-65570319D02*
X143725680Y-65738678D01*
X143725680Y-65738678D02*
X143759352Y-65839693D01*
X143759352Y-65839693D02*
X143759352Y-65907036D01*
X143759352Y-65907036D02*
X143725680Y-66008052D01*
X143725680Y-66008052D02*
X143658336Y-66075395D01*
X143658336Y-66075395D02*
X143523649Y-66142739D01*
X143523649Y-66142739D02*
X142715527Y-66142739D01*
X142715527Y-66142739D02*
X143153260Y-66580471D01*
X143826695Y-67253907D02*
X143422634Y-66849846D01*
X143624665Y-67051876D02*
X144331772Y-66344769D01*
X144331772Y-66344769D02*
X144163413Y-66378441D01*
X144163413Y-66378441D02*
X144028726Y-66378441D01*
X144028726Y-66378441D02*
X143927711Y-66344769D01*
X136212543Y-75641754D02*
X135875825Y-75305037D01*
X135875825Y-75305037D02*
X136582932Y-74597930D01*
X136818635Y-76247846D02*
X136414574Y-75843785D01*
X136616604Y-76045815D02*
X137323711Y-75338709D01*
X137323711Y-75338709D02*
X137155352Y-75372380D01*
X137155352Y-75372380D02*
X137020665Y-75372380D01*
X137020665Y-75372380D02*
X136919650Y-75338709D01*
X164554819Y-57129333D02*
X165269104Y-57129333D01*
X165269104Y-57129333D02*
X165411961Y-57176952D01*
X165411961Y-57176952D02*
X165507200Y-57272190D01*
X165507200Y-57272190D02*
X165554819Y-57415047D01*
X165554819Y-57415047D02*
X165554819Y-57510285D01*
X164650057Y-56700761D02*
X164602438Y-56653142D01*
X164602438Y-56653142D02*
X164554819Y-56557904D01*
X164554819Y-56557904D02*
X164554819Y-56319809D01*
X164554819Y-56319809D02*
X164602438Y-56224571D01*
X164602438Y-56224571D02*
X164650057Y-56176952D01*
X164650057Y-56176952D02*
X164745295Y-56129333D01*
X164745295Y-56129333D02*
X164840533Y-56129333D01*
X164840533Y-56129333D02*
X164983390Y-56176952D01*
X164983390Y-56176952D02*
X165554819Y-56748380D01*
X165554819Y-56748380D02*
X165554819Y-56129333D01*
X135689169Y-66601693D02*
X135621825Y-66601693D01*
X135621825Y-66601693D02*
X135487138Y-66534349D01*
X135487138Y-66534349D02*
X135419795Y-66467006D01*
X135419795Y-66467006D02*
X135352451Y-66332319D01*
X135352451Y-66332319D02*
X135352451Y-66197632D01*
X135352451Y-66197632D02*
X135386123Y-66096617D01*
X135386123Y-66096617D02*
X135487138Y-65928258D01*
X135487138Y-65928258D02*
X135588153Y-65827243D01*
X135588153Y-65827243D02*
X135756512Y-65726227D01*
X135756512Y-65726227D02*
X135857527Y-65692556D01*
X135857527Y-65692556D02*
X135992214Y-65692556D01*
X135992214Y-65692556D02*
X136126901Y-65759899D01*
X136126901Y-65759899D02*
X136194245Y-65827243D01*
X136194245Y-65827243D02*
X136261588Y-65961930D01*
X136261588Y-65961930D02*
X136261588Y-66029273D01*
X136295260Y-67342471D02*
X135891199Y-66938410D01*
X136093230Y-67140441D02*
X136800336Y-66433334D01*
X136800336Y-66433334D02*
X136631978Y-66467006D01*
X136631978Y-66467006D02*
X136497291Y-66467006D01*
X136497291Y-66467006D02*
X136396275Y-66433334D01*
X136631978Y-67679189D02*
X136766665Y-67813876D01*
X136766665Y-67813876D02*
X136867680Y-67847548D01*
X136867680Y-67847548D02*
X136935024Y-67847548D01*
X136935024Y-67847548D02*
X137103382Y-67813876D01*
X137103382Y-67813876D02*
X137271741Y-67712861D01*
X137271741Y-67712861D02*
X137541115Y-67443487D01*
X137541115Y-67443487D02*
X137574787Y-67342472D01*
X137574787Y-67342472D02*
X137574787Y-67275128D01*
X137574787Y-67275128D02*
X137541115Y-67174113D01*
X137541115Y-67174113D02*
X137406428Y-67039426D01*
X137406428Y-67039426D02*
X137305413Y-67005754D01*
X137305413Y-67005754D02*
X137238069Y-67005754D01*
X137238069Y-67005754D02*
X137137054Y-67039426D01*
X137137054Y-67039426D02*
X136968695Y-67207785D01*
X136968695Y-67207785D02*
X136935024Y-67308800D01*
X136935024Y-67308800D02*
X136935024Y-67376143D01*
X136935024Y-67376143D02*
X136968695Y-67477159D01*
X136968695Y-67477159D02*
X137103382Y-67611846D01*
X137103382Y-67611846D02*
X137204398Y-67645517D01*
X137204398Y-67645517D02*
X137271741Y-67645517D01*
X137271741Y-67645517D02*
X137372756Y-67611846D01*
X139177825Y-72257036D02*
X139278840Y-71684617D01*
X138773764Y-71852975D02*
X139480871Y-71145869D01*
X139480871Y-71145869D02*
X139750245Y-71415243D01*
X139750245Y-71415243D02*
X139783917Y-71516258D01*
X139783917Y-71516258D02*
X139783917Y-71583601D01*
X139783917Y-71583601D02*
X139750245Y-71684617D01*
X139750245Y-71684617D02*
X139649230Y-71785632D01*
X139649230Y-71785632D02*
X139548214Y-71819304D01*
X139548214Y-71819304D02*
X139480871Y-71819304D01*
X139480871Y-71819304D02*
X139379856Y-71785632D01*
X139379856Y-71785632D02*
X139110482Y-71516258D01*
X140086962Y-71886647D02*
X140154306Y-71886647D01*
X140154306Y-71886647D02*
X140255321Y-71920319D01*
X140255321Y-71920319D02*
X140423680Y-72088678D01*
X140423680Y-72088678D02*
X140457352Y-72189693D01*
X140457352Y-72189693D02*
X140457352Y-72257036D01*
X140457352Y-72257036D02*
X140423680Y-72358052D01*
X140423680Y-72358052D02*
X140356336Y-72425395D01*
X140356336Y-72425395D02*
X140221649Y-72492739D01*
X140221649Y-72492739D02*
X139413527Y-72492739D01*
X139413527Y-72492739D02*
X139851260Y-72930471D01*
X140794069Y-72459067D02*
X141265474Y-72930472D01*
X141265474Y-72930472D02*
X140255321Y-73334533D01*
X129342142Y-71734819D02*
X129008809Y-71258628D01*
X128770714Y-71734819D02*
X128770714Y-70734819D01*
X128770714Y-70734819D02*
X129151666Y-70734819D01*
X129151666Y-70734819D02*
X129246904Y-70782438D01*
X129246904Y-70782438D02*
X129294523Y-70830057D01*
X129294523Y-70830057D02*
X129342142Y-70925295D01*
X129342142Y-70925295D02*
X129342142Y-71068152D01*
X129342142Y-71068152D02*
X129294523Y-71163390D01*
X129294523Y-71163390D02*
X129246904Y-71211009D01*
X129246904Y-71211009D02*
X129151666Y-71258628D01*
X129151666Y-71258628D02*
X128770714Y-71258628D01*
X130294523Y-71734819D02*
X129723095Y-71734819D01*
X130008809Y-71734819D02*
X130008809Y-70734819D01*
X130008809Y-70734819D02*
X129913571Y-70877676D01*
X129913571Y-70877676D02*
X129818333Y-70972914D01*
X129818333Y-70972914D02*
X129723095Y-71020533D01*
X130675476Y-70830057D02*
X130723095Y-70782438D01*
X130723095Y-70782438D02*
X130818333Y-70734819D01*
X130818333Y-70734819D02*
X131056428Y-70734819D01*
X131056428Y-70734819D02*
X131151666Y-70782438D01*
X131151666Y-70782438D02*
X131199285Y-70830057D01*
X131199285Y-70830057D02*
X131246904Y-70925295D01*
X131246904Y-70925295D02*
X131246904Y-71020533D01*
X131246904Y-71020533D02*
X131199285Y-71163390D01*
X131199285Y-71163390D02*
X130627857Y-71734819D01*
X130627857Y-71734819D02*
X131246904Y-71734819D01*
X134522170Y-68393605D02*
X134858888Y-68730323D01*
X133916079Y-68258918D02*
X134522170Y-68393605D01*
X134522170Y-68393605D02*
X134387483Y-67787514D01*
X134656857Y-67652827D02*
X134656857Y-67585483D01*
X134656857Y-67585483D02*
X134690529Y-67484468D01*
X134690529Y-67484468D02*
X134858888Y-67316109D01*
X134858888Y-67316109D02*
X134959903Y-67282437D01*
X134959903Y-67282437D02*
X135027246Y-67282437D01*
X135027246Y-67282437D02*
X135128262Y-67316109D01*
X135128262Y-67316109D02*
X135195605Y-67383453D01*
X135195605Y-67383453D02*
X135262949Y-67518140D01*
X135262949Y-67518140D02*
X135262949Y-68326262D01*
X135262949Y-68326262D02*
X135700681Y-67888529D01*
X132588095Y-81186819D02*
X132588095Y-80186819D01*
X132588095Y-80663009D02*
X133159523Y-80663009D01*
X133159523Y-81186819D02*
X133159523Y-80186819D01*
X134159523Y-81186819D02*
X133588095Y-81186819D01*
X133873809Y-81186819D02*
X133873809Y-80186819D01*
X133873809Y-80186819D02*
X133778571Y-80329676D01*
X133778571Y-80329676D02*
X133683333Y-80424914D01*
X133683333Y-80424914D02*
X133588095Y-80472533D01*
X147343333Y-62209819D02*
X147010000Y-61733628D01*
X146771905Y-62209819D02*
X146771905Y-61209819D01*
X146771905Y-61209819D02*
X147152857Y-61209819D01*
X147152857Y-61209819D02*
X147248095Y-61257438D01*
X147248095Y-61257438D02*
X147295714Y-61305057D01*
X147295714Y-61305057D02*
X147343333Y-61400295D01*
X147343333Y-61400295D02*
X147343333Y-61543152D01*
X147343333Y-61543152D02*
X147295714Y-61638390D01*
X147295714Y-61638390D02*
X147248095Y-61686009D01*
X147248095Y-61686009D02*
X147152857Y-61733628D01*
X147152857Y-61733628D02*
X146771905Y-61733628D01*
X147819524Y-62209819D02*
X148010000Y-62209819D01*
X148010000Y-62209819D02*
X148105238Y-62162200D01*
X148105238Y-62162200D02*
X148152857Y-62114580D01*
X148152857Y-62114580D02*
X148248095Y-61971723D01*
X148248095Y-61971723D02*
X148295714Y-61781247D01*
X148295714Y-61781247D02*
X148295714Y-61400295D01*
X148295714Y-61400295D02*
X148248095Y-61305057D01*
X148248095Y-61305057D02*
X148200476Y-61257438D01*
X148200476Y-61257438D02*
X148105238Y-61209819D01*
X148105238Y-61209819D02*
X147914762Y-61209819D01*
X147914762Y-61209819D02*
X147819524Y-61257438D01*
X147819524Y-61257438D02*
X147771905Y-61305057D01*
X147771905Y-61305057D02*
X147724286Y-61400295D01*
X147724286Y-61400295D02*
X147724286Y-61638390D01*
X147724286Y-61638390D02*
X147771905Y-61733628D01*
X147771905Y-61733628D02*
X147819524Y-61781247D01*
X147819524Y-61781247D02*
X147914762Y-61828866D01*
X147914762Y-61828866D02*
X148105238Y-61828866D01*
X148105238Y-61828866D02*
X148200476Y-61781247D01*
X148200476Y-61781247D02*
X148248095Y-61733628D01*
X148248095Y-61733628D02*
X148295714Y-61638390D01*
X146645333Y-53794819D02*
X146312000Y-53318628D01*
X146073905Y-53794819D02*
X146073905Y-52794819D01*
X146073905Y-52794819D02*
X146454857Y-52794819D01*
X146454857Y-52794819D02*
X146550095Y-52842438D01*
X146550095Y-52842438D02*
X146597714Y-52890057D01*
X146597714Y-52890057D02*
X146645333Y-52985295D01*
X146645333Y-52985295D02*
X146645333Y-53128152D01*
X146645333Y-53128152D02*
X146597714Y-53223390D01*
X146597714Y-53223390D02*
X146550095Y-53271009D01*
X146550095Y-53271009D02*
X146454857Y-53318628D01*
X146454857Y-53318628D02*
X146073905Y-53318628D01*
X147216762Y-53223390D02*
X147121524Y-53175771D01*
X147121524Y-53175771D02*
X147073905Y-53128152D01*
X147073905Y-53128152D02*
X147026286Y-53032914D01*
X147026286Y-53032914D02*
X147026286Y-52985295D01*
X147026286Y-52985295D02*
X147073905Y-52890057D01*
X147073905Y-52890057D02*
X147121524Y-52842438D01*
X147121524Y-52842438D02*
X147216762Y-52794819D01*
X147216762Y-52794819D02*
X147407238Y-52794819D01*
X147407238Y-52794819D02*
X147502476Y-52842438D01*
X147502476Y-52842438D02*
X147550095Y-52890057D01*
X147550095Y-52890057D02*
X147597714Y-52985295D01*
X147597714Y-52985295D02*
X147597714Y-53032914D01*
X147597714Y-53032914D02*
X147550095Y-53128152D01*
X147550095Y-53128152D02*
X147502476Y-53175771D01*
X147502476Y-53175771D02*
X147407238Y-53223390D01*
X147407238Y-53223390D02*
X147216762Y-53223390D01*
X147216762Y-53223390D02*
X147121524Y-53271009D01*
X147121524Y-53271009D02*
X147073905Y-53318628D01*
X147073905Y-53318628D02*
X147026286Y-53413866D01*
X147026286Y-53413866D02*
X147026286Y-53604342D01*
X147026286Y-53604342D02*
X147073905Y-53699580D01*
X147073905Y-53699580D02*
X147121524Y-53747200D01*
X147121524Y-53747200D02*
X147216762Y-53794819D01*
X147216762Y-53794819D02*
X147407238Y-53794819D01*
X147407238Y-53794819D02*
X147502476Y-53747200D01*
X147502476Y-53747200D02*
X147550095Y-53699580D01*
X147550095Y-53699580D02*
X147597714Y-53604342D01*
X147597714Y-53604342D02*
X147597714Y-53413866D01*
X147597714Y-53413866D02*
X147550095Y-53318628D01*
X147550095Y-53318628D02*
X147502476Y-53271009D01*
X147502476Y-53271009D02*
X147407238Y-53223390D01*
X151122142Y-62209819D02*
X150788809Y-61733628D01*
X150550714Y-62209819D02*
X150550714Y-61209819D01*
X150550714Y-61209819D02*
X150931666Y-61209819D01*
X150931666Y-61209819D02*
X151026904Y-61257438D01*
X151026904Y-61257438D02*
X151074523Y-61305057D01*
X151074523Y-61305057D02*
X151122142Y-61400295D01*
X151122142Y-61400295D02*
X151122142Y-61543152D01*
X151122142Y-61543152D02*
X151074523Y-61638390D01*
X151074523Y-61638390D02*
X151026904Y-61686009D01*
X151026904Y-61686009D02*
X150931666Y-61733628D01*
X150931666Y-61733628D02*
X150550714Y-61733628D01*
X152074523Y-62209819D02*
X151503095Y-62209819D01*
X151788809Y-62209819D02*
X151788809Y-61209819D01*
X151788809Y-61209819D02*
X151693571Y-61352676D01*
X151693571Y-61352676D02*
X151598333Y-61447914D01*
X151598333Y-61447914D02*
X151503095Y-61495533D01*
X152693571Y-61209819D02*
X152788809Y-61209819D01*
X152788809Y-61209819D02*
X152884047Y-61257438D01*
X152884047Y-61257438D02*
X152931666Y-61305057D01*
X152931666Y-61305057D02*
X152979285Y-61400295D01*
X152979285Y-61400295D02*
X153026904Y-61590771D01*
X153026904Y-61590771D02*
X153026904Y-61828866D01*
X153026904Y-61828866D02*
X152979285Y-62019342D01*
X152979285Y-62019342D02*
X152931666Y-62114580D01*
X152931666Y-62114580D02*
X152884047Y-62162200D01*
X152884047Y-62162200D02*
X152788809Y-62209819D01*
X152788809Y-62209819D02*
X152693571Y-62209819D01*
X152693571Y-62209819D02*
X152598333Y-62162200D01*
X152598333Y-62162200D02*
X152550714Y-62114580D01*
X152550714Y-62114580D02*
X152503095Y-62019342D01*
X152503095Y-62019342D02*
X152455476Y-61828866D01*
X152455476Y-61828866D02*
X152455476Y-61590771D01*
X152455476Y-61590771D02*
X152503095Y-61400295D01*
X152503095Y-61400295D02*
X152550714Y-61305057D01*
X152550714Y-61305057D02*
X152598333Y-61257438D01*
X152598333Y-61257438D02*
X152693571Y-61209819D01*
X151564169Y-78920693D02*
X151496825Y-78920693D01*
X151496825Y-78920693D02*
X151362138Y-78853349D01*
X151362138Y-78853349D02*
X151294795Y-78786006D01*
X151294795Y-78786006D02*
X151227451Y-78651319D01*
X151227451Y-78651319D02*
X151227451Y-78516632D01*
X151227451Y-78516632D02*
X151261123Y-78415617D01*
X151261123Y-78415617D02*
X151362138Y-78247258D01*
X151362138Y-78247258D02*
X151463153Y-78146243D01*
X151463153Y-78146243D02*
X151631512Y-78045227D01*
X151631512Y-78045227D02*
X151732527Y-78011556D01*
X151732527Y-78011556D02*
X151867214Y-78011556D01*
X151867214Y-78011556D02*
X152001901Y-78078899D01*
X152001901Y-78078899D02*
X152069245Y-78146243D01*
X152069245Y-78146243D02*
X152136588Y-78280930D01*
X152136588Y-78280930D02*
X152136588Y-78348273D01*
X152170260Y-79661471D02*
X151766199Y-79257410D01*
X151968230Y-79459441D02*
X152675336Y-78752334D01*
X152675336Y-78752334D02*
X152506978Y-78786006D01*
X152506978Y-78786006D02*
X152372291Y-78786006D01*
X152372291Y-78786006D02*
X152271275Y-78752334D01*
X152978382Y-79661472D02*
X152944711Y-79560456D01*
X152944711Y-79560456D02*
X152944711Y-79493113D01*
X152944711Y-79493113D02*
X152978382Y-79392098D01*
X152978382Y-79392098D02*
X153012054Y-79358426D01*
X153012054Y-79358426D02*
X153113069Y-79324754D01*
X153113069Y-79324754D02*
X153180413Y-79324754D01*
X153180413Y-79324754D02*
X153281428Y-79358426D01*
X153281428Y-79358426D02*
X153416115Y-79493113D01*
X153416115Y-79493113D02*
X153449787Y-79594128D01*
X153449787Y-79594128D02*
X153449787Y-79661472D01*
X153449787Y-79661472D02*
X153416115Y-79762487D01*
X153416115Y-79762487D02*
X153382443Y-79796159D01*
X153382443Y-79796159D02*
X153281428Y-79829830D01*
X153281428Y-79829830D02*
X153214085Y-79829830D01*
X153214085Y-79829830D02*
X153113069Y-79796159D01*
X153113069Y-79796159D02*
X152978382Y-79661472D01*
X152978382Y-79661472D02*
X152877367Y-79627800D01*
X152877367Y-79627800D02*
X152810024Y-79627800D01*
X152810024Y-79627800D02*
X152709008Y-79661472D01*
X152709008Y-79661472D02*
X152574321Y-79796159D01*
X152574321Y-79796159D02*
X152540650Y-79897174D01*
X152540650Y-79897174D02*
X152540650Y-79964517D01*
X152540650Y-79964517D02*
X152574321Y-80065533D01*
X152574321Y-80065533D02*
X152709008Y-80200220D01*
X152709008Y-80200220D02*
X152810024Y-80233891D01*
X152810024Y-80233891D02*
X152877367Y-80233891D01*
X152877367Y-80233891D02*
X152978382Y-80200220D01*
X152978382Y-80200220D02*
X153113069Y-80065533D01*
X153113069Y-80065533D02*
X153146741Y-79964517D01*
X153146741Y-79964517D02*
X153146741Y-79897174D01*
X153146741Y-79897174D02*
X153113069Y-79796159D01*
X150963333Y-71733580D02*
X150915714Y-71781200D01*
X150915714Y-71781200D02*
X150772857Y-71828819D01*
X150772857Y-71828819D02*
X150677619Y-71828819D01*
X150677619Y-71828819D02*
X150534762Y-71781200D01*
X150534762Y-71781200D02*
X150439524Y-71685961D01*
X150439524Y-71685961D02*
X150391905Y-71590723D01*
X150391905Y-71590723D02*
X150344286Y-71400247D01*
X150344286Y-71400247D02*
X150344286Y-71257390D01*
X150344286Y-71257390D02*
X150391905Y-71066914D01*
X150391905Y-71066914D02*
X150439524Y-70971676D01*
X150439524Y-70971676D02*
X150534762Y-70876438D01*
X150534762Y-70876438D02*
X150677619Y-70828819D01*
X150677619Y-70828819D02*
X150772857Y-70828819D01*
X150772857Y-70828819D02*
X150915714Y-70876438D01*
X150915714Y-70876438D02*
X150963333Y-70924057D01*
X151915714Y-71828819D02*
X151344286Y-71828819D01*
X151630000Y-71828819D02*
X151630000Y-70828819D01*
X151630000Y-70828819D02*
X151534762Y-70971676D01*
X151534762Y-70971676D02*
X151439524Y-71066914D01*
X151439524Y-71066914D02*
X151344286Y-71114533D01*
D12*
%TO.C,Q8*%
X149889999Y-57452500D02*
X149890000Y-56802500D01*
X149889999Y-57452500D02*
X149890000Y-58102500D01*
X153010001Y-57452500D02*
X153010000Y-56802500D01*
X153010001Y-57452500D02*
X153010000Y-58102500D01*
X149940000Y-58615000D02*
X149610000Y-58855000D01*
X149610001Y-58375000D01*
X149940000Y-58615000D01*
G36*
X149940000Y-58615000D02*
G01*
X149610000Y-58855000D01*
X149610001Y-58375000D01*
X149940000Y-58615000D01*
G37*
%TO.C,C20*%
X135628781Y-72342030D02*
X135429970Y-72143219D01*
X136350030Y-71620781D02*
X136151219Y-71421970D01*
%TO.C,C15*%
X134159970Y-73413219D02*
X134358781Y-73612030D01*
X134881219Y-72691970D02*
X135080030Y-72890781D01*
%TO.C,Q7*%
X145759999Y-57452501D02*
X145760000Y-56802501D01*
X145759999Y-57452501D02*
X145760000Y-58102501D01*
X148880001Y-57452501D02*
X148880000Y-56802501D01*
X148880001Y-57452501D02*
X148880000Y-58102501D01*
X145810000Y-58615001D02*
X145480000Y-58855001D01*
X145480001Y-58375001D01*
X145810000Y-58615001D01*
G36*
X145810000Y-58615001D02*
G01*
X145480000Y-58855001D01*
X145480001Y-58375001D01*
X145810000Y-58615001D01*
G37*
%TO.C,C14*%
X141730000Y-85725581D02*
X141730000Y-85444419D01*
X142750000Y-85725581D02*
X142750000Y-85444419D01*
%TO.C,C17*%
X132889970Y-74683219D02*
X133088781Y-74882030D01*
X133611219Y-73961970D02*
X133810030Y-74160781D01*
%TO.C,R24*%
X156447258Y-68311500D02*
X155972742Y-68311500D01*
X156447258Y-69356500D02*
X155972742Y-69356500D01*
%TO.C,R25*%
X156447258Y-66025500D02*
X155972742Y-66025500D01*
X156447258Y-67070500D02*
X155972742Y-67070500D01*
%TO.C,U2*%
X138658689Y-77978000D02*
X138976887Y-77659802D01*
X138976887Y-78296198D02*
X138658689Y-77978000D01*
X143445802Y-82765113D02*
X143764000Y-83083311D01*
X143764000Y-72872689D02*
X143445802Y-73190887D01*
X143764000Y-83083311D02*
X144082198Y-82765113D01*
X144082198Y-73190887D02*
X143764000Y-72872689D01*
X148551113Y-77659802D02*
X148869311Y-77978000D01*
X148869311Y-77978000D02*
X148551113Y-78296198D01*
X143601365Y-72681770D02*
X143028609Y-72773694D01*
X143120533Y-72200938D01*
X143601365Y-72681770D01*
G36*
X143601365Y-72681770D02*
G01*
X143028609Y-72773694D01*
X143120533Y-72200938D01*
X143601365Y-72681770D01*
G37*
%TO.C,U8*%
X149438000Y-65716000D02*
X147938000Y-65716000D01*
X149438000Y-65716000D02*
X150938000Y-65716000D01*
X149438000Y-68936000D02*
X147938000Y-68936000D01*
X149438000Y-68936000D02*
X150938000Y-68936000D01*
X147225500Y-65916000D02*
X146985500Y-65586000D01*
X147465500Y-65586000D01*
X147225500Y-65916000D01*
G36*
X147225500Y-65916000D02*
G01*
X146985500Y-65586000D01*
X147465500Y-65586000D01*
X147225500Y-65916000D01*
G37*
%TO.C,C13*%
X144524000Y-70471419D02*
X144524000Y-70752581D01*
X145544000Y-70471419D02*
X145544000Y-70752581D01*
%TO.C,C12*%
X141222000Y-70484419D02*
X141222000Y-70765581D01*
X142242000Y-70484419D02*
X142242000Y-70765581D01*
%TO.C,C22*%
X139493970Y-65031219D02*
X139692781Y-65230030D01*
X140215219Y-64309970D02*
X140414030Y-64508781D01*
%TO.C,R11*%
X151367258Y-54087500D02*
X150892742Y-54087500D01*
X151367258Y-55132500D02*
X150892742Y-55132500D01*
%TO.C,C2*%
X153160000Y-66407419D02*
X153160000Y-66688581D01*
X154180000Y-66407419D02*
X154180000Y-66688581D01*
%TO.C,Y1*%
X138603984Y-67451421D02*
X139558579Y-68406016D01*
X139841421Y-66213984D02*
X140796016Y-67168579D01*
%TO.C,C21*%
X141779970Y-67317219D02*
X141978781Y-67516030D01*
X142501219Y-66595970D02*
X142700030Y-66794781D01*
%TO.C,L1*%
X137192273Y-74667522D02*
X137422478Y-74897727D01*
X137913522Y-73946273D02*
X138143727Y-74176478D01*
%TO.C,C19*%
X138422781Y-69548030D02*
X138223970Y-69349219D01*
X139144030Y-68826781D02*
X138945219Y-68627970D01*
%TO.C,R27*%
X138400770Y-73353697D02*
X138736303Y-73689230D01*
X139139697Y-72614770D02*
X139475230Y-72950303D01*
%TO.C,R12*%
X130222258Y-69327500D02*
X129747742Y-69327500D01*
X130222258Y-70372500D02*
X129747742Y-70372500D01*
%TO.C,Y2*%
X136764579Y-71200016D02*
X135809984Y-70245421D01*
X138002016Y-69962579D02*
X137047421Y-69007984D01*
%TO.C,R9*%
X147747258Y-59802500D02*
X147272742Y-59802500D01*
X147747258Y-60847500D02*
X147272742Y-60847500D01*
%TO.C,R8*%
X146922258Y-54087500D02*
X146447742Y-54087500D01*
X146922258Y-55132500D02*
X146447742Y-55132500D01*
%TO.C,R10*%
X152002258Y-59802500D02*
X151527742Y-59802500D01*
X152002258Y-60847500D02*
X151527742Y-60847500D01*
%TO.C,C18*%
X150614781Y-80724030D02*
X150415970Y-80525219D01*
X151336030Y-80002781D02*
X151137219Y-79803970D01*
%TO.C,C1*%
X150989419Y-69340000D02*
X151270581Y-69340000D01*
X150989419Y-70360000D02*
X151270581Y-70360000D01*
%TD*%
M02*
