%TF.GenerationSoftware,KiCad,Pcbnew,8.0.8-8.0.8-0~ubuntu24.04.1*%
%TF.CreationDate,2025-02-11T11:04:45-03:00*%
%TF.ProjectId,pm100,706d3130-302e-46b6-9963-61645f706362,rev?*%
%TF.SameCoordinates,Original*%
%TF.FileFunction,Copper,L2,Bot*%
%TF.FilePolarity,Positive*%
%FSLAX46Y46*%
G04 Gerber Fmt 4.6, Leading zero omitted, Abs format (unit mm)*
G04 Created by KiCad (PCBNEW 8.0.8-8.0.8-0~ubuntu24.04.1) date 2025-02-11 11:04:45*
%MOMM*%
%LPD*%
G01*
G04 APERTURE LIST*
G04 Aperture macros list*
%AMRoundRect*
0 Rectangle with rounded corners*
0 $1 Rounding radius*
0 $2 $3 $4 $5 $6 $7 $8 $9 X,Y pos of 4 corners*
0 Add a 4 corners polygon primitive as box body*
4,1,4,$2,$3,$4,$5,$6,$7,$8,$9,$2,$3,0*
0 Add four circle primitives for the rounded corners*
1,1,$1+$1,$2,$3*
1,1,$1+$1,$4,$5*
1,1,$1+$1,$6,$7*
1,1,$1+$1,$8,$9*
0 Add four rect primitives between the rounded corners*
20,1,$1+$1,$2,$3,$4,$5,0*
20,1,$1+$1,$4,$5,$6,$7,0*
20,1,$1+$1,$6,$7,$8,$9,0*
20,1,$1+$1,$8,$9,$2,$3,0*%
G04 Aperture macros list end*
%TA.AperFunction,ComponentPad*%
%ADD10C,2.286000*%
%TD*%
%TA.AperFunction,SMDPad,CuDef*%
%ADD11RoundRect,0.225000X-0.250000X0.225000X-0.250000X-0.225000X0.250000X-0.225000X0.250000X0.225000X0*%
%TD*%
%TA.AperFunction,SMDPad,CuDef*%
%ADD12C,2.000000*%
%TD*%
%TA.AperFunction,SMDPad,CuDef*%
%ADD13RoundRect,0.225000X0.225000X0.250000X-0.225000X0.250000X-0.225000X-0.250000X0.225000X-0.250000X0*%
%TD*%
%TA.AperFunction,SMDPad,CuDef*%
%ADD14RoundRect,0.200000X-0.200000X-0.275000X0.200000X-0.275000X0.200000X0.275000X-0.200000X0.275000X0*%
%TD*%
%TA.AperFunction,SMDPad,CuDef*%
%ADD15RoundRect,0.150000X-0.150000X0.587500X-0.150000X-0.587500X0.150000X-0.587500X0.150000X0.587500X0*%
%TD*%
%TA.AperFunction,SMDPad,CuDef*%
%ADD16O,2.000000X4.000000*%
%TD*%
%TA.AperFunction,SMDPad,CuDef*%
%ADD17R,1.100000X0.400000*%
%TD*%
%TA.AperFunction,SMDPad,CuDef*%
%ADD18R,1.000000X0.800000*%
%TD*%
%TA.AperFunction,SMDPad,CuDef*%
%ADD19R,0.700000X1.500000*%
%TD*%
%TA.AperFunction,SMDPad,CuDef*%
%ADD20RoundRect,0.200000X0.275000X-0.200000X0.275000X0.200000X-0.275000X0.200000X-0.275000X-0.200000X0*%
%TD*%
%TA.AperFunction,SMDPad,CuDef*%
%ADD21RoundRect,0.200000X0.200000X0.275000X-0.200000X0.275000X-0.200000X-0.275000X0.200000X-0.275000X0*%
%TD*%
%TA.AperFunction,SMDPad,CuDef*%
%ADD22RoundRect,0.225000X0.225000X0.375000X-0.225000X0.375000X-0.225000X-0.375000X0.225000X-0.375000X0*%
%TD*%
%TA.AperFunction,SMDPad,CuDef*%
%ADD23RoundRect,0.225000X-0.225000X-0.250000X0.225000X-0.250000X0.225000X0.250000X-0.225000X0.250000X0*%
%TD*%
%TA.AperFunction,SMDPad,CuDef*%
%ADD24RoundRect,0.250000X0.250000X0.475000X-0.250000X0.475000X-0.250000X-0.475000X0.250000X-0.475000X0*%
%TD*%
%TA.AperFunction,SMDPad,CuDef*%
%ADD25RoundRect,0.200000X-0.275000X0.200000X-0.275000X-0.200000X0.275000X-0.200000X0.275000X0.200000X0*%
%TD*%
%TA.AperFunction,SMDPad,CuDef*%
%ADD26RoundRect,0.250000X0.925000X-0.412500X0.925000X0.412500X-0.925000X0.412500X-0.925000X-0.412500X0*%
%TD*%
%TA.AperFunction,SMDPad,CuDef*%
%ADD27R,1.000000X0.700000*%
%TD*%
%TA.AperFunction,SMDPad,CuDef*%
%ADD28RoundRect,0.250000X-0.250000X-0.475000X0.250000X-0.475000X0.250000X0.475000X-0.250000X0.475000X0*%
%TD*%
%TA.AperFunction,SMDPad,CuDef*%
%ADD29RoundRect,0.375000X0.375000X-0.625000X0.375000X0.625000X-0.375000X0.625000X-0.375000X-0.625000X0*%
%TD*%
%TA.AperFunction,SMDPad,CuDef*%
%ADD30RoundRect,0.500000X1.400000X-0.500000X1.400000X0.500000X-1.400000X0.500000X-1.400000X-0.500000X0*%
%TD*%
%TA.AperFunction,SMDPad,CuDef*%
%ADD31RoundRect,0.375000X-0.375000X0.625000X-0.375000X-0.625000X0.375000X-0.625000X0.375000X0.625000X0*%
%TD*%
%TA.AperFunction,SMDPad,CuDef*%
%ADD32RoundRect,0.500000X-1.400000X0.500000X-1.400000X-0.500000X1.400000X-0.500000X1.400000X0.500000X0*%
%TD*%
%TA.AperFunction,ComponentPad*%
%ADD33RoundRect,0.250000X-0.600000X-0.725000X0.600000X-0.725000X0.600000X0.725000X-0.600000X0.725000X0*%
%TD*%
%TA.AperFunction,ComponentPad*%
%ADD34O,1.700000X1.950000*%
%TD*%
%TA.AperFunction,SMDPad,CuDef*%
%ADD35R,1.800000X0.820000*%
%TD*%
%TA.AperFunction,SMDPad,CuDef*%
%ADD36RoundRect,0.150000X0.150000X-0.587500X0.150000X0.587500X-0.150000X0.587500X-0.150000X-0.587500X0*%
%TD*%
%TA.AperFunction,SMDPad,CuDef*%
%ADD37RoundRect,0.250000X-0.450000X-0.425000X0.450000X-0.425000X0.450000X0.425000X-0.450000X0.425000X0*%
%TD*%
%TA.AperFunction,SMDPad,CuDef*%
%ADD38RoundRect,0.175000X0.325000X-0.175000X0.325000X0.175000X-0.325000X0.175000X-0.325000X-0.175000X0*%
%TD*%
%TA.AperFunction,SMDPad,CuDef*%
%ADD39RoundRect,0.150000X0.150000X-0.200000X0.150000X0.200000X-0.150000X0.200000X-0.150000X-0.200000X0*%
%TD*%
%TA.AperFunction,SMDPad,CuDef*%
%ADD40R,0.400000X1.750000*%
%TD*%
%TA.AperFunction,ComponentPad*%
%ADD41O,0.800000X1.900000*%
%TD*%
%TA.AperFunction,SMDPad,CuDef*%
%ADD42R,1.575000X1.900000*%
%TD*%
%TA.AperFunction,ComponentPad*%
%ADD43O,0.900000X1.150000*%
%TD*%
%TA.AperFunction,SMDPad,CuDef*%
%ADD44R,1.800000X1.900000*%
%TD*%
%TA.AperFunction,ViaPad*%
%ADD45C,0.600000*%
%TD*%
%TA.AperFunction,Conductor*%
%ADD46C,0.200000*%
%TD*%
G04 APERTURE END LIST*
D10*
%TO.P,J11,1,Pin_1*%
%TO.N,GND*%
X133350000Y-51000000D03*
%TO.P,J11,2,Pin_2*%
%TO.N,+3V3*%
X135890000Y-51000000D03*
%TO.P,J11,3,Pin_3*%
%TO.N,I2C-SCL*%
X138430000Y-51000000D03*
%TO.P,J11,4,Pin_4*%
%TO.N,I2C-SDA*%
X140970000Y-51000000D03*
%TD*%
D11*
%TO.P,C7,1*%
%TO.N,Net-(D2-VDD)*%
X140462000Y-46977000D03*
%TO.P,C7,2*%
%TO.N,GND*%
X140462000Y-48527000D03*
%TD*%
D12*
%TO.P,J8,1,Pin_1*%
%TO.N,Net-(J8-Pin_1)*%
X129540000Y-91440000D03*
%TD*%
D13*
%TO.P,C3,1*%
%TO.N,VDC*%
X148389999Y-59049000D03*
%TO.P,C3,2*%
%TO.N,GND*%
X146839999Y-59049000D03*
%TD*%
D14*
%TO.P,R2,1*%
%TO.N,PWM-RECEIVER*%
X167135000Y-79707500D03*
%TO.P,R2,2*%
%TO.N,VDC*%
X168785000Y-79707500D03*
%TD*%
D15*
%TO.P,Q5,1,G*%
%TO.N,+3V3*%
X166690000Y-75262500D03*
%TO.P,Q5,2,S*%
%TO.N,PWM-INPUT*%
X168590000Y-75262500D03*
%TO.P,Q5,3,D*%
%TO.N,PWM-RECEIVER*%
X167640000Y-77137501D03*
%TD*%
D16*
%TO.P,J7,1,Pin_1*%
%TO.N,GND*%
X170902000Y-53340000D03*
%TO.P,J7,2,Pin_2*%
%TO.N,unconnected-(J7-Pin_2-Pad2)*%
X168402000Y-53340000D03*
%TO.P,J7,3,Pin_3*%
%TO.N,PWM-ESC*%
X165902000Y-53340000D03*
%TD*%
D17*
%TO.P,U7,1,STAT*%
%TO.N,unconnected-(U7-STAT-Pad1)*%
X152350000Y-84475001D03*
%TO.P,U7,2,~{EN}*%
%TO.N,GND*%
X152350000Y-83825000D03*
%TO.P,U7,3,VSNS*%
%TO.N,unconnected-(U7-VSNS-Pad3)*%
X152350000Y-83175000D03*
%TO.P,U7,4,ILIM*%
%TO.N,Net-(U7-ILIM)*%
X152350000Y-82524999D03*
%TO.P,U7,5,GND*%
%TO.N,GND*%
X156650000Y-82524999D03*
%TO.P,U7,6,IN2*%
%TO.N,+5V*%
X156650000Y-83175000D03*
%TO.P,U7,7,OUT*%
%TO.N,VDC*%
X156650000Y-83825000D03*
%TO.P,U7,8,IN1*%
%TO.N,VBUS*%
X156650000Y-84475001D03*
%TD*%
D18*
%TO.P,SW1,*%
%TO.N,*%
X148660000Y-93665000D03*
X148660000Y-91455000D03*
X138360000Y-93665000D03*
X138360000Y-91455000D03*
D19*
%TO.P,SW1,1,1*%
%TO.N,+3V3*%
X146510000Y-90805000D03*
%TO.P,SW1,2,2*%
%TO.N,Net-(R6-Pad2)*%
X145010000Y-90805000D03*
%TO.P,SW1,3,3*%
%TO.N,AN-CLASSE*%
X142010000Y-90805000D03*
%TO.P,SW1,4,4*%
%TO.N,GND*%
X140510000Y-90805000D03*
%TD*%
D16*
%TO.P,J6,1,Pin_1*%
%TO.N,GND*%
X170902000Y-83820000D03*
%TO.P,J6,2,Pin_2*%
%TO.N,unconnected-(J6-Pin_2-Pad2)*%
X168402000Y-83820000D03*
%TO.P,J6,3,Pin_3*%
%TO.N,PWM-RECEIVER*%
X165902000Y-83820000D03*
%TD*%
D20*
%TO.P,R7,1*%
%TO.N,+3V3*%
X147955001Y-88709000D03*
%TO.P,R7,2*%
%TO.N,Net-(R6-Pad2)*%
X147955001Y-87059000D03*
%TD*%
D12*
%TO.P,J9,1,Pin_1*%
%TO.N,Net-(J9-Pin_1)*%
X129540000Y-87630000D03*
%TD*%
%TO.P,J14,1,Pin_1*%
%TO.N,Net-(J14-Pin_1)*%
X129540000Y-72390000D03*
%TD*%
D21*
%TO.P,R4,1*%
%TO.N,PWM-ESC*%
X169227000Y-58117500D03*
%TO.P,R4,2*%
%TO.N,VDC*%
X167577000Y-58117500D03*
%TD*%
D22*
%TO.P,D3,1,K*%
%TO.N,Net-(D2-VDD)*%
X136398000Y-47752000D03*
%TO.P,D3,2,A*%
%TO.N,VDC*%
X133098000Y-47752000D03*
%TD*%
D23*
%TO.P,C10,1*%
%TO.N,+5V*%
X155181000Y-80772000D03*
%TO.P,C10,2*%
%TO.N,GND*%
X156731000Y-80772000D03*
%TD*%
D24*
%TO.P,C8,1*%
%TO.N,+3V3*%
X145009000Y-59049000D03*
%TO.P,C8,2*%
%TO.N,GND*%
X143109002Y-59049000D03*
%TD*%
D12*
%TO.P,J13,1,Pin_1*%
%TO.N,Net-(J13-Pin_1)*%
X129540000Y-80010000D03*
%TD*%
D25*
%TO.P,R26,1*%
%TO.N,Net-(U7-ILIM)*%
X150622000Y-82487000D03*
%TO.P,R26,2*%
%TO.N,GND*%
X150622000Y-84137000D03*
%TD*%
D13*
%TO.P,C9,1*%
%TO.N,GND*%
X160541000Y-86868000D03*
%TO.P,C9,2*%
%TO.N,VBUS*%
X158991000Y-86868000D03*
%TD*%
%TO.P,C4,1*%
%TO.N,Net-(D1-+)*%
X153075000Y-69621000D03*
%TO.P,C4,2*%
%TO.N,GND*%
X151525000Y-69621000D03*
%TD*%
D26*
%TO.P,C11,1*%
%TO.N,VDC*%
X159258000Y-84849500D03*
%TO.P,C11,2*%
%TO.N,GND*%
X159258000Y-81774500D03*
%TD*%
D27*
%TO.P,D1,1,+*%
%TO.N,Net-(D1-+)*%
X162125000Y-69818000D03*
%TO.P,D1,2,-*%
%TO.N,GND*%
X162125000Y-65818000D03*
%TO.P,D1,3*%
%TO.N,+BATT*%
X168075000Y-65818000D03*
%TO.P,D1,4*%
%TO.N,GND*%
X168075000Y-69818000D03*
%TD*%
D28*
%TO.P,C5,1*%
%TO.N,+5V*%
X155655001Y-69621000D03*
%TO.P,C5,2*%
%TO.N,GND*%
X157554999Y-69621000D03*
%TD*%
D12*
%TO.P,J12,1,Pin_1*%
%TO.N,Net-(J12-Pin_1)*%
X129511000Y-76200000D03*
%TD*%
D29*
%TO.P,U3,1,GND*%
%TO.N,GND*%
X157000000Y-67056000D03*
%TO.P,U3,2,VO*%
%TO.N,+5V*%
X154700000Y-67055999D03*
D30*
X154700000Y-60756001D03*
D29*
%TO.P,U3,3,VI*%
%TO.N,Net-(D1-+)*%
X152400000Y-67056000D03*
%TD*%
D14*
%TO.P,R5,1*%
%TO.N,PWM-OUTPUT*%
X167577000Y-63832500D03*
%TO.P,R5,2*%
%TO.N,+3V3*%
X169227000Y-63832500D03*
%TD*%
D31*
%TO.P,U5,1,GND*%
%TO.N,GND*%
X143242000Y-61721999D03*
%TO.P,U5,2,VO*%
%TO.N,+3V3*%
X145542000Y-61722000D03*
D32*
X145542000Y-68021998D03*
D31*
%TO.P,U5,3,VI*%
%TO.N,VDC*%
X147842000Y-61721999D03*
%TD*%
D12*
%TO.P,J10,1,Pin_1*%
%TO.N,Net-(J10-Pin_1)*%
X129540000Y-83820000D03*
%TD*%
D33*
%TO.P,J5,1,Pin_1*%
%TO.N,GND*%
X144850000Y-49650000D03*
D34*
%TO.P,J5,2,Pin_2*%
%TO.N,Net-(J5-Pin_2)*%
X147350000Y-49650000D03*
%TO.P,J5,3,Pin_3*%
%TO.N,Net-(J5-Pin_3)*%
X149850000Y-49650000D03*
%TO.P,J5,4,Pin_4*%
%TO.N,Net-(J5-Pin_4)*%
X152350000Y-49650000D03*
%TD*%
D35*
%TO.P,D2,1,VDD*%
%TO.N,Net-(D2-VDD)*%
X140522000Y-45504000D03*
%TO.P,D2,2,DOUT*%
%TO.N,unconnected-(D2-DOUT-Pad2)*%
X140522000Y-43904000D03*
%TO.P,D2,3,VSS*%
%TO.N,GND*%
X135322000Y-43904000D03*
%TO.P,D2,4,DIN*%
%TO.N,LED*%
X135322000Y-45504000D03*
%TD*%
D36*
%TO.P,Q6,1,G*%
%TO.N,+3V3*%
X169352000Y-61897500D03*
%TO.P,Q6,2,S*%
%TO.N,PWM-OUTPUT*%
X167452000Y-61897500D03*
%TO.P,Q6,3,D*%
%TO.N,PWM-ESC*%
X168402000Y-60022499D03*
%TD*%
D37*
%TO.P,C16,1*%
%TO.N,+3V3*%
X144018000Y-70612000D03*
%TO.P,C16,2*%
%TO.N,GND*%
X146718000Y-70612000D03*
%TD*%
D21*
%TO.P,R3,1*%
%TO.N,PWM-INPUT*%
X168595000Y-72722500D03*
%TO.P,R3,2*%
%TO.N,+3V3*%
X166945000Y-72722500D03*
%TD*%
D25*
%TO.P,R6,1*%
%TO.N,GND*%
X146050000Y-87059000D03*
%TO.P,R6,2*%
%TO.N,Net-(R6-Pad2)*%
X146050000Y-88709000D03*
%TD*%
D38*
%TO.P,D4,1,GND*%
%TO.N,GND*%
X157000000Y-89000000D03*
D39*
%TO.P,D4,2,I/O1*%
%TO.N,USB_DM*%
X155300000Y-89000000D03*
%TO.P,D4,3,I/O2*%
%TO.N,USB_DP*%
X155300000Y-87000000D03*
%TO.P,D4,4,VCC*%
%TO.N,VBUS*%
X157200000Y-87000000D03*
%TD*%
D40*
%TO.P,J3,1,VBUS*%
%TO.N,VBUS*%
X155920000Y-90925000D03*
%TO.P,J3,2,D-*%
%TO.N,USB_DM*%
X155270000Y-90925000D03*
%TO.P,J3,3,D+*%
%TO.N,USB_DP*%
X154620000Y-90925000D03*
%TO.P,J3,4,ID*%
%TO.N,GND*%
X153970000Y-90925000D03*
%TO.P,J3,5,GND*%
X153320000Y-90925000D03*
D41*
%TO.P,J3,6,Shield*%
X158795000Y-93800000D03*
D42*
X158007500Y-93800000D03*
D43*
X156845000Y-90800000D03*
D44*
X155770000Y-93800000D03*
X153470000Y-93800000D03*
D43*
X152395000Y-90800000D03*
D42*
X151232500Y-93800000D03*
D41*
X150445000Y-93800000D03*
%TD*%
D45*
%TO.N,GND*%
X133858000Y-71120000D03*
X146304000Y-72136000D03*
X143510000Y-81534000D03*
X132080000Y-74676000D03*
X144780000Y-51562000D03*
X145796000Y-75946000D03*
X165354000Y-74168000D03*
X149606000Y-66802000D03*
X166116000Y-59944000D03*
X166116000Y-77470000D03*
X147320000Y-65532000D03*
X141224000Y-83566000D03*
X152400000Y-72136000D03*
X149606000Y-74168000D03*
X136266289Y-77028827D03*
X134366000Y-53086000D03*
X143764000Y-74930000D03*
X163322000Y-67818000D03*
X149860000Y-81280000D03*
X152400000Y-64516000D03*
X138430000Y-48514000D03*
X133096000Y-43942000D03*
X141110025Y-76340025D03*
X170942000Y-87122000D03*
X142494000Y-79248000D03*
%TO.N,+3V3*%
X151765000Y-79121000D03*
X145034000Y-57150000D03*
X156210000Y-75184000D03*
X143510000Y-84836000D03*
X150114000Y-68834000D03*
X143510000Y-72390000D03*
X149352000Y-57150000D03*
X138430000Y-73660000D03*
%TO.N,+5V*%
X154178000Y-70104000D03*
X157226000Y-77978000D03*
%TO.N,+BATT*%
X165100000Y-72136000D03*
%TO.N,PWM-INPUT*%
X140462000Y-78740000D03*
%TO.N,PWM-OUTPUT*%
X167132000Y-59944000D03*
X165608000Y-78486000D03*
X171450000Y-59436000D03*
X141224000Y-79502000D03*
X171450000Y-77978000D03*
%TO.N,AN-CLASSE*%
X137619620Y-86819620D03*
%TO.N,I2C-SDA*%
X139149295Y-60494705D03*
%TO.N,SLAVE_SDA*%
X144780000Y-63866000D03*
X137391380Y-84447380D03*
%TO.N,LED*%
X133858000Y-76454000D03*
%TO.N,SLAVE_SCL*%
X144054689Y-63216000D03*
X136555126Y-84599638D03*
%TO.N,Net-(J12-Pin_1)*%
X129511000Y-76200000D03*
%TO.N,Net-(J13-Pin_1)*%
X129540000Y-80010000D03*
%TO.N,Net-(J14-Pin_1)*%
X129540000Y-72390000D03*
%TO.N,VDC*%
X166624000Y-58166000D03*
X143510000Y-52324000D03*
X132334000Y-46736000D03*
X170688000Y-58166000D03*
X163576000Y-86360000D03*
X169926000Y-79756000D03*
%TO.N,USB_DM*%
X155956000Y-86360000D03*
%TO.N,USB_DP*%
X154940000Y-85852000D03*
%TO.N,Net-(J8-Pin_1)*%
X146304000Y-78740000D03*
X129540000Y-91440000D03*
%TO.N,Net-(J9-Pin_1)*%
X129540000Y-87630000D03*
X146558000Y-77978000D03*
%TO.N,Net-(J10-Pin_1)*%
X129540000Y-83820000D03*
X142240000Y-75692000D03*
X135890000Y-80772000D03*
%TD*%
D46*
%TO.N,GND*%
X135322000Y-43904000D02*
X133134000Y-43904000D01*
X168075000Y-69818000D02*
X168075000Y-70368000D01*
X140462000Y-48527000D02*
X138443000Y-48527000D01*
X133134000Y-43904000D02*
X133096000Y-43942000D01*
X138443000Y-48527000D02*
X138430000Y-48514000D01*
X158507501Y-82524999D02*
X159258000Y-81774500D01*
X165354000Y-73089000D02*
X165354000Y-74168000D01*
X168075000Y-70368000D02*
X165354000Y-73089000D01*
X156650000Y-82524999D02*
X158507501Y-82524999D01*
%TO.N,+3V3*%
X166945000Y-75007500D02*
X166690000Y-75262500D01*
X169352000Y-61897500D02*
X169352000Y-63707500D01*
X144018000Y-70612000D02*
X144018000Y-69545998D01*
X148590000Y-85344000D02*
X148082000Y-84836000D01*
X138430000Y-73660000D02*
X141478000Y-70612000D01*
X147955001Y-88709000D02*
X148730001Y-87934000D01*
X150241000Y-79121000D02*
X147828000Y-81534000D01*
X156288500Y-75262500D02*
X156210000Y-75184000D01*
X146510000Y-90805000D02*
X147955001Y-89359999D01*
X147955001Y-89359999D02*
X147955001Y-88709000D01*
X148082000Y-84836000D02*
X147828000Y-84836000D01*
X141478000Y-70612000D02*
X144018000Y-70612000D01*
X149352000Y-57150000D02*
X145034000Y-57150000D01*
X145542000Y-68021998D02*
X149301998Y-68021998D01*
X169227000Y-69596000D02*
X169227000Y-70440500D01*
X145542000Y-61722000D02*
X145542000Y-68021998D01*
X166945000Y-72722500D02*
X166945000Y-75007500D01*
X147828000Y-81534000D02*
X147828000Y-84836000D01*
X148730001Y-87934000D02*
X148730001Y-85484001D01*
X169227000Y-69596000D02*
X169227000Y-63832500D01*
X149301998Y-68021998D02*
X150114000Y-68834000D01*
X147828000Y-84836000D02*
X143510000Y-84836000D01*
X166690000Y-75262500D02*
X156288500Y-75262500D01*
X145009000Y-59049000D02*
X145009000Y-57175000D01*
X145542000Y-59582000D02*
X145009000Y-59049000D01*
X145009000Y-57175000D02*
X145034000Y-57150000D01*
X148730001Y-85484001D02*
X148590000Y-85344000D01*
X144018000Y-69545998D02*
X145542000Y-68021998D01*
X144018000Y-70612000D02*
X144018000Y-71882000D01*
X169227000Y-70440500D02*
X166945000Y-72722500D01*
X144018000Y-71882000D02*
X143510000Y-72390000D01*
X151765000Y-79121000D02*
X150241000Y-79121000D01*
X145542000Y-61722000D02*
X145542000Y-59582000D01*
X169352000Y-63707500D02*
X169227000Y-63832500D01*
%TO.N,Net-(D1-+)*%
X161189000Y-70754000D02*
X153733000Y-70754000D01*
X153075000Y-67731000D02*
X152400000Y-67056000D01*
X162125000Y-69818000D02*
X161189000Y-70754000D01*
X153075000Y-69621000D02*
X153075000Y-67731000D01*
X153733000Y-70754000D02*
X153075000Y-70096000D01*
X153075000Y-70096000D02*
X153075000Y-69621000D01*
%TO.N,+5V*%
X155172001Y-70104000D02*
X155655001Y-69621000D01*
X155181000Y-71895000D02*
X155194000Y-71882000D01*
X155181000Y-80023000D02*
X155181000Y-80772000D01*
X155655001Y-69621000D02*
X155655001Y-68011000D01*
X155900000Y-83175000D02*
X156650000Y-83175000D01*
X155181000Y-82456000D02*
X155900000Y-83175000D01*
X155181000Y-80772000D02*
X155181000Y-82456000D01*
X155655001Y-68011000D02*
X154700000Y-67055999D01*
X154178000Y-70104000D02*
X155172001Y-70104000D01*
X154700000Y-60756001D02*
X154700000Y-67055999D01*
X157226000Y-77978000D02*
X155181000Y-80023000D01*
%TO.N,+BATT*%
X168075000Y-65818000D02*
X165100000Y-68793000D01*
X165100000Y-68793000D02*
X165100000Y-72136000D01*
%TO.N,PWM-RECEIVER*%
X167135000Y-79707500D02*
X167135000Y-79753000D01*
X167135000Y-79753000D02*
X165902000Y-80986000D01*
X167640000Y-77137501D02*
X167640000Y-79202500D01*
X167640000Y-79202500D02*
X167135000Y-79707500D01*
X165902000Y-80986000D02*
X165902000Y-83820000D01*
%TO.N,PWM-INPUT*%
X168590000Y-75262500D02*
X168590000Y-72727500D01*
X168590000Y-72727500D02*
X168595000Y-72722500D01*
X166495552Y-76835000D02*
X166877276Y-76453276D01*
X142367000Y-76835000D02*
X166495552Y-76835000D01*
X166877276Y-76453276D02*
X166876552Y-76454000D01*
X168590000Y-75262500D02*
X168068052Y-75262500D01*
X168068052Y-75262500D02*
X166877276Y-76453276D01*
X142367000Y-76835000D02*
X140462000Y-78740000D01*
%TO.N,PWM-ESC*%
X165902000Y-54792500D02*
X165902000Y-53340000D01*
X169227000Y-58117500D02*
X165902000Y-54792500D01*
X168402000Y-58942500D02*
X169227000Y-58117500D01*
X168402000Y-60022499D02*
X168402000Y-58942500D01*
%TO.N,PWM-OUTPUT*%
X164357000Y-77235000D02*
X165608000Y-78486000D01*
X167452000Y-60264000D02*
X167452000Y-61897500D01*
X167132000Y-59944000D02*
X167452000Y-60264000D01*
X167577000Y-62022500D02*
X167452000Y-61897500D01*
X167577000Y-63832500D02*
X167577000Y-62022500D01*
X143491000Y-77235000D02*
X164357000Y-77235000D01*
X141224000Y-79502000D02*
X143491000Y-77235000D01*
X171450000Y-77978000D02*
X171450000Y-59436000D01*
%TO.N,Net-(R6-Pad2)*%
X146305001Y-88709000D02*
X147955001Y-87059000D01*
X145010000Y-89749000D02*
X145010000Y-90805000D01*
X146050000Y-88709000D02*
X145010000Y-89749000D01*
X146050000Y-88709000D02*
X146305001Y-88709000D01*
%TO.N,AN-CLASSE*%
X138424620Y-86819620D02*
X137619620Y-86819620D01*
X142010000Y-90805000D02*
X142010000Y-90405000D01*
X142010000Y-90405000D02*
X138424620Y-86819620D01*
%TO.N,I2C-SDA*%
X140970000Y-51000000D02*
X140970000Y-58674000D01*
X140970000Y-58674000D02*
X139149295Y-60494705D01*
%TO.N,SLAVE_SDA*%
X142128000Y-63866000D02*
X135128000Y-70866000D01*
X135382000Y-82438000D02*
X137391380Y-84447380D01*
X135128000Y-81534000D02*
X135382000Y-81788000D01*
X135382000Y-81788000D02*
X135382000Y-82438000D01*
X144780000Y-63866000D02*
X142128000Y-63866000D01*
X135128000Y-70866000D02*
X135128000Y-81534000D01*
%TO.N,Net-(D2-VDD)*%
X140522000Y-46917000D02*
X140462000Y-46977000D01*
X136398000Y-47752000D02*
X139687000Y-47752000D01*
X140522000Y-45504000D02*
X140522000Y-46917000D01*
X139687000Y-47752000D02*
X140462000Y-46977000D01*
%TO.N,LED*%
X131318000Y-52578000D02*
X131318000Y-46228000D01*
X132842000Y-54102000D02*
X131318000Y-52578000D01*
X132842000Y-71374000D02*
X132842000Y-54102000D01*
X132042000Y-45504000D02*
X135322000Y-45504000D01*
X133858000Y-72390000D02*
X132842000Y-71374000D01*
X133858000Y-76454000D02*
X133858000Y-72390000D01*
X131318000Y-46228000D02*
X132042000Y-45504000D01*
%TO.N,SLAVE_SCL*%
X144054689Y-63216000D02*
X142016000Y-63216000D01*
X142016000Y-63216000D02*
X134620000Y-70612000D01*
X134620000Y-82664512D02*
X136555126Y-84599638D01*
X134620000Y-70612000D02*
X134620000Y-82664512D01*
%TO.N,VDC*%
X169926000Y-79756000D02*
X168833500Y-79756000D01*
X167528500Y-58166000D02*
X167577000Y-58117500D01*
X166624000Y-58166000D02*
X165741000Y-59049000D01*
X147574000Y-52324000D02*
X143510000Y-52324000D01*
X148389999Y-61174000D02*
X147842000Y-61721999D01*
X159258000Y-84849500D02*
X158233500Y-83825000D01*
X168833500Y-79756000D02*
X168785000Y-79707500D01*
X159258000Y-84849500D02*
X162065500Y-84849500D01*
X132334000Y-46736000D02*
X132334000Y-46988000D01*
X170800000Y-59166761D02*
X170688000Y-59054761D01*
X148389999Y-59049000D02*
X148389999Y-61174000D01*
X162065500Y-84849500D02*
X163576000Y-86360000D01*
X165741000Y-59049000D02*
X153924000Y-59049000D01*
X158233500Y-83825000D02*
X156650000Y-83825000D01*
X166624000Y-58166000D02*
X167528500Y-58166000D01*
X132334000Y-46988000D02*
X133098000Y-47752000D01*
X150622000Y-55372000D02*
X147574000Y-52324000D01*
X153924000Y-59049000D02*
X148389999Y-59049000D01*
X153924000Y-59049000D02*
X153924000Y-58674000D01*
X169926000Y-79756000D02*
X170800000Y-78882000D01*
X170688000Y-59054761D02*
X170688000Y-58166000D01*
X170800000Y-78882000D02*
X170800000Y-59166761D01*
X153924000Y-58674000D02*
X150622000Y-55372000D01*
%TO.N,VBUS*%
X157200000Y-85025001D02*
X156650000Y-84475001D01*
X158991000Y-86868000D02*
X157332000Y-86868000D01*
X157200000Y-87000000D02*
X157200000Y-85025001D01*
X157200000Y-87000000D02*
X155920000Y-88280000D01*
X155920000Y-88280000D02*
X155920000Y-90925000D01*
X157332000Y-86868000D02*
X157200000Y-87000000D01*
%TO.N,USB_DM*%
X155300000Y-89000000D02*
X155300000Y-90895000D01*
X155300000Y-90895000D02*
X155270000Y-90925000D01*
X155956000Y-86360000D02*
X155956000Y-87334552D01*
X155300000Y-87990552D02*
X155300000Y-89000000D01*
X155956000Y-87334552D02*
X155300000Y-87990552D01*
%TO.N,USB_DP*%
X155300000Y-86212000D02*
X154940000Y-85852000D01*
X154620000Y-90925000D02*
X154620000Y-87680000D01*
X154620000Y-87680000D02*
X155300000Y-87000000D01*
X155300000Y-87000000D02*
X155300000Y-86212000D01*
%TO.N,Net-(U7-ILIM)*%
X152312001Y-82487000D02*
X152350000Y-82524999D01*
X150622000Y-82487000D02*
X152312001Y-82487000D01*
%TO.N,Net-(J8-Pin_1)*%
X144780000Y-78740000D02*
X146304000Y-78740000D01*
X129540000Y-91440000D02*
X132080000Y-91440000D01*
X132080000Y-91440000D02*
X143256000Y-80264000D01*
X143256000Y-80264000D02*
X144780000Y-78740000D01*
%TO.N,Net-(J9-Pin_1)*%
X135070314Y-87630000D02*
X135498314Y-87202000D01*
X146558000Y-77978000D02*
X144722314Y-77978000D01*
X144722314Y-77978000D02*
X135498314Y-87202000D01*
X129540000Y-87630000D02*
X135070314Y-87630000D01*
%TO.N,Net-(J10-Pin_1)*%
X142240000Y-76129289D02*
X140391289Y-77978000D01*
X142240000Y-75692000D02*
X142240000Y-76129289D01*
X140391289Y-77978000D02*
X138684000Y-77978000D01*
X138684000Y-77978000D02*
X135890000Y-80772000D01*
%TD*%
%TA.AperFunction,Conductor*%
%TO.N,GND*%
G36*
X133893914Y-43199685D02*
G01*
X133939669Y-43252489D01*
X133949613Y-43321647D01*
X133943056Y-43347334D01*
X133928404Y-43386616D01*
X133928401Y-43386627D01*
X133922000Y-43446155D01*
X133922000Y-44361844D01*
X133928401Y-44421372D01*
X133928403Y-44421379D01*
X133978645Y-44556086D01*
X133978646Y-44556088D01*
X134033432Y-44629272D01*
X134057849Y-44694736D01*
X134042998Y-44763009D01*
X134033432Y-44777894D01*
X133976601Y-44853811D01*
X133920667Y-44895682D01*
X133877334Y-44903500D01*
X132128670Y-44903500D01*
X132128654Y-44903499D01*
X132121058Y-44903499D01*
X131962943Y-44903499D01*
X131886579Y-44923961D01*
X131810214Y-44944423D01*
X131810209Y-44944426D01*
X131673290Y-45023475D01*
X131673282Y-45023481D01*
X130837481Y-45859282D01*
X130837479Y-45859285D01*
X130787361Y-45946094D01*
X130787359Y-45946096D01*
X130758425Y-45996209D01*
X130758424Y-45996210D01*
X130751652Y-46021483D01*
X130717499Y-46148943D01*
X130717499Y-46148945D01*
X130717499Y-46317046D01*
X130717500Y-46317059D01*
X130717500Y-52491330D01*
X130717499Y-52491348D01*
X130717499Y-52657054D01*
X130717498Y-52657054D01*
X130758424Y-52809787D01*
X130767935Y-52826260D01*
X130767936Y-52826262D01*
X130837477Y-52946712D01*
X130837481Y-52946717D01*
X130956349Y-53065585D01*
X130956355Y-53065590D01*
X132205181Y-54314416D01*
X132238666Y-54375739D01*
X132241500Y-54402097D01*
X132241500Y-71287330D01*
X132241499Y-71287348D01*
X132241499Y-71453054D01*
X132241498Y-71453054D01*
X132282422Y-71605783D01*
X132298562Y-71633739D01*
X132361475Y-71742709D01*
X132361481Y-71742717D01*
X132480349Y-71861585D01*
X132480355Y-71861590D01*
X133221181Y-72602416D01*
X133254666Y-72663739D01*
X133257500Y-72690097D01*
X133257500Y-75871587D01*
X133237815Y-75938626D01*
X133230450Y-75948896D01*
X133228186Y-75951734D01*
X133132211Y-76104476D01*
X133072631Y-76274745D01*
X133072630Y-76274750D01*
X133052435Y-76453996D01*
X133052435Y-76454003D01*
X133072630Y-76633249D01*
X133072631Y-76633254D01*
X133132211Y-76803523D01*
X133203266Y-76916606D01*
X133228184Y-76956262D01*
X133355738Y-77083816D01*
X133508478Y-77179789D01*
X133678745Y-77239368D01*
X133678750Y-77239369D01*
X133857996Y-77259565D01*
X133858000Y-77259565D01*
X133858001Y-77259565D01*
X133867039Y-77258546D01*
X133881615Y-77256904D01*
X133950437Y-77268958D01*
X134001817Y-77316306D01*
X134019500Y-77380124D01*
X134019500Y-82577842D01*
X134019499Y-82577860D01*
X134019499Y-82684013D01*
X133999814Y-82751052D01*
X133947010Y-82796807D01*
X133877852Y-82806751D01*
X133863409Y-82803788D01*
X133711789Y-82763162D01*
X133711788Y-82763161D01*
X133711785Y-82763161D01*
X133471289Y-82731500D01*
X133471288Y-82731500D01*
X133228712Y-82731500D01*
X133228711Y-82731500D01*
X132988214Y-82763161D01*
X132753895Y-82825947D01*
X132529794Y-82918773D01*
X132529785Y-82918777D01*
X132319706Y-83040067D01*
X132127263Y-83187733D01*
X132127256Y-83187739D01*
X131955739Y-83359256D01*
X131955733Y-83359263D01*
X131808067Y-83551706D01*
X131686777Y-83761785D01*
X131686773Y-83761794D01*
X131593947Y-83985895D01*
X131531161Y-84220214D01*
X131499500Y-84460711D01*
X131499500Y-84703288D01*
X131530412Y-84938097D01*
X131531162Y-84943789D01*
X131556138Y-85036999D01*
X131593947Y-85178104D01*
X131684201Y-85395996D01*
X131686776Y-85402212D01*
X131808064Y-85612289D01*
X131808066Y-85612292D01*
X131808067Y-85612293D01*
X131955733Y-85804736D01*
X131955739Y-85804743D01*
X132127256Y-85976260D01*
X132127263Y-85976266D01*
X132203155Y-86034500D01*
X132319711Y-86123936D01*
X132529788Y-86245224D01*
X132753900Y-86338054D01*
X132988211Y-86400838D01*
X133162704Y-86423810D01*
X133228711Y-86432500D01*
X133228712Y-86432500D01*
X133471289Y-86432500D01*
X133519388Y-86426167D01*
X133711789Y-86400838D01*
X133946100Y-86338054D01*
X134170212Y-86245224D01*
X134380289Y-86123936D01*
X134572738Y-85976265D01*
X134744265Y-85804738D01*
X134891936Y-85612289D01*
X135013224Y-85402212D01*
X135106054Y-85178100D01*
X135168838Y-84943789D01*
X135200500Y-84703288D01*
X135200500Y-84460712D01*
X135192619Y-84400851D01*
X135203384Y-84331818D01*
X135249764Y-84279562D01*
X135317033Y-84260676D01*
X135383833Y-84281156D01*
X135403239Y-84296986D01*
X135724424Y-84618171D01*
X135757909Y-84679494D01*
X135759963Y-84691968D01*
X135769756Y-84778887D01*
X135829336Y-84949159D01*
X135884529Y-85036998D01*
X135925310Y-85101900D01*
X136052864Y-85229454D01*
X136132623Y-85279570D01*
X136205604Y-85325427D01*
X136256419Y-85343208D01*
X136313195Y-85383930D01*
X136338943Y-85448882D01*
X136325487Y-85517444D01*
X136303146Y-85547931D01*
X135129598Y-86721481D01*
X134857898Y-86993181D01*
X134796575Y-87026666D01*
X134770217Y-87029500D01*
X130996116Y-87029500D01*
X130929077Y-87009815D01*
X130883322Y-86957011D01*
X130882560Y-86955311D01*
X130864172Y-86913391D01*
X130728166Y-86705217D01*
X130667469Y-86639283D01*
X130559744Y-86522262D01*
X130363509Y-86369526D01*
X130363507Y-86369525D01*
X130363506Y-86369524D01*
X130144811Y-86251172D01*
X130144802Y-86251169D01*
X129909616Y-86170429D01*
X129664335Y-86129500D01*
X129415665Y-86129500D01*
X129170383Y-86170429D01*
X128935197Y-86251169D01*
X128935188Y-86251172D01*
X128716493Y-86369524D01*
X128520257Y-86522261D01*
X128351833Y-86705217D01*
X128215826Y-86913393D01*
X128115936Y-87141118D01*
X128054892Y-87382175D01*
X128054890Y-87382187D01*
X128034357Y-87629994D01*
X128034357Y-87630005D01*
X128054890Y-87877812D01*
X128054892Y-87877824D01*
X128115936Y-88118881D01*
X128215826Y-88346606D01*
X128351833Y-88554782D01*
X128351836Y-88554785D01*
X128520256Y-88737738D01*
X128716491Y-88890474D01*
X128935190Y-89008828D01*
X129170386Y-89089571D01*
X129415665Y-89130500D01*
X129664335Y-89130500D01*
X129909614Y-89089571D01*
X130144810Y-89008828D01*
X130363509Y-88890474D01*
X130559744Y-88737738D01*
X130728164Y-88554785D01*
X130864173Y-88346607D01*
X130882560Y-88304689D01*
X130927517Y-88251204D01*
X130994253Y-88230514D01*
X130996116Y-88230500D01*
X134140903Y-88230500D01*
X134207942Y-88250185D01*
X134253697Y-88302989D01*
X134263641Y-88372147D01*
X134234616Y-88435703D01*
X134228584Y-88442181D01*
X131867584Y-90803181D01*
X131806261Y-90836666D01*
X131779903Y-90839500D01*
X130996116Y-90839500D01*
X130929077Y-90819815D01*
X130883322Y-90767011D01*
X130882560Y-90765311D01*
X130864172Y-90723391D01*
X130728166Y-90515217D01*
X130687465Y-90471004D01*
X130559744Y-90332262D01*
X130363509Y-90179526D01*
X130363507Y-90179525D01*
X130363506Y-90179524D01*
X130144811Y-90061172D01*
X130144802Y-90061169D01*
X129909616Y-89980429D01*
X129664335Y-89939500D01*
X129415665Y-89939500D01*
X129170383Y-89980429D01*
X128935197Y-90061169D01*
X128935188Y-90061172D01*
X128716493Y-90179524D01*
X128520257Y-90332261D01*
X128351833Y-90515217D01*
X128215826Y-90723393D01*
X128115936Y-90951118D01*
X128054892Y-91192175D01*
X128054890Y-91192187D01*
X128034357Y-91439994D01*
X128034357Y-91440005D01*
X128054890Y-91687812D01*
X128054892Y-91687824D01*
X128115936Y-91928881D01*
X128215826Y-92156606D01*
X128351833Y-92364782D01*
X128351836Y-92364785D01*
X128520256Y-92547738D01*
X128716491Y-92700474D01*
X128935190Y-92818828D01*
X129170386Y-92899571D01*
X129415665Y-92940500D01*
X129664335Y-92940500D01*
X129909614Y-92899571D01*
X130144810Y-92818828D01*
X130363509Y-92700474D01*
X130559744Y-92547738D01*
X130728164Y-92364785D01*
X130734232Y-92355498D01*
X130771277Y-92298796D01*
X130864173Y-92156607D01*
X130882560Y-92114689D01*
X130927517Y-92061204D01*
X130994253Y-92040514D01*
X130996116Y-92040500D01*
X131993331Y-92040500D01*
X131993347Y-92040501D01*
X132000943Y-92040501D01*
X132159054Y-92040501D01*
X132159057Y-92040501D01*
X132311785Y-91999577D01*
X132376033Y-91962483D01*
X132448716Y-91920520D01*
X132560520Y-91808716D01*
X132560520Y-91808714D01*
X132570724Y-91798511D01*
X132570728Y-91798506D01*
X133362099Y-91007135D01*
X137359500Y-91007135D01*
X137359500Y-91902870D01*
X137359501Y-91902876D01*
X137365908Y-91962483D01*
X137416202Y-92097328D01*
X137416206Y-92097335D01*
X137502452Y-92212544D01*
X137502455Y-92212547D01*
X137617664Y-92298793D01*
X137617671Y-92298797D01*
X137752517Y-92349091D01*
X137752516Y-92349091D01*
X137759444Y-92349835D01*
X137812127Y-92355500D01*
X138907872Y-92355499D01*
X138967483Y-92349091D01*
X139102331Y-92298796D01*
X139217546Y-92212546D01*
X139303796Y-92097331D01*
X139354091Y-91962483D01*
X139360500Y-91902873D01*
X139360499Y-91007128D01*
X139354091Y-90947517D01*
X139319620Y-90855096D01*
X139303797Y-90812671D01*
X139303793Y-90812664D01*
X139217547Y-90697455D01*
X139217544Y-90697452D01*
X139102335Y-90611206D01*
X139102328Y-90611202D01*
X138967482Y-90560908D01*
X138967483Y-90560908D01*
X138907883Y-90554501D01*
X138907881Y-90554500D01*
X138907873Y-90554500D01*
X138907864Y-90554500D01*
X137812129Y-90554500D01*
X137812123Y-90554501D01*
X137752516Y-90560908D01*
X137617671Y-90611202D01*
X137617664Y-90611206D01*
X137502455Y-90697452D01*
X137502452Y-90697455D01*
X137416206Y-90812664D01*
X137416202Y-90812671D01*
X137365908Y-90947517D01*
X137359501Y-91007116D01*
X137359501Y-91007123D01*
X137359500Y-91007135D01*
X133362099Y-91007135D01*
X136930897Y-87438337D01*
X136992220Y-87404852D01*
X137061912Y-87409836D01*
X137106259Y-87438337D01*
X137117358Y-87449436D01*
X137270098Y-87545409D01*
X137342456Y-87570728D01*
X137440365Y-87604988D01*
X137440370Y-87604989D01*
X137619616Y-87625185D01*
X137619620Y-87625185D01*
X137619624Y-87625185D01*
X137798869Y-87604989D01*
X137798872Y-87604988D01*
X137798875Y-87604988D01*
X137969142Y-87545409D01*
X138089321Y-87469895D01*
X138156556Y-87450895D01*
X138223391Y-87471262D01*
X138242973Y-87487208D01*
X140109378Y-89353613D01*
X140142863Y-89414936D01*
X140137879Y-89484628D01*
X140096007Y-89540561D01*
X140059497Y-89557633D01*
X140059892Y-89558691D01*
X139917913Y-89611645D01*
X139917906Y-89611649D01*
X139802812Y-89697809D01*
X139802809Y-89697812D01*
X139716649Y-89812906D01*
X139716645Y-89812913D01*
X139666403Y-89947620D01*
X139666401Y-89947627D01*
X139660000Y-90007155D01*
X139660000Y-90555000D01*
X140386000Y-90555000D01*
X140453039Y-90574685D01*
X140498794Y-90627489D01*
X140510000Y-90679000D01*
X140510000Y-90931000D01*
X140490315Y-90998039D01*
X140437511Y-91043794D01*
X140386000Y-91055000D01*
X139660000Y-91055000D01*
X139660000Y-91602844D01*
X139666401Y-91662372D01*
X139666403Y-91662379D01*
X139716645Y-91797086D01*
X139716649Y-91797093D01*
X139802809Y-91912187D01*
X139802812Y-91912190D01*
X139917906Y-91998350D01*
X139917913Y-91998354D01*
X140052620Y-92048596D01*
X140052627Y-92048598D01*
X140112155Y-92054999D01*
X140112172Y-92055000D01*
X140277587Y-92055000D01*
X140344626Y-92074685D01*
X140390381Y-92127489D01*
X140400325Y-92196647D01*
X140390355Y-92227062D01*
X140391556Y-92227560D01*
X140336421Y-92360667D01*
X140336418Y-92360677D01*
X140309500Y-92496004D01*
X140309500Y-92496007D01*
X140309500Y-92633993D01*
X140309500Y-92633995D01*
X140309499Y-92633995D01*
X140336418Y-92769322D01*
X140336421Y-92769332D01*
X140389221Y-92896804D01*
X140389228Y-92896817D01*
X140465885Y-93011541D01*
X140465888Y-93011545D01*
X140563457Y-93109114D01*
X140682625Y-93188739D01*
X140727430Y-93242351D01*
X140736137Y-93311676D01*
X140705983Y-93374703D01*
X140670035Y-93402323D01*
X140658483Y-93408209D01*
X140497716Y-93525015D01*
X140357202Y-93665532D01*
X140357198Y-93665536D01*
X140240397Y-93826303D01*
X140196582Y-93912295D01*
X140148607Y-93963091D01*
X140086097Y-93980000D01*
X139484500Y-93980000D01*
X139417461Y-93960315D01*
X139371706Y-93907511D01*
X139360500Y-93856000D01*
X139360499Y-93217129D01*
X139360498Y-93217123D01*
X139357128Y-93185775D01*
X139354091Y-93157517D01*
X139352410Y-93153011D01*
X139303797Y-93022671D01*
X139303793Y-93022664D01*
X139217547Y-92907455D01*
X139217544Y-92907452D01*
X139102335Y-92821206D01*
X139102328Y-92821202D01*
X138967482Y-92770908D01*
X138967483Y-92770908D01*
X138907883Y-92764501D01*
X138907881Y-92764500D01*
X138907873Y-92764500D01*
X138907864Y-92764500D01*
X137812129Y-92764500D01*
X137812123Y-92764501D01*
X137752516Y-92770908D01*
X137617671Y-92821202D01*
X137617664Y-92821206D01*
X137502455Y-92907452D01*
X137502452Y-92907455D01*
X137416206Y-93022664D01*
X137416202Y-93022671D01*
X137365910Y-93157513D01*
X137365909Y-93157517D01*
X137359500Y-93217127D01*
X137359500Y-93550000D01*
X137359501Y-93856000D01*
X137339817Y-93923039D01*
X137287013Y-93968794D01*
X137235501Y-93980000D01*
X127123902Y-93980000D01*
X127056863Y-93960315D01*
X127011108Y-93907511D01*
X126999902Y-93856017D01*
X126999894Y-93800000D01*
X126998552Y-83819994D01*
X128034357Y-83819994D01*
X128034357Y-83820005D01*
X128054890Y-84067812D01*
X128054892Y-84067824D01*
X128115936Y-84308881D01*
X128215826Y-84536606D01*
X128351833Y-84744782D01*
X128351836Y-84744785D01*
X128520256Y-84927738D01*
X128716491Y-85080474D01*
X128716493Y-85080475D01*
X128910604Y-85185523D01*
X128935190Y-85198828D01*
X129170386Y-85279571D01*
X129415665Y-85320500D01*
X129664335Y-85320500D01*
X129909614Y-85279571D01*
X130144810Y-85198828D01*
X130363509Y-85080474D01*
X130559744Y-84927738D01*
X130728164Y-84744785D01*
X130864173Y-84536607D01*
X130964063Y-84308881D01*
X131025108Y-84067821D01*
X131025109Y-84067812D01*
X131045643Y-83820005D01*
X131045643Y-83819994D01*
X131025109Y-83572187D01*
X131025107Y-83572175D01*
X130964063Y-83331118D01*
X130864173Y-83103393D01*
X130728166Y-82895217D01*
X130663261Y-82824712D01*
X130559744Y-82712262D01*
X130363509Y-82559526D01*
X130363507Y-82559525D01*
X130363506Y-82559524D01*
X130144811Y-82441172D01*
X130144802Y-82441169D01*
X129909616Y-82360429D01*
X129664335Y-82319500D01*
X129415665Y-82319500D01*
X129170383Y-82360429D01*
X128935197Y-82441169D01*
X128935188Y-82441172D01*
X128716493Y-82559524D01*
X128520257Y-82712261D01*
X128351833Y-82895217D01*
X128215826Y-83103393D01*
X128115936Y-83331118D01*
X128054892Y-83572175D01*
X128054890Y-83572187D01*
X128034357Y-83819994D01*
X126998552Y-83819994D01*
X126998039Y-80009994D01*
X128034357Y-80009994D01*
X128034357Y-80010005D01*
X128054890Y-80257812D01*
X128054892Y-80257824D01*
X128115936Y-80498881D01*
X128215826Y-80726606D01*
X128351833Y-80934782D01*
X128351836Y-80934785D01*
X128520256Y-81117738D01*
X128716491Y-81270474D01*
X128935190Y-81388828D01*
X129170386Y-81469571D01*
X129415665Y-81510500D01*
X129664335Y-81510500D01*
X129909614Y-81469571D01*
X130144810Y-81388828D01*
X130363509Y-81270474D01*
X130559744Y-81117738D01*
X130728164Y-80934785D01*
X130864173Y-80726607D01*
X130964063Y-80498881D01*
X131025108Y-80257821D01*
X131045643Y-80010000D01*
X131043607Y-79985430D01*
X131025109Y-79762187D01*
X131025107Y-79762175D01*
X130964063Y-79521118D01*
X130864173Y-79293393D01*
X130728166Y-79085217D01*
X130677529Y-79030211D01*
X130559744Y-78902262D01*
X130363509Y-78749526D01*
X130363507Y-78749525D01*
X130363506Y-78749524D01*
X130144811Y-78631172D01*
X130144802Y-78631169D01*
X129909616Y-78550429D01*
X129664335Y-78509500D01*
X129415665Y-78509500D01*
X129170383Y-78550429D01*
X128935197Y-78631169D01*
X128935188Y-78631172D01*
X128716493Y-78749524D01*
X128520257Y-78902261D01*
X128351833Y-79085217D01*
X128215826Y-79293393D01*
X128115936Y-79521118D01*
X128054892Y-79762175D01*
X128054890Y-79762187D01*
X128034357Y-80009994D01*
X126998039Y-80009994D01*
X126997526Y-76199994D01*
X128005357Y-76199994D01*
X128005357Y-76200005D01*
X128025890Y-76447812D01*
X128025892Y-76447824D01*
X128086936Y-76688881D01*
X128186826Y-76916606D01*
X128322833Y-77124782D01*
X128322836Y-77124785D01*
X128491256Y-77307738D01*
X128687491Y-77460474D01*
X128906190Y-77578828D01*
X129141386Y-77659571D01*
X129386665Y-77700500D01*
X129635335Y-77700500D01*
X129880614Y-77659571D01*
X130115810Y-77578828D01*
X130334509Y-77460474D01*
X130530744Y-77307738D01*
X130699164Y-77124785D01*
X130835173Y-76916607D01*
X130935063Y-76688881D01*
X130996108Y-76447821D01*
X130996109Y-76447812D01*
X131016643Y-76200005D01*
X131016643Y-76199994D01*
X130996109Y-75952187D01*
X130996107Y-75952175D01*
X130935063Y-75711118D01*
X130835173Y-75483393D01*
X130699166Y-75275217D01*
X130615197Y-75184003D01*
X130530744Y-75092262D01*
X130334509Y-74939526D01*
X130334507Y-74939525D01*
X130334506Y-74939524D01*
X130115811Y-74821172D01*
X130115802Y-74821169D01*
X129880616Y-74740429D01*
X129635335Y-74699500D01*
X129386665Y-74699500D01*
X129141383Y-74740429D01*
X128906197Y-74821169D01*
X128906188Y-74821172D01*
X128687493Y-74939524D01*
X128491257Y-75092261D01*
X128322833Y-75275217D01*
X128186826Y-75483393D01*
X128086936Y-75711118D01*
X128025892Y-75952175D01*
X128025890Y-75952187D01*
X128005357Y-76199994D01*
X126997526Y-76199994D01*
X126997013Y-72389994D01*
X128034357Y-72389994D01*
X128034357Y-72390005D01*
X128054890Y-72637812D01*
X128054892Y-72637824D01*
X128115936Y-72878881D01*
X128215826Y-73106606D01*
X128351833Y-73314782D01*
X128384245Y-73349991D01*
X128520256Y-73497738D01*
X128716491Y-73650474D01*
X128935190Y-73768828D01*
X129170386Y-73849571D01*
X129415665Y-73890500D01*
X129664335Y-73890500D01*
X129909614Y-73849571D01*
X130144810Y-73768828D01*
X130363509Y-73650474D01*
X130559744Y-73497738D01*
X130728164Y-73314785D01*
X130864173Y-73106607D01*
X130964063Y-72878881D01*
X131025108Y-72637821D01*
X131030790Y-72569249D01*
X131045643Y-72390005D01*
X131045643Y-72389994D01*
X131025109Y-72142187D01*
X131025107Y-72142175D01*
X130964063Y-71901118D01*
X130864173Y-71673393D01*
X130728166Y-71465217D01*
X130706557Y-71441744D01*
X130559744Y-71282262D01*
X130363509Y-71129526D01*
X130363507Y-71129525D01*
X130363506Y-71129524D01*
X130144811Y-71011172D01*
X130144802Y-71011169D01*
X129909616Y-70930429D01*
X129664335Y-70889500D01*
X129415665Y-70889500D01*
X129170383Y-70930429D01*
X128935197Y-71011169D01*
X128935188Y-71011172D01*
X128716493Y-71129524D01*
X128520257Y-71282261D01*
X128351833Y-71465217D01*
X128215826Y-71673393D01*
X128115936Y-71901118D01*
X128054892Y-72142175D01*
X128054890Y-72142187D01*
X128034357Y-72389994D01*
X126997013Y-72389994D01*
X126995779Y-63221876D01*
X126993098Y-43304017D01*
X127012774Y-43236975D01*
X127065571Y-43191213D01*
X127117098Y-43180000D01*
X133826875Y-43180000D01*
X133893914Y-43199685D01*
G37*
%TD.AperFunction*%
%TA.AperFunction,Conductor*%
G36*
X156286940Y-77855185D02*
G01*
X156332695Y-77907989D01*
X156342639Y-77977147D01*
X156313614Y-78040703D01*
X156307582Y-78047181D01*
X154812286Y-79542478D01*
X154700481Y-79654282D01*
X154700479Y-79654285D01*
X154650361Y-79741094D01*
X154650359Y-79741096D01*
X154621425Y-79791209D01*
X154621421Y-79791218D01*
X154606968Y-79845157D01*
X154570603Y-79904817D01*
X154552293Y-79918599D01*
X154502956Y-79949031D01*
X154383029Y-80068959D01*
X154294001Y-80213294D01*
X154293996Y-80213305D01*
X154240651Y-80374290D01*
X154230500Y-80473647D01*
X154230500Y-81070337D01*
X154230501Y-81070355D01*
X154240650Y-81169707D01*
X154240651Y-81169710D01*
X154293996Y-81330694D01*
X154294001Y-81330705D01*
X154383029Y-81475040D01*
X154383032Y-81475044D01*
X154502956Y-81594968D01*
X154521596Y-81606465D01*
X154568321Y-81658412D01*
X154580500Y-81712004D01*
X154580500Y-82369330D01*
X154580499Y-82369348D01*
X154580499Y-82535054D01*
X154580498Y-82535054D01*
X154591068Y-82574500D01*
X154620412Y-82684013D01*
X154621424Y-82687787D01*
X154639320Y-82718783D01*
X154639321Y-82718785D01*
X154700477Y-82824712D01*
X154700481Y-82824717D01*
X154819349Y-82943585D01*
X154819354Y-82943589D01*
X155531284Y-83655520D01*
X155531286Y-83655521D01*
X155531290Y-83655524D01*
X155645723Y-83721591D01*
X155668216Y-83734577D01*
X155807597Y-83771924D01*
X155867254Y-83808288D01*
X155897783Y-83871135D01*
X155899500Y-83891698D01*
X155899500Y-84044752D01*
X155913515Y-84115209D01*
X155912239Y-84115462D01*
X155918317Y-84172023D01*
X155911304Y-84195906D01*
X155899500Y-84255248D01*
X155899500Y-84694753D01*
X155911131Y-84753230D01*
X155911132Y-84753231D01*
X155955447Y-84819553D01*
X156021769Y-84863868D01*
X156021770Y-84863869D01*
X156080247Y-84875500D01*
X156080250Y-84875501D01*
X156080252Y-84875501D01*
X156149903Y-84875501D01*
X156216942Y-84895186D01*
X156237584Y-84911820D01*
X156563181Y-85237417D01*
X156596666Y-85298740D01*
X156599500Y-85325098D01*
X156599500Y-85594568D01*
X156579815Y-85661607D01*
X156527011Y-85707362D01*
X156457853Y-85717306D01*
X156409528Y-85699562D01*
X156305523Y-85634211D01*
X156135254Y-85574631D01*
X156135249Y-85574630D01*
X155956004Y-85554435D01*
X155955996Y-85554435D01*
X155791887Y-85572925D01*
X155723065Y-85560870D01*
X155671686Y-85513521D01*
X155666278Y-85503495D01*
X155665790Y-85502482D01*
X155665789Y-85502478D01*
X155642751Y-85465814D01*
X155616133Y-85423452D01*
X155569816Y-85349738D01*
X155442262Y-85222184D01*
X155289523Y-85126211D01*
X155119254Y-85066631D01*
X155119249Y-85066630D01*
X154940004Y-85046435D01*
X154939996Y-85046435D01*
X154760750Y-85066630D01*
X154760745Y-85066631D01*
X154590476Y-85126211D01*
X154437737Y-85222184D01*
X154310184Y-85349737D01*
X154214211Y-85502476D01*
X154154631Y-85672745D01*
X154154630Y-85672750D01*
X154134435Y-85851996D01*
X154134435Y-85852003D01*
X154154630Y-86031249D01*
X154154631Y-86031254D01*
X154214211Y-86201523D01*
X154282069Y-86309518D01*
X154310184Y-86354262D01*
X154437738Y-86481816D01*
X154438628Y-86482375D01*
X154466191Y-86499694D01*
X154512482Y-86552029D01*
X154523130Y-86621082D01*
X154519295Y-86639283D01*
X154502402Y-86697426D01*
X154502401Y-86697432D01*
X154499500Y-86734298D01*
X154499500Y-86899902D01*
X154479815Y-86966941D01*
X154463181Y-86987583D01*
X154139481Y-87311282D01*
X154139479Y-87311284D01*
X154116749Y-87350656D01*
X154106322Y-87368716D01*
X154060423Y-87448215D01*
X154019499Y-87600943D01*
X154019499Y-87600945D01*
X154019499Y-87769046D01*
X154019500Y-87769059D01*
X154019500Y-89708561D01*
X153999815Y-89775600D01*
X153994753Y-89782890D01*
X153993253Y-89784893D01*
X153937312Y-89826754D01*
X153867620Y-89831725D01*
X153806303Y-89798229D01*
X153772829Y-89736900D01*
X153770000Y-89710564D01*
X153770000Y-89550000D01*
X153722172Y-89550000D01*
X153722153Y-89550001D01*
X153658255Y-89556871D01*
X153631745Y-89556871D01*
X153567846Y-89550001D01*
X153567828Y-89550000D01*
X153520000Y-89550000D01*
X153520000Y-90725000D01*
X153795501Y-90725000D01*
X153862540Y-90744685D01*
X153908295Y-90797489D01*
X153919500Y-90848997D01*
X153919501Y-90931000D01*
X153919501Y-91001000D01*
X153899816Y-91068039D01*
X153847012Y-91113794D01*
X153795501Y-91125000D01*
X153520000Y-91125000D01*
X153520000Y-92220000D01*
X153596000Y-92220000D01*
X153663039Y-92239685D01*
X153708794Y-92292489D01*
X153720000Y-92344000D01*
X153720000Y-93550000D01*
X157757500Y-93550000D01*
X157757500Y-92350000D01*
X157172155Y-92350000D01*
X157112627Y-92356401D01*
X157112619Y-92356403D01*
X156988333Y-92402759D01*
X156918641Y-92407743D01*
X156901667Y-92402759D01*
X156777380Y-92356403D01*
X156777372Y-92356401D01*
X156717844Y-92350000D01*
X156581197Y-92350000D01*
X156514158Y-92330315D01*
X156468403Y-92277511D01*
X156458459Y-92208353D01*
X156481931Y-92151689D01*
X156563793Y-92042335D01*
X156563792Y-92042335D01*
X156563796Y-92042331D01*
X156614091Y-91907483D01*
X156620500Y-91847873D01*
X156620499Y-91124764D01*
X156660795Y-91165060D01*
X156729204Y-91204556D01*
X156805504Y-91225000D01*
X156884496Y-91225000D01*
X156960796Y-91204556D01*
X157029205Y-91165060D01*
X157085060Y-91109205D01*
X157095000Y-91091988D01*
X157095000Y-91843881D01*
X157122103Y-91838491D01*
X157122110Y-91838489D01*
X157294987Y-91766882D01*
X157295000Y-91766875D01*
X157450589Y-91662913D01*
X157450593Y-91662910D01*
X157582910Y-91530593D01*
X157582913Y-91530589D01*
X157686875Y-91375000D01*
X157686880Y-91374991D01*
X157758491Y-91202105D01*
X157758493Y-91202097D01*
X157788748Y-91050000D01*
X157119242Y-91050000D01*
X157124556Y-91040796D01*
X157145000Y-90964496D01*
X157145000Y-90635504D01*
X157124556Y-90559204D01*
X157119242Y-90550000D01*
X157788748Y-90550000D01*
X157788748Y-90549999D01*
X157758493Y-90397902D01*
X157758491Y-90397894D01*
X157686880Y-90225008D01*
X157686875Y-90224999D01*
X157582913Y-90069410D01*
X157582910Y-90069406D01*
X157523806Y-90010302D01*
X157490321Y-89948979D01*
X157495305Y-89879287D01*
X157537177Y-89823354D01*
X157574598Y-89804235D01*
X157604064Y-89795053D01*
X157744337Y-89710256D01*
X157744342Y-89710252D01*
X157860252Y-89594342D01*
X157860256Y-89594337D01*
X157945052Y-89454065D01*
X157993821Y-89297558D01*
X157998142Y-89250000D01*
X157250000Y-89250000D01*
X157250000Y-89856000D01*
X157230315Y-89923039D01*
X157177511Y-89968794D01*
X157126000Y-89980000D01*
X157095000Y-89980000D01*
X157095000Y-90508011D01*
X157085060Y-90490795D01*
X157029205Y-90434940D01*
X156960796Y-90395444D01*
X156884496Y-90375000D01*
X156805504Y-90375000D01*
X156729204Y-90395444D01*
X156660795Y-90434940D01*
X156620499Y-90475235D01*
X156620499Y-90002128D01*
X156614640Y-89947620D01*
X156614091Y-89942516D01*
X156602818Y-89912292D01*
X156595000Y-89868959D01*
X156595000Y-89719000D01*
X156614685Y-89651961D01*
X156667489Y-89606206D01*
X156719000Y-89595000D01*
X156750000Y-89595000D01*
X156750000Y-89124000D01*
X156769685Y-89056961D01*
X156822489Y-89011206D01*
X156874000Y-89000000D01*
X157000000Y-89000000D01*
X157000000Y-88874000D01*
X157019685Y-88806961D01*
X157072489Y-88761206D01*
X157124000Y-88750000D01*
X157998143Y-88750000D01*
X157998142Y-88749999D01*
X157993821Y-88702441D01*
X157945052Y-88545934D01*
X157860256Y-88405662D01*
X157860252Y-88405657D01*
X157744342Y-88289747D01*
X157744337Y-88289743D01*
X157604065Y-88204947D01*
X157447562Y-88156179D01*
X157379556Y-88150000D01*
X157198597Y-88150000D01*
X157131558Y-88130315D01*
X157085803Y-88077511D01*
X157075859Y-88008353D01*
X157104884Y-87944797D01*
X157110916Y-87938319D01*
X157162416Y-87886819D01*
X157223739Y-87853334D01*
X157250097Y-87850500D01*
X157415686Y-87850500D01*
X157415694Y-87850500D01*
X157452569Y-87847598D01*
X157452571Y-87847597D01*
X157452573Y-87847597D01*
X157503314Y-87832855D01*
X157610398Y-87801744D01*
X157751865Y-87718081D01*
X157868081Y-87601865D01*
X157910949Y-87529378D01*
X157962018Y-87481696D01*
X158017681Y-87468500D01*
X158060575Y-87468500D01*
X158127614Y-87488185D01*
X158166113Y-87527402D01*
X158193031Y-87571043D01*
X158312955Y-87690967D01*
X158312959Y-87690970D01*
X158457294Y-87779998D01*
X158457297Y-87779999D01*
X158457303Y-87780003D01*
X158618292Y-87833349D01*
X158717655Y-87843500D01*
X159264344Y-87843499D01*
X159264352Y-87843498D01*
X159264355Y-87843498D01*
X159318760Y-87837940D01*
X159363708Y-87833349D01*
X159524697Y-87780003D01*
X159669044Y-87690968D01*
X159678668Y-87681343D01*
X159739987Y-87647856D01*
X159809679Y-87652835D01*
X159854034Y-87681339D01*
X159863267Y-87690572D01*
X159863271Y-87690575D01*
X160007507Y-87779542D01*
X160007518Y-87779547D01*
X160168393Y-87832855D01*
X160267683Y-87842999D01*
X160791000Y-87842999D01*
X160814308Y-87842999D01*
X160814322Y-87842998D01*
X160913607Y-87832855D01*
X161074481Y-87779547D01*
X161074492Y-87779542D01*
X161218728Y-87690575D01*
X161218732Y-87690572D01*
X161338572Y-87570732D01*
X161338575Y-87570728D01*
X161427542Y-87426492D01*
X161427547Y-87426481D01*
X161480855Y-87265606D01*
X161490999Y-87166322D01*
X161491000Y-87166309D01*
X161491000Y-87118000D01*
X160791000Y-87118000D01*
X160791000Y-87842999D01*
X160267683Y-87842999D01*
X160291000Y-87842998D01*
X160291000Y-86992000D01*
X160310685Y-86924961D01*
X160363489Y-86879206D01*
X160415000Y-86868000D01*
X160541000Y-86868000D01*
X160541000Y-86742000D01*
X160560685Y-86674961D01*
X160613489Y-86629206D01*
X160665000Y-86618000D01*
X161490999Y-86618000D01*
X161490999Y-86569692D01*
X161490998Y-86569677D01*
X161480855Y-86470392D01*
X161427547Y-86309518D01*
X161427542Y-86309507D01*
X161338575Y-86165271D01*
X161338572Y-86165267D01*
X161218732Y-86045427D01*
X161218728Y-86045424D01*
X161074492Y-85956457D01*
X161074481Y-85956452D01*
X160913607Y-85903144D01*
X160880576Y-85899769D01*
X160815884Y-85873372D01*
X160775734Y-85816190D01*
X160772872Y-85746379D01*
X160787638Y-85711319D01*
X160867814Y-85581334D01*
X160883169Y-85534994D01*
X160922942Y-85477550D01*
X160987459Y-85450728D01*
X161000875Y-85450000D01*
X161765403Y-85450000D01*
X161832442Y-85469685D01*
X161853084Y-85486319D01*
X162745298Y-86378533D01*
X162778783Y-86439856D01*
X162780837Y-86452330D01*
X162790630Y-86539249D01*
X162850210Y-86709521D01*
X162865784Y-86734306D01*
X162946184Y-86862262D01*
X163073738Y-86989816D01*
X163136895Y-87029500D01*
X163183843Y-87059000D01*
X163226478Y-87085789D01*
X163318532Y-87118000D01*
X163396745Y-87145368D01*
X163396750Y-87145369D01*
X163575996Y-87165565D01*
X163576000Y-87165565D01*
X163576004Y-87165565D01*
X163755249Y-87145369D01*
X163755252Y-87145368D01*
X163755255Y-87145368D01*
X163925522Y-87085789D01*
X164078262Y-86989816D01*
X164205816Y-86862262D01*
X164301789Y-86709522D01*
X164361368Y-86539255D01*
X164364704Y-86509646D01*
X164381565Y-86360003D01*
X164381565Y-86359996D01*
X164361369Y-86180750D01*
X164361368Y-86180745D01*
X164334284Y-86103343D01*
X164301789Y-86010478D01*
X164296461Y-86001999D01*
X164241378Y-85914335D01*
X164205816Y-85857738D01*
X164078262Y-85730184D01*
X164041941Y-85707362D01*
X163925521Y-85634210D01*
X163755249Y-85574630D01*
X163668330Y-85564837D01*
X163603916Y-85537770D01*
X163594533Y-85529298D01*
X162553090Y-84487855D01*
X162553088Y-84487852D01*
X162434217Y-84368981D01*
X162434212Y-84368977D01*
X162330121Y-84308881D01*
X162330120Y-84308880D01*
X162297290Y-84289925D01*
X162297289Y-84289924D01*
X162267347Y-84281901D01*
X162144557Y-84248999D01*
X161986443Y-84248999D01*
X161978847Y-84248999D01*
X161978831Y-84249000D01*
X161000875Y-84249000D01*
X160933836Y-84229315D01*
X160888081Y-84176511D01*
X160883169Y-84164005D01*
X160867814Y-84117666D01*
X160775712Y-83968344D01*
X160651656Y-83844288D01*
X160517911Y-83761794D01*
X160502336Y-83752187D01*
X160502331Y-83752185D01*
X160492719Y-83749000D01*
X160335797Y-83697001D01*
X160335795Y-83697000D01*
X160233016Y-83686500D01*
X160233009Y-83686500D01*
X158995597Y-83686500D01*
X158928558Y-83666815D01*
X158907916Y-83650181D01*
X158721090Y-83463355D01*
X158721088Y-83463352D01*
X158602217Y-83344481D01*
X158602216Y-83344480D01*
X158515404Y-83294360D01*
X158515404Y-83294359D01*
X158515400Y-83294358D01*
X158465285Y-83265423D01*
X158312557Y-83224499D01*
X158154443Y-83224499D01*
X158146847Y-83224499D01*
X158146831Y-83224500D01*
X157698377Y-83224500D01*
X157631338Y-83204815D01*
X157585583Y-83152011D01*
X157575639Y-83082853D01*
X157599110Y-83026189D01*
X157643352Y-82967087D01*
X157643355Y-82967083D01*
X157688912Y-82844938D01*
X157730783Y-82789004D01*
X157796247Y-82764586D01*
X157864520Y-82779437D01*
X157870191Y-82782731D01*
X158013875Y-82871356D01*
X158013880Y-82871358D01*
X158180302Y-82926505D01*
X158180309Y-82926506D01*
X158283019Y-82936999D01*
X159007999Y-82936999D01*
X159508000Y-82936999D01*
X160232972Y-82936999D01*
X160232986Y-82936998D01*
X160335697Y-82926505D01*
X160502119Y-82871358D01*
X160502124Y-82871356D01*
X160651345Y-82779315D01*
X160775315Y-82655345D01*
X160867356Y-82506124D01*
X160867358Y-82506119D01*
X160922505Y-82339697D01*
X160922506Y-82339690D01*
X160932999Y-82236986D01*
X160933000Y-82236973D01*
X160933000Y-82024500D01*
X159508000Y-82024500D01*
X159508000Y-82936999D01*
X159007999Y-82936999D01*
X159008000Y-82936998D01*
X159008000Y-82024500D01*
X157577000Y-82024500D01*
X157509961Y-82004815D01*
X157464206Y-81952011D01*
X157453000Y-81900500D01*
X157453000Y-81889812D01*
X157442089Y-81881646D01*
X157442086Y-81881644D01*
X157368836Y-81854323D01*
X157312902Y-81812452D01*
X157288486Y-81746987D01*
X157303338Y-81678714D01*
X157347074Y-81632603D01*
X157408731Y-81594573D01*
X157443220Y-81560084D01*
X157504542Y-81526598D01*
X157531638Y-81528535D01*
X157531638Y-81524500D01*
X159008000Y-81524500D01*
X159508000Y-81524500D01*
X160932999Y-81524500D01*
X160932999Y-81312028D01*
X160932998Y-81312013D01*
X160922505Y-81209302D01*
X160867358Y-81042880D01*
X160867356Y-81042875D01*
X160775315Y-80893654D01*
X160651345Y-80769684D01*
X160502124Y-80677643D01*
X160502119Y-80677641D01*
X160335697Y-80622494D01*
X160335690Y-80622493D01*
X160232986Y-80612000D01*
X159508000Y-80612000D01*
X159508000Y-81524500D01*
X159008000Y-81524500D01*
X159008000Y-80612000D01*
X158283028Y-80612000D01*
X158283012Y-80612001D01*
X158180302Y-80622494D01*
X158013880Y-80677641D01*
X158013875Y-80677643D01*
X157864654Y-80769684D01*
X157811000Y-80823338D01*
X157811000Y-80898000D01*
X157791315Y-80965039D01*
X157738511Y-81010794D01*
X157687000Y-81022000D01*
X156981000Y-81022000D01*
X156981000Y-81753000D01*
X156961315Y-81820039D01*
X156908511Y-81865794D01*
X156857000Y-81877000D01*
X156850000Y-81877000D01*
X156850000Y-82400999D01*
X156830315Y-82468038D01*
X156777511Y-82513793D01*
X156726000Y-82524999D01*
X156574000Y-82524999D01*
X156506961Y-82505314D01*
X156461206Y-82452510D01*
X156450000Y-82400999D01*
X156450000Y-81777361D01*
X156469685Y-81710322D01*
X156481000Y-81696280D01*
X156481000Y-80522000D01*
X156981000Y-80522000D01*
X157680999Y-80522000D01*
X157680999Y-80473692D01*
X157680998Y-80473677D01*
X157670855Y-80374392D01*
X157617547Y-80213518D01*
X157617542Y-80213507D01*
X157528575Y-80069271D01*
X157528572Y-80069267D01*
X157408732Y-79949427D01*
X157408728Y-79949424D01*
X157264492Y-79860457D01*
X157264481Y-79860452D01*
X157103606Y-79807144D01*
X157004322Y-79797000D01*
X156981000Y-79797000D01*
X156981000Y-80522000D01*
X156481000Y-80522000D01*
X156481000Y-79796999D01*
X156456299Y-79772300D01*
X156422812Y-79710978D01*
X156427795Y-79641286D01*
X156456294Y-79596939D01*
X157244536Y-78808698D01*
X157305857Y-78775215D01*
X157318310Y-78773163D01*
X157405255Y-78763368D01*
X157575522Y-78703789D01*
X157728262Y-78607816D01*
X157855816Y-78480262D01*
X157951789Y-78327522D01*
X158011368Y-78157255D01*
X158013709Y-78136478D01*
X158031565Y-77978003D01*
X158031565Y-77978000D01*
X158031045Y-77973386D01*
X158043098Y-77904564D01*
X158090447Y-77853183D01*
X158154265Y-77835500D01*
X164056903Y-77835500D01*
X164123942Y-77855185D01*
X164144584Y-77871819D01*
X164777298Y-78504533D01*
X164810783Y-78565856D01*
X164812837Y-78578330D01*
X164822630Y-78665249D01*
X164822631Y-78665254D01*
X164822632Y-78665255D01*
X164826056Y-78675039D01*
X164882210Y-78835521D01*
X164957900Y-78955980D01*
X164978184Y-78988262D01*
X165105738Y-79115816D01*
X165258478Y-79211789D01*
X165345565Y-79242262D01*
X165428745Y-79271368D01*
X165428750Y-79271369D01*
X165607996Y-79291565D01*
X165608000Y-79291565D01*
X165608004Y-79291565D01*
X165787249Y-79271369D01*
X165787252Y-79271368D01*
X165787255Y-79271368D01*
X165957522Y-79211789D01*
X166061928Y-79146186D01*
X166129161Y-79127186D01*
X166195997Y-79147553D01*
X166241211Y-79200820D01*
X166250450Y-79270076D01*
X166246285Y-79288065D01*
X166242487Y-79300255D01*
X166240914Y-79305304D01*
X166235052Y-79369816D01*
X166234500Y-79375886D01*
X166234500Y-79752902D01*
X166214815Y-79819941D01*
X166198181Y-79840583D01*
X165421481Y-80617282D01*
X165421475Y-80617290D01*
X165383539Y-80682999D01*
X165383539Y-80683000D01*
X165342423Y-80754215D01*
X165301499Y-80906943D01*
X165301499Y-80906945D01*
X165301499Y-81075046D01*
X165301500Y-81075059D01*
X165301500Y-81365931D01*
X165281815Y-81432970D01*
X165233796Y-81476415D01*
X165115568Y-81536655D01*
X164996663Y-81623046D01*
X164924490Y-81675483D01*
X164924488Y-81675485D01*
X164924487Y-81675485D01*
X164757485Y-81842487D01*
X164757485Y-81842488D01*
X164757483Y-81842490D01*
X164721319Y-81892266D01*
X164618657Y-82033566D01*
X164511433Y-82244003D01*
X164438446Y-82468631D01*
X164401500Y-82701902D01*
X164401500Y-84938097D01*
X164438446Y-85171368D01*
X164511433Y-85395996D01*
X164605868Y-85581333D01*
X164618657Y-85606433D01*
X164757483Y-85797510D01*
X164924490Y-85964517D01*
X165115567Y-86103343D01*
X165166903Y-86129500D01*
X165326003Y-86210566D01*
X165326005Y-86210566D01*
X165326008Y-86210568D01*
X165432662Y-86245222D01*
X165550631Y-86283553D01*
X165783903Y-86320500D01*
X165783908Y-86320500D01*
X166020097Y-86320500D01*
X166253368Y-86283553D01*
X166263269Y-86280336D01*
X166477992Y-86210568D01*
X166688433Y-86103343D01*
X166879510Y-85964517D01*
X167046517Y-85797510D01*
X167051682Y-85790401D01*
X167107012Y-85747735D01*
X167176625Y-85741756D01*
X167238420Y-85774362D01*
X167252318Y-85790401D01*
X167257483Y-85797510D01*
X167424490Y-85964517D01*
X167615567Y-86103343D01*
X167666903Y-86129500D01*
X167826003Y-86210566D01*
X167826005Y-86210566D01*
X167826008Y-86210568D01*
X167932662Y-86245222D01*
X168050631Y-86283553D01*
X168283903Y-86320500D01*
X168283908Y-86320500D01*
X168520097Y-86320500D01*
X168753368Y-86283553D01*
X168763269Y-86280336D01*
X168977992Y-86210568D01*
X169188433Y-86103343D01*
X169379510Y-85964517D01*
X169546517Y-85797510D01*
X169551987Y-85789980D01*
X169607310Y-85747313D01*
X169676923Y-85741328D01*
X169738721Y-85773928D01*
X169752625Y-85789973D01*
X169757863Y-85797183D01*
X169924813Y-85964133D01*
X170115828Y-86102914D01*
X170326195Y-86210102D01*
X170550744Y-86283063D01*
X170550750Y-86283065D01*
X170652000Y-86299101D01*
X170652000Y-81340897D01*
X170550752Y-81356934D01*
X170326197Y-81429897D01*
X170115828Y-81537085D01*
X169924813Y-81675866D01*
X169757866Y-81842813D01*
X169752622Y-81850031D01*
X169697289Y-81892693D01*
X169627675Y-81898668D01*
X169565882Y-81866058D01*
X169551992Y-81850026D01*
X169546517Y-81842490D01*
X169379510Y-81675483D01*
X169188433Y-81536657D01*
X169137097Y-81510500D01*
X168977996Y-81429433D01*
X168753368Y-81356446D01*
X168520097Y-81319500D01*
X168520092Y-81319500D01*
X168283908Y-81319500D01*
X168283903Y-81319500D01*
X168050631Y-81356446D01*
X167826003Y-81429433D01*
X167615566Y-81536657D01*
X167535309Y-81594968D01*
X167424490Y-81675483D01*
X167424488Y-81675485D01*
X167424487Y-81675485D01*
X167257482Y-81842490D01*
X167252315Y-81849603D01*
X167196983Y-81892266D01*
X167127370Y-81898242D01*
X167065576Y-81865634D01*
X167051685Y-81849603D01*
X167046517Y-81842490D01*
X166879512Y-81675485D01*
X166879510Y-81675483D01*
X166765864Y-81592914D01*
X166688431Y-81536655D01*
X166570204Y-81476415D01*
X166519409Y-81428441D01*
X166502500Y-81365931D01*
X166502500Y-81286097D01*
X166522185Y-81219058D01*
X166538819Y-81198416D01*
X167017916Y-80719319D01*
X167079239Y-80685834D01*
X167105597Y-80683000D01*
X167391613Y-80683000D01*
X167391616Y-80683000D01*
X167462196Y-80676586D01*
X167624606Y-80625978D01*
X167770185Y-80537972D01*
X167809276Y-80498881D01*
X167872319Y-80435839D01*
X167933642Y-80402354D01*
X168003334Y-80407338D01*
X168047681Y-80435839D01*
X168149811Y-80537969D01*
X168149813Y-80537970D01*
X168149815Y-80537972D01*
X168295394Y-80625978D01*
X168457804Y-80676586D01*
X168528384Y-80683000D01*
X168528387Y-80683000D01*
X169041613Y-80683000D01*
X169041616Y-80683000D01*
X169112196Y-80676586D01*
X169274606Y-80625978D01*
X169420185Y-80537972D01*
X169447223Y-80510932D01*
X169508542Y-80477449D01*
X169575859Y-80481573D01*
X169746737Y-80541366D01*
X169746743Y-80541367D01*
X169746745Y-80541368D01*
X169746746Y-80541368D01*
X169746750Y-80541369D01*
X169925996Y-80561565D01*
X169926000Y-80561565D01*
X169926004Y-80561565D01*
X170105249Y-80541369D01*
X170105252Y-80541368D01*
X170105255Y-80541368D01*
X170275522Y-80481789D01*
X170428262Y-80385816D01*
X170555816Y-80258262D01*
X170651789Y-80105522D01*
X170711368Y-79935255D01*
X170721161Y-79848329D01*
X170748226Y-79783918D01*
X170756689Y-79774544D01*
X171280520Y-79250716D01*
X171359577Y-79113784D01*
X171400501Y-78961057D01*
X171400501Y-78899955D01*
X171420186Y-78832916D01*
X171472990Y-78787161D01*
X171510618Y-78776735D01*
X171629249Y-78763369D01*
X171629252Y-78763368D01*
X171629255Y-78763368D01*
X171799522Y-78703789D01*
X171952262Y-78607816D01*
X172007820Y-78552258D01*
X172069143Y-78518773D01*
X172138835Y-78523757D01*
X172194768Y-78565629D01*
X172219185Y-78631093D01*
X172219501Y-78639939D01*
X172219501Y-81716819D01*
X172199816Y-81783858D01*
X172147012Y-81829613D01*
X172077854Y-81839557D01*
X172014298Y-81810532D01*
X172007820Y-81804500D01*
X171879186Y-81675866D01*
X171688171Y-81537085D01*
X171477802Y-81429897D01*
X171253247Y-81356934D01*
X171152000Y-81340897D01*
X171152000Y-86299100D01*
X171253249Y-86283065D01*
X171253255Y-86283063D01*
X171477804Y-86210102D01*
X171688171Y-86102914D01*
X171879186Y-85964133D01*
X172007820Y-85835500D01*
X172069143Y-85802015D01*
X172138835Y-85806999D01*
X172194768Y-85848871D01*
X172219185Y-85914335D01*
X172219501Y-85923181D01*
X172219501Y-93856000D01*
X172199816Y-93923039D01*
X172147012Y-93968794D01*
X172095501Y-93980000D01*
X159095000Y-93980000D01*
X159095000Y-93550000D01*
X159695000Y-93550000D01*
X159695000Y-93161357D01*
X159694999Y-93161353D01*
X159660415Y-92987487D01*
X159660413Y-92987479D01*
X159592571Y-92823692D01*
X159592566Y-92823683D01*
X159494076Y-92676283D01*
X159494073Y-92676279D01*
X159368720Y-92550926D01*
X159368716Y-92550923D01*
X159221316Y-92452433D01*
X159221307Y-92452428D01*
X159057519Y-92384585D01*
X159045000Y-92382094D01*
X159045000Y-93283011D01*
X159035060Y-93265795D01*
X158979205Y-93209940D01*
X158910796Y-93170444D01*
X158834496Y-93150000D01*
X158755504Y-93150000D01*
X158679204Y-93170444D01*
X158610795Y-93209940D01*
X158554940Y-93265795D01*
X158545000Y-93283011D01*
X158545000Y-92350000D01*
X158257500Y-92350000D01*
X158257500Y-93676000D01*
X158237815Y-93743039D01*
X158185011Y-93788794D01*
X158133500Y-93800000D01*
X158007500Y-93800000D01*
X158007500Y-93926000D01*
X157991644Y-93980000D01*
X151245863Y-93980000D01*
X151243706Y-93977511D01*
X151232500Y-93926000D01*
X151232500Y-93800000D01*
X151106500Y-93800000D01*
X151039461Y-93780315D01*
X150993706Y-93727511D01*
X150982500Y-93676000D01*
X150982500Y-92350000D01*
X150695000Y-92350000D01*
X150695000Y-93283011D01*
X150685060Y-93265795D01*
X150629205Y-93209940D01*
X150560796Y-93170444D01*
X150484496Y-93150000D01*
X150405504Y-93150000D01*
X150329204Y-93170444D01*
X150260795Y-93209940D01*
X150204940Y-93265795D01*
X150195000Y-93283011D01*
X150195000Y-92382095D01*
X150194999Y-92382094D01*
X150182480Y-92384585D01*
X150018692Y-92452428D01*
X150018683Y-92452433D01*
X149871283Y-92550923D01*
X149871279Y-92550926D01*
X149745926Y-92676279D01*
X149745923Y-92676283D01*
X149647426Y-92823694D01*
X149646398Y-92825618D01*
X149645594Y-92826435D01*
X149644045Y-92828755D01*
X149643604Y-92828460D01*
X149597431Y-92875458D01*
X149529292Y-92890912D01*
X149463614Y-92867074D01*
X149462734Y-92866421D01*
X149402335Y-92821206D01*
X149402328Y-92821202D01*
X149267482Y-92770908D01*
X149267483Y-92770908D01*
X149207883Y-92764501D01*
X149207881Y-92764500D01*
X149207873Y-92764500D01*
X149207864Y-92764500D01*
X148112129Y-92764500D01*
X148112123Y-92764501D01*
X148052516Y-92770908D01*
X147917671Y-92821202D01*
X147917664Y-92821206D01*
X147802455Y-92907452D01*
X147802452Y-92907455D01*
X147716206Y-93022664D01*
X147716202Y-93022671D01*
X147665910Y-93157513D01*
X147665909Y-93157517D01*
X147659500Y-93217127D01*
X147659500Y-93550000D01*
X147659501Y-93856000D01*
X147639817Y-93923039D01*
X147587013Y-93968794D01*
X147535501Y-93980000D01*
X146872284Y-93980000D01*
X146805245Y-93960315D01*
X146761799Y-93912295D01*
X146717982Y-93826299D01*
X146717980Y-93826296D01*
X146717979Y-93826294D01*
X146601177Y-93665534D01*
X146601176Y-93665532D01*
X146460655Y-93525013D01*
X146460653Y-93525011D01*
X146299880Y-93408205D01*
X146299878Y-93408204D01*
X146299252Y-93407749D01*
X146256586Y-93352419D01*
X146250607Y-93282806D01*
X146283212Y-93221010D01*
X146324684Y-93192868D01*
X146341811Y-93185775D01*
X146456542Y-93109114D01*
X146554114Y-93011542D01*
X146630775Y-92896811D01*
X146633219Y-92890912D01*
X146643363Y-92866421D01*
X146683580Y-92769328D01*
X146710500Y-92633993D01*
X146710500Y-92496007D01*
X146710500Y-92496004D01*
X146683581Y-92360677D01*
X146683580Y-92360676D01*
X146683580Y-92360672D01*
X146657951Y-92298797D01*
X146628444Y-92227560D01*
X146630927Y-92226531D01*
X146619086Y-92169468D01*
X146644130Y-92104240D01*
X146700462Y-92062907D01*
X146742680Y-92055499D01*
X146907871Y-92055499D01*
X146907872Y-92055499D01*
X146967483Y-92049091D01*
X147102331Y-91998796D01*
X147217546Y-91912546D01*
X147303796Y-91797331D01*
X147354091Y-91662483D01*
X147360500Y-91602873D01*
X147360499Y-91007135D01*
X147659500Y-91007135D01*
X147659500Y-91902870D01*
X147659501Y-91902876D01*
X147665908Y-91962483D01*
X147716202Y-92097328D01*
X147716206Y-92097335D01*
X147802452Y-92212544D01*
X147802455Y-92212547D01*
X147917664Y-92298793D01*
X147917671Y-92298797D01*
X148052517Y-92349091D01*
X148052516Y-92349091D01*
X148059444Y-92349835D01*
X148112127Y-92355500D01*
X149207872Y-92355499D01*
X149267483Y-92349091D01*
X149402331Y-92298796D01*
X149517546Y-92212546D01*
X149603796Y-92097331D01*
X149654091Y-91962483D01*
X149660500Y-91902873D01*
X149660499Y-91007128D01*
X149654091Y-90947517D01*
X149619620Y-90855096D01*
X149603797Y-90812671D01*
X149603793Y-90812664D01*
X149517547Y-90697455D01*
X149517544Y-90697452D01*
X149402335Y-90611206D01*
X149402328Y-90611202D01*
X149267482Y-90560908D01*
X149267483Y-90560908D01*
X149207883Y-90554501D01*
X149207881Y-90554500D01*
X149207873Y-90554500D01*
X149207864Y-90554500D01*
X148112129Y-90554500D01*
X148112123Y-90554501D01*
X148052516Y-90560908D01*
X147917671Y-90611202D01*
X147917665Y-90611206D01*
X147855220Y-90657952D01*
X147789756Y-90682369D01*
X147784297Y-90681181D01*
X147772517Y-90735337D01*
X147762952Y-90750220D01*
X147716206Y-90812665D01*
X147716202Y-90812671D01*
X147665908Y-90947517D01*
X147659501Y-91007116D01*
X147659501Y-91007123D01*
X147659500Y-91007135D01*
X147360499Y-91007135D01*
X147360499Y-90855095D01*
X147380183Y-90788057D01*
X147396813Y-90767420D01*
X147576006Y-90588227D01*
X147637327Y-90554744D01*
X147658624Y-90556267D01*
X147657261Y-90549999D01*
X151451251Y-90549999D01*
X151451252Y-90550000D01*
X152120758Y-90550000D01*
X152115444Y-90559204D01*
X152095000Y-90635504D01*
X152095000Y-90964496D01*
X152115444Y-91040796D01*
X152120758Y-91050000D01*
X151451252Y-91050000D01*
X151481506Y-91202097D01*
X151481508Y-91202105D01*
X151553119Y-91374991D01*
X151553124Y-91375000D01*
X151657086Y-91530589D01*
X151657089Y-91530593D01*
X151789406Y-91662910D01*
X151789410Y-91662913D01*
X151944999Y-91766875D01*
X151945012Y-91766882D01*
X152117889Y-91838489D01*
X152117896Y-91838491D01*
X152145000Y-91843882D01*
X152145000Y-91091988D01*
X152154940Y-91109205D01*
X152210795Y-91165060D01*
X152279204Y-91204556D01*
X152355504Y-91225000D01*
X152434496Y-91225000D01*
X152510796Y-91204556D01*
X152579205Y-91165060D01*
X152635060Y-91109205D01*
X152645000Y-91091988D01*
X152645000Y-91957239D01*
X152676645Y-92042086D01*
X152676646Y-92042088D01*
X152758694Y-92151689D01*
X152783111Y-92217153D01*
X152768260Y-92285426D01*
X152718855Y-92334832D01*
X152659427Y-92350000D01*
X152522155Y-92350000D01*
X152462627Y-92356401D01*
X152462619Y-92356403D01*
X152338333Y-92402759D01*
X152268641Y-92407743D01*
X152251667Y-92402759D01*
X152127380Y-92356403D01*
X152127372Y-92356401D01*
X152067844Y-92350000D01*
X151482500Y-92350000D01*
X151482500Y-93550000D01*
X153220000Y-93550000D01*
X153220000Y-92430000D01*
X153210023Y-92420023D01*
X153176961Y-92410315D01*
X153131206Y-92357511D01*
X153120000Y-92306000D01*
X153120000Y-91050000D01*
X152669242Y-91050000D01*
X152674556Y-91040796D01*
X152695000Y-90964496D01*
X152695000Y-90635504D01*
X152674556Y-90559204D01*
X152669242Y-90550000D01*
X153120000Y-90550000D01*
X153120000Y-89550000D01*
X153072155Y-89550000D01*
X153012627Y-89556401D01*
X153012620Y-89556403D01*
X152877913Y-89606645D01*
X152877906Y-89606649D01*
X152762814Y-89692808D01*
X152762806Y-89692816D01*
X152753117Y-89705759D01*
X152697183Y-89747629D01*
X152650792Y-89751362D01*
X152645000Y-89756116D01*
X152645000Y-90508011D01*
X152635060Y-90490795D01*
X152579205Y-90434940D01*
X152510796Y-90395444D01*
X152434496Y-90375000D01*
X152355504Y-90375000D01*
X152279204Y-90395444D01*
X152210795Y-90434940D01*
X152154940Y-90490795D01*
X152145000Y-90508011D01*
X152145000Y-89756116D01*
X152144999Y-89756115D01*
X152117899Y-89761506D01*
X152117896Y-89761507D01*
X151945008Y-89833119D01*
X151944999Y-89833124D01*
X151789410Y-89937086D01*
X151789406Y-89937089D01*
X151657089Y-90069406D01*
X151657086Y-90069410D01*
X151553124Y-90224999D01*
X151553119Y-90225008D01*
X151481508Y-90397894D01*
X151481506Y-90397902D01*
X151451251Y-90549999D01*
X147657261Y-90549999D01*
X147657226Y-90549839D01*
X147681643Y-90484375D01*
X147693222Y-90471011D01*
X148323714Y-89840520D01*
X148323717Y-89840519D01*
X148435521Y-89728715D01*
X148485640Y-89641903D01*
X148514578Y-89591784D01*
X148514579Y-89591777D01*
X148517690Y-89584271D01*
X148520209Y-89585314D01*
X148549602Y-89537070D01*
X148568883Y-89522689D01*
X148665181Y-89464475D01*
X148665180Y-89464475D01*
X148665186Y-89464472D01*
X148785473Y-89344185D01*
X148873479Y-89198606D01*
X148924087Y-89036196D01*
X148930501Y-88965616D01*
X148930501Y-88634097D01*
X148950186Y-88567058D01*
X148966820Y-88546416D01*
X149060852Y-88452384D01*
X149210521Y-88302716D01*
X149289578Y-88165784D01*
X149330502Y-88013057D01*
X149330502Y-87854942D01*
X149330502Y-87847347D01*
X149330501Y-87847329D01*
X149330501Y-85404946D01*
X149330501Y-85404944D01*
X149328103Y-85395992D01*
X149289578Y-85252216D01*
X149235883Y-85159214D01*
X149210521Y-85115285D01*
X149098717Y-85003481D01*
X149098716Y-85003480D01*
X149094386Y-84999150D01*
X149094375Y-84999140D01*
X148569590Y-84474355D01*
X148569587Y-84474351D01*
X148569587Y-84474352D01*
X148562520Y-84467285D01*
X148562520Y-84467284D01*
X148488818Y-84393582D01*
X149647001Y-84393582D01*
X149653408Y-84464102D01*
X149653409Y-84464107D01*
X149703981Y-84626396D01*
X149791927Y-84771877D01*
X149912122Y-84892072D01*
X150057604Y-84980019D01*
X150057603Y-84980019D01*
X150219894Y-85030590D01*
X150219892Y-85030590D01*
X150290418Y-85036999D01*
X150371999Y-85036998D01*
X150372000Y-85036998D01*
X150372000Y-84387000D01*
X149647001Y-84387000D01*
X149647001Y-84393582D01*
X148488818Y-84393582D01*
X148464818Y-84369582D01*
X148431334Y-84308259D01*
X148428500Y-84281901D01*
X148428500Y-82230386D01*
X149646500Y-82230386D01*
X149646500Y-82743613D01*
X149652913Y-82814192D01*
X149652913Y-82814194D01*
X149652914Y-82814196D01*
X149674912Y-82884790D01*
X149703522Y-82976606D01*
X149791530Y-83122188D01*
X149894015Y-83224673D01*
X149927500Y-83285996D01*
X149922516Y-83355688D01*
X149894015Y-83400035D01*
X149791928Y-83502121D01*
X149791927Y-83502122D01*
X149703980Y-83647604D01*
X149653409Y-83809893D01*
X149647000Y-83880427D01*
X149647000Y-83887000D01*
X150498000Y-83887000D01*
X150565039Y-83906685D01*
X150610794Y-83959489D01*
X150622000Y-84011000D01*
X150622000Y-84137000D01*
X150748000Y-84137000D01*
X150815039Y-84156685D01*
X150860794Y-84209489D01*
X150872000Y-84261000D01*
X150872000Y-85036999D01*
X150953581Y-85036999D01*
X151024102Y-85030591D01*
X151024107Y-85030590D01*
X151186396Y-84980018D01*
X151331875Y-84892073D01*
X151448049Y-84775899D01*
X151509372Y-84742414D01*
X151579064Y-84747398D01*
X151634998Y-84789269D01*
X151638832Y-84794687D01*
X151655447Y-84819553D01*
X151721769Y-84863868D01*
X151721770Y-84863869D01*
X151780247Y-84875500D01*
X151780250Y-84875501D01*
X151780252Y-84875501D01*
X152919750Y-84875501D01*
X152919751Y-84875500D01*
X152934568Y-84872553D01*
X152978229Y-84863869D01*
X152978229Y-84863868D01*
X152978231Y-84863868D01*
X153044552Y-84819553D01*
X153088867Y-84753232D01*
X153088867Y-84753230D01*
X153088868Y-84753230D01*
X153100499Y-84694753D01*
X153100500Y-84694751D01*
X153100500Y-84561556D01*
X153120185Y-84494517D01*
X153150189Y-84462290D01*
X153257187Y-84382190D01*
X153257190Y-84382187D01*
X153343350Y-84267093D01*
X153343354Y-84267086D01*
X153393596Y-84132379D01*
X153393598Y-84132372D01*
X153399999Y-84072844D01*
X153400000Y-84072827D01*
X153400000Y-84025000D01*
X152474000Y-84025000D01*
X152406961Y-84005315D01*
X152361206Y-83952511D01*
X152350000Y-83901000D01*
X152350000Y-83749000D01*
X152369685Y-83681961D01*
X152422489Y-83636206D01*
X152474000Y-83625000D01*
X153400000Y-83625000D01*
X153400000Y-83577166D01*
X153399999Y-83577155D01*
X153393598Y-83517627D01*
X153393596Y-83517620D01*
X153343354Y-83382913D01*
X153343350Y-83382906D01*
X153257190Y-83267812D01*
X153150188Y-83187709D01*
X153108318Y-83131775D01*
X153100500Y-83088443D01*
X153100500Y-82955249D01*
X153100499Y-82955247D01*
X153086485Y-82884790D01*
X153087761Y-82884536D01*
X153081681Y-82827986D01*
X153088694Y-82804099D01*
X153088867Y-82803230D01*
X153100500Y-82744747D01*
X153100500Y-82305251D01*
X153100500Y-82305248D01*
X153100499Y-82305246D01*
X153088868Y-82246769D01*
X153088867Y-82246768D01*
X153044552Y-82180446D01*
X152978230Y-82136131D01*
X152978229Y-82136130D01*
X152919752Y-82124499D01*
X152919748Y-82124499D01*
X152850098Y-82124499D01*
X152783059Y-82104814D01*
X152762417Y-82088180D01*
X152680718Y-82006481D01*
X152680717Y-82006480D01*
X152593905Y-81956360D01*
X152593905Y-81956359D01*
X152593901Y-81956358D01*
X152543786Y-81927423D01*
X152391058Y-81886499D01*
X152232944Y-81886499D01*
X152225348Y-81886499D01*
X152225332Y-81886500D01*
X151538520Y-81886500D01*
X151471481Y-81866815D01*
X151450839Y-81850181D01*
X151332188Y-81731530D01*
X151299888Y-81712004D01*
X151186606Y-81643522D01*
X151024196Y-81592914D01*
X151024194Y-81592913D01*
X151024192Y-81592913D01*
X150974778Y-81588423D01*
X150953616Y-81586500D01*
X150290384Y-81586500D01*
X150271145Y-81588248D01*
X150219807Y-81592913D01*
X150057393Y-81643522D01*
X149911811Y-81731530D01*
X149791530Y-81851811D01*
X149703522Y-81997393D01*
X149652913Y-82159807D01*
X149646500Y-82230386D01*
X148428500Y-82230386D01*
X148428500Y-81834097D01*
X148448185Y-81767058D01*
X148464819Y-81746416D01*
X150453416Y-79757819D01*
X150514739Y-79724334D01*
X150541097Y-79721500D01*
X151182588Y-79721500D01*
X151249627Y-79741185D01*
X151259903Y-79748555D01*
X151262736Y-79750814D01*
X151262738Y-79750816D01*
X151372750Y-79819941D01*
X151412880Y-79845157D01*
X151415478Y-79846789D01*
X151584888Y-79906068D01*
X151585745Y-79906368D01*
X151585750Y-79906369D01*
X151764996Y-79926565D01*
X151765000Y-79926565D01*
X151765004Y-79926565D01*
X151944249Y-79906369D01*
X151944252Y-79906368D01*
X151944255Y-79906368D01*
X152114522Y-79846789D01*
X152267262Y-79750816D01*
X152394816Y-79623262D01*
X152490789Y-79470522D01*
X152550368Y-79300255D01*
X152551347Y-79291565D01*
X152570565Y-79121003D01*
X152570565Y-79120996D01*
X152550369Y-78941750D01*
X152550368Y-78941745D01*
X152527723Y-78877029D01*
X152490789Y-78771478D01*
X152476994Y-78749524D01*
X152448257Y-78703789D01*
X152394816Y-78618738D01*
X152267262Y-78491184D01*
X152114523Y-78395211D01*
X151944254Y-78335631D01*
X151944249Y-78335630D01*
X151765004Y-78315435D01*
X151764996Y-78315435D01*
X151585750Y-78335630D01*
X151585745Y-78335631D01*
X151415476Y-78395211D01*
X151262736Y-78491185D01*
X151259903Y-78493445D01*
X151257724Y-78494334D01*
X151256842Y-78494889D01*
X151256744Y-78494734D01*
X151195217Y-78519855D01*
X151182588Y-78520500D01*
X150161940Y-78520500D01*
X150121019Y-78531464D01*
X150121019Y-78531465D01*
X150083751Y-78541451D01*
X150009214Y-78561423D01*
X150009209Y-78561426D01*
X149872290Y-78640475D01*
X149872282Y-78640481D01*
X147347480Y-81165283D01*
X147340075Y-81178109D01*
X147334654Y-81187500D01*
X147268423Y-81302215D01*
X147227499Y-81454943D01*
X147227499Y-81454945D01*
X147227499Y-81623046D01*
X147227500Y-81623059D01*
X147227500Y-84111500D01*
X147207815Y-84178539D01*
X147155011Y-84224294D01*
X147103500Y-84235500D01*
X144092412Y-84235500D01*
X144025373Y-84215815D01*
X144015097Y-84208445D01*
X144012263Y-84206185D01*
X144012262Y-84206184D01*
X143922846Y-84150000D01*
X143859523Y-84110211D01*
X143689254Y-84050631D01*
X143689249Y-84050630D01*
X143510004Y-84030435D01*
X143509996Y-84030435D01*
X143330750Y-84050630D01*
X143330745Y-84050631D01*
X143160476Y-84110211D01*
X143007737Y-84206184D01*
X142880184Y-84333737D01*
X142784211Y-84486476D01*
X142724631Y-84656745D01*
X142724630Y-84656750D01*
X142704435Y-84835996D01*
X142704435Y-84836003D01*
X142724630Y-85015249D01*
X142724631Y-85015254D01*
X142784211Y-85185523D01*
X142872119Y-85325427D01*
X142880184Y-85338262D01*
X143007738Y-85465816D01*
X143160478Y-85561789D01*
X143254155Y-85594568D01*
X143330745Y-85621368D01*
X143330750Y-85621369D01*
X143509996Y-85641565D01*
X143510000Y-85641565D01*
X143510004Y-85641565D01*
X143689249Y-85621369D01*
X143689252Y-85621368D01*
X143689255Y-85621368D01*
X143859522Y-85561789D01*
X144012262Y-85465816D01*
X144012267Y-85465810D01*
X144015097Y-85463555D01*
X144017275Y-85462665D01*
X144018158Y-85462111D01*
X144018255Y-85462265D01*
X144079783Y-85437145D01*
X144092412Y-85436500D01*
X147748943Y-85436500D01*
X147781903Y-85436500D01*
X147848942Y-85456185D01*
X147869584Y-85472819D01*
X148093182Y-85696417D01*
X148126667Y-85757740D01*
X148129501Y-85784098D01*
X148129501Y-86034500D01*
X148109816Y-86101539D01*
X148057012Y-86147294D01*
X148005501Y-86158500D01*
X147623385Y-86158500D01*
X147604146Y-86160248D01*
X147552808Y-86164913D01*
X147390394Y-86215522D01*
X147244812Y-86303530D01*
X147124532Y-86423810D01*
X147124529Y-86423814D01*
X147108322Y-86450623D01*
X147056793Y-86497809D01*
X146987933Y-86509646D01*
X146923605Y-86482375D01*
X146896089Y-86450618D01*
X146880072Y-86424123D01*
X146880071Y-86424121D01*
X146759877Y-86303927D01*
X146614395Y-86215980D01*
X146614396Y-86215980D01*
X146452105Y-86165409D01*
X146452106Y-86165409D01*
X146381572Y-86159000D01*
X146300000Y-86159000D01*
X146300000Y-86935000D01*
X146280315Y-87002039D01*
X146227511Y-87047794D01*
X146176000Y-87059000D01*
X146050000Y-87059000D01*
X146050000Y-87185000D01*
X146030315Y-87252039D01*
X145977511Y-87297794D01*
X145926000Y-87309000D01*
X145075001Y-87309000D01*
X145075001Y-87315582D01*
X145081408Y-87386102D01*
X145081409Y-87386107D01*
X145131981Y-87548396D01*
X145219927Y-87693877D01*
X145322015Y-87795965D01*
X145355500Y-87857288D01*
X145350516Y-87926980D01*
X145322015Y-87971327D01*
X145219531Y-88073810D01*
X145219530Y-88073811D01*
X145131522Y-88219393D01*
X145080913Y-88381807D01*
X145074500Y-88452386D01*
X145074500Y-88783902D01*
X145054815Y-88850941D01*
X145038181Y-88871583D01*
X144529481Y-89380282D01*
X144529480Y-89380284D01*
X144480875Y-89464472D01*
X144479361Y-89467094D01*
X144479359Y-89467096D01*
X144450425Y-89517209D01*
X144450421Y-89517218D01*
X144438244Y-89562663D01*
X144401879Y-89622323D01*
X144392782Y-89629834D01*
X144302452Y-89697455D01*
X144216206Y-89812664D01*
X144216202Y-89812671D01*
X144165908Y-89947517D01*
X144160037Y-90002128D01*
X144159501Y-90007123D01*
X144159500Y-90007135D01*
X144159500Y-91602870D01*
X144159501Y-91602876D01*
X144165908Y-91662483D01*
X144216202Y-91797328D01*
X144216206Y-91797335D01*
X144302452Y-91912544D01*
X144302455Y-91912547D01*
X144417664Y-91998793D01*
X144417671Y-91998797D01*
X144552517Y-92049091D01*
X144552516Y-92049091D01*
X144559444Y-92049835D01*
X144612127Y-92055500D01*
X145277320Y-92055499D01*
X145344359Y-92075183D01*
X145390114Y-92127987D01*
X145400058Y-92197146D01*
X145390271Y-92227027D01*
X145391556Y-92227560D01*
X145336421Y-92360667D01*
X145336418Y-92360677D01*
X145309500Y-92496004D01*
X145309500Y-92496007D01*
X145309500Y-92633993D01*
X145309500Y-92633995D01*
X145309499Y-92633995D01*
X145336418Y-92769322D01*
X145336421Y-92769332D01*
X145389221Y-92896804D01*
X145389228Y-92896817D01*
X145465885Y-93011541D01*
X145465888Y-93011545D01*
X145468162Y-93013819D01*
X145468972Y-93015303D01*
X145469751Y-93016252D01*
X145469571Y-93016399D01*
X145501647Y-93075142D01*
X145496663Y-93144834D01*
X145454791Y-93200767D01*
X145389327Y-93225184D01*
X145380481Y-93225500D01*
X141639519Y-93225500D01*
X141572480Y-93205815D01*
X141526725Y-93153011D01*
X141516781Y-93083853D01*
X141545806Y-93020297D01*
X141551838Y-93013819D01*
X141554111Y-93011545D01*
X141554114Y-93011542D01*
X141630775Y-92896811D01*
X141633219Y-92890912D01*
X141643363Y-92866421D01*
X141683580Y-92769328D01*
X141710500Y-92633993D01*
X141710500Y-92496007D01*
X141710500Y-92496004D01*
X141683581Y-92360677D01*
X141683580Y-92360676D01*
X141683580Y-92360672D01*
X141657951Y-92298797D01*
X141628444Y-92227560D01*
X141630955Y-92226519D01*
X141619073Y-92169626D01*
X141644033Y-92104366D01*
X141700312Y-92062961D01*
X141742674Y-92055499D01*
X142407872Y-92055499D01*
X142467483Y-92049091D01*
X142602331Y-91998796D01*
X142717546Y-91912546D01*
X142803796Y-91797331D01*
X142854091Y-91662483D01*
X142860500Y-91602873D01*
X142860499Y-90007128D01*
X142854091Y-89947517D01*
X142850200Y-89937086D01*
X142803797Y-89812671D01*
X142803793Y-89812664D01*
X142717547Y-89697455D01*
X142717544Y-89697452D01*
X142602335Y-89611206D01*
X142602328Y-89611202D01*
X142467482Y-89560908D01*
X142467483Y-89560908D01*
X142407883Y-89554501D01*
X142407881Y-89554500D01*
X142407873Y-89554500D01*
X142407865Y-89554500D01*
X142060097Y-89554500D01*
X141993058Y-89534815D01*
X141972416Y-89518181D01*
X139256662Y-86802427D01*
X145075000Y-86802427D01*
X145075000Y-86809000D01*
X145800000Y-86809000D01*
X145800000Y-86159000D01*
X145799999Y-86158999D01*
X145718417Y-86159000D01*
X145647897Y-86165408D01*
X145647892Y-86165409D01*
X145485603Y-86215981D01*
X145340122Y-86303927D01*
X145219927Y-86424122D01*
X145131980Y-86569604D01*
X145081409Y-86731893D01*
X145075000Y-86802427D01*
X139256662Y-86802427D01*
X138912210Y-86457975D01*
X138912208Y-86457972D01*
X138793337Y-86339101D01*
X138793329Y-86339095D01*
X138691556Y-86280337D01*
X138691554Y-86280336D01*
X138656410Y-86260045D01*
X138656409Y-86260044D01*
X138643883Y-86256687D01*
X138503677Y-86219119D01*
X138449477Y-86219119D01*
X138382438Y-86199434D01*
X138336683Y-86146630D01*
X138326739Y-86077472D01*
X138355764Y-86013916D01*
X138361796Y-86007438D01*
X139533238Y-84835996D01*
X143736520Y-80632716D01*
X143736520Y-80632714D01*
X143746724Y-80622511D01*
X143746727Y-80622506D01*
X144992416Y-79376819D01*
X145053739Y-79343334D01*
X145080097Y-79340500D01*
X145721588Y-79340500D01*
X145788627Y-79360185D01*
X145798903Y-79367555D01*
X145801736Y-79369814D01*
X145801738Y-79369816D01*
X145954478Y-79465789D01*
X146112599Y-79521118D01*
X146124745Y-79525368D01*
X146124750Y-79525369D01*
X146303996Y-79545565D01*
X146304000Y-79545565D01*
X146304004Y-79545565D01*
X146483249Y-79525369D01*
X146483252Y-79525368D01*
X146483255Y-79525368D01*
X146653522Y-79465789D01*
X146806262Y-79369816D01*
X146933816Y-79242262D01*
X147029789Y-79089522D01*
X147089368Y-78919255D01*
X147094126Y-78877028D01*
X147109565Y-78740003D01*
X147109565Y-78739997D01*
X147097873Y-78636231D01*
X147109927Y-78567409D01*
X147133412Y-78534665D01*
X147136613Y-78531464D01*
X147187816Y-78480262D01*
X147283789Y-78327522D01*
X147343368Y-78157255D01*
X147345709Y-78136478D01*
X147363565Y-77978003D01*
X147363565Y-77978000D01*
X147363045Y-77973386D01*
X147375098Y-77904564D01*
X147422447Y-77853183D01*
X147486265Y-77835500D01*
X156219901Y-77835500D01*
X156286940Y-77855185D01*
G37*
%TD.AperFunction*%
%TA.AperFunction,Conductor*%
G36*
X166370125Y-59371622D02*
G01*
X166426058Y-59413494D01*
X166450475Y-59478958D01*
X166435623Y-59547231D01*
X166431785Y-59553775D01*
X166406212Y-59594474D01*
X166346631Y-59764745D01*
X166346630Y-59764750D01*
X166326435Y-59943996D01*
X166326435Y-59944003D01*
X166346630Y-60123249D01*
X166346631Y-60123254D01*
X166406211Y-60293523D01*
X166445086Y-60355391D01*
X166502184Y-60446262D01*
X166629738Y-60573816D01*
X166782478Y-60669789D01*
X166782479Y-60669789D01*
X166788375Y-60673494D01*
X166787525Y-60674845D01*
X166833155Y-60716035D01*
X166851500Y-60780942D01*
X166851500Y-60789191D01*
X166831815Y-60856230D01*
X166815181Y-60876872D01*
X166783923Y-60908129D01*
X166783917Y-60908137D01*
X166700255Y-61049603D01*
X166700254Y-61049606D01*
X166654402Y-61207426D01*
X166654401Y-61207432D01*
X166651500Y-61244298D01*
X166651500Y-62550701D01*
X166654401Y-62587567D01*
X166654402Y-62587573D01*
X166700254Y-62745393D01*
X166700255Y-62745396D01*
X166700256Y-62745398D01*
X166709231Y-62760574D01*
X166783917Y-62886862D01*
X166783923Y-62886870D01*
X166832766Y-62935712D01*
X166866252Y-62997035D01*
X166861268Y-63066726D01*
X166832770Y-63111073D01*
X166821528Y-63122315D01*
X166733522Y-63267893D01*
X166682913Y-63430307D01*
X166676500Y-63500886D01*
X166676500Y-64164113D01*
X166682913Y-64234692D01*
X166682913Y-64234694D01*
X166682914Y-64234696D01*
X166733522Y-64397106D01*
X166815272Y-64532337D01*
X166821530Y-64542688D01*
X166941811Y-64662969D01*
X166941813Y-64662970D01*
X166941815Y-64662972D01*
X167087394Y-64750978D01*
X167249804Y-64801586D01*
X167267272Y-64803173D01*
X167332254Y-64828843D01*
X167373043Y-64885571D01*
X167376687Y-64955346D01*
X167342030Y-65016014D01*
X167330362Y-65025930D01*
X167217452Y-65110455D01*
X167131206Y-65225664D01*
X167131202Y-65225671D01*
X167080908Y-65360517D01*
X167074501Y-65420116D01*
X167074500Y-65420135D01*
X167074500Y-65917902D01*
X167054815Y-65984941D01*
X167038181Y-66005583D01*
X164619481Y-68424282D01*
X164619475Y-68424290D01*
X164580662Y-68491518D01*
X164580662Y-68491519D01*
X164571356Y-68507638D01*
X164544820Y-68553600D01*
X164540423Y-68561215D01*
X164499499Y-68713943D01*
X164499499Y-68713945D01*
X164499499Y-68882046D01*
X164499500Y-68882059D01*
X164499500Y-71553587D01*
X164479815Y-71620626D01*
X164472450Y-71630896D01*
X164470186Y-71633734D01*
X164374211Y-71786476D01*
X164314631Y-71956745D01*
X164314630Y-71956750D01*
X164294435Y-72135996D01*
X164294435Y-72136003D01*
X164314630Y-72315249D01*
X164314631Y-72315254D01*
X164374211Y-72485523D01*
X164425947Y-72567859D01*
X164470184Y-72638262D01*
X164597738Y-72765816D01*
X164750478Y-72861789D01*
X164837565Y-72892262D01*
X164920745Y-72921368D01*
X164920750Y-72921369D01*
X165099996Y-72941565D01*
X165100000Y-72941565D01*
X165100004Y-72941565D01*
X165279249Y-72921369D01*
X165279252Y-72921368D01*
X165279255Y-72921368D01*
X165449522Y-72861789D01*
X165602262Y-72765816D01*
X165729816Y-72638262D01*
X165815506Y-72501886D01*
X165867841Y-72455596D01*
X165936894Y-72444948D01*
X166000743Y-72473323D01*
X166039115Y-72531713D01*
X166044500Y-72567859D01*
X166044500Y-73054113D01*
X166050913Y-73124692D01*
X166050913Y-73124694D01*
X166050914Y-73124696D01*
X166101522Y-73287106D01*
X166189528Y-73432685D01*
X166308182Y-73551339D01*
X166341666Y-73612660D01*
X166344500Y-73639019D01*
X166344500Y-73964147D01*
X166324815Y-74031186D01*
X166283621Y-74070879D01*
X166138138Y-74156916D01*
X166138129Y-74156923D01*
X166021923Y-74273129D01*
X166021917Y-74273137D01*
X165938255Y-74414603D01*
X165938254Y-74414606D01*
X165892354Y-74572595D01*
X165854748Y-74631481D01*
X165791275Y-74660687D01*
X165773278Y-74662000D01*
X156871440Y-74662000D01*
X156804401Y-74642315D01*
X156783759Y-74625681D01*
X156712262Y-74554184D01*
X156559523Y-74458211D01*
X156389254Y-74398631D01*
X156389249Y-74398630D01*
X156210004Y-74378435D01*
X156209996Y-74378435D01*
X156030750Y-74398630D01*
X156030745Y-74398631D01*
X155860476Y-74458211D01*
X155707737Y-74554184D01*
X155580184Y-74681737D01*
X155484211Y-74834476D01*
X155424631Y-75004745D01*
X155424630Y-75004750D01*
X155404435Y-75183996D01*
X155404435Y-75184003D01*
X155424630Y-75363249D01*
X155424631Y-75363254D01*
X155484211Y-75533523D01*
X155580184Y-75686262D01*
X155707738Y-75813816D01*
X155860478Y-75909789D01*
X155981610Y-75952175D01*
X156030745Y-75969368D01*
X156030750Y-75969369D01*
X156189716Y-75987280D01*
X156205508Y-75993915D01*
X156209232Y-75991523D01*
X156230284Y-75987280D01*
X156389249Y-75969369D01*
X156389252Y-75969368D01*
X156389255Y-75969368D01*
X156559522Y-75909789D01*
X156603737Y-75882007D01*
X156669710Y-75863000D01*
X165773278Y-75863000D01*
X165840317Y-75882685D01*
X165886072Y-75935489D01*
X165892354Y-75952405D01*
X165928234Y-76075905D01*
X165928035Y-76145775D01*
X165890093Y-76204445D01*
X165826454Y-76233288D01*
X165809158Y-76234500D01*
X156244167Y-76234500D01*
X156212361Y-76225160D01*
X156197227Y-76232640D01*
X156175833Y-76234500D01*
X143068894Y-76234500D01*
X143001855Y-76214815D01*
X142956100Y-76162011D01*
X142946156Y-76092853D01*
X142963903Y-76044524D01*
X142965788Y-76041523D01*
X142965789Y-76041522D01*
X143025368Y-75871255D01*
X143045565Y-75692000D01*
X143044918Y-75686262D01*
X143025369Y-75512750D01*
X143025368Y-75512745D01*
X142965788Y-75342476D01*
X142869815Y-75189737D01*
X142742262Y-75062184D01*
X142589523Y-74966211D01*
X142419254Y-74906631D01*
X142419249Y-74906630D01*
X142240004Y-74886435D01*
X142239996Y-74886435D01*
X142060750Y-74906630D01*
X142060745Y-74906631D01*
X141890476Y-74966211D01*
X141737737Y-75062184D01*
X141610184Y-75189737D01*
X141514211Y-75342476D01*
X141454631Y-75512745D01*
X141454630Y-75512750D01*
X141434435Y-75691996D01*
X141434435Y-75692003D01*
X141454631Y-75871253D01*
X141454631Y-75871256D01*
X141479228Y-75941548D01*
X141482790Y-76011327D01*
X141449868Y-76070184D01*
X140178873Y-77341181D01*
X140117550Y-77374666D01*
X140091192Y-77377500D01*
X138770670Y-77377500D01*
X138770654Y-77377499D01*
X138763058Y-77377499D01*
X138604943Y-77377499D01*
X138528579Y-77397961D01*
X138452214Y-77418423D01*
X138452209Y-77418426D01*
X138315290Y-77497475D01*
X138315282Y-77497481D01*
X135940181Y-79872583D01*
X135878858Y-79906068D01*
X135809166Y-79901084D01*
X135753233Y-79859212D01*
X135728816Y-79793748D01*
X135728500Y-79784902D01*
X135728500Y-71166097D01*
X135748185Y-71099058D01*
X135764819Y-71078416D01*
X142340416Y-64502819D01*
X142401739Y-64469334D01*
X142428097Y-64466500D01*
X144197588Y-64466500D01*
X144264627Y-64486185D01*
X144274903Y-64493555D01*
X144277736Y-64495814D01*
X144277738Y-64495816D01*
X144430478Y-64591789D01*
X144600745Y-64651368D01*
X144600750Y-64651369D01*
X144779996Y-64671565D01*
X144780000Y-64671565D01*
X144780001Y-64671565D01*
X144789039Y-64670546D01*
X144803615Y-64668904D01*
X144872437Y-64680958D01*
X144923817Y-64728306D01*
X144941500Y-64792124D01*
X144941500Y-66397498D01*
X144921815Y-66464537D01*
X144869011Y-66510292D01*
X144817500Y-66521498D01*
X144083971Y-66521498D01*
X144083965Y-66521498D01*
X144083964Y-66521499D01*
X144072316Y-66522534D01*
X143964584Y-66532111D01*
X143768954Y-66588087D01*
X143724420Y-66611350D01*
X143588593Y-66682300D01*
X143588591Y-66682301D01*
X143588590Y-66682302D01*
X143430890Y-66810888D01*
X143302304Y-66968588D01*
X143302302Y-66968591D01*
X143266926Y-67036315D01*
X143208089Y-67148952D01*
X143168786Y-67286315D01*
X143155826Y-67331609D01*
X143152114Y-67344581D01*
X143152113Y-67344584D01*
X143141500Y-67463964D01*
X143141500Y-68580026D01*
X143141501Y-68580032D01*
X143152113Y-68699413D01*
X143208089Y-68895043D01*
X143208090Y-68895046D01*
X143208091Y-68895047D01*
X143302302Y-69075405D01*
X143425025Y-69225913D01*
X143427876Y-69229409D01*
X143454985Y-69293805D01*
X143451549Y-69339863D01*
X143440891Y-69379640D01*
X143404526Y-69439301D01*
X143360121Y-69465253D01*
X143248666Y-69502186D01*
X143248663Y-69502187D01*
X143099342Y-69594289D01*
X142975289Y-69718342D01*
X142883187Y-69867663D01*
X142883186Y-69867666D01*
X142866540Y-69917902D01*
X142863689Y-69926505D01*
X142823916Y-69983949D01*
X142759400Y-70010772D01*
X142745983Y-70011500D01*
X141564669Y-70011500D01*
X141564653Y-70011499D01*
X141557057Y-70011499D01*
X141398943Y-70011499D01*
X141291587Y-70040265D01*
X141246210Y-70052424D01*
X141246209Y-70052425D01*
X141212682Y-70071783D01*
X141212681Y-70071784D01*
X141109287Y-70131477D01*
X141109282Y-70131481D01*
X140997478Y-70243286D01*
X138411465Y-72829298D01*
X138350142Y-72862783D01*
X138337668Y-72864837D01*
X138250750Y-72874630D01*
X138080478Y-72934210D01*
X137927737Y-73030184D01*
X137800184Y-73157737D01*
X137704211Y-73310476D01*
X137644631Y-73480745D01*
X137644630Y-73480750D01*
X137624435Y-73659996D01*
X137624435Y-73660003D01*
X137644630Y-73839249D01*
X137644631Y-73839254D01*
X137704211Y-74009523D01*
X137795113Y-74154191D01*
X137800184Y-74162262D01*
X137927738Y-74289816D01*
X138080478Y-74385789D01*
X138250745Y-74445368D01*
X138250750Y-74445369D01*
X138429996Y-74465565D01*
X138430000Y-74465565D01*
X138430004Y-74465565D01*
X138609249Y-74445369D01*
X138609252Y-74445368D01*
X138609255Y-74445368D01*
X138779522Y-74385789D01*
X138932262Y-74289816D01*
X139059816Y-74162262D01*
X139155789Y-74009522D01*
X139215368Y-73839255D01*
X139225161Y-73752329D01*
X139252226Y-73687918D01*
X139260690Y-73678543D01*
X141690416Y-71248819D01*
X141751739Y-71215334D01*
X141778097Y-71212500D01*
X142745983Y-71212500D01*
X142813022Y-71232185D01*
X142858777Y-71284989D01*
X142863686Y-71297489D01*
X142883185Y-71356331D01*
X142883186Y-71356333D01*
X142883187Y-71356336D01*
X142911032Y-71401480D01*
X142975096Y-71505345D01*
X142975289Y-71505657D01*
X143034172Y-71564540D01*
X143067657Y-71625863D01*
X143062673Y-71695555D01*
X143020801Y-71751488D01*
X143012466Y-71757213D01*
X143007739Y-71760183D01*
X143007737Y-71760184D01*
X142880184Y-71887737D01*
X142784211Y-72040476D01*
X142724631Y-72210745D01*
X142724630Y-72210750D01*
X142704435Y-72389996D01*
X142704435Y-72390003D01*
X142724630Y-72569249D01*
X142724631Y-72569254D01*
X142784211Y-72739523D01*
X142861661Y-72862783D01*
X142880184Y-72892262D01*
X143007738Y-73019816D01*
X143160478Y-73115789D01*
X143330745Y-73175368D01*
X143330750Y-73175369D01*
X143509996Y-73195565D01*
X143510000Y-73195565D01*
X143510004Y-73195565D01*
X143689249Y-73175369D01*
X143689252Y-73175368D01*
X143689255Y-73175368D01*
X143859522Y-73115789D01*
X144012262Y-73019816D01*
X144139816Y-72892262D01*
X144235789Y-72739522D01*
X144295368Y-72569255D01*
X144305161Y-72482329D01*
X144332226Y-72417918D01*
X144340690Y-72408543D01*
X144376506Y-72372728D01*
X144376511Y-72372724D01*
X144386714Y-72362520D01*
X144386716Y-72362520D01*
X144498520Y-72250716D01*
X144577577Y-72113784D01*
X144607534Y-72001981D01*
X144618500Y-71961058D01*
X144618500Y-71867300D01*
X144638185Y-71800261D01*
X144690989Y-71754506D01*
X144703482Y-71749599D01*
X144787334Y-71721814D01*
X144936656Y-71629712D01*
X145060712Y-71505656D01*
X145152814Y-71356334D01*
X145207999Y-71189797D01*
X145218500Y-71087009D01*
X145218500Y-71086986D01*
X145518001Y-71086986D01*
X145528494Y-71189697D01*
X145583641Y-71356119D01*
X145583643Y-71356124D01*
X145675684Y-71505345D01*
X145799654Y-71629315D01*
X145948875Y-71721356D01*
X145948880Y-71721358D01*
X146115302Y-71776505D01*
X146115309Y-71776506D01*
X146218019Y-71786999D01*
X146467999Y-71786999D01*
X146968000Y-71786999D01*
X147217972Y-71786999D01*
X147217986Y-71786998D01*
X147320697Y-71776505D01*
X147487119Y-71721358D01*
X147487124Y-71721356D01*
X147636345Y-71629315D01*
X147760315Y-71505345D01*
X147852356Y-71356124D01*
X147852358Y-71356119D01*
X147907505Y-71189697D01*
X147907506Y-71189690D01*
X147917999Y-71086986D01*
X147918000Y-71086973D01*
X147918000Y-70862000D01*
X146968000Y-70862000D01*
X146968000Y-71786999D01*
X146467999Y-71786999D01*
X146468000Y-71786998D01*
X146468000Y-70862000D01*
X145518001Y-70862000D01*
X145518001Y-71086986D01*
X145218500Y-71086986D01*
X145218499Y-70136992D01*
X145218174Y-70133815D01*
X145207999Y-70034203D01*
X145207998Y-70034200D01*
X145186480Y-69969264D01*
X145152814Y-69867666D01*
X145060712Y-69718344D01*
X145060710Y-69718342D01*
X145056920Y-69712197D01*
X145059544Y-69710578D01*
X145038578Y-69658637D01*
X145051604Y-69589992D01*
X145099675Y-69539287D01*
X145161982Y-69522497D01*
X145574660Y-69522497D01*
X145641699Y-69542182D01*
X145687454Y-69594986D01*
X145697398Y-69664144D01*
X145677203Y-69711108D01*
X145679475Y-69712509D01*
X145583643Y-69867875D01*
X145583641Y-69867880D01*
X145528494Y-70034302D01*
X145528493Y-70034309D01*
X145518000Y-70137013D01*
X145518000Y-70362000D01*
X147917999Y-70362000D01*
X147917999Y-70137028D01*
X147917998Y-70137013D01*
X147907505Y-70034302D01*
X147869404Y-69919322D01*
X150575001Y-69919322D01*
X150585144Y-70018607D01*
X150638452Y-70179481D01*
X150638457Y-70179492D01*
X150727424Y-70323728D01*
X150727427Y-70323732D01*
X150847267Y-70443572D01*
X150847271Y-70443575D01*
X150991507Y-70532542D01*
X150991518Y-70532547D01*
X151152393Y-70585855D01*
X151251683Y-70595999D01*
X151275000Y-70595998D01*
X151275000Y-69871000D01*
X150575001Y-69871000D01*
X150575001Y-69919322D01*
X147869404Y-69919322D01*
X147852358Y-69867880D01*
X147852356Y-69867875D01*
X147760315Y-69718654D01*
X147636343Y-69594682D01*
X147541769Y-69536349D01*
X147495044Y-69484401D01*
X147483821Y-69415439D01*
X147511665Y-69351356D01*
X147528505Y-69334708D01*
X147653107Y-69233109D01*
X147658975Y-69225913D01*
X147781698Y-69075405D01*
X147875909Y-68895047D01*
X147928174Y-68712385D01*
X147965541Y-68653349D01*
X148028895Y-68623885D01*
X148047390Y-68622498D01*
X149001901Y-68622498D01*
X149068940Y-68642183D01*
X149089582Y-68658817D01*
X149283298Y-68852533D01*
X149316783Y-68913856D01*
X149318837Y-68926330D01*
X149328630Y-69013249D01*
X149388210Y-69183521D01*
X149470330Y-69314213D01*
X149484184Y-69336262D01*
X149611738Y-69463816D01*
X149672805Y-69502187D01*
X149747913Y-69549381D01*
X149764478Y-69559789D01*
X149934745Y-69619368D01*
X149934750Y-69619369D01*
X150113996Y-69639565D01*
X150114000Y-69639565D01*
X150114004Y-69639565D01*
X150293249Y-69619369D01*
X150293252Y-69619368D01*
X150293255Y-69619368D01*
X150463522Y-69559789D01*
X150616262Y-69463816D01*
X150672759Y-69407319D01*
X150734082Y-69373834D01*
X150760440Y-69371000D01*
X151275000Y-69371000D01*
X151275000Y-68645999D01*
X151251693Y-68646000D01*
X151251674Y-68646001D01*
X151152392Y-68656144D01*
X151041863Y-68692770D01*
X150972034Y-68695172D01*
X150911993Y-68659440D01*
X150885817Y-68616018D01*
X150839789Y-68484478D01*
X150825441Y-68461643D01*
X150743816Y-68331738D01*
X150616262Y-68204184D01*
X150463521Y-68108210D01*
X150293249Y-68048630D01*
X150206330Y-68038837D01*
X150141916Y-68011770D01*
X150132533Y-68003298D01*
X149789588Y-67660353D01*
X149789586Y-67660350D01*
X149670715Y-67541479D01*
X149670714Y-67541478D01*
X149583902Y-67491358D01*
X149583902Y-67491357D01*
X149583898Y-67491356D01*
X149533783Y-67462421D01*
X149381055Y-67421497D01*
X149222941Y-67421497D01*
X149215345Y-67421497D01*
X149215329Y-67421498D01*
X148047390Y-67421498D01*
X147980351Y-67401813D01*
X147934596Y-67349009D01*
X147928176Y-67331615D01*
X147875909Y-67148949D01*
X147781698Y-66968591D01*
X147729684Y-66904801D01*
X147653109Y-66810888D01*
X147495409Y-66682302D01*
X147495410Y-66682302D01*
X147495407Y-66682300D01*
X147315049Y-66588089D01*
X147315048Y-66588088D01*
X147315045Y-66588087D01*
X147197829Y-66554548D01*
X147119418Y-66532112D01*
X147119415Y-66532111D01*
X147119413Y-66532111D01*
X147046631Y-66525640D01*
X147000037Y-66521498D01*
X147000033Y-66521498D01*
X146266500Y-66521498D01*
X146199461Y-66501813D01*
X146153706Y-66449009D01*
X146142500Y-66397498D01*
X146142500Y-63288915D01*
X146162185Y-63221876D01*
X146214989Y-63176121D01*
X146219112Y-63174424D01*
X146220688Y-63173642D01*
X146220693Y-63173641D01*
X146391296Y-63089030D01*
X146539722Y-62969722D01*
X146595355Y-62900510D01*
X146652695Y-62860594D01*
X146722517Y-62858014D01*
X146782650Y-62893592D01*
X146788647Y-62900513D01*
X146844277Y-62969720D01*
X146844278Y-62969721D01*
X146992704Y-63089029D01*
X146992707Y-63089031D01*
X147163302Y-63173638D01*
X147163303Y-63173638D01*
X147163307Y-63173640D01*
X147348111Y-63219599D01*
X147390877Y-63222499D01*
X148293122Y-63222498D01*
X148335889Y-63219599D01*
X148520693Y-63173640D01*
X148691296Y-63089029D01*
X148839722Y-62969721D01*
X148959030Y-62821295D01*
X149043641Y-62650692D01*
X149089600Y-62465888D01*
X149092500Y-62423122D01*
X149092499Y-61020877D01*
X149089600Y-60978110D01*
X149043641Y-60793306D01*
X149003409Y-60712185D01*
X148990499Y-60657094D01*
X148990499Y-59989004D01*
X149010184Y-59921965D01*
X149049402Y-59883465D01*
X149068043Y-59871968D01*
X149187967Y-59752044D01*
X149214886Y-59708402D01*
X149266834Y-59661678D01*
X149320424Y-59649500D01*
X152283366Y-59649500D01*
X152350405Y-59669185D01*
X152396160Y-59721989D01*
X152406104Y-59791147D01*
X152393275Y-59830911D01*
X152366090Y-59882953D01*
X152310114Y-60078584D01*
X152310113Y-60078587D01*
X152304193Y-60145181D01*
X152300253Y-60189501D01*
X152299500Y-60197967D01*
X152299500Y-61314029D01*
X152299501Y-61314035D01*
X152310113Y-61433416D01*
X152366089Y-61629046D01*
X152366090Y-61629049D01*
X152366091Y-61629050D01*
X152460302Y-61809408D01*
X152460304Y-61809410D01*
X152588890Y-61967110D01*
X152682803Y-62043685D01*
X152746593Y-62095699D01*
X152926951Y-62189910D01*
X153122582Y-62245887D01*
X153241963Y-62256501D01*
X153975500Y-62256500D01*
X154042539Y-62276184D01*
X154088294Y-62328988D01*
X154099500Y-62380500D01*
X154099500Y-65489083D01*
X154079815Y-65556122D01*
X154027011Y-65601877D01*
X154022887Y-65603573D01*
X153850707Y-65688966D01*
X153850704Y-65688968D01*
X153702280Y-65808275D01*
X153702278Y-65808277D01*
X153701993Y-65808632D01*
X153646646Y-65877486D01*
X153589302Y-65917404D01*
X153519480Y-65919984D01*
X153459347Y-65884405D01*
X153453352Y-65877485D01*
X153397722Y-65808278D01*
X153397721Y-65808277D01*
X153249295Y-65688969D01*
X153249292Y-65688967D01*
X153078697Y-65604360D01*
X152893892Y-65558400D01*
X152872506Y-65556950D01*
X152851123Y-65555500D01*
X152851120Y-65555500D01*
X151948877Y-65555500D01*
X151948874Y-65555501D01*
X151906113Y-65558399D01*
X151906112Y-65558399D01*
X151721303Y-65604360D01*
X151550707Y-65688967D01*
X151550704Y-65688969D01*
X151402278Y-65808277D01*
X151402277Y-65808278D01*
X151282969Y-65956704D01*
X151282967Y-65956707D01*
X151198360Y-66127302D01*
X151152400Y-66312107D01*
X151149500Y-66354879D01*
X151149500Y-67757122D01*
X151149501Y-67757125D01*
X151152399Y-67799886D01*
X151152399Y-67799887D01*
X151198360Y-67984696D01*
X151282967Y-68155292D01*
X151282969Y-68155295D01*
X151402277Y-68303721D01*
X151402278Y-68303722D01*
X151550704Y-68423030D01*
X151550707Y-68423032D01*
X151706094Y-68500096D01*
X151757407Y-68547517D01*
X151775000Y-68611184D01*
X151775000Y-70595999D01*
X151798308Y-70595999D01*
X151798322Y-70595998D01*
X151897607Y-70585855D01*
X152058481Y-70532547D01*
X152058492Y-70532542D01*
X152202731Y-70443573D01*
X152211959Y-70434345D01*
X152273279Y-70400856D01*
X152342971Y-70405835D01*
X152387327Y-70434339D01*
X152396955Y-70443967D01*
X152396959Y-70443970D01*
X152541294Y-70532998D01*
X152541297Y-70532999D01*
X152541303Y-70533003D01*
X152695068Y-70583955D01*
X152743744Y-70613979D01*
X153364284Y-71234520D01*
X153364286Y-71234521D01*
X153364290Y-71234524D01*
X153501209Y-71313573D01*
X153501212Y-71313575D01*
X153501216Y-71313577D01*
X153653943Y-71354501D01*
X153653945Y-71354501D01*
X153819654Y-71354501D01*
X153819670Y-71354500D01*
X154584886Y-71354500D01*
X154651925Y-71374185D01*
X154697680Y-71426989D01*
X154707624Y-71496147D01*
X154692273Y-71540499D01*
X154669298Y-71580292D01*
X154621423Y-71663214D01*
X154621423Y-71663215D01*
X154580499Y-71815943D01*
X154580499Y-71815945D01*
X154580499Y-71974054D01*
X154580498Y-71974054D01*
X154580499Y-71974057D01*
X154621423Y-72126785D01*
X154700481Y-72263716D01*
X154812284Y-72375519D01*
X154949215Y-72454577D01*
X155101943Y-72495501D01*
X155101946Y-72495501D01*
X155260054Y-72495501D01*
X155260057Y-72495501D01*
X155412785Y-72454577D01*
X155549716Y-72375519D01*
X155674520Y-72250716D01*
X155753577Y-72113784D01*
X155794501Y-71961057D01*
X155794501Y-71802942D01*
X155753577Y-71650215D01*
X155741738Y-71629710D01*
X155690233Y-71540500D01*
X155673760Y-71472600D01*
X155696612Y-71406573D01*
X155751533Y-71363383D01*
X155797620Y-71354500D01*
X161102331Y-71354500D01*
X161102347Y-71354501D01*
X161109943Y-71354501D01*
X161268054Y-71354501D01*
X161268057Y-71354501D01*
X161420785Y-71313577D01*
X161475024Y-71282262D01*
X161475025Y-71282262D01*
X161557709Y-71234524D01*
X161557708Y-71234524D01*
X161557716Y-71234520D01*
X161669520Y-71122716D01*
X161669520Y-71122714D01*
X161679724Y-71112511D01*
X161679728Y-71112506D01*
X162087416Y-70704818D01*
X162148739Y-70671333D01*
X162175097Y-70668499D01*
X162672871Y-70668499D01*
X162672872Y-70668499D01*
X162732483Y-70662091D01*
X162867331Y-70611796D01*
X162982546Y-70525546D01*
X163068796Y-70410331D01*
X163119091Y-70275483D01*
X163125500Y-70215873D01*
X163125499Y-69420128D01*
X163119091Y-69360517D01*
X163115674Y-69351356D01*
X163068797Y-69225671D01*
X163068793Y-69225664D01*
X162982547Y-69110455D01*
X162982544Y-69110452D01*
X162867335Y-69024206D01*
X162867328Y-69024202D01*
X162732482Y-68973908D01*
X162732483Y-68973908D01*
X162672883Y-68967501D01*
X162672881Y-68967500D01*
X162672873Y-68967500D01*
X162672864Y-68967500D01*
X161577129Y-68967500D01*
X161577123Y-68967501D01*
X161517516Y-68973908D01*
X161382671Y-69024202D01*
X161382664Y-69024206D01*
X161267455Y-69110452D01*
X161267452Y-69110455D01*
X161181206Y-69225664D01*
X161181202Y-69225671D01*
X161130908Y-69360517D01*
X161125877Y-69407319D01*
X161124501Y-69420123D01*
X161124500Y-69420135D01*
X161124500Y-69917902D01*
X161104815Y-69984941D01*
X161088185Y-70005578D01*
X160976582Y-70117182D01*
X160915262Y-70150666D01*
X160888903Y-70153500D01*
X158678999Y-70153500D01*
X158611960Y-70133815D01*
X158566205Y-70081011D01*
X158554999Y-70029500D01*
X158554999Y-69871000D01*
X157678999Y-69871000D01*
X157611960Y-69851315D01*
X157566205Y-69798511D01*
X157554999Y-69747000D01*
X157554999Y-69495000D01*
X157574684Y-69427961D01*
X157627488Y-69382206D01*
X157678999Y-69371000D01*
X158554998Y-69371000D01*
X158554998Y-69096028D01*
X158554997Y-69096013D01*
X158544504Y-68993302D01*
X158489357Y-68826880D01*
X158489355Y-68826875D01*
X158397314Y-68677654D01*
X158273344Y-68553684D01*
X158124123Y-68461643D01*
X158124118Y-68461641D01*
X158093106Y-68451365D01*
X158035661Y-68411592D01*
X158008838Y-68347076D01*
X158021153Y-68278300D01*
X158035463Y-68255971D01*
X158116610Y-68155021D01*
X158201168Y-67984523D01*
X158247102Y-67799824D01*
X158250000Y-67757096D01*
X158250000Y-67306000D01*
X157124000Y-67306000D01*
X157056961Y-67286315D01*
X157011206Y-67233511D01*
X157000000Y-67182000D01*
X157000000Y-67056000D01*
X156874000Y-67056000D01*
X156806961Y-67036315D01*
X156761206Y-66983511D01*
X156750000Y-66932000D01*
X156750000Y-66806000D01*
X157250000Y-66806000D01*
X158250000Y-66806000D01*
X158250000Y-66354903D01*
X158247102Y-66312175D01*
X158223145Y-66215844D01*
X161125000Y-66215844D01*
X161131401Y-66275372D01*
X161131403Y-66275379D01*
X161181645Y-66410086D01*
X161181649Y-66410093D01*
X161267809Y-66525187D01*
X161267812Y-66525190D01*
X161382906Y-66611350D01*
X161382913Y-66611354D01*
X161517620Y-66661596D01*
X161517627Y-66661598D01*
X161577155Y-66667999D01*
X161577172Y-66668000D01*
X161875000Y-66668000D01*
X162375000Y-66668000D01*
X162672828Y-66668000D01*
X162672844Y-66667999D01*
X162732372Y-66661598D01*
X162732379Y-66661596D01*
X162867086Y-66611354D01*
X162867093Y-66611350D01*
X162982187Y-66525190D01*
X162982190Y-66525187D01*
X163068350Y-66410093D01*
X163068354Y-66410086D01*
X163118596Y-66275379D01*
X163118598Y-66275372D01*
X163124999Y-66215844D01*
X163125000Y-66215827D01*
X163125000Y-66068000D01*
X162375000Y-66068000D01*
X162375000Y-66668000D01*
X161875000Y-66668000D01*
X161875000Y-66068000D01*
X161125000Y-66068000D01*
X161125000Y-66215844D01*
X158223145Y-66215844D01*
X158201168Y-66127476D01*
X158116609Y-65956977D01*
X158116607Y-65956974D01*
X157997367Y-65808633D01*
X157997366Y-65808632D01*
X157849025Y-65689392D01*
X157849022Y-65689390D01*
X157678523Y-65604831D01*
X157493824Y-65558897D01*
X157451097Y-65556000D01*
X157250000Y-65556000D01*
X157250000Y-66806000D01*
X156750000Y-66806000D01*
X156750000Y-65556000D01*
X156548903Y-65556000D01*
X156506175Y-65558897D01*
X156321476Y-65604831D01*
X156150977Y-65689390D01*
X156150974Y-65689392D01*
X156002633Y-65808632D01*
X156002631Y-65808634D01*
X155946966Y-65877884D01*
X155889623Y-65917803D01*
X155819801Y-65920382D01*
X155759668Y-65884803D01*
X155753673Y-65877883D01*
X155697722Y-65808277D01*
X155697721Y-65808276D01*
X155549295Y-65688968D01*
X155549292Y-65688966D01*
X155372671Y-65601371D01*
X155373617Y-65599463D01*
X155325590Y-65563868D01*
X155300860Y-65498521D01*
X155300500Y-65489083D01*
X155300500Y-65420155D01*
X161125000Y-65420155D01*
X161125000Y-65568000D01*
X161875000Y-65568000D01*
X162375000Y-65568000D01*
X163125000Y-65568000D01*
X163125000Y-65420172D01*
X163124999Y-65420155D01*
X163118598Y-65360627D01*
X163118596Y-65360620D01*
X163068354Y-65225913D01*
X163068350Y-65225906D01*
X162982190Y-65110812D01*
X162982187Y-65110809D01*
X162867093Y-65024649D01*
X162867086Y-65024645D01*
X162732379Y-64974403D01*
X162732372Y-64974401D01*
X162672844Y-64968000D01*
X162375000Y-64968000D01*
X162375000Y-65568000D01*
X161875000Y-65568000D01*
X161875000Y-64968000D01*
X161577155Y-64968000D01*
X161517627Y-64974401D01*
X161517620Y-64974403D01*
X161382913Y-65024645D01*
X161382906Y-65024649D01*
X161267812Y-65110809D01*
X161267809Y-65110812D01*
X161181649Y-65225906D01*
X161181645Y-65225913D01*
X161131403Y-65360620D01*
X161131401Y-65360627D01*
X161125000Y-65420155D01*
X155300500Y-65420155D01*
X155300500Y-62380500D01*
X155320185Y-62313461D01*
X155372989Y-62267706D01*
X155424500Y-62256500D01*
X156158028Y-62256500D01*
X156158036Y-62256500D01*
X156277418Y-62245887D01*
X156473049Y-62189910D01*
X156653407Y-62095699D01*
X156811109Y-61967110D01*
X156939698Y-61809408D01*
X157033909Y-61629050D01*
X157089886Y-61433419D01*
X157100500Y-61314038D01*
X157100499Y-60197965D01*
X157089886Y-60078583D01*
X157033909Y-59882952D01*
X157006724Y-59830910D01*
X156993134Y-59762376D01*
X157018753Y-59697373D01*
X157075449Y-59656539D01*
X157116634Y-59649500D01*
X165654331Y-59649500D01*
X165654347Y-59649501D01*
X165661943Y-59649501D01*
X165820054Y-59649501D01*
X165820057Y-59649501D01*
X165972785Y-59608577D01*
X166032660Y-59574008D01*
X166109716Y-59529520D01*
X166221520Y-59417716D01*
X166221520Y-59417714D01*
X166231724Y-59407511D01*
X166231728Y-59407506D01*
X166239112Y-59400121D01*
X166300433Y-59366638D01*
X166370125Y-59371622D01*
G37*
%TD.AperFunction*%
%TA.AperFunction,Conductor*%
G36*
X166753255Y-77408010D02*
G01*
X166811118Y-77447171D01*
X166838623Y-77511400D01*
X166839500Y-77526122D01*
X166839500Y-77790702D01*
X166842401Y-77827568D01*
X166842402Y-77827574D01*
X166888254Y-77985394D01*
X166888255Y-77985397D01*
X166971917Y-78126863D01*
X166971923Y-78126871D01*
X167003180Y-78158127D01*
X167036666Y-78219449D01*
X167039500Y-78245809D01*
X167039500Y-78608000D01*
X167019815Y-78675039D01*
X166967011Y-78720794D01*
X166915500Y-78732000D01*
X166878384Y-78732000D01*
X166859145Y-78733748D01*
X166807807Y-78738413D01*
X166645393Y-78789022D01*
X166565898Y-78837079D01*
X166498343Y-78854915D01*
X166431869Y-78833397D01*
X166387582Y-78779357D01*
X166379541Y-78709951D01*
X166384708Y-78690004D01*
X166389944Y-78675039D01*
X166393368Y-78665255D01*
X166393369Y-78665249D01*
X166413565Y-78486003D01*
X166413565Y-78485996D01*
X166393369Y-78306750D01*
X166393368Y-78306745D01*
X166333789Y-78136478D01*
X166327749Y-78126866D01*
X166277680Y-78047181D01*
X166237816Y-77983738D01*
X166110262Y-77856184D01*
X166077344Y-77835500D01*
X165957521Y-77760210D01*
X165787249Y-77700630D01*
X165700330Y-77690837D01*
X165635916Y-77663770D01*
X165626533Y-77655298D01*
X165618416Y-77647181D01*
X165584931Y-77585858D01*
X165589915Y-77516166D01*
X165631787Y-77460233D01*
X165697251Y-77435816D01*
X165706097Y-77435500D01*
X166408883Y-77435500D01*
X166408899Y-77435501D01*
X166416495Y-77435501D01*
X166574607Y-77435501D01*
X166574609Y-77435501D01*
X166683407Y-77406348D01*
X166753255Y-77408010D01*
G37*
%TD.AperFunction*%
%TA.AperFunction,Conductor*%
G36*
X168569539Y-66688184D02*
G01*
X168615294Y-66740988D01*
X168626500Y-66792499D01*
X168626500Y-68844000D01*
X168606815Y-68911039D01*
X168554011Y-68956794D01*
X168502500Y-68968000D01*
X168325000Y-68968000D01*
X168325000Y-69694000D01*
X168305315Y-69761039D01*
X168252511Y-69806794D01*
X168201000Y-69818000D01*
X168075000Y-69818000D01*
X168075000Y-69944000D01*
X168055315Y-70011039D01*
X168002511Y-70056794D01*
X167951000Y-70068000D01*
X167075000Y-70068000D01*
X167075000Y-70215844D01*
X167081401Y-70275372D01*
X167081403Y-70275379D01*
X167131645Y-70410086D01*
X167131649Y-70410093D01*
X167217809Y-70525187D01*
X167217812Y-70525190D01*
X167332906Y-70611350D01*
X167332913Y-70611354D01*
X167467620Y-70661596D01*
X167467627Y-70661598D01*
X167527155Y-70667999D01*
X167527172Y-70668000D01*
X167850903Y-70668000D01*
X167917942Y-70687685D01*
X167963697Y-70740489D01*
X167973641Y-70809647D01*
X167944616Y-70873203D01*
X167938584Y-70879681D01*
X167107584Y-71710681D01*
X167046261Y-71744166D01*
X167019903Y-71747000D01*
X166688384Y-71747000D01*
X166669145Y-71748748D01*
X166617807Y-71753413D01*
X166455393Y-71804022D01*
X166309811Y-71892030D01*
X166189531Y-72012310D01*
X166189528Y-72012314D01*
X166126962Y-72115809D01*
X166075434Y-72162996D01*
X166006574Y-72174834D01*
X165942246Y-72147564D01*
X165902872Y-72089845D01*
X165897626Y-72065540D01*
X165885369Y-71956750D01*
X165885368Y-71956745D01*
X165862723Y-71892030D01*
X165825789Y-71786478D01*
X165819639Y-71776691D01*
X165792645Y-71733730D01*
X165729816Y-71633738D01*
X165729814Y-71633736D01*
X165729813Y-71633734D01*
X165727550Y-71630896D01*
X165726659Y-71628715D01*
X165726111Y-71627842D01*
X165726264Y-71627745D01*
X165701144Y-71566209D01*
X165700500Y-71553587D01*
X165700500Y-69420155D01*
X167075000Y-69420155D01*
X167075000Y-69568000D01*
X167825000Y-69568000D01*
X167825000Y-68968000D01*
X167527155Y-68968000D01*
X167467627Y-68974401D01*
X167467620Y-68974403D01*
X167332913Y-69024645D01*
X167332906Y-69024649D01*
X167217812Y-69110809D01*
X167217809Y-69110812D01*
X167131649Y-69225906D01*
X167131645Y-69225913D01*
X167081403Y-69360620D01*
X167081401Y-69360627D01*
X167075000Y-69420155D01*
X165700500Y-69420155D01*
X165700500Y-69093096D01*
X165720185Y-69026057D01*
X165736814Y-69005420D01*
X168037416Y-66704817D01*
X168098739Y-66671333D01*
X168125097Y-66668499D01*
X168502500Y-66668499D01*
X168569539Y-66688184D01*
G37*
%TD.AperFunction*%
%TA.AperFunction,Conductor*%
G36*
X172162540Y-43199685D02*
G01*
X172208295Y-43252489D01*
X172219501Y-43304000D01*
X172219501Y-51236819D01*
X172199816Y-51303858D01*
X172147012Y-51349613D01*
X172077854Y-51359557D01*
X172014298Y-51330532D01*
X172007820Y-51324500D01*
X171879186Y-51195866D01*
X171688171Y-51057085D01*
X171477802Y-50949897D01*
X171253247Y-50876934D01*
X171152000Y-50860897D01*
X171152000Y-55819100D01*
X171253249Y-55803065D01*
X171253255Y-55803063D01*
X171477804Y-55730102D01*
X171688171Y-55622914D01*
X171879186Y-55484133D01*
X172007820Y-55355500D01*
X172069143Y-55322015D01*
X172138835Y-55326999D01*
X172194768Y-55368871D01*
X172219185Y-55434335D01*
X172219501Y-55443181D01*
X172219501Y-58774061D01*
X172199816Y-58841100D01*
X172147012Y-58886855D01*
X172077854Y-58896799D01*
X172014298Y-58867774D01*
X172007820Y-58861742D01*
X171952262Y-58806184D01*
X171799523Y-58710211D01*
X171629254Y-58650631D01*
X171629249Y-58650630D01*
X171530992Y-58639560D01*
X171466578Y-58612494D01*
X171427023Y-58554899D01*
X171424885Y-58485062D01*
X171427834Y-58475385D01*
X171473366Y-58345262D01*
X171473369Y-58345249D01*
X171493565Y-58166003D01*
X171493565Y-58165996D01*
X171473369Y-57986750D01*
X171473368Y-57986745D01*
X171445198Y-57906240D01*
X171413789Y-57816478D01*
X171390751Y-57779814D01*
X171317815Y-57663737D01*
X171190262Y-57536184D01*
X171037523Y-57440211D01*
X170867254Y-57380631D01*
X170867249Y-57380630D01*
X170688004Y-57360435D01*
X170687996Y-57360435D01*
X170508750Y-57380630D01*
X170508745Y-57380631D01*
X170338476Y-57440211D01*
X170201707Y-57526149D01*
X170134470Y-57545149D01*
X170067635Y-57524781D01*
X170029620Y-57485307D01*
X169982472Y-57407315D01*
X169982470Y-57407313D01*
X169982469Y-57407311D01*
X169862188Y-57287030D01*
X169716606Y-57199022D01*
X169628902Y-57171693D01*
X169554196Y-57148414D01*
X169554194Y-57148413D01*
X169554192Y-57148413D01*
X169504778Y-57143923D01*
X169483616Y-57142000D01*
X169483613Y-57142000D01*
X169152097Y-57142000D01*
X169085058Y-57122315D01*
X169064416Y-57105681D01*
X167977878Y-56019143D01*
X167944393Y-55957820D01*
X167949377Y-55888128D01*
X167991249Y-55832195D01*
X168056713Y-55807778D01*
X168084952Y-55808988D01*
X168186603Y-55825088D01*
X168283904Y-55840500D01*
X168283908Y-55840500D01*
X168520097Y-55840500D01*
X168753368Y-55803553D01*
X168754876Y-55803063D01*
X168977992Y-55730568D01*
X169188433Y-55623343D01*
X169379510Y-55484517D01*
X169546517Y-55317510D01*
X169551987Y-55309980D01*
X169607310Y-55267313D01*
X169676923Y-55261328D01*
X169738721Y-55293928D01*
X169752625Y-55309973D01*
X169757863Y-55317183D01*
X169924813Y-55484133D01*
X170115828Y-55622914D01*
X170326195Y-55730102D01*
X170550744Y-55803063D01*
X170550750Y-55803065D01*
X170652000Y-55819101D01*
X170652000Y-50860897D01*
X170550752Y-50876934D01*
X170326197Y-50949897D01*
X170115828Y-51057085D01*
X169924813Y-51195866D01*
X169757866Y-51362813D01*
X169752622Y-51370031D01*
X169697289Y-51412693D01*
X169627675Y-51418668D01*
X169565882Y-51386058D01*
X169551992Y-51370026D01*
X169546517Y-51362490D01*
X169379510Y-51195483D01*
X169188433Y-51056657D01*
X168977996Y-50949433D01*
X168753368Y-50876446D01*
X168520097Y-50839500D01*
X168520092Y-50839500D01*
X168283908Y-50839500D01*
X168283903Y-50839500D01*
X168050631Y-50876446D01*
X167826003Y-50949433D01*
X167615566Y-51056657D01*
X167520813Y-51125500D01*
X167424490Y-51195483D01*
X167424488Y-51195485D01*
X167424487Y-51195485D01*
X167257482Y-51362490D01*
X167252315Y-51369603D01*
X167196983Y-51412266D01*
X167127370Y-51418242D01*
X167065576Y-51385634D01*
X167051685Y-51369603D01*
X167046517Y-51362490D01*
X166879512Y-51195485D01*
X166879510Y-51195483D01*
X166688433Y-51056657D01*
X166477996Y-50949433D01*
X166253368Y-50876446D01*
X166020097Y-50839500D01*
X166020092Y-50839500D01*
X165783908Y-50839500D01*
X165783903Y-50839500D01*
X165550631Y-50876446D01*
X165326003Y-50949433D01*
X165115566Y-51056657D01*
X165020813Y-51125500D01*
X164924490Y-51195483D01*
X164924488Y-51195485D01*
X164924487Y-51195485D01*
X164757485Y-51362487D01*
X164757485Y-51362488D01*
X164757483Y-51362490D01*
X164740668Y-51385634D01*
X164618657Y-51553566D01*
X164511433Y-51764003D01*
X164438446Y-51988631D01*
X164401500Y-52221902D01*
X164401500Y-54458097D01*
X164438446Y-54691368D01*
X164511433Y-54915996D01*
X164618657Y-55126433D01*
X164757483Y-55317510D01*
X164924490Y-55484517D01*
X165115567Y-55623343D01*
X165214991Y-55674002D01*
X165326003Y-55730566D01*
X165326005Y-55730566D01*
X165326008Y-55730568D01*
X165446412Y-55769689D01*
X165550631Y-55803553D01*
X165783903Y-55840500D01*
X165783908Y-55840500D01*
X166020086Y-55840500D01*
X166020092Y-55840500D01*
X166027330Y-55839353D01*
X166096620Y-55848306D01*
X166134410Y-55874145D01*
X167225891Y-56965626D01*
X167259376Y-57026949D01*
X167254392Y-57096641D01*
X167212520Y-57152574D01*
X167175103Y-57171691D01*
X167113055Y-57191025D01*
X167087393Y-57199022D01*
X166941815Y-57287028D01*
X166885882Y-57342960D01*
X166824558Y-57376444D01*
X166784319Y-57378497D01*
X166624004Y-57360435D01*
X166623996Y-57360435D01*
X166444750Y-57380630D01*
X166444745Y-57380631D01*
X166274476Y-57440211D01*
X166121737Y-57536184D01*
X165994184Y-57663737D01*
X165898210Y-57816478D01*
X165838630Y-57986750D01*
X165828837Y-58073668D01*
X165801770Y-58138082D01*
X165793298Y-58147465D01*
X165528582Y-58412182D01*
X165467262Y-58445666D01*
X165440903Y-58448500D01*
X154558797Y-58448500D01*
X154491758Y-58428815D01*
X154451413Y-58386505D01*
X154449347Y-58382927D01*
X154449343Y-58382921D01*
X154404521Y-58305286D01*
X154404520Y-58305284D01*
X154292716Y-58193480D01*
X154292715Y-58193479D01*
X154288385Y-58189149D01*
X154288374Y-58189139D01*
X148061590Y-51962355D01*
X148061588Y-51962352D01*
X147942717Y-51843481D01*
X147942709Y-51843475D01*
X147840936Y-51784717D01*
X147840934Y-51784716D01*
X147805790Y-51764425D01*
X147805789Y-51764424D01*
X147793263Y-51761067D01*
X147653057Y-51723499D01*
X147494943Y-51723499D01*
X147487347Y-51723499D01*
X147487331Y-51723500D01*
X144092412Y-51723500D01*
X144025373Y-51703815D01*
X144015097Y-51696445D01*
X144012263Y-51694185D01*
X144012262Y-51694184D01*
X143955496Y-51658515D01*
X143859523Y-51598211D01*
X143689254Y-51538631D01*
X143689249Y-51538630D01*
X143510004Y-51518435D01*
X143509996Y-51518435D01*
X143330750Y-51538630D01*
X143330745Y-51538631D01*
X143160476Y-51598211D01*
X143007737Y-51694184D01*
X142880184Y-51821737D01*
X142784211Y-51974476D01*
X142724631Y-52144745D01*
X142724630Y-52144750D01*
X142704435Y-52323996D01*
X142704435Y-52324003D01*
X142724630Y-52503249D01*
X142724631Y-52503254D01*
X142784211Y-52673523D01*
X142852348Y-52781961D01*
X142880184Y-52826262D01*
X143007738Y-52953816D01*
X143160478Y-53049789D01*
X143205635Y-53065590D01*
X143330745Y-53109368D01*
X143330750Y-53109369D01*
X143509996Y-53129565D01*
X143510000Y-53129565D01*
X143510004Y-53129565D01*
X143689249Y-53109369D01*
X143689252Y-53109368D01*
X143689255Y-53109368D01*
X143859522Y-53049789D01*
X144012262Y-52953816D01*
X144012267Y-52953810D01*
X144015097Y-52951555D01*
X144017275Y-52950665D01*
X144018158Y-52950111D01*
X144018255Y-52950265D01*
X144079783Y-52925145D01*
X144092412Y-52924500D01*
X147273903Y-52924500D01*
X147340942Y-52944185D01*
X147361584Y-52960819D01*
X152637584Y-58236819D01*
X152671069Y-58298142D01*
X152666085Y-58367834D01*
X152624213Y-58423767D01*
X152558749Y-58448184D01*
X152549903Y-58448500D01*
X149320424Y-58448500D01*
X149253385Y-58428815D01*
X149214886Y-58389598D01*
X149187967Y-58345956D01*
X149068043Y-58226032D01*
X149068039Y-58226029D01*
X148923704Y-58137001D01*
X148923698Y-58136998D01*
X148923696Y-58136997D01*
X148845275Y-58111011D01*
X148762708Y-58083651D01*
X148663345Y-58073500D01*
X148116661Y-58073500D01*
X148116643Y-58073501D01*
X148017291Y-58083650D01*
X148017288Y-58083651D01*
X147856304Y-58136996D01*
X147856293Y-58137001D01*
X147711958Y-58226029D01*
X147711952Y-58226033D01*
X147702323Y-58235663D01*
X147640999Y-58269146D01*
X147571307Y-58264159D01*
X147526964Y-58235660D01*
X147517731Y-58226427D01*
X147517727Y-58226424D01*
X147373491Y-58137457D01*
X147373480Y-58137452D01*
X147212605Y-58084144D01*
X147113321Y-58074000D01*
X147089999Y-58074000D01*
X147089999Y-60023999D01*
X147113307Y-60023999D01*
X147113314Y-60023998D01*
X147144176Y-60020845D01*
X147212869Y-60033613D01*
X147235902Y-60055284D01*
X147247112Y-60025569D01*
X147303202Y-59983907D01*
X147307098Y-59982544D01*
X147373478Y-59960548D01*
X147373491Y-59960542D01*
X147517730Y-59871573D01*
X147526958Y-59862345D01*
X147588278Y-59828856D01*
X147657970Y-59833835D01*
X147702326Y-59862339D01*
X147711955Y-59871968D01*
X147730595Y-59883465D01*
X147777320Y-59935412D01*
X147789499Y-59989004D01*
X147789499Y-60097499D01*
X147769814Y-60164538D01*
X147717010Y-60210293D01*
X147665499Y-60221499D01*
X147390878Y-60221499D01*
X147390869Y-60221500D01*
X147354485Y-60223966D01*
X147286268Y-60208859D01*
X147267054Y-60189501D01*
X147258263Y-60215459D01*
X147203630Y-60259012D01*
X147186712Y-60264537D01*
X147163303Y-60270359D01*
X146992707Y-60354966D01*
X146992704Y-60354968D01*
X146844280Y-60474275D01*
X146844278Y-60474277D01*
X146843993Y-60474632D01*
X146788646Y-60543486D01*
X146731302Y-60583404D01*
X146661480Y-60585984D01*
X146601347Y-60550405D01*
X146595352Y-60543485D01*
X146588933Y-60535500D01*
X146539722Y-60474278D01*
X146539719Y-60474275D01*
X146391295Y-60354969D01*
X146391292Y-60354967D01*
X146214671Y-60267372D01*
X146215617Y-60265464D01*
X146167590Y-60229869D01*
X146142860Y-60164522D01*
X146142500Y-60155084D01*
X146142500Y-60077917D01*
X146162185Y-60010878D01*
X146214989Y-59965123D01*
X146284147Y-59955179D01*
X146305504Y-59960211D01*
X146467392Y-60013855D01*
X146566682Y-60023999D01*
X146589999Y-60023998D01*
X146589999Y-58073999D01*
X146566692Y-58074000D01*
X146566673Y-58074001D01*
X146467391Y-58084144D01*
X146306517Y-58137452D01*
X146306506Y-58137457D01*
X146162270Y-58226424D01*
X146162266Y-58226427D01*
X146127270Y-58261423D01*
X146065947Y-58294908D01*
X145996255Y-58289922D01*
X145940322Y-58248050D01*
X145934051Y-58238838D01*
X145926153Y-58226033D01*
X145851712Y-58105344D01*
X145727656Y-57981288D01*
X145725631Y-57980039D01*
X145724534Y-57978819D01*
X145721989Y-57976807D01*
X145722332Y-57976372D01*
X145678906Y-57928092D01*
X145667683Y-57859130D01*
X145695526Y-57795047D01*
X145753594Y-57756190D01*
X145790727Y-57750500D01*
X148769588Y-57750500D01*
X148836627Y-57770185D01*
X148846903Y-57777555D01*
X148849736Y-57779814D01*
X148849738Y-57779816D01*
X149002478Y-57875789D01*
X149089502Y-57906240D01*
X149172745Y-57935368D01*
X149172750Y-57935369D01*
X149351996Y-57955565D01*
X149352000Y-57955565D01*
X149352004Y-57955565D01*
X149531249Y-57935369D01*
X149531252Y-57935368D01*
X149531255Y-57935368D01*
X149701522Y-57875789D01*
X149854262Y-57779816D01*
X149981816Y-57652262D01*
X150077789Y-57499522D01*
X150137368Y-57329255D01*
X150157565Y-57150000D01*
X150157386Y-57148414D01*
X150137369Y-56970750D01*
X150137368Y-56970745D01*
X150077788Y-56800476D01*
X149981815Y-56647737D01*
X149854262Y-56520184D01*
X149701523Y-56424211D01*
X149531254Y-56364631D01*
X149531249Y-56364630D01*
X149352004Y-56344435D01*
X149351996Y-56344435D01*
X149172750Y-56364630D01*
X149172745Y-56364631D01*
X149002476Y-56424211D01*
X148849736Y-56520185D01*
X148846903Y-56522445D01*
X148844724Y-56523334D01*
X148843842Y-56523889D01*
X148843744Y-56523734D01*
X148782217Y-56548855D01*
X148769588Y-56549500D01*
X145616412Y-56549500D01*
X145549373Y-56529815D01*
X145539097Y-56522445D01*
X145536263Y-56520185D01*
X145536262Y-56520184D01*
X145479496Y-56484515D01*
X145383523Y-56424211D01*
X145213254Y-56364631D01*
X145213249Y-56364630D01*
X145034004Y-56344435D01*
X145033996Y-56344435D01*
X144854750Y-56364630D01*
X144854745Y-56364631D01*
X144684476Y-56424211D01*
X144531737Y-56520184D01*
X144404184Y-56647737D01*
X144308211Y-56800476D01*
X144248631Y-56970745D01*
X144248630Y-56970750D01*
X144228435Y-57149996D01*
X144228435Y-57150003D01*
X144248630Y-57329249D01*
X144248631Y-57329254D01*
X144308211Y-57499524D01*
X144389493Y-57628881D01*
X144408500Y-57694854D01*
X144408500Y-57839201D01*
X144388815Y-57906240D01*
X144349598Y-57944739D01*
X144290344Y-57981287D01*
X144166288Y-58105343D01*
X144166284Y-58105348D01*
X144164241Y-58108661D01*
X144162247Y-58110453D01*
X144161807Y-58111011D01*
X144161711Y-58110935D01*
X144112290Y-58155382D01*
X144043327Y-58166599D01*
X143979247Y-58138752D01*
X143953170Y-58108656D01*
X143951321Y-58105659D01*
X143951318Y-58105655D01*
X143827347Y-57981684D01*
X143678126Y-57889643D01*
X143678121Y-57889641D01*
X143511699Y-57834494D01*
X143511692Y-57834493D01*
X143408988Y-57824000D01*
X143359002Y-57824000D01*
X143359002Y-60091999D01*
X143368000Y-60091999D01*
X143435039Y-60111684D01*
X143480794Y-60164488D01*
X143492000Y-60215999D01*
X143492000Y-61597999D01*
X143472315Y-61665038D01*
X143419511Y-61710793D01*
X143368000Y-61721999D01*
X143242000Y-61721999D01*
X143242000Y-61847999D01*
X143222315Y-61915038D01*
X143169511Y-61960793D01*
X143118000Y-61971999D01*
X141992000Y-61971999D01*
X141992000Y-62423095D01*
X141994898Y-62465828D01*
X141996784Y-62473413D01*
X141993857Y-62543222D01*
X141953654Y-62600366D01*
X141908543Y-62623108D01*
X141784220Y-62656421D01*
X141784209Y-62656426D01*
X141647290Y-62735475D01*
X141647282Y-62735481D01*
X134139479Y-70243284D01*
X134123259Y-70271379D01*
X134116403Y-70283255D01*
X134060423Y-70380215D01*
X134019499Y-70532943D01*
X134019499Y-70532945D01*
X134019499Y-70701046D01*
X134019500Y-70701059D01*
X134019500Y-71402903D01*
X133999815Y-71469942D01*
X133947011Y-71515697D01*
X133877853Y-71525641D01*
X133814297Y-71496616D01*
X133807819Y-71490584D01*
X133478819Y-71161584D01*
X133445334Y-71100261D01*
X133442500Y-71073903D01*
X133442500Y-54022945D01*
X133442500Y-54022943D01*
X133401577Y-53870216D01*
X133401573Y-53870209D01*
X133322524Y-53733290D01*
X133322521Y-53733286D01*
X133322520Y-53733284D01*
X133210716Y-53621480D01*
X133210715Y-53621479D01*
X133206385Y-53617149D01*
X133206374Y-53617139D01*
X131954819Y-52365584D01*
X131921334Y-52304261D01*
X131918500Y-52277903D01*
X131918500Y-52099589D01*
X131938185Y-52032550D01*
X131990989Y-51986795D01*
X132014232Y-51982214D01*
X132808657Y-51187789D01*
X132817447Y-51220591D01*
X132892687Y-51350909D01*
X132999091Y-51457313D01*
X133129409Y-51532553D01*
X133162210Y-51541342D01*
X132375319Y-52328232D01*
X132381283Y-52333325D01*
X132601786Y-52468450D01*
X132840714Y-52567417D01*
X133092179Y-52627788D01*
X133350000Y-52648079D01*
X133607820Y-52627788D01*
X133859285Y-52567417D01*
X134098213Y-52468450D01*
X134318713Y-52333326D01*
X134318723Y-52333319D01*
X134324678Y-52328232D01*
X134324678Y-52328231D01*
X133537789Y-51541342D01*
X133570591Y-51532553D01*
X133700909Y-51457313D01*
X133807313Y-51350909D01*
X133882553Y-51220591D01*
X133891342Y-51187789D01*
X134381817Y-51678264D01*
X134408695Y-51718488D01*
X134421103Y-51748442D01*
X134421104Y-51748444D01*
X134556267Y-51969009D01*
X134556270Y-51969014D01*
X134610535Y-52032550D01*
X134724276Y-52165724D01*
X134850191Y-52273265D01*
X134920985Y-52333729D01*
X134920990Y-52333732D01*
X135141558Y-52468897D01*
X135195760Y-52491348D01*
X135380560Y-52567895D01*
X135632105Y-52628285D01*
X135890000Y-52648582D01*
X136147895Y-52628285D01*
X136399440Y-52567895D01*
X136638441Y-52468897D01*
X136859012Y-52333731D01*
X137055724Y-52165724D01*
X137065708Y-52154033D01*
X137124215Y-52115840D01*
X137194083Y-52115340D01*
X137253129Y-52152693D01*
X137254286Y-52154027D01*
X137264276Y-52165724D01*
X137390191Y-52273265D01*
X137460985Y-52333729D01*
X137460990Y-52333732D01*
X137681558Y-52468897D01*
X137735760Y-52491348D01*
X137920560Y-52567895D01*
X138172105Y-52628285D01*
X138430000Y-52648582D01*
X138687895Y-52628285D01*
X138939440Y-52567895D01*
X139178441Y-52468897D01*
X139399012Y-52333731D01*
X139595724Y-52165724D01*
X139605708Y-52154033D01*
X139664215Y-52115840D01*
X139734083Y-52115340D01*
X139793129Y-52152693D01*
X139794286Y-52154027D01*
X139804276Y-52165724D01*
X139930191Y-52273265D01*
X140000985Y-52333729D01*
X140000987Y-52333730D01*
X140000988Y-52333731D01*
X140220830Y-52468450D01*
X140221559Y-52468897D01*
X140221561Y-52468898D01*
X140292952Y-52498469D01*
X140347356Y-52542309D01*
X140369421Y-52608603D01*
X140369500Y-52613030D01*
X140369500Y-58373902D01*
X140349815Y-58440941D01*
X140333181Y-58461583D01*
X139130760Y-59664003D01*
X139069437Y-59697488D01*
X139056963Y-59699542D01*
X138970045Y-59709335D01*
X138799773Y-59768915D01*
X138647032Y-59864889D01*
X138519479Y-59992442D01*
X138423506Y-60145181D01*
X138363926Y-60315450D01*
X138363925Y-60315455D01*
X138343730Y-60494701D01*
X138343730Y-60494708D01*
X138363925Y-60673954D01*
X138363926Y-60673959D01*
X138423506Y-60844228D01*
X138519479Y-60996967D01*
X138647033Y-61124521D01*
X138799773Y-61220494D01*
X138867801Y-61244298D01*
X138970040Y-61280073D01*
X138970045Y-61280074D01*
X139149291Y-61300270D01*
X139149295Y-61300270D01*
X139149299Y-61300270D01*
X139328544Y-61280074D01*
X139328547Y-61280073D01*
X139328550Y-61280073D01*
X139498817Y-61220494D01*
X139651557Y-61124521D01*
X139755176Y-61020902D01*
X141992000Y-61020902D01*
X141992000Y-61471999D01*
X142992000Y-61471999D01*
X142992000Y-60404000D01*
X142983002Y-60404000D01*
X142915963Y-60384315D01*
X142870208Y-60331511D01*
X142859002Y-60280000D01*
X142859002Y-59299000D01*
X142109003Y-59299000D01*
X142109003Y-59573986D01*
X142119496Y-59676697D01*
X142174643Y-59843119D01*
X142174645Y-59843124D01*
X142266686Y-59992345D01*
X142390658Y-60116317D01*
X142416322Y-60132147D01*
X142463046Y-60184095D01*
X142474267Y-60253058D01*
X142446423Y-60317140D01*
X142406320Y-60348772D01*
X142392978Y-60355389D01*
X142392974Y-60355391D01*
X142244633Y-60474631D01*
X142244632Y-60474632D01*
X142125392Y-60622973D01*
X142125390Y-60622976D01*
X142040831Y-60793475D01*
X141994897Y-60978174D01*
X141992000Y-61020902D01*
X139755176Y-61020902D01*
X139779111Y-60996967D01*
X139875084Y-60844227D01*
X139934663Y-60673960D01*
X139944456Y-60587034D01*
X139971521Y-60522623D01*
X139979985Y-60513248D01*
X141450520Y-59042716D01*
X141529577Y-58905784D01*
X141570501Y-58753057D01*
X141570501Y-58594942D01*
X141570501Y-58587347D01*
X141570500Y-58587329D01*
X141570500Y-58524013D01*
X142109002Y-58524013D01*
X142109002Y-58799000D01*
X142859002Y-58799000D01*
X142859002Y-57824000D01*
X142859001Y-57823999D01*
X142809031Y-57824000D01*
X142809013Y-57824001D01*
X142706304Y-57834494D01*
X142539882Y-57889641D01*
X142539877Y-57889643D01*
X142390656Y-57981684D01*
X142266686Y-58105654D01*
X142174645Y-58254875D01*
X142174643Y-58254880D01*
X142119496Y-58421302D01*
X142119495Y-58421309D01*
X142109002Y-58524013D01*
X141570500Y-58524013D01*
X141570500Y-52613030D01*
X141590185Y-52545991D01*
X141642989Y-52500236D01*
X141647048Y-52498469D01*
X141672265Y-52488023D01*
X141718441Y-52468897D01*
X141939012Y-52333731D01*
X142135724Y-52165724D01*
X142303731Y-51969012D01*
X142438897Y-51748441D01*
X142537895Y-51509440D01*
X142598285Y-51257895D01*
X142618582Y-51000000D01*
X142598285Y-50742105D01*
X142537895Y-50490560D01*
X142456233Y-50293412D01*
X142438897Y-50251558D01*
X142303732Y-50030990D01*
X142303729Y-50030985D01*
X142239950Y-49956310D01*
X142135724Y-49834276D01*
X141993183Y-49712535D01*
X141939014Y-49666270D01*
X141939009Y-49666267D01*
X141718441Y-49531102D01*
X141514441Y-49446603D01*
X141479440Y-49432105D01*
X141479436Y-49432104D01*
X141479430Y-49432102D01*
X141353219Y-49401802D01*
X141292627Y-49367011D01*
X141260463Y-49304985D01*
X141266939Y-49235416D01*
X141281025Y-49211029D01*
X141280782Y-49210879D01*
X141373542Y-49060492D01*
X141373547Y-49060481D01*
X141426855Y-48899606D01*
X141429368Y-48875013D01*
X143500000Y-48875013D01*
X143500000Y-49400000D01*
X144445854Y-49400000D01*
X144407370Y-49466657D01*
X144375000Y-49587465D01*
X144375000Y-49712535D01*
X144407370Y-49833343D01*
X144445854Y-49900000D01*
X143500001Y-49900000D01*
X143500001Y-50424986D01*
X143510494Y-50527697D01*
X143565641Y-50694119D01*
X143565643Y-50694124D01*
X143657684Y-50843345D01*
X143781654Y-50967315D01*
X143930875Y-51059356D01*
X143930880Y-51059358D01*
X144097302Y-51114505D01*
X144097309Y-51114506D01*
X144200019Y-51124999D01*
X144599999Y-51124999D01*
X144600000Y-51124998D01*
X144600000Y-50054145D01*
X144666657Y-50092630D01*
X144787465Y-50125000D01*
X144912535Y-50125000D01*
X145033343Y-50092630D01*
X145100000Y-50054145D01*
X145100000Y-51124999D01*
X145499972Y-51124999D01*
X145499986Y-51124998D01*
X145602697Y-51114505D01*
X145769119Y-51059358D01*
X145769124Y-51059356D01*
X145918345Y-50967315D01*
X146042317Y-50843343D01*
X146137815Y-50688516D01*
X146189763Y-50641791D01*
X146258725Y-50630568D01*
X146322808Y-50658412D01*
X146331035Y-50665931D01*
X146470213Y-50805109D01*
X146642179Y-50930048D01*
X146642181Y-50930049D01*
X146642184Y-50930051D01*
X146831588Y-51026557D01*
X147033757Y-51092246D01*
X147243713Y-51125500D01*
X147243714Y-51125500D01*
X147456286Y-51125500D01*
X147456287Y-51125500D01*
X147666243Y-51092246D01*
X147868412Y-51026557D01*
X148057816Y-50930051D01*
X148131596Y-50876447D01*
X148229786Y-50805109D01*
X148229788Y-50805106D01*
X148229792Y-50805104D01*
X148380104Y-50654792D01*
X148499683Y-50490204D01*
X148555011Y-50447540D01*
X148624624Y-50441561D01*
X148686420Y-50474166D01*
X148700313Y-50490199D01*
X148727557Y-50527697D01*
X148819896Y-50654792D01*
X148970213Y-50805109D01*
X149142179Y-50930048D01*
X149142181Y-50930049D01*
X149142184Y-50930051D01*
X149331588Y-51026557D01*
X149533757Y-51092246D01*
X149743713Y-51125500D01*
X149743714Y-51125500D01*
X149956286Y-51125500D01*
X149956287Y-51125500D01*
X150166243Y-51092246D01*
X150368412Y-51026557D01*
X150557816Y-50930051D01*
X150631596Y-50876447D01*
X150729786Y-50805109D01*
X150729788Y-50805106D01*
X150729792Y-50805104D01*
X150880104Y-50654792D01*
X150999683Y-50490204D01*
X151055011Y-50447540D01*
X151124624Y-50441561D01*
X151186420Y-50474166D01*
X151200313Y-50490199D01*
X151227557Y-50527697D01*
X151319896Y-50654792D01*
X151470213Y-50805109D01*
X151642179Y-50930048D01*
X151642181Y-50930049D01*
X151642184Y-50930051D01*
X151831588Y-51026557D01*
X152033757Y-51092246D01*
X152243713Y-51125500D01*
X152243714Y-51125500D01*
X152456286Y-51125500D01*
X152456287Y-51125500D01*
X152666243Y-51092246D01*
X152868412Y-51026557D01*
X153057816Y-50930051D01*
X153131596Y-50876447D01*
X153229786Y-50805109D01*
X153229788Y-50805106D01*
X153229792Y-50805104D01*
X153380104Y-50654792D01*
X153380106Y-50654788D01*
X153380109Y-50654786D01*
X153505048Y-50482820D01*
X153505047Y-50482820D01*
X153505051Y-50482816D01*
X153601557Y-50293412D01*
X153667246Y-50091243D01*
X153700500Y-49881287D01*
X153700500Y-49418713D01*
X153667246Y-49208757D01*
X153601557Y-49006588D01*
X153505051Y-48817184D01*
X153505049Y-48817181D01*
X153505048Y-48817179D01*
X153380109Y-48645213D01*
X153229786Y-48494890D01*
X153057820Y-48369951D01*
X152868414Y-48273444D01*
X152868413Y-48273443D01*
X152868412Y-48273443D01*
X152666243Y-48207754D01*
X152666241Y-48207753D01*
X152666240Y-48207753D01*
X152504957Y-48182208D01*
X152456287Y-48174500D01*
X152243713Y-48174500D01*
X152195042Y-48182208D01*
X152033760Y-48207753D01*
X151831585Y-48273444D01*
X151642179Y-48369951D01*
X151470213Y-48494890D01*
X151319894Y-48645209D01*
X151319890Y-48645214D01*
X151200318Y-48809793D01*
X151144989Y-48852459D01*
X151075375Y-48858438D01*
X151013580Y-48825833D01*
X150999682Y-48809793D01*
X150880109Y-48645214D01*
X150880105Y-48645209D01*
X150729786Y-48494890D01*
X150557820Y-48369951D01*
X150368414Y-48273444D01*
X150368413Y-48273443D01*
X150368412Y-48273443D01*
X150166243Y-48207754D01*
X150166241Y-48207753D01*
X150166240Y-48207753D01*
X150004957Y-48182208D01*
X149956287Y-48174500D01*
X149743713Y-48174500D01*
X149695042Y-48182208D01*
X149533760Y-48207753D01*
X149331585Y-48273444D01*
X149142179Y-48369951D01*
X148970213Y-48494890D01*
X148819894Y-48645209D01*
X148819890Y-48645214D01*
X148700318Y-48809793D01*
X148644989Y-48852459D01*
X148575375Y-48858438D01*
X148513580Y-48825833D01*
X148499682Y-48809793D01*
X148380109Y-48645214D01*
X148380105Y-48645209D01*
X148229786Y-48494890D01*
X148057820Y-48369951D01*
X147868414Y-48273444D01*
X147868413Y-48273443D01*
X147868412Y-48273443D01*
X147666243Y-48207754D01*
X147666241Y-48207753D01*
X147666240Y-48207753D01*
X147504957Y-48182208D01*
X147456287Y-48174500D01*
X147243713Y-48174500D01*
X147195042Y-48182208D01*
X147033760Y-48207753D01*
X146831585Y-48273444D01*
X146642179Y-48369951D01*
X146470215Y-48494889D01*
X146331035Y-48634069D01*
X146269712Y-48667553D01*
X146200020Y-48662569D01*
X146144087Y-48620697D01*
X146137815Y-48611484D01*
X146042315Y-48456654D01*
X145918345Y-48332684D01*
X145769124Y-48240643D01*
X145769119Y-48240641D01*
X145602697Y-48185494D01*
X145602690Y-48185493D01*
X145499986Y-48175000D01*
X145100000Y-48175000D01*
X145100000Y-49245854D01*
X145033343Y-49207370D01*
X144912535Y-49175000D01*
X144787465Y-49175000D01*
X144666657Y-49207370D01*
X144600000Y-49245854D01*
X144600000Y-48175000D01*
X144200028Y-48175000D01*
X144200012Y-48175001D01*
X144097302Y-48185494D01*
X143930880Y-48240641D01*
X143930875Y-48240643D01*
X143781654Y-48332684D01*
X143657684Y-48456654D01*
X143565643Y-48605875D01*
X143565641Y-48605880D01*
X143510494Y-48772302D01*
X143510493Y-48772309D01*
X143500000Y-48875013D01*
X141429368Y-48875013D01*
X141436999Y-48800322D01*
X141437000Y-48800309D01*
X141437000Y-48777000D01*
X139487001Y-48777000D01*
X139487001Y-48800322D01*
X139497144Y-48899607D01*
X139550452Y-49060481D01*
X139550457Y-49060492D01*
X139639424Y-49204728D01*
X139639427Y-49204732D01*
X139759267Y-49324572D01*
X139759271Y-49324575D01*
X139903507Y-49413542D01*
X139903518Y-49413547D01*
X139981063Y-49439243D01*
X140038508Y-49479015D01*
X140065331Y-49543531D01*
X140053016Y-49612307D01*
X140006855Y-49662673D01*
X140000987Y-49666269D01*
X140000985Y-49666270D01*
X139805368Y-49833343D01*
X139804276Y-49834276D01*
X139794287Y-49845970D01*
X139735781Y-49884161D01*
X139665913Y-49884659D01*
X139606867Y-49847304D01*
X139605751Y-49846016D01*
X139595724Y-49834276D01*
X139453183Y-49712535D01*
X139399014Y-49666270D01*
X139399009Y-49666267D01*
X139178441Y-49531102D01*
X138974441Y-49446603D01*
X138939440Y-49432105D01*
X138939436Y-49432104D01*
X138939430Y-49432102D01*
X138687898Y-49371715D01*
X138430000Y-49351418D01*
X138172101Y-49371715D01*
X137920569Y-49432102D01*
X137920557Y-49432106D01*
X137681558Y-49531102D01*
X137460990Y-49666267D01*
X137460985Y-49666270D01*
X137265368Y-49833343D01*
X137264276Y-49834276D01*
X137254287Y-49845970D01*
X137195781Y-49884161D01*
X137125913Y-49884659D01*
X137066867Y-49847304D01*
X137065751Y-49846016D01*
X137055724Y-49834276D01*
X136913183Y-49712535D01*
X136859014Y-49666270D01*
X136859009Y-49666267D01*
X136638441Y-49531102D01*
X136434441Y-49446603D01*
X136399440Y-49432105D01*
X136399436Y-49432104D01*
X136399430Y-49432102D01*
X136147898Y-49371715D01*
X135890000Y-49351418D01*
X135632101Y-49371715D01*
X135380569Y-49432102D01*
X135380557Y-49432106D01*
X135141558Y-49531102D01*
X134920990Y-49666267D01*
X134920985Y-49666270D01*
X134724276Y-49834276D01*
X134556270Y-50030985D01*
X134556267Y-50030990D01*
X134421106Y-50251552D01*
X134421103Y-50251558D01*
X134408697Y-50281508D01*
X134381818Y-50321733D01*
X133891341Y-50812209D01*
X133882553Y-50779409D01*
X133807313Y-50649091D01*
X133700909Y-50542687D01*
X133570591Y-50467447D01*
X133537788Y-50458657D01*
X134324679Y-49671767D01*
X134324679Y-49671766D01*
X134318719Y-49666676D01*
X134318714Y-49666673D01*
X134098213Y-49531549D01*
X133859285Y-49432582D01*
X133607820Y-49372211D01*
X133350000Y-49351920D01*
X133092179Y-49372211D01*
X132840714Y-49432582D01*
X132601786Y-49531549D01*
X132381289Y-49666670D01*
X132381273Y-49666682D01*
X132375320Y-49671766D01*
X133162211Y-50458657D01*
X133129409Y-50467447D01*
X132999091Y-50542687D01*
X132892687Y-50649091D01*
X132817447Y-50779409D01*
X132808657Y-50812210D01*
X132011821Y-50015374D01*
X131979610Y-50007276D01*
X131931816Y-49956310D01*
X131918500Y-49900408D01*
X131918500Y-48321423D01*
X131938185Y-48254384D01*
X131990989Y-48208629D01*
X132060147Y-48198685D01*
X132123703Y-48227710D01*
X132160206Y-48282419D01*
X132210996Y-48435694D01*
X132211001Y-48435705D01*
X132300029Y-48580040D01*
X132300032Y-48580044D01*
X132419955Y-48699967D01*
X132419959Y-48699970D01*
X132564294Y-48788998D01*
X132564297Y-48788999D01*
X132564303Y-48789003D01*
X132725292Y-48842349D01*
X132824655Y-48852500D01*
X133371344Y-48852499D01*
X133371352Y-48852498D01*
X133371355Y-48852498D01*
X133425760Y-48846940D01*
X133470708Y-48842349D01*
X133631697Y-48789003D01*
X133776044Y-48699968D01*
X133895968Y-48580044D01*
X133985003Y-48435697D01*
X134038349Y-48274708D01*
X134048500Y-48175345D01*
X134048499Y-47328656D01*
X134038349Y-47229292D01*
X133985003Y-47068303D01*
X133984999Y-47068297D01*
X133984998Y-47068294D01*
X133895970Y-46923959D01*
X133895967Y-46923955D01*
X133776044Y-46804032D01*
X133776040Y-46804029D01*
X133631705Y-46715001D01*
X133631699Y-46714998D01*
X133631697Y-46714997D01*
X133597436Y-46703644D01*
X133470709Y-46661651D01*
X133371352Y-46651500D01*
X133371345Y-46651500D01*
X133239882Y-46651500D01*
X133172843Y-46631815D01*
X133127088Y-46579011D01*
X133121764Y-46563284D01*
X133121668Y-46563318D01*
X133093572Y-46483024D01*
X133059789Y-46386478D01*
X133016162Y-46317046D01*
X133001978Y-46294472D01*
X132982978Y-46227235D01*
X133003346Y-46160400D01*
X133056614Y-46115186D01*
X133106972Y-46104500D01*
X133877334Y-46104500D01*
X133944373Y-46124185D01*
X133976601Y-46154189D01*
X133978203Y-46156329D01*
X133978204Y-46156331D01*
X134064454Y-46271546D01*
X134095079Y-46294472D01*
X134179664Y-46357793D01*
X134179671Y-46357797D01*
X134314517Y-46408091D01*
X134314516Y-46408091D01*
X134321444Y-46408835D01*
X134374127Y-46414500D01*
X135873323Y-46414499D01*
X135940362Y-46434184D01*
X135961004Y-46450818D01*
X135993210Y-46483024D01*
X136026695Y-46544347D01*
X136021711Y-46614039D01*
X135979839Y-46669972D01*
X135944534Y-46688411D01*
X135864303Y-46714997D01*
X135864294Y-46715001D01*
X135719959Y-46804029D01*
X135719955Y-46804032D01*
X135600032Y-46923955D01*
X135600029Y-46923959D01*
X135511001Y-47068294D01*
X135510996Y-47068305D01*
X135457651Y-47229290D01*
X135447500Y-47328647D01*
X135447500Y-48175337D01*
X135447501Y-48175355D01*
X135457650Y-48274707D01*
X135457651Y-48274710D01*
X135510996Y-48435694D01*
X135511001Y-48435705D01*
X135600029Y-48580040D01*
X135600032Y-48580044D01*
X135719955Y-48699967D01*
X135719959Y-48699970D01*
X135864294Y-48788998D01*
X135864297Y-48788999D01*
X135864303Y-48789003D01*
X136025292Y-48842349D01*
X136124655Y-48852500D01*
X136671344Y-48852499D01*
X136671352Y-48852498D01*
X136671355Y-48852498D01*
X136725760Y-48846940D01*
X136770708Y-48842349D01*
X136931697Y-48789003D01*
X137076044Y-48699968D01*
X137195968Y-48580044D01*
X137285003Y-48435697D01*
X137285004Y-48435692D01*
X137288053Y-48429155D01*
X137289661Y-48429904D01*
X137324184Y-48380047D01*
X137388701Y-48353227D01*
X137402113Y-48352500D01*
X139600331Y-48352500D01*
X139600347Y-48352501D01*
X139607943Y-48352501D01*
X139766054Y-48352501D01*
X139766057Y-48352501D01*
X139918785Y-48311577D01*
X139949894Y-48293614D01*
X140011898Y-48277000D01*
X141436999Y-48277000D01*
X141436999Y-48253692D01*
X141436998Y-48253677D01*
X141426855Y-48154392D01*
X141373547Y-47993518D01*
X141373542Y-47993507D01*
X141284575Y-47849271D01*
X141284572Y-47849267D01*
X141275339Y-47840034D01*
X141241854Y-47778711D01*
X141246838Y-47709019D01*
X141275343Y-47664668D01*
X141284968Y-47655044D01*
X141374003Y-47510697D01*
X141427349Y-47349708D01*
X141437500Y-47250345D01*
X141437499Y-46703656D01*
X141430160Y-46631815D01*
X141427349Y-46604292D01*
X141427348Y-46604289D01*
X141416420Y-46571310D01*
X141414018Y-46501482D01*
X141449750Y-46441440D01*
X141512270Y-46410247D01*
X141520878Y-46409016D01*
X141529483Y-46408091D01*
X141664331Y-46357796D01*
X141779546Y-46271546D01*
X141865796Y-46156331D01*
X141916091Y-46021483D01*
X141922500Y-45961873D01*
X141922499Y-45046128D01*
X141916091Y-44986517D01*
X141885127Y-44903499D01*
X141865797Y-44851671D01*
X141865795Y-44851668D01*
X141810879Y-44778309D01*
X141786462Y-44712848D01*
X141801313Y-44644575D01*
X141810874Y-44629696D01*
X141865796Y-44556331D01*
X141916091Y-44421483D01*
X141922500Y-44361873D01*
X141922499Y-43446128D01*
X141916091Y-43386517D01*
X141916090Y-43386514D01*
X141901477Y-43347332D01*
X141896493Y-43277640D01*
X141929979Y-43216318D01*
X141991303Y-43182833D01*
X142017659Y-43180000D01*
X172095501Y-43180000D01*
X172162540Y-43199685D01*
G37*
%TD.AperFunction*%
%TD*%
M02*
