M48
; DRILL file {KiCad 8.0.8-8.0.8-0~ubuntu24.04.1} date 2025-02-11T11:04:48-0300
; FORMAT={-:-/ absolute / inch / decimal}
; #@! TF.CreationDate,2025-02-11T11:04:48-03:00
; #@! TF.GenerationSoftware,Kicad,Pcbnew,8.0.8-8.0.8-0~ubuntu24.04.1
; #@! TF.FileFunction,Plated,1,2,PTH
FMAT,2
INCH
; #@! TA.AperFunction,Plated,PTH,ViaDrill
T1C0.0118
; #@! TA.AperFunction,Plated,PTH,ComponentDrill
T2C0.0236
; #@! TA.AperFunction,Plated,PTH,ComponentDrill
T3C0.0374
; #@! TA.AperFunction,Plated,PTH,ComponentDrill
T4C0.0450
%
G90
G05
T1
X5.0989Y-3.0
X5.1Y-2.85
X5.1Y-3.15
X5.1Y-3.3
X5.1Y-3.45
X5.1Y-3.6
X5.2Y-2.94
X5.21Y-1.84
X5.24Y-1.73
X5.27Y-2.8
X5.27Y-3.01
X5.29Y-2.09
X5.35Y-3.18
X5.3648Y-3.0326
X5.3762Y-3.3307
X5.4091Y-3.3247
X5.4181Y-3.4181
X5.45Y-1.91
X5.45Y-2.9
X5.4783Y-2.3817
X5.53Y-3.1
X5.5555Y-3.0055
X5.56Y-3.13
X5.56Y-3.29
X5.6Y-2.98
X5.61Y-3.12
X5.65Y-2.06
X5.65Y-2.85
X5.65Y-3.21
X5.65Y-3.34
X5.66Y-2.95
X5.6714Y-2.4888
X5.7Y-2.03
X5.7Y-2.5144
X5.71Y-2.25
X5.74Y-2.99
X5.76Y-2.84
X5.76Y-3.1
X5.77Y-3.07
X5.8Y-2.58
X5.88Y-2.25
X5.89Y-2.63
X5.89Y-2.92
X5.9Y-3.2
X5.91Y-2.71
X5.975Y-3.115
X6.0Y-2.54
X6.0Y-2.84
X6.07Y-2.76
X6.1Y-3.38
X6.14Y-3.4
X6.15Y-2.96
X6.19Y-3.07
X6.43Y-2.67
X6.44Y-3.4
X6.5Y-2.84
X6.51Y-2.92
X6.52Y-3.09
X6.54Y-2.36
X6.54Y-3.05
X6.56Y-2.29
X6.58Y-2.36
X6.69Y-3.14
X6.72Y-2.29
X6.73Y-3.43
X6.75Y-2.34
X6.75Y-3.07
T3
X5.7028Y-1.9547
X5.8012Y-1.9547
X5.8996Y-1.9547
X5.998Y-1.9547
T4
X5.25Y-2.0079
X5.35Y-2.0079
X5.45Y-2.0079
X5.55Y-2.0079
T2
G00X5.923Y-3.7067
M15
G01X5.923Y-3.6791
M16
G05
G00X5.9998Y-3.5797
M15
G01X5.9998Y-3.5699
M16
G05
G00X6.175Y-3.5797
M15
G01X6.175Y-3.5699
M16
G05
G00X6.2518Y-3.7067
M15
G01X6.2518Y-3.6791
M16
G05
M30
