%TF.GenerationSoftware,KiCad,Pcbnew,8.0.8-8.0.8-0~ubuntu24.04.1*%
%TF.CreationDate,2025-02-11T11:04:45-03:00*%
%TF.ProjectId,pm100,706d3130-302e-46b6-9963-61645f706362,rev?*%
%TF.SameCoordinates,Original*%
%TF.FileFunction,Paste,Top*%
%TF.FilePolarity,Positive*%
%FSLAX46Y46*%
G04 Gerber Fmt 4.6, Leading zero omitted, Abs format (unit mm)*
G04 Created by KiCad (PCBNEW 8.0.8-8.0.8-0~ubuntu24.04.1) date 2025-02-11 11:04:45*
%MOMM*%
%LPD*%
G01*
G04 APERTURE LIST*
G04 Aperture macros list*
%AMRoundRect*
0 Rectangle with rounded corners*
0 $1 Rounding radius*
0 $2 $3 $4 $5 $6 $7 $8 $9 X,Y pos of 4 corners*
0 Add a 4 corners polygon primitive as box body*
4,1,4,$2,$3,$4,$5,$6,$7,$8,$9,$2,$3,0*
0 Add four circle primitives for the rounded corners*
1,1,$1+$1,$2,$3*
1,1,$1+$1,$4,$5*
1,1,$1+$1,$6,$7*
1,1,$1+$1,$8,$9*
0 Add four rect primitives between the rounded corners*
20,1,$1+$1,$2,$3,$4,$5,0*
20,1,$1+$1,$4,$5,$6,$7,0*
20,1,$1+$1,$6,$7,$8,$9,0*
20,1,$1+$1,$8,$9,$2,$3,0*%
%AMRotRect*
0 Rectangle, with rotation*
0 The origin of the aperture is its center*
0 $1 length*
0 $2 width*
0 $3 Rotation angle, in degrees counterclockwise*
0 Add horizontal line*
21,1,$1,$2,0,0,$3*%
G04 Aperture macros list end*
%ADD10RoundRect,0.150000X0.150000X-0.587500X0.150000X0.587500X-0.150000X0.587500X-0.150000X-0.587500X0*%
%ADD11RoundRect,0.270000X2.830000X1.080000X-2.830000X1.080000X-2.830000X-1.080000X2.830000X-1.080000X0*%
%ADD12RoundRect,0.225000X0.335876X0.017678X0.017678X0.335876X-0.335876X-0.017678X-0.017678X-0.335876X0*%
%ADD13RoundRect,0.225000X-0.335876X-0.017678X-0.017678X-0.335876X0.335876X0.017678X0.017678X0.335876X0*%
%ADD14RoundRect,0.225000X0.250000X-0.225000X0.250000X0.225000X-0.250000X0.225000X-0.250000X-0.225000X0*%
%ADD15RoundRect,0.200000X0.200000X0.275000X-0.200000X0.275000X-0.200000X-0.275000X0.200000X-0.275000X0*%
%ADD16RoundRect,0.620000X2.480000X5.380000X-2.480000X5.380000X-2.480000X-5.380000X2.480000X-5.380000X0*%
%ADD17RoundRect,0.075000X-0.521491X0.415425X0.415425X-0.521491X0.521491X-0.415425X-0.415425X0.521491X0*%
%ADD18RoundRect,0.075000X-0.521491X-0.415425X-0.415425X-0.521491X0.521491X0.415425X0.415425X0.521491X0*%
%ADD19RoundRect,0.075000X-0.650000X-0.075000X0.650000X-0.075000X0.650000X0.075000X-0.650000X0.075000X0*%
%ADD20RoundRect,0.225000X-0.250000X0.225000X-0.250000X-0.225000X0.250000X-0.225000X0.250000X0.225000X0*%
%ADD21RotRect,1.000000X1.800000X315.000000*%
%ADD22RoundRect,0.218750X-0.335876X-0.026517X-0.026517X-0.335876X0.335876X0.026517X0.026517X0.335876X0*%
%ADD23RoundRect,0.200000X-0.335876X-0.053033X-0.053033X-0.335876X0.335876X0.053033X0.053033X0.335876X0*%
%ADD24RotRect,1.000000X1.800000X135.000000*%
%ADD25RoundRect,0.225000X-0.225000X-0.250000X0.225000X-0.250000X0.225000X0.250000X-0.225000X0.250000X0*%
G04 APERTURE END LIST*
D10*
%TO.C,Q8*%
X150500000Y-58390000D03*
X152400000Y-58390000D03*
X151450000Y-56514999D03*
%TD*%
D11*
%TO.C,R1*%
X161290000Y-71918000D03*
X161290000Y-63718000D03*
%TD*%
D12*
%TO.C,C20*%
X136438008Y-72430008D03*
X135341992Y-71333992D03*
%TD*%
D13*
%TO.C,C15*%
X134071992Y-72603992D03*
X135168008Y-73700008D03*
%TD*%
D10*
%TO.C,Q7*%
X146370000Y-58390001D03*
X148270000Y-58390001D03*
X147320000Y-56515000D03*
%TD*%
D14*
%TO.C,C14*%
X142240000Y-86360000D03*
X142240000Y-84810000D03*
%TD*%
D13*
%TO.C,C17*%
X132801992Y-73873992D03*
X133898008Y-74970008D03*
%TD*%
D15*
%TO.C,R24*%
X157035000Y-68834000D03*
X155385000Y-68834000D03*
%TD*%
%TO.C,R25*%
X157035000Y-66548000D03*
X155385000Y-66548000D03*
%TD*%
D16*
%TO.C,J4*%
X168910000Y-67410000D03*
%TD*%
D17*
%TO.C,U2*%
X142765212Y-73090124D03*
X142411658Y-73443678D03*
X142058105Y-73797231D03*
X141704551Y-74150785D03*
X141350998Y-74504338D03*
X140997445Y-74857891D03*
X140643891Y-75211445D03*
X140290338Y-75564998D03*
X139936785Y-75918551D03*
X139583231Y-76272105D03*
X139229678Y-76625658D03*
X138876124Y-76979212D03*
D18*
X138876124Y-78976788D03*
X139229678Y-79330342D03*
X139583231Y-79683895D03*
X139936785Y-80037449D03*
X140290338Y-80391002D03*
X140643891Y-80744555D03*
X140997445Y-81098109D03*
X141350998Y-81451662D03*
X141704551Y-81805215D03*
X142058105Y-82158769D03*
X142411658Y-82512322D03*
X142765212Y-82865876D03*
D17*
X144762788Y-82865876D03*
X145116342Y-82512322D03*
X145469895Y-82158769D03*
X145823449Y-81805215D03*
X146177002Y-81451662D03*
X146530555Y-81098109D03*
X146884109Y-80744555D03*
X147237662Y-80391002D03*
X147591215Y-80037449D03*
X147944769Y-79683895D03*
X148298322Y-79330342D03*
X148651876Y-78976788D03*
D18*
X148651876Y-76979212D03*
X148298322Y-76625658D03*
X147944769Y-76272105D03*
X147591215Y-75918551D03*
X147237662Y-75564998D03*
X146884109Y-75211445D03*
X146530555Y-74857891D03*
X146177002Y-74504338D03*
X145823449Y-74150785D03*
X145469895Y-73797231D03*
X145116342Y-73443678D03*
X144762788Y-73090124D03*
%TD*%
D19*
%TO.C,U8*%
X147238000Y-66326000D03*
X147238000Y-66826000D03*
X147238000Y-67326000D03*
X147238000Y-67826000D03*
X147238000Y-68326000D03*
X151638000Y-68326000D03*
X151638000Y-67826000D03*
X151638000Y-67326000D03*
X151638000Y-66826000D03*
X151638000Y-66326000D03*
%TD*%
D16*
%TO.C,J1*%
X161290000Y-78586000D03*
%TD*%
D20*
%TO.C,C13*%
X145034000Y-69837000D03*
X145034000Y-71387000D03*
%TD*%
%TO.C,C12*%
X141732000Y-69850000D03*
X141732000Y-71400000D03*
%TD*%
D13*
%TO.C,C22*%
X139405992Y-64221992D03*
X140502008Y-65318008D03*
%TD*%
D15*
%TO.C,R11*%
X151955000Y-54610000D03*
X150305000Y-54610000D03*
%TD*%
D20*
%TO.C,C2*%
X153670000Y-65773000D03*
X153670000Y-67323000D03*
%TD*%
D21*
%TO.C,Y1*%
X140583883Y-68193883D03*
X138816117Y-66426117D03*
%TD*%
D13*
%TO.C,C21*%
X141691992Y-66507992D03*
X142788008Y-67604008D03*
%TD*%
D22*
%TO.C,L1*%
X137111153Y-73865153D03*
X138224847Y-74978847D03*
%TD*%
D16*
%TO.C,J2*%
X161290000Y-56896000D03*
%TD*%
D12*
%TO.C,C19*%
X139232008Y-69636008D03*
X138135992Y-68539992D03*
%TD*%
D23*
%TO.C,R27*%
X138354637Y-72568637D03*
X139521363Y-73735363D03*
%TD*%
D15*
%TO.C,R12*%
X130810000Y-69850000D03*
X129160000Y-69850000D03*
%TD*%
D24*
%TO.C,Y2*%
X136022117Y-69220117D03*
X137789883Y-70987883D03*
%TD*%
D15*
%TO.C,R9*%
X148335000Y-60325000D03*
X146685000Y-60325000D03*
%TD*%
%TO.C,R8*%
X147510000Y-54610000D03*
X145860000Y-54610000D03*
%TD*%
%TO.C,R10*%
X152590000Y-60325000D03*
X150940000Y-60325000D03*
%TD*%
D12*
%TO.C,C18*%
X151424008Y-80812008D03*
X150327992Y-79715992D03*
%TD*%
D25*
%TO.C,C1*%
X150355000Y-69850000D03*
X151905000Y-69850000D03*
%TD*%
M02*
