%TF.GenerationSoftware,KiCad,Pcbnew,8.0.9-8.0.9-0~ubuntu24.04.1*%
%TF.CreationDate,2025-03-26T17:41:08-03:00*%
%TF.ProjectId,pm100,706d3130-302e-46b6-9963-61645f706362,rev?*%
%TF.SameCoordinates,Original*%
%TF.FileFunction,Drillmap*%
%TF.FilePolarity,Positive*%
%FSLAX45Y45*%
G04 Gerber Fmt 4.5, Leading zero omitted, Abs format (unit mm)*
G04 Created by KiCad (PCBNEW 8.0.9-8.0.9-0~ubuntu24.04.1) date 2025-03-26 17:41:08*
%MOMM*%
%LPD*%
G01*
G04 APERTURE LIST*
%ADD10C,0.050000*%
%ADD11C,0.120000*%
%ADD12C,0.200000*%
%ADD13C,0.100000*%
%ADD14C,0.114300*%
G04 APERTURE END LIST*
D10*
X16383000Y-3873500D02*
G75*
G02*
X16065500Y-4191000I-317500J0D01*
G01*
X13766800Y-4191000D02*
G75*
G02*
X13563600Y-3987800I0J203200D01*
G01*
X13766800Y-4191000D02*
X16065500Y-4191000D01*
X14055818Y-9448800D02*
G75*
G02*
X14132018Y-9372599I76202J0D01*
G01*
X13360400Y-3886200D02*
G75*
G02*
X12852400Y-3886200I-254000J0D01*
G01*
X12852400Y-3886200D02*
G75*
G02*
X13360400Y-3886200I254000J0D01*
G01*
X14716218Y-9525000D02*
G75*
G02*
X14640020Y-9448800I2J76200D01*
G01*
X14563818Y-9372600D02*
G75*
G02*
X14640020Y-9448800I2J-76200D01*
G01*
X12650000Y-9829800D02*
X12649200Y-3886200D01*
X17272000Y-3873500D02*
X17272000Y-9842500D01*
X17272000Y-9842500D02*
G75*
G02*
X16383000Y-9842500I-444500J0D01*
G01*
X16383000Y-3873500D02*
G75*
G02*
X17272000Y-3873500I444500J0D01*
G01*
X13563600Y-9728200D02*
X13563600Y-9829800D01*
X16065500Y-9525000D02*
G75*
G02*
X16383000Y-9842500I0J-317500D01*
G01*
X14716218Y-9525000D02*
X16065500Y-9525000D01*
X13563600Y-9829800D02*
G75*
G02*
X12649200Y-9829800I-457200J0D01*
G01*
X17081500Y-3873500D02*
G75*
G02*
X16573500Y-3873500I-254000J0D01*
G01*
X16573500Y-3873500D02*
G75*
G02*
X17081500Y-3873500I254000J0D01*
G01*
X13979618Y-9525000D02*
X13766800Y-9525000D01*
X13563600Y-9728200D02*
G75*
G02*
X13766800Y-9525000I203200J0D01*
G01*
X17081500Y-9842500D02*
G75*
G02*
X16573500Y-9842500I-254000J0D01*
G01*
X16573500Y-9842500D02*
G75*
G02*
X17081500Y-9842500I254000J0D01*
G01*
X13563600Y-3886200D02*
X13563600Y-3987800D01*
X13360400Y-9829800D02*
G75*
G02*
X12852400Y-9829800I-254000J0D01*
G01*
X12852400Y-9829800D02*
G75*
G02*
X13360400Y-9829800I254000J0D01*
G01*
X14563818Y-9372600D02*
X14132018Y-9372600D01*
X12649200Y-3886200D02*
G75*
G02*
X13563600Y-3886200I457200J0D01*
G01*
X14055818Y-9448800D02*
G75*
G02*
X13979618Y-9524999I-76199J0D01*
G01*
D11*
X13952200Y-4610400D02*
X13632200Y-4610400D01*
X13632200Y-4330400D01*
X13952200Y-4330400D01*
X13952200Y-4610400D01*
D12*
D13*
X12735800Y-6792200D02*
X12765800Y-6822200D01*
X12765800Y-6792200D02*
X12735800Y-6822200D01*
X12936100Y-7605000D02*
X12966100Y-7635000D01*
X12966100Y-7605000D02*
X12936100Y-7635000D01*
X12939000Y-7224000D02*
X12969000Y-7254000D01*
X12969000Y-7224000D02*
X12939000Y-7254000D01*
X12939000Y-7986000D02*
X12969000Y-8016000D01*
X12969000Y-7986000D02*
X12939000Y-8016000D01*
X12939000Y-8367000D02*
X12969000Y-8397000D01*
X12969000Y-8367000D02*
X12939000Y-8397000D01*
X12939000Y-8748000D02*
X12969000Y-8778000D01*
X12969000Y-8748000D02*
X12939000Y-8778000D01*
X12939000Y-9129000D02*
X12969000Y-9159000D01*
X12969000Y-9129000D02*
X12939000Y-9159000D01*
X13166247Y-7469667D02*
X13196247Y-7499667D01*
X13196247Y-7469667D02*
X13166247Y-7499667D01*
X13180300Y-5471400D02*
X13210300Y-5501400D01*
X13210300Y-5471400D02*
X13180300Y-5501400D01*
X13218400Y-4658600D02*
X13248400Y-4688600D01*
X13248400Y-4658600D02*
X13218400Y-4688600D01*
X13294600Y-4379200D02*
X13324600Y-4409200D01*
X13324600Y-4379200D02*
X13294600Y-4409200D01*
X13370800Y-7097000D02*
X13400800Y-7127000D01*
X13400800Y-7097000D02*
X13370800Y-7127000D01*
X13370800Y-7630400D02*
X13400800Y-7660400D01*
X13400800Y-7630400D02*
X13370800Y-7660400D01*
X13439462Y-5311462D02*
X13469462Y-5341462D01*
X13469462Y-5311462D02*
X13439462Y-5341462D01*
X13574000Y-8062200D02*
X13604000Y-8092200D01*
X13604000Y-8062200D02*
X13574000Y-8092200D01*
X13611629Y-7687883D02*
X13641629Y-7717883D01*
X13641629Y-7687883D02*
X13611629Y-7717883D01*
X13655922Y-8420498D02*
X13685922Y-8450498D01*
X13685922Y-8420498D02*
X13655922Y-8450498D01*
X13662900Y-8519400D02*
X13692900Y-8549400D01*
X13692900Y-8519400D02*
X13662900Y-8549400D01*
X13740153Y-8431907D02*
X13770153Y-8461907D01*
X13770153Y-8431907D02*
X13740153Y-8461907D01*
X13751240Y-8671450D02*
X13781240Y-8701450D01*
X13781240Y-8671450D02*
X13751240Y-8701450D01*
X13828000Y-4836400D02*
X13858000Y-4866400D01*
X13858000Y-4836400D02*
X13828000Y-4866400D01*
X13828000Y-7351000D02*
X13858000Y-7381000D01*
X13858000Y-7351000D02*
X13828000Y-7381000D01*
X13899929Y-6034470D02*
X13929929Y-6064470D01*
X13929929Y-6034470D02*
X13899929Y-6064470D01*
X14031200Y-7859000D02*
X14061200Y-7889000D01*
X14061200Y-7859000D02*
X14031200Y-7889000D01*
X14096002Y-7619002D02*
X14126002Y-7649002D01*
X14126002Y-7619002D02*
X14096002Y-7649002D01*
X14107400Y-7935200D02*
X14137400Y-7965200D01*
X14137400Y-7935200D02*
X14107400Y-7965200D01*
X14107400Y-8341600D02*
X14137400Y-8371600D01*
X14137400Y-8341600D02*
X14107400Y-8371600D01*
X14209000Y-7554200D02*
X14239000Y-7584200D01*
X14239000Y-7554200D02*
X14209000Y-7584200D01*
X14234400Y-7909800D02*
X14264400Y-7939800D01*
X14264400Y-7909800D02*
X14234400Y-7939800D01*
X14310600Y-6589000D02*
X14340600Y-6619000D01*
X14340600Y-6589000D02*
X14310600Y-6619000D01*
X14336000Y-5217400D02*
X14366000Y-5247400D01*
X14366000Y-5217400D02*
X14336000Y-5247400D01*
X14336000Y-7224000D02*
X14366000Y-7254000D01*
X14366000Y-7224000D02*
X14336000Y-7254000D01*
X14336000Y-8138400D02*
X14366000Y-8168400D01*
X14366000Y-8138400D02*
X14336000Y-8168400D01*
X14336000Y-8468600D02*
X14366000Y-8498600D01*
X14366000Y-8468600D02*
X14336000Y-8498600D01*
X14361400Y-7478000D02*
X14391400Y-7508000D01*
X14391400Y-7478000D02*
X14361400Y-7508000D01*
X14390469Y-6306600D02*
X14420469Y-6336600D01*
X14420469Y-6306600D02*
X14390469Y-6336600D01*
X14463000Y-5141200D02*
X14493000Y-5171200D01*
X14493000Y-5141200D02*
X14463000Y-5171200D01*
X14463000Y-6371600D02*
X14493000Y-6401600D01*
X14493000Y-6371600D02*
X14463000Y-6401600D01*
X14488400Y-5700000D02*
X14518400Y-5730000D01*
X14518400Y-5700000D02*
X14488400Y-5730000D01*
X14564600Y-7579600D02*
X14594600Y-7609600D01*
X14594600Y-7579600D02*
X14564600Y-7609600D01*
X14615400Y-7198600D02*
X14645400Y-7228600D01*
X14645400Y-7198600D02*
X14615400Y-7228600D01*
X14615400Y-7859000D02*
X14645400Y-7889000D01*
X14645400Y-7859000D02*
X14615400Y-7889000D01*
X14640800Y-7782800D02*
X14670800Y-7812800D01*
X14670800Y-7782800D02*
X14640800Y-7812800D01*
X14717000Y-6538200D02*
X14747000Y-6568200D01*
X14747000Y-6538200D02*
X14717000Y-6568200D01*
X14920200Y-5700000D02*
X14950200Y-5730000D01*
X14950200Y-5700000D02*
X14920200Y-5730000D01*
X14945600Y-6665200D02*
X14975600Y-6695200D01*
X14975600Y-6665200D02*
X14945600Y-6695200D01*
X14945600Y-7401800D02*
X14975600Y-7431800D01*
X14975600Y-7401800D02*
X14945600Y-7431800D01*
X14971000Y-8113000D02*
X15001000Y-8143000D01*
X15001000Y-8113000D02*
X14971000Y-8143000D01*
X14996400Y-6868400D02*
X15026400Y-6898400D01*
X15026400Y-6868400D02*
X14996400Y-6898400D01*
X15161500Y-7897100D02*
X15191500Y-7927100D01*
X15191500Y-7897100D02*
X15161500Y-7927100D01*
X15225000Y-6436600D02*
X15255000Y-6466600D01*
X15255000Y-6436600D02*
X15225000Y-6466600D01*
X15225000Y-7198600D02*
X15255000Y-7228600D01*
X15255000Y-7198600D02*
X15225000Y-7228600D01*
X15402800Y-6995400D02*
X15432800Y-7025400D01*
X15432800Y-6995400D02*
X15402800Y-7025400D01*
X15479000Y-8570200D02*
X15509000Y-8600200D01*
X15509000Y-8570200D02*
X15479000Y-8600200D01*
X15503100Y-8230600D02*
X15533100Y-8260600D01*
X15533100Y-8230600D02*
X15503100Y-8260600D01*
X15580600Y-8621000D02*
X15610600Y-8651000D01*
X15610600Y-8621000D02*
X15580600Y-8651000D01*
X15606000Y-7503400D02*
X15636000Y-7533400D01*
X15636000Y-7503400D02*
X15606000Y-7533400D01*
X15707600Y-7782800D02*
X15737600Y-7812800D01*
X15737600Y-7782800D02*
X15707600Y-7812800D01*
X16317200Y-6766800D02*
X16347200Y-6796800D01*
X16347200Y-6766800D02*
X16317200Y-6796800D01*
X16342600Y-8621000D02*
X16372600Y-8651000D01*
X16372600Y-8621000D02*
X16342600Y-8651000D01*
X16495000Y-7198600D02*
X16525000Y-7228600D01*
X16525000Y-7198600D02*
X16495000Y-7228600D01*
X16520400Y-7401800D02*
X16550400Y-7431800D01*
X16550400Y-7401800D02*
X16520400Y-7431800D01*
X16545800Y-7833600D02*
X16575800Y-7863600D01*
X16575800Y-7833600D02*
X16545800Y-7863600D01*
X16596600Y-5979400D02*
X16626600Y-6009400D01*
X16626600Y-5979400D02*
X16596600Y-6009400D01*
X16596600Y-7732000D02*
X16626600Y-7762000D01*
X16626600Y-7732000D02*
X16596600Y-7762000D01*
X16647400Y-5801600D02*
X16677400Y-5831600D01*
X16677400Y-5801600D02*
X16647400Y-5831600D01*
X16698200Y-5979400D02*
X16728200Y-6009400D01*
X16728200Y-5979400D02*
X16698200Y-6009400D01*
X16977600Y-7960600D02*
X17007600Y-7990600D01*
X17007600Y-7960600D02*
X16977600Y-7990600D01*
X17053800Y-5801600D02*
X17083800Y-5831600D01*
X17083800Y-5801600D02*
X17053800Y-5831600D01*
X17079200Y-8697200D02*
X17109200Y-8727200D01*
X17109200Y-8697200D02*
X17079200Y-8727200D01*
X17130000Y-5928600D02*
X17160000Y-5958600D01*
X17160000Y-5928600D02*
X17130000Y-5958600D01*
X17130000Y-7782800D02*
X17160000Y-7812800D01*
X17160000Y-7782800D02*
X17130000Y-7812800D01*
X15074500Y-9380000D02*
G75*
G02*
X15014500Y-9380000I-30000J0D01*
G01*
X15014500Y-9380000D02*
G75*
G02*
X15074500Y-9380000I30000J0D01*
G01*
X15074500Y-9415000D02*
X15074500Y-9345000D01*
X15014500Y-9345000D02*
G75*
G02*
X15074500Y-9345000I30000J0D01*
G01*
X15014500Y-9345000D02*
X15014500Y-9415000D01*
X15014500Y-9415000D02*
G75*
G03*
X15074500Y-9415000I30000J0D01*
G01*
X15269500Y-9080000D02*
G75*
G02*
X15209500Y-9080000I-30000J0D01*
G01*
X15209500Y-9080000D02*
G75*
G02*
X15269500Y-9080000I30000J0D01*
G01*
X15269500Y-9092500D02*
X15269500Y-9067500D01*
X15209500Y-9067500D02*
G75*
G02*
X15269500Y-9067500I30000J0D01*
G01*
X15209500Y-9067500D02*
X15209500Y-9092500D01*
X15209500Y-9092500D02*
G75*
G03*
X15269500Y-9092500I30000J0D01*
G01*
X15714500Y-9080000D02*
G75*
G02*
X15654500Y-9080000I-30000J0D01*
G01*
X15654500Y-9080000D02*
G75*
G02*
X15714500Y-9080000I30000J0D01*
G01*
X15714500Y-9092500D02*
X15714500Y-9067500D01*
X15654500Y-9067500D02*
G75*
G02*
X15714500Y-9067500I30000J0D01*
G01*
X15654500Y-9067500D02*
X15654500Y-9092500D01*
X15654500Y-9092500D02*
G75*
G03*
X15714500Y-9092500I30000J0D01*
G01*
X15909500Y-9380000D02*
G75*
G02*
X15849500Y-9380000I-30000J0D01*
G01*
X15849500Y-9380000D02*
G75*
G02*
X15909500Y-9380000I30000J0D01*
G01*
X15909500Y-9415000D02*
X15909500Y-9345000D01*
X15849500Y-9345000D02*
G75*
G02*
X15909500Y-9345000I30000J0D01*
G01*
X15849500Y-9345000D02*
X15849500Y-9415000D01*
X15849500Y-9415000D02*
G75*
G03*
X15909500Y-9415000I30000J0D01*
G01*
X14485000Y-4917500D02*
X14485000Y-5012500D01*
X14437500Y-4965000D02*
X14532500Y-4965000D01*
X14735000Y-4917500D02*
X14735000Y-5012500D01*
X14687500Y-4965000D02*
X14782500Y-4965000D01*
X14985000Y-4917500D02*
X14985000Y-5012500D01*
X14937500Y-4965000D02*
X15032500Y-4965000D01*
X15235000Y-4917500D02*
X15235000Y-5012500D01*
X15187500Y-4965000D02*
X15282500Y-4965000D01*
D14*
X13375411Y-5140412D02*
X13375411Y-5059589D01*
X13294588Y-5059589D01*
X13294588Y-5140412D01*
X13375411Y-5140412D01*
X13629411Y-5140412D02*
X13629411Y-5059589D01*
X13548588Y-5059589D01*
X13548588Y-5140412D01*
X13629411Y-5140412D01*
X13883411Y-5140412D02*
X13883411Y-5059589D01*
X13802588Y-5059589D01*
X13802588Y-5140412D01*
X13883411Y-5140412D01*
X14137411Y-5140412D02*
X14137411Y-5059589D01*
X14056588Y-5059589D01*
X14056588Y-5140412D01*
X14137411Y-5140412D01*
D12*
X12907477Y-10600984D02*
X12907477Y-10400984D01*
X12907477Y-10400984D02*
X12955096Y-10400984D01*
X12955096Y-10400984D02*
X12983667Y-10410508D01*
X12983667Y-10410508D02*
X13002715Y-10429555D01*
X13002715Y-10429555D02*
X13012239Y-10448603D01*
X13012239Y-10448603D02*
X13021762Y-10486698D01*
X13021762Y-10486698D02*
X13021762Y-10515270D01*
X13021762Y-10515270D02*
X13012239Y-10553365D01*
X13012239Y-10553365D02*
X13002715Y-10572412D01*
X13002715Y-10572412D02*
X12983667Y-10591460D01*
X12983667Y-10591460D02*
X12955096Y-10600984D01*
X12955096Y-10600984D02*
X12907477Y-10600984D01*
X13107477Y-10600984D02*
X13107477Y-10467651D01*
X13107477Y-10505746D02*
X13117001Y-10486698D01*
X13117001Y-10486698D02*
X13126524Y-10477174D01*
X13126524Y-10477174D02*
X13145572Y-10467651D01*
X13145572Y-10467651D02*
X13164620Y-10467651D01*
X13231286Y-10600984D02*
X13231286Y-10467651D01*
X13231286Y-10400984D02*
X13221762Y-10410508D01*
X13221762Y-10410508D02*
X13231286Y-10420032D01*
X13231286Y-10420032D02*
X13240810Y-10410508D01*
X13240810Y-10410508D02*
X13231286Y-10400984D01*
X13231286Y-10400984D02*
X13231286Y-10420032D01*
X13355096Y-10600984D02*
X13336048Y-10591460D01*
X13336048Y-10591460D02*
X13326524Y-10572412D01*
X13326524Y-10572412D02*
X13326524Y-10400984D01*
X13459858Y-10600984D02*
X13440810Y-10591460D01*
X13440810Y-10591460D02*
X13431286Y-10572412D01*
X13431286Y-10572412D02*
X13431286Y-10400984D01*
X13688429Y-10600984D02*
X13688429Y-10400984D01*
X13688429Y-10400984D02*
X13755096Y-10543841D01*
X13755096Y-10543841D02*
X13821762Y-10400984D01*
X13821762Y-10400984D02*
X13821762Y-10600984D01*
X14002715Y-10600984D02*
X14002715Y-10496222D01*
X14002715Y-10496222D02*
X13993191Y-10477174D01*
X13993191Y-10477174D02*
X13974143Y-10467651D01*
X13974143Y-10467651D02*
X13936048Y-10467651D01*
X13936048Y-10467651D02*
X13917001Y-10477174D01*
X14002715Y-10591460D02*
X13983667Y-10600984D01*
X13983667Y-10600984D02*
X13936048Y-10600984D01*
X13936048Y-10600984D02*
X13917001Y-10591460D01*
X13917001Y-10591460D02*
X13907477Y-10572412D01*
X13907477Y-10572412D02*
X13907477Y-10553365D01*
X13907477Y-10553365D02*
X13917001Y-10534317D01*
X13917001Y-10534317D02*
X13936048Y-10524793D01*
X13936048Y-10524793D02*
X13983667Y-10524793D01*
X13983667Y-10524793D02*
X14002715Y-10515270D01*
X14097953Y-10467651D02*
X14097953Y-10667651D01*
X14097953Y-10477174D02*
X14117001Y-10467651D01*
X14117001Y-10467651D02*
X14155096Y-10467651D01*
X14155096Y-10467651D02*
X14174143Y-10477174D01*
X14174143Y-10477174D02*
X14183667Y-10486698D01*
X14183667Y-10486698D02*
X14193191Y-10505746D01*
X14193191Y-10505746D02*
X14193191Y-10562889D01*
X14193191Y-10562889D02*
X14183667Y-10581936D01*
X14183667Y-10581936D02*
X14174143Y-10591460D01*
X14174143Y-10591460D02*
X14155096Y-10600984D01*
X14155096Y-10600984D02*
X14117001Y-10600984D01*
X14117001Y-10600984D02*
X14097953Y-10591460D01*
X14278905Y-10581936D02*
X14288429Y-10591460D01*
X14288429Y-10591460D02*
X14278905Y-10600984D01*
X14278905Y-10600984D02*
X14269382Y-10591460D01*
X14269382Y-10591460D02*
X14278905Y-10581936D01*
X14278905Y-10581936D02*
X14278905Y-10600984D01*
X14278905Y-10477174D02*
X14288429Y-10486698D01*
X14288429Y-10486698D02*
X14278905Y-10496222D01*
X14278905Y-10496222D02*
X14269382Y-10486698D01*
X14269382Y-10486698D02*
X14278905Y-10477174D01*
X14278905Y-10477174D02*
X14278905Y-10496222D01*
D13*
X12616700Y-10914500D02*
X12646700Y-10944500D01*
X12646700Y-10914500D02*
X12616700Y-10944500D01*
D12*
X12945572Y-10820984D02*
X12964620Y-10820984D01*
X12964620Y-10820984D02*
X12983667Y-10830508D01*
X12983667Y-10830508D02*
X12993191Y-10840032D01*
X12993191Y-10840032D02*
X13002715Y-10859079D01*
X13002715Y-10859079D02*
X13012239Y-10897174D01*
X13012239Y-10897174D02*
X13012239Y-10944793D01*
X13012239Y-10944793D02*
X13002715Y-10982889D01*
X13002715Y-10982889D02*
X12993191Y-11001936D01*
X12993191Y-11001936D02*
X12983667Y-11011460D01*
X12983667Y-11011460D02*
X12964620Y-11020984D01*
X12964620Y-11020984D02*
X12945572Y-11020984D01*
X12945572Y-11020984D02*
X12926524Y-11011460D01*
X12926524Y-11011460D02*
X12917001Y-11001936D01*
X12917001Y-11001936D02*
X12907477Y-10982889D01*
X12907477Y-10982889D02*
X12897953Y-10944793D01*
X12897953Y-10944793D02*
X12897953Y-10897174D01*
X12897953Y-10897174D02*
X12907477Y-10859079D01*
X12907477Y-10859079D02*
X12917001Y-10840032D01*
X12917001Y-10840032D02*
X12926524Y-10830508D01*
X12926524Y-10830508D02*
X12945572Y-10820984D01*
X13097953Y-11001936D02*
X13107477Y-11011460D01*
X13107477Y-11011460D02*
X13097953Y-11020984D01*
X13097953Y-11020984D02*
X13088429Y-11011460D01*
X13088429Y-11011460D02*
X13097953Y-11001936D01*
X13097953Y-11001936D02*
X13097953Y-11020984D01*
X13174143Y-10820984D02*
X13297953Y-10820984D01*
X13297953Y-10820984D02*
X13231286Y-10897174D01*
X13231286Y-10897174D02*
X13259858Y-10897174D01*
X13259858Y-10897174D02*
X13278905Y-10906698D01*
X13278905Y-10906698D02*
X13288429Y-10916222D01*
X13288429Y-10916222D02*
X13297953Y-10935270D01*
X13297953Y-10935270D02*
X13297953Y-10982889D01*
X13297953Y-10982889D02*
X13288429Y-11001936D01*
X13288429Y-11001936D02*
X13278905Y-11011460D01*
X13278905Y-11011460D02*
X13259858Y-11020984D01*
X13259858Y-11020984D02*
X13202715Y-11020984D01*
X13202715Y-11020984D02*
X13183667Y-11011460D01*
X13183667Y-11011460D02*
X13174143Y-11001936D01*
X13421762Y-10820984D02*
X13440810Y-10820984D01*
X13440810Y-10820984D02*
X13459858Y-10830508D01*
X13459858Y-10830508D02*
X13469382Y-10840032D01*
X13469382Y-10840032D02*
X13478905Y-10859079D01*
X13478905Y-10859079D02*
X13488429Y-10897174D01*
X13488429Y-10897174D02*
X13488429Y-10944793D01*
X13488429Y-10944793D02*
X13478905Y-10982889D01*
X13478905Y-10982889D02*
X13469382Y-11001936D01*
X13469382Y-11001936D02*
X13459858Y-11011460D01*
X13459858Y-11011460D02*
X13440810Y-11020984D01*
X13440810Y-11020984D02*
X13421762Y-11020984D01*
X13421762Y-11020984D02*
X13402715Y-11011460D01*
X13402715Y-11011460D02*
X13393191Y-11001936D01*
X13393191Y-11001936D02*
X13383667Y-10982889D01*
X13383667Y-10982889D02*
X13374143Y-10944793D01*
X13374143Y-10944793D02*
X13374143Y-10897174D01*
X13374143Y-10897174D02*
X13383667Y-10859079D01*
X13383667Y-10859079D02*
X13393191Y-10840032D01*
X13393191Y-10840032D02*
X13402715Y-10830508D01*
X13402715Y-10830508D02*
X13421762Y-10820984D01*
X13612239Y-10820984D02*
X13631286Y-10820984D01*
X13631286Y-10820984D02*
X13650334Y-10830508D01*
X13650334Y-10830508D02*
X13659858Y-10840032D01*
X13659858Y-10840032D02*
X13669382Y-10859079D01*
X13669382Y-10859079D02*
X13678905Y-10897174D01*
X13678905Y-10897174D02*
X13678905Y-10944793D01*
X13678905Y-10944793D02*
X13669382Y-10982889D01*
X13669382Y-10982889D02*
X13659858Y-11001936D01*
X13659858Y-11001936D02*
X13650334Y-11011460D01*
X13650334Y-11011460D02*
X13631286Y-11020984D01*
X13631286Y-11020984D02*
X13612239Y-11020984D01*
X13612239Y-11020984D02*
X13593191Y-11011460D01*
X13593191Y-11011460D02*
X13583667Y-11001936D01*
X13583667Y-11001936D02*
X13574143Y-10982889D01*
X13574143Y-10982889D02*
X13564620Y-10944793D01*
X13564620Y-10944793D02*
X13564620Y-10897174D01*
X13564620Y-10897174D02*
X13574143Y-10859079D01*
X13574143Y-10859079D02*
X13583667Y-10840032D01*
X13583667Y-10840032D02*
X13593191Y-10830508D01*
X13593191Y-10830508D02*
X13612239Y-10820984D01*
X13764620Y-11020984D02*
X13764620Y-10887651D01*
X13764620Y-10906698D02*
X13774143Y-10897174D01*
X13774143Y-10897174D02*
X13793191Y-10887651D01*
X13793191Y-10887651D02*
X13821763Y-10887651D01*
X13821763Y-10887651D02*
X13840810Y-10897174D01*
X13840810Y-10897174D02*
X13850334Y-10916222D01*
X13850334Y-10916222D02*
X13850334Y-11020984D01*
X13850334Y-10916222D02*
X13859858Y-10897174D01*
X13859858Y-10897174D02*
X13878905Y-10887651D01*
X13878905Y-10887651D02*
X13907477Y-10887651D01*
X13907477Y-10887651D02*
X13926524Y-10897174D01*
X13926524Y-10897174D02*
X13936048Y-10916222D01*
X13936048Y-10916222D02*
X13936048Y-11020984D01*
X14031286Y-11020984D02*
X14031286Y-10887651D01*
X14031286Y-10906698D02*
X14040810Y-10897174D01*
X14040810Y-10897174D02*
X14059858Y-10887651D01*
X14059858Y-10887651D02*
X14088429Y-10887651D01*
X14088429Y-10887651D02*
X14107477Y-10897174D01*
X14107477Y-10897174D02*
X14117001Y-10916222D01*
X14117001Y-10916222D02*
X14117001Y-11020984D01*
X14117001Y-10916222D02*
X14126524Y-10897174D01*
X14126524Y-10897174D02*
X14145572Y-10887651D01*
X14145572Y-10887651D02*
X14174143Y-10887651D01*
X14174143Y-10887651D02*
X14193191Y-10897174D01*
X14193191Y-10897174D02*
X14202715Y-10916222D01*
X14202715Y-10916222D02*
X14202715Y-11020984D01*
X14593191Y-10811460D02*
X14421763Y-11068603D01*
X14850334Y-10820984D02*
X14869382Y-10820984D01*
X14869382Y-10820984D02*
X14888429Y-10830508D01*
X14888429Y-10830508D02*
X14897953Y-10840032D01*
X14897953Y-10840032D02*
X14907477Y-10859079D01*
X14907477Y-10859079D02*
X14917001Y-10897174D01*
X14917001Y-10897174D02*
X14917001Y-10944793D01*
X14917001Y-10944793D02*
X14907477Y-10982889D01*
X14907477Y-10982889D02*
X14897953Y-11001936D01*
X14897953Y-11001936D02*
X14888429Y-11011460D01*
X14888429Y-11011460D02*
X14869382Y-11020984D01*
X14869382Y-11020984D02*
X14850334Y-11020984D01*
X14850334Y-11020984D02*
X14831286Y-11011460D01*
X14831286Y-11011460D02*
X14821763Y-11001936D01*
X14821763Y-11001936D02*
X14812239Y-10982889D01*
X14812239Y-10982889D02*
X14802715Y-10944793D01*
X14802715Y-10944793D02*
X14802715Y-10897174D01*
X14802715Y-10897174D02*
X14812239Y-10859079D01*
X14812239Y-10859079D02*
X14821763Y-10840032D01*
X14821763Y-10840032D02*
X14831286Y-10830508D01*
X14831286Y-10830508D02*
X14850334Y-10820984D01*
X15002715Y-11001936D02*
X15012239Y-11011460D01*
X15012239Y-11011460D02*
X15002715Y-11020984D01*
X15002715Y-11020984D02*
X14993191Y-11011460D01*
X14993191Y-11011460D02*
X15002715Y-11001936D01*
X15002715Y-11001936D02*
X15002715Y-11020984D01*
X15136048Y-10820984D02*
X15155096Y-10820984D01*
X15155096Y-10820984D02*
X15174144Y-10830508D01*
X15174144Y-10830508D02*
X15183667Y-10840032D01*
X15183667Y-10840032D02*
X15193191Y-10859079D01*
X15193191Y-10859079D02*
X15202715Y-10897174D01*
X15202715Y-10897174D02*
X15202715Y-10944793D01*
X15202715Y-10944793D02*
X15193191Y-10982889D01*
X15193191Y-10982889D02*
X15183667Y-11001936D01*
X15183667Y-11001936D02*
X15174144Y-11011460D01*
X15174144Y-11011460D02*
X15155096Y-11020984D01*
X15155096Y-11020984D02*
X15136048Y-11020984D01*
X15136048Y-11020984D02*
X15117001Y-11011460D01*
X15117001Y-11011460D02*
X15107477Y-11001936D01*
X15107477Y-11001936D02*
X15097953Y-10982889D01*
X15097953Y-10982889D02*
X15088429Y-10944793D01*
X15088429Y-10944793D02*
X15088429Y-10897174D01*
X15088429Y-10897174D02*
X15097953Y-10859079D01*
X15097953Y-10859079D02*
X15107477Y-10840032D01*
X15107477Y-10840032D02*
X15117001Y-10830508D01*
X15117001Y-10830508D02*
X15136048Y-10820984D01*
X15393191Y-11020984D02*
X15278906Y-11020984D01*
X15336048Y-11020984D02*
X15336048Y-10820984D01*
X15336048Y-10820984D02*
X15317001Y-10849555D01*
X15317001Y-10849555D02*
X15297953Y-10868603D01*
X15297953Y-10868603D02*
X15278906Y-10878127D01*
X15583667Y-11020984D02*
X15469382Y-11020984D01*
X15526525Y-11020984D02*
X15526525Y-10820984D01*
X15526525Y-10820984D02*
X15507477Y-10849555D01*
X15507477Y-10849555D02*
X15488429Y-10868603D01*
X15488429Y-10868603D02*
X15469382Y-10878127D01*
X15697953Y-10906698D02*
X15678906Y-10897174D01*
X15678906Y-10897174D02*
X15669382Y-10887651D01*
X15669382Y-10887651D02*
X15659858Y-10868603D01*
X15659858Y-10868603D02*
X15659858Y-10859079D01*
X15659858Y-10859079D02*
X15669382Y-10840032D01*
X15669382Y-10840032D02*
X15678906Y-10830508D01*
X15678906Y-10830508D02*
X15697953Y-10820984D01*
X15697953Y-10820984D02*
X15736048Y-10820984D01*
X15736048Y-10820984D02*
X15755096Y-10830508D01*
X15755096Y-10830508D02*
X15764620Y-10840032D01*
X15764620Y-10840032D02*
X15774144Y-10859079D01*
X15774144Y-10859079D02*
X15774144Y-10868603D01*
X15774144Y-10868603D02*
X15764620Y-10887651D01*
X15764620Y-10887651D02*
X15755096Y-10897174D01*
X15755096Y-10897174D02*
X15736048Y-10906698D01*
X15736048Y-10906698D02*
X15697953Y-10906698D01*
X15697953Y-10906698D02*
X15678906Y-10916222D01*
X15678906Y-10916222D02*
X15669382Y-10925746D01*
X15669382Y-10925746D02*
X15659858Y-10944793D01*
X15659858Y-10944793D02*
X15659858Y-10982889D01*
X15659858Y-10982889D02*
X15669382Y-11001936D01*
X15669382Y-11001936D02*
X15678906Y-11011460D01*
X15678906Y-11011460D02*
X15697953Y-11020984D01*
X15697953Y-11020984D02*
X15736048Y-11020984D01*
X15736048Y-11020984D02*
X15755096Y-11011460D01*
X15755096Y-11011460D02*
X15764620Y-11001936D01*
X15764620Y-11001936D02*
X15774144Y-10982889D01*
X15774144Y-10982889D02*
X15774144Y-10944793D01*
X15774144Y-10944793D02*
X15764620Y-10925746D01*
X15764620Y-10925746D02*
X15755096Y-10916222D01*
X15755096Y-10916222D02*
X15736048Y-10906698D01*
X15850334Y-10820984D02*
X15850334Y-10859079D01*
X15926525Y-10820984D02*
X15926525Y-10859079D01*
X16221763Y-11097174D02*
X16212239Y-11087651D01*
X16212239Y-11087651D02*
X16193191Y-11059079D01*
X16193191Y-11059079D02*
X16183668Y-11040032D01*
X16183668Y-11040032D02*
X16174144Y-11011460D01*
X16174144Y-11011460D02*
X16164620Y-10963841D01*
X16164620Y-10963841D02*
X16164620Y-10925746D01*
X16164620Y-10925746D02*
X16174144Y-10878127D01*
X16174144Y-10878127D02*
X16183668Y-10849555D01*
X16183668Y-10849555D02*
X16193191Y-10830508D01*
X16193191Y-10830508D02*
X16212239Y-10801936D01*
X16212239Y-10801936D02*
X16221763Y-10792412D01*
X16278906Y-10820984D02*
X16412239Y-10820984D01*
X16412239Y-10820984D02*
X16326525Y-11020984D01*
X16478906Y-10840032D02*
X16488429Y-10830508D01*
X16488429Y-10830508D02*
X16507477Y-10820984D01*
X16507477Y-10820984D02*
X16555096Y-10820984D01*
X16555096Y-10820984D02*
X16574144Y-10830508D01*
X16574144Y-10830508D02*
X16583668Y-10840032D01*
X16583668Y-10840032D02*
X16593191Y-10859079D01*
X16593191Y-10859079D02*
X16593191Y-10878127D01*
X16593191Y-10878127D02*
X16583668Y-10906698D01*
X16583668Y-10906698D02*
X16469382Y-11020984D01*
X16469382Y-11020984D02*
X16593191Y-11020984D01*
X16831287Y-11020984D02*
X16831287Y-10820984D01*
X16917001Y-11020984D02*
X16917001Y-10916222D01*
X16917001Y-10916222D02*
X16907477Y-10897174D01*
X16907477Y-10897174D02*
X16888430Y-10887651D01*
X16888430Y-10887651D02*
X16859858Y-10887651D01*
X16859858Y-10887651D02*
X16840811Y-10897174D01*
X16840811Y-10897174D02*
X16831287Y-10906698D01*
X17040811Y-11020984D02*
X17021763Y-11011460D01*
X17021763Y-11011460D02*
X17012239Y-11001936D01*
X17012239Y-11001936D02*
X17002715Y-10982889D01*
X17002715Y-10982889D02*
X17002715Y-10925746D01*
X17002715Y-10925746D02*
X17012239Y-10906698D01*
X17012239Y-10906698D02*
X17021763Y-10897174D01*
X17021763Y-10897174D02*
X17040811Y-10887651D01*
X17040811Y-10887651D02*
X17069382Y-10887651D01*
X17069382Y-10887651D02*
X17088430Y-10897174D01*
X17088430Y-10897174D02*
X17097953Y-10906698D01*
X17097953Y-10906698D02*
X17107477Y-10925746D01*
X17107477Y-10925746D02*
X17107477Y-10982889D01*
X17107477Y-10982889D02*
X17097953Y-11001936D01*
X17097953Y-11001936D02*
X17088430Y-11011460D01*
X17088430Y-11011460D02*
X17069382Y-11020984D01*
X17069382Y-11020984D02*
X17040811Y-11020984D01*
X17221763Y-11020984D02*
X17202715Y-11011460D01*
X17202715Y-11011460D02*
X17193192Y-10992412D01*
X17193192Y-10992412D02*
X17193192Y-10820984D01*
X17374144Y-11011460D02*
X17355096Y-11020984D01*
X17355096Y-11020984D02*
X17317001Y-11020984D01*
X17317001Y-11020984D02*
X17297953Y-11011460D01*
X17297953Y-11011460D02*
X17288430Y-10992412D01*
X17288430Y-10992412D02*
X17288430Y-10916222D01*
X17288430Y-10916222D02*
X17297953Y-10897174D01*
X17297953Y-10897174D02*
X17317001Y-10887651D01*
X17317001Y-10887651D02*
X17355096Y-10887651D01*
X17355096Y-10887651D02*
X17374144Y-10897174D01*
X17374144Y-10897174D02*
X17383668Y-10916222D01*
X17383668Y-10916222D02*
X17383668Y-10935270D01*
X17383668Y-10935270D02*
X17288430Y-10954317D01*
X17459858Y-11011460D02*
X17478906Y-11020984D01*
X17478906Y-11020984D02*
X17517001Y-11020984D01*
X17517001Y-11020984D02*
X17536049Y-11011460D01*
X17536049Y-11011460D02*
X17545573Y-10992412D01*
X17545573Y-10992412D02*
X17545573Y-10982889D01*
X17545573Y-10982889D02*
X17536049Y-10963841D01*
X17536049Y-10963841D02*
X17517001Y-10954317D01*
X17517001Y-10954317D02*
X17488430Y-10954317D01*
X17488430Y-10954317D02*
X17469382Y-10944793D01*
X17469382Y-10944793D02*
X17459858Y-10925746D01*
X17459858Y-10925746D02*
X17459858Y-10916222D01*
X17459858Y-10916222D02*
X17469382Y-10897174D01*
X17469382Y-10897174D02*
X17488430Y-10887651D01*
X17488430Y-10887651D02*
X17517001Y-10887651D01*
X17517001Y-10887651D02*
X17536049Y-10897174D01*
X17612239Y-11097174D02*
X17621763Y-11087651D01*
X17621763Y-11087651D02*
X17640811Y-11059079D01*
X17640811Y-11059079D02*
X17650334Y-11040032D01*
X17650334Y-11040032D02*
X17659858Y-11011460D01*
X17659858Y-11011460D02*
X17669382Y-10963841D01*
X17669382Y-10963841D02*
X17669382Y-10925746D01*
X17669382Y-10925746D02*
X17659858Y-10878127D01*
X17659858Y-10878127D02*
X17650334Y-10849555D01*
X17650334Y-10849555D02*
X17640811Y-10830508D01*
X17640811Y-10830508D02*
X17621763Y-10801936D01*
X17621763Y-10801936D02*
X17612239Y-10792412D01*
D13*
X12646700Y-11193500D02*
G75*
G02*
X12586700Y-11193500I-30000J0D01*
G01*
X12586700Y-11193500D02*
G75*
G02*
X12646700Y-11193500I30000J0D01*
G01*
D12*
X12945572Y-11084984D02*
X12964620Y-11084984D01*
X12964620Y-11084984D02*
X12983667Y-11094508D01*
X12983667Y-11094508D02*
X12993191Y-11104032D01*
X12993191Y-11104032D02*
X13002715Y-11123079D01*
X13002715Y-11123079D02*
X13012239Y-11161174D01*
X13012239Y-11161174D02*
X13012239Y-11208793D01*
X13012239Y-11208793D02*
X13002715Y-11246889D01*
X13002715Y-11246889D02*
X12993191Y-11265936D01*
X12993191Y-11265936D02*
X12983667Y-11275460D01*
X12983667Y-11275460D02*
X12964620Y-11284984D01*
X12964620Y-11284984D02*
X12945572Y-11284984D01*
X12945572Y-11284984D02*
X12926524Y-11275460D01*
X12926524Y-11275460D02*
X12917001Y-11265936D01*
X12917001Y-11265936D02*
X12907477Y-11246889D01*
X12907477Y-11246889D02*
X12897953Y-11208793D01*
X12897953Y-11208793D02*
X12897953Y-11161174D01*
X12897953Y-11161174D02*
X12907477Y-11123079D01*
X12907477Y-11123079D02*
X12917001Y-11104032D01*
X12917001Y-11104032D02*
X12926524Y-11094508D01*
X12926524Y-11094508D02*
X12945572Y-11084984D01*
X13097953Y-11265936D02*
X13107477Y-11275460D01*
X13107477Y-11275460D02*
X13097953Y-11284984D01*
X13097953Y-11284984D02*
X13088429Y-11275460D01*
X13088429Y-11275460D02*
X13097953Y-11265936D01*
X13097953Y-11265936D02*
X13097953Y-11284984D01*
X13278905Y-11084984D02*
X13240810Y-11084984D01*
X13240810Y-11084984D02*
X13221762Y-11094508D01*
X13221762Y-11094508D02*
X13212239Y-11104032D01*
X13212239Y-11104032D02*
X13193191Y-11132603D01*
X13193191Y-11132603D02*
X13183667Y-11170698D01*
X13183667Y-11170698D02*
X13183667Y-11246889D01*
X13183667Y-11246889D02*
X13193191Y-11265936D01*
X13193191Y-11265936D02*
X13202715Y-11275460D01*
X13202715Y-11275460D02*
X13221762Y-11284984D01*
X13221762Y-11284984D02*
X13259858Y-11284984D01*
X13259858Y-11284984D02*
X13278905Y-11275460D01*
X13278905Y-11275460D02*
X13288429Y-11265936D01*
X13288429Y-11265936D02*
X13297953Y-11246889D01*
X13297953Y-11246889D02*
X13297953Y-11199270D01*
X13297953Y-11199270D02*
X13288429Y-11180222D01*
X13288429Y-11180222D02*
X13278905Y-11170698D01*
X13278905Y-11170698D02*
X13259858Y-11161174D01*
X13259858Y-11161174D02*
X13221762Y-11161174D01*
X13221762Y-11161174D02*
X13202715Y-11170698D01*
X13202715Y-11170698D02*
X13193191Y-11180222D01*
X13193191Y-11180222D02*
X13183667Y-11199270D01*
X13421762Y-11084984D02*
X13440810Y-11084984D01*
X13440810Y-11084984D02*
X13459858Y-11094508D01*
X13459858Y-11094508D02*
X13469382Y-11104032D01*
X13469382Y-11104032D02*
X13478905Y-11123079D01*
X13478905Y-11123079D02*
X13488429Y-11161174D01*
X13488429Y-11161174D02*
X13488429Y-11208793D01*
X13488429Y-11208793D02*
X13478905Y-11246889D01*
X13478905Y-11246889D02*
X13469382Y-11265936D01*
X13469382Y-11265936D02*
X13459858Y-11275460D01*
X13459858Y-11275460D02*
X13440810Y-11284984D01*
X13440810Y-11284984D02*
X13421762Y-11284984D01*
X13421762Y-11284984D02*
X13402715Y-11275460D01*
X13402715Y-11275460D02*
X13393191Y-11265936D01*
X13393191Y-11265936D02*
X13383667Y-11246889D01*
X13383667Y-11246889D02*
X13374143Y-11208793D01*
X13374143Y-11208793D02*
X13374143Y-11161174D01*
X13374143Y-11161174D02*
X13383667Y-11123079D01*
X13383667Y-11123079D02*
X13393191Y-11104032D01*
X13393191Y-11104032D02*
X13402715Y-11094508D01*
X13402715Y-11094508D02*
X13421762Y-11084984D01*
X13612239Y-11084984D02*
X13631286Y-11084984D01*
X13631286Y-11084984D02*
X13650334Y-11094508D01*
X13650334Y-11094508D02*
X13659858Y-11104032D01*
X13659858Y-11104032D02*
X13669382Y-11123079D01*
X13669382Y-11123079D02*
X13678905Y-11161174D01*
X13678905Y-11161174D02*
X13678905Y-11208793D01*
X13678905Y-11208793D02*
X13669382Y-11246889D01*
X13669382Y-11246889D02*
X13659858Y-11265936D01*
X13659858Y-11265936D02*
X13650334Y-11275460D01*
X13650334Y-11275460D02*
X13631286Y-11284984D01*
X13631286Y-11284984D02*
X13612239Y-11284984D01*
X13612239Y-11284984D02*
X13593191Y-11275460D01*
X13593191Y-11275460D02*
X13583667Y-11265936D01*
X13583667Y-11265936D02*
X13574143Y-11246889D01*
X13574143Y-11246889D02*
X13564620Y-11208793D01*
X13564620Y-11208793D02*
X13564620Y-11161174D01*
X13564620Y-11161174D02*
X13574143Y-11123079D01*
X13574143Y-11123079D02*
X13583667Y-11104032D01*
X13583667Y-11104032D02*
X13593191Y-11094508D01*
X13593191Y-11094508D02*
X13612239Y-11084984D01*
X13764620Y-11284984D02*
X13764620Y-11151651D01*
X13764620Y-11170698D02*
X13774143Y-11161174D01*
X13774143Y-11161174D02*
X13793191Y-11151651D01*
X13793191Y-11151651D02*
X13821763Y-11151651D01*
X13821763Y-11151651D02*
X13840810Y-11161174D01*
X13840810Y-11161174D02*
X13850334Y-11180222D01*
X13850334Y-11180222D02*
X13850334Y-11284984D01*
X13850334Y-11180222D02*
X13859858Y-11161174D01*
X13859858Y-11161174D02*
X13878905Y-11151651D01*
X13878905Y-11151651D02*
X13907477Y-11151651D01*
X13907477Y-11151651D02*
X13926524Y-11161174D01*
X13926524Y-11161174D02*
X13936048Y-11180222D01*
X13936048Y-11180222D02*
X13936048Y-11284984D01*
X14031286Y-11284984D02*
X14031286Y-11151651D01*
X14031286Y-11170698D02*
X14040810Y-11161174D01*
X14040810Y-11161174D02*
X14059858Y-11151651D01*
X14059858Y-11151651D02*
X14088429Y-11151651D01*
X14088429Y-11151651D02*
X14107477Y-11161174D01*
X14107477Y-11161174D02*
X14117001Y-11180222D01*
X14117001Y-11180222D02*
X14117001Y-11284984D01*
X14117001Y-11180222D02*
X14126524Y-11161174D01*
X14126524Y-11161174D02*
X14145572Y-11151651D01*
X14145572Y-11151651D02*
X14174143Y-11151651D01*
X14174143Y-11151651D02*
X14193191Y-11161174D01*
X14193191Y-11161174D02*
X14202715Y-11180222D01*
X14202715Y-11180222D02*
X14202715Y-11284984D01*
X14593191Y-11075460D02*
X14421763Y-11332603D01*
X14850334Y-11084984D02*
X14869382Y-11084984D01*
X14869382Y-11084984D02*
X14888429Y-11094508D01*
X14888429Y-11094508D02*
X14897953Y-11104032D01*
X14897953Y-11104032D02*
X14907477Y-11123079D01*
X14907477Y-11123079D02*
X14917001Y-11161174D01*
X14917001Y-11161174D02*
X14917001Y-11208793D01*
X14917001Y-11208793D02*
X14907477Y-11246889D01*
X14907477Y-11246889D02*
X14897953Y-11265936D01*
X14897953Y-11265936D02*
X14888429Y-11275460D01*
X14888429Y-11275460D02*
X14869382Y-11284984D01*
X14869382Y-11284984D02*
X14850334Y-11284984D01*
X14850334Y-11284984D02*
X14831286Y-11275460D01*
X14831286Y-11275460D02*
X14821763Y-11265936D01*
X14821763Y-11265936D02*
X14812239Y-11246889D01*
X14812239Y-11246889D02*
X14802715Y-11208793D01*
X14802715Y-11208793D02*
X14802715Y-11161174D01*
X14802715Y-11161174D02*
X14812239Y-11123079D01*
X14812239Y-11123079D02*
X14821763Y-11104032D01*
X14821763Y-11104032D02*
X14831286Y-11094508D01*
X14831286Y-11094508D02*
X14850334Y-11084984D01*
X15002715Y-11265936D02*
X15012239Y-11275460D01*
X15012239Y-11275460D02*
X15002715Y-11284984D01*
X15002715Y-11284984D02*
X14993191Y-11275460D01*
X14993191Y-11275460D02*
X15002715Y-11265936D01*
X15002715Y-11265936D02*
X15002715Y-11284984D01*
X15136048Y-11084984D02*
X15155096Y-11084984D01*
X15155096Y-11084984D02*
X15174144Y-11094508D01*
X15174144Y-11094508D02*
X15183667Y-11104032D01*
X15183667Y-11104032D02*
X15193191Y-11123079D01*
X15193191Y-11123079D02*
X15202715Y-11161174D01*
X15202715Y-11161174D02*
X15202715Y-11208793D01*
X15202715Y-11208793D02*
X15193191Y-11246889D01*
X15193191Y-11246889D02*
X15183667Y-11265936D01*
X15183667Y-11265936D02*
X15174144Y-11275460D01*
X15174144Y-11275460D02*
X15155096Y-11284984D01*
X15155096Y-11284984D02*
X15136048Y-11284984D01*
X15136048Y-11284984D02*
X15117001Y-11275460D01*
X15117001Y-11275460D02*
X15107477Y-11265936D01*
X15107477Y-11265936D02*
X15097953Y-11246889D01*
X15097953Y-11246889D02*
X15088429Y-11208793D01*
X15088429Y-11208793D02*
X15088429Y-11161174D01*
X15088429Y-11161174D02*
X15097953Y-11123079D01*
X15097953Y-11123079D02*
X15107477Y-11104032D01*
X15107477Y-11104032D02*
X15117001Y-11094508D01*
X15117001Y-11094508D02*
X15136048Y-11084984D01*
X15278906Y-11104032D02*
X15288429Y-11094508D01*
X15288429Y-11094508D02*
X15307477Y-11084984D01*
X15307477Y-11084984D02*
X15355096Y-11084984D01*
X15355096Y-11084984D02*
X15374144Y-11094508D01*
X15374144Y-11094508D02*
X15383667Y-11104032D01*
X15383667Y-11104032D02*
X15393191Y-11123079D01*
X15393191Y-11123079D02*
X15393191Y-11142127D01*
X15393191Y-11142127D02*
X15383667Y-11170698D01*
X15383667Y-11170698D02*
X15269382Y-11284984D01*
X15269382Y-11284984D02*
X15393191Y-11284984D01*
X15459858Y-11084984D02*
X15583667Y-11084984D01*
X15583667Y-11084984D02*
X15517001Y-11161174D01*
X15517001Y-11161174D02*
X15545572Y-11161174D01*
X15545572Y-11161174D02*
X15564620Y-11170698D01*
X15564620Y-11170698D02*
X15574144Y-11180222D01*
X15574144Y-11180222D02*
X15583667Y-11199270D01*
X15583667Y-11199270D02*
X15583667Y-11246889D01*
X15583667Y-11246889D02*
X15574144Y-11265936D01*
X15574144Y-11265936D02*
X15564620Y-11275460D01*
X15564620Y-11275460D02*
X15545572Y-11284984D01*
X15545572Y-11284984D02*
X15488429Y-11284984D01*
X15488429Y-11284984D02*
X15469382Y-11275460D01*
X15469382Y-11275460D02*
X15459858Y-11265936D01*
X15755096Y-11084984D02*
X15717001Y-11084984D01*
X15717001Y-11084984D02*
X15697953Y-11094508D01*
X15697953Y-11094508D02*
X15688429Y-11104032D01*
X15688429Y-11104032D02*
X15669382Y-11132603D01*
X15669382Y-11132603D02*
X15659858Y-11170698D01*
X15659858Y-11170698D02*
X15659858Y-11246889D01*
X15659858Y-11246889D02*
X15669382Y-11265936D01*
X15669382Y-11265936D02*
X15678906Y-11275460D01*
X15678906Y-11275460D02*
X15697953Y-11284984D01*
X15697953Y-11284984D02*
X15736048Y-11284984D01*
X15736048Y-11284984D02*
X15755096Y-11275460D01*
X15755096Y-11275460D02*
X15764620Y-11265936D01*
X15764620Y-11265936D02*
X15774144Y-11246889D01*
X15774144Y-11246889D02*
X15774144Y-11199270D01*
X15774144Y-11199270D02*
X15764620Y-11180222D01*
X15764620Y-11180222D02*
X15755096Y-11170698D01*
X15755096Y-11170698D02*
X15736048Y-11161174D01*
X15736048Y-11161174D02*
X15697953Y-11161174D01*
X15697953Y-11161174D02*
X15678906Y-11170698D01*
X15678906Y-11170698D02*
X15669382Y-11180222D01*
X15669382Y-11180222D02*
X15659858Y-11199270D01*
X15850334Y-11084984D02*
X15850334Y-11123079D01*
X15926525Y-11084984D02*
X15926525Y-11123079D01*
X16221763Y-11361174D02*
X16212239Y-11351650D01*
X16212239Y-11351650D02*
X16193191Y-11323079D01*
X16193191Y-11323079D02*
X16183668Y-11304031D01*
X16183668Y-11304031D02*
X16174144Y-11275460D01*
X16174144Y-11275460D02*
X16164620Y-11227841D01*
X16164620Y-11227841D02*
X16164620Y-11189746D01*
X16164620Y-11189746D02*
X16174144Y-11142127D01*
X16174144Y-11142127D02*
X16183668Y-11113555D01*
X16183668Y-11113555D02*
X16193191Y-11094508D01*
X16193191Y-11094508D02*
X16212239Y-11065936D01*
X16212239Y-11065936D02*
X16221763Y-11056412D01*
X16336048Y-11084984D02*
X16355096Y-11084984D01*
X16355096Y-11084984D02*
X16374144Y-11094508D01*
X16374144Y-11094508D02*
X16383668Y-11104032D01*
X16383668Y-11104032D02*
X16393191Y-11123079D01*
X16393191Y-11123079D02*
X16402715Y-11161174D01*
X16402715Y-11161174D02*
X16402715Y-11208793D01*
X16402715Y-11208793D02*
X16393191Y-11246889D01*
X16393191Y-11246889D02*
X16383668Y-11265936D01*
X16383668Y-11265936D02*
X16374144Y-11275460D01*
X16374144Y-11275460D02*
X16355096Y-11284984D01*
X16355096Y-11284984D02*
X16336048Y-11284984D01*
X16336048Y-11284984D02*
X16317001Y-11275460D01*
X16317001Y-11275460D02*
X16307477Y-11265936D01*
X16307477Y-11265936D02*
X16297953Y-11246889D01*
X16297953Y-11246889D02*
X16288429Y-11208793D01*
X16288429Y-11208793D02*
X16288429Y-11161174D01*
X16288429Y-11161174D02*
X16297953Y-11123079D01*
X16297953Y-11123079D02*
X16307477Y-11104032D01*
X16307477Y-11104032D02*
X16317001Y-11094508D01*
X16317001Y-11094508D02*
X16336048Y-11084984D01*
X16640810Y-11284984D02*
X16640810Y-11084984D01*
X16726525Y-11284984D02*
X16726525Y-11180222D01*
X16726525Y-11180222D02*
X16717001Y-11161174D01*
X16717001Y-11161174D02*
X16697953Y-11151651D01*
X16697953Y-11151651D02*
X16669382Y-11151651D01*
X16669382Y-11151651D02*
X16650334Y-11161174D01*
X16650334Y-11161174D02*
X16640810Y-11170698D01*
X16850334Y-11284984D02*
X16831287Y-11275460D01*
X16831287Y-11275460D02*
X16821763Y-11265936D01*
X16821763Y-11265936D02*
X16812239Y-11246889D01*
X16812239Y-11246889D02*
X16812239Y-11189746D01*
X16812239Y-11189746D02*
X16821763Y-11170698D01*
X16821763Y-11170698D02*
X16831287Y-11161174D01*
X16831287Y-11161174D02*
X16850334Y-11151651D01*
X16850334Y-11151651D02*
X16878906Y-11151651D01*
X16878906Y-11151651D02*
X16897953Y-11161174D01*
X16897953Y-11161174D02*
X16907477Y-11170698D01*
X16907477Y-11170698D02*
X16917001Y-11189746D01*
X16917001Y-11189746D02*
X16917001Y-11246889D01*
X16917001Y-11246889D02*
X16907477Y-11265936D01*
X16907477Y-11265936D02*
X16897953Y-11275460D01*
X16897953Y-11275460D02*
X16878906Y-11284984D01*
X16878906Y-11284984D02*
X16850334Y-11284984D01*
X17031287Y-11284984D02*
X17012239Y-11275460D01*
X17012239Y-11275460D02*
X17002715Y-11256412D01*
X17002715Y-11256412D02*
X17002715Y-11084984D01*
X17183668Y-11275460D02*
X17164620Y-11284984D01*
X17164620Y-11284984D02*
X17126525Y-11284984D01*
X17126525Y-11284984D02*
X17107477Y-11275460D01*
X17107477Y-11275460D02*
X17097953Y-11256412D01*
X17097953Y-11256412D02*
X17097953Y-11180222D01*
X17097953Y-11180222D02*
X17107477Y-11161174D01*
X17107477Y-11161174D02*
X17126525Y-11151651D01*
X17126525Y-11151651D02*
X17164620Y-11151651D01*
X17164620Y-11151651D02*
X17183668Y-11161174D01*
X17183668Y-11161174D02*
X17193192Y-11180222D01*
X17193192Y-11180222D02*
X17193192Y-11199270D01*
X17193192Y-11199270D02*
X17097953Y-11218317D01*
X17269382Y-11275460D02*
X17288430Y-11284984D01*
X17288430Y-11284984D02*
X17326525Y-11284984D01*
X17326525Y-11284984D02*
X17345573Y-11275460D01*
X17345573Y-11275460D02*
X17355096Y-11256412D01*
X17355096Y-11256412D02*
X17355096Y-11246889D01*
X17355096Y-11246889D02*
X17345573Y-11227841D01*
X17345573Y-11227841D02*
X17326525Y-11218317D01*
X17326525Y-11218317D02*
X17297953Y-11218317D01*
X17297953Y-11218317D02*
X17278906Y-11208793D01*
X17278906Y-11208793D02*
X17269382Y-11189746D01*
X17269382Y-11189746D02*
X17269382Y-11180222D01*
X17269382Y-11180222D02*
X17278906Y-11161174D01*
X17278906Y-11161174D02*
X17297953Y-11151651D01*
X17297953Y-11151651D02*
X17326525Y-11151651D01*
X17326525Y-11151651D02*
X17345573Y-11161174D01*
X17593192Y-11208793D02*
X17745573Y-11208793D01*
X17669382Y-11284984D02*
X17669382Y-11132603D01*
X18078906Y-11151651D02*
X18078906Y-11284984D01*
X18031287Y-11075460D02*
X17983668Y-11218317D01*
X17983668Y-11218317D02*
X18107477Y-11218317D01*
X18326525Y-11275460D02*
X18345573Y-11284984D01*
X18345573Y-11284984D02*
X18383668Y-11284984D01*
X18383668Y-11284984D02*
X18402716Y-11275460D01*
X18402716Y-11275460D02*
X18412239Y-11256412D01*
X18412239Y-11256412D02*
X18412239Y-11246889D01*
X18412239Y-11246889D02*
X18402716Y-11227841D01*
X18402716Y-11227841D02*
X18383668Y-11218317D01*
X18383668Y-11218317D02*
X18355096Y-11218317D01*
X18355096Y-11218317D02*
X18336049Y-11208793D01*
X18336049Y-11208793D02*
X18326525Y-11189746D01*
X18326525Y-11189746D02*
X18326525Y-11180222D01*
X18326525Y-11180222D02*
X18336049Y-11161174D01*
X18336049Y-11161174D02*
X18355096Y-11151651D01*
X18355096Y-11151651D02*
X18383668Y-11151651D01*
X18383668Y-11151651D02*
X18402716Y-11161174D01*
X18526525Y-11284984D02*
X18507477Y-11275460D01*
X18507477Y-11275460D02*
X18497954Y-11256412D01*
X18497954Y-11256412D02*
X18497954Y-11084984D01*
X18631287Y-11284984D02*
X18612239Y-11275460D01*
X18612239Y-11275460D02*
X18602716Y-11265936D01*
X18602716Y-11265936D02*
X18593192Y-11246889D01*
X18593192Y-11246889D02*
X18593192Y-11189746D01*
X18593192Y-11189746D02*
X18602716Y-11170698D01*
X18602716Y-11170698D02*
X18612239Y-11161174D01*
X18612239Y-11161174D02*
X18631287Y-11151651D01*
X18631287Y-11151651D02*
X18659858Y-11151651D01*
X18659858Y-11151651D02*
X18678906Y-11161174D01*
X18678906Y-11161174D02*
X18688430Y-11170698D01*
X18688430Y-11170698D02*
X18697954Y-11189746D01*
X18697954Y-11189746D02*
X18697954Y-11246889D01*
X18697954Y-11246889D02*
X18688430Y-11265936D01*
X18688430Y-11265936D02*
X18678906Y-11275460D01*
X18678906Y-11275460D02*
X18659858Y-11284984D01*
X18659858Y-11284984D02*
X18631287Y-11284984D01*
X18755097Y-11151651D02*
X18831287Y-11151651D01*
X18783668Y-11084984D02*
X18783668Y-11256412D01*
X18783668Y-11256412D02*
X18793192Y-11275460D01*
X18793192Y-11275460D02*
X18812239Y-11284984D01*
X18812239Y-11284984D02*
X18831287Y-11284984D01*
X18888430Y-11275460D02*
X18907477Y-11284984D01*
X18907477Y-11284984D02*
X18945573Y-11284984D01*
X18945573Y-11284984D02*
X18964620Y-11275460D01*
X18964620Y-11275460D02*
X18974144Y-11256412D01*
X18974144Y-11256412D02*
X18974144Y-11246889D01*
X18974144Y-11246889D02*
X18964620Y-11227841D01*
X18964620Y-11227841D02*
X18945573Y-11218317D01*
X18945573Y-11218317D02*
X18917001Y-11218317D01*
X18917001Y-11218317D02*
X18897954Y-11208793D01*
X18897954Y-11208793D02*
X18888430Y-11189746D01*
X18888430Y-11189746D02*
X18888430Y-11180222D01*
X18888430Y-11180222D02*
X18897954Y-11161174D01*
X18897954Y-11161174D02*
X18917001Y-11151651D01*
X18917001Y-11151651D02*
X18945573Y-11151651D01*
X18945573Y-11151651D02*
X18964620Y-11161174D01*
X19040811Y-11361174D02*
X19050335Y-11351650D01*
X19050335Y-11351650D02*
X19069382Y-11323079D01*
X19069382Y-11323079D02*
X19078906Y-11304031D01*
X19078906Y-11304031D02*
X19088430Y-11275460D01*
X19088430Y-11275460D02*
X19097954Y-11227841D01*
X19097954Y-11227841D02*
X19097954Y-11189746D01*
X19097954Y-11189746D02*
X19088430Y-11142127D01*
X19088430Y-11142127D02*
X19078906Y-11113555D01*
X19078906Y-11113555D02*
X19069382Y-11094508D01*
X19069382Y-11094508D02*
X19050335Y-11065936D01*
X19050335Y-11065936D02*
X19040811Y-11056412D01*
D13*
X12599200Y-11410000D02*
X12599200Y-11505000D01*
X12551700Y-11457500D02*
X12646700Y-11457500D01*
D12*
X12945572Y-11348984D02*
X12964620Y-11348984D01*
X12964620Y-11348984D02*
X12983667Y-11358508D01*
X12983667Y-11358508D02*
X12993191Y-11368031D01*
X12993191Y-11368031D02*
X13002715Y-11387079D01*
X13002715Y-11387079D02*
X13012239Y-11425174D01*
X13012239Y-11425174D02*
X13012239Y-11472793D01*
X13012239Y-11472793D02*
X13002715Y-11510889D01*
X13002715Y-11510889D02*
X12993191Y-11529936D01*
X12993191Y-11529936D02*
X12983667Y-11539460D01*
X12983667Y-11539460D02*
X12964620Y-11548984D01*
X12964620Y-11548984D02*
X12945572Y-11548984D01*
X12945572Y-11548984D02*
X12926524Y-11539460D01*
X12926524Y-11539460D02*
X12917001Y-11529936D01*
X12917001Y-11529936D02*
X12907477Y-11510889D01*
X12907477Y-11510889D02*
X12897953Y-11472793D01*
X12897953Y-11472793D02*
X12897953Y-11425174D01*
X12897953Y-11425174D02*
X12907477Y-11387079D01*
X12907477Y-11387079D02*
X12917001Y-11368031D01*
X12917001Y-11368031D02*
X12926524Y-11358508D01*
X12926524Y-11358508D02*
X12945572Y-11348984D01*
X13097953Y-11529936D02*
X13107477Y-11539460D01*
X13107477Y-11539460D02*
X13097953Y-11548984D01*
X13097953Y-11548984D02*
X13088429Y-11539460D01*
X13088429Y-11539460D02*
X13097953Y-11529936D01*
X13097953Y-11529936D02*
X13097953Y-11548984D01*
X13202715Y-11548984D02*
X13240810Y-11548984D01*
X13240810Y-11548984D02*
X13259858Y-11539460D01*
X13259858Y-11539460D02*
X13269382Y-11529936D01*
X13269382Y-11529936D02*
X13288429Y-11501365D01*
X13288429Y-11501365D02*
X13297953Y-11463270D01*
X13297953Y-11463270D02*
X13297953Y-11387079D01*
X13297953Y-11387079D02*
X13288429Y-11368031D01*
X13288429Y-11368031D02*
X13278905Y-11358508D01*
X13278905Y-11358508D02*
X13259858Y-11348984D01*
X13259858Y-11348984D02*
X13221762Y-11348984D01*
X13221762Y-11348984D02*
X13202715Y-11358508D01*
X13202715Y-11358508D02*
X13193191Y-11368031D01*
X13193191Y-11368031D02*
X13183667Y-11387079D01*
X13183667Y-11387079D02*
X13183667Y-11434698D01*
X13183667Y-11434698D02*
X13193191Y-11453746D01*
X13193191Y-11453746D02*
X13202715Y-11463270D01*
X13202715Y-11463270D02*
X13221762Y-11472793D01*
X13221762Y-11472793D02*
X13259858Y-11472793D01*
X13259858Y-11472793D02*
X13278905Y-11463270D01*
X13278905Y-11463270D02*
X13288429Y-11453746D01*
X13288429Y-11453746D02*
X13297953Y-11434698D01*
X13478905Y-11348984D02*
X13383667Y-11348984D01*
X13383667Y-11348984D02*
X13374143Y-11444222D01*
X13374143Y-11444222D02*
X13383667Y-11434698D01*
X13383667Y-11434698D02*
X13402715Y-11425174D01*
X13402715Y-11425174D02*
X13450334Y-11425174D01*
X13450334Y-11425174D02*
X13469382Y-11434698D01*
X13469382Y-11434698D02*
X13478905Y-11444222D01*
X13478905Y-11444222D02*
X13488429Y-11463270D01*
X13488429Y-11463270D02*
X13488429Y-11510889D01*
X13488429Y-11510889D02*
X13478905Y-11529936D01*
X13478905Y-11529936D02*
X13469382Y-11539460D01*
X13469382Y-11539460D02*
X13450334Y-11548984D01*
X13450334Y-11548984D02*
X13402715Y-11548984D01*
X13402715Y-11548984D02*
X13383667Y-11539460D01*
X13383667Y-11539460D02*
X13374143Y-11529936D01*
X13612239Y-11348984D02*
X13631286Y-11348984D01*
X13631286Y-11348984D02*
X13650334Y-11358508D01*
X13650334Y-11358508D02*
X13659858Y-11368031D01*
X13659858Y-11368031D02*
X13669382Y-11387079D01*
X13669382Y-11387079D02*
X13678905Y-11425174D01*
X13678905Y-11425174D02*
X13678905Y-11472793D01*
X13678905Y-11472793D02*
X13669382Y-11510889D01*
X13669382Y-11510889D02*
X13659858Y-11529936D01*
X13659858Y-11529936D02*
X13650334Y-11539460D01*
X13650334Y-11539460D02*
X13631286Y-11548984D01*
X13631286Y-11548984D02*
X13612239Y-11548984D01*
X13612239Y-11548984D02*
X13593191Y-11539460D01*
X13593191Y-11539460D02*
X13583667Y-11529936D01*
X13583667Y-11529936D02*
X13574143Y-11510889D01*
X13574143Y-11510889D02*
X13564620Y-11472793D01*
X13564620Y-11472793D02*
X13564620Y-11425174D01*
X13564620Y-11425174D02*
X13574143Y-11387079D01*
X13574143Y-11387079D02*
X13583667Y-11368031D01*
X13583667Y-11368031D02*
X13593191Y-11358508D01*
X13593191Y-11358508D02*
X13612239Y-11348984D01*
X13764620Y-11548984D02*
X13764620Y-11415650D01*
X13764620Y-11434698D02*
X13774143Y-11425174D01*
X13774143Y-11425174D02*
X13793191Y-11415650D01*
X13793191Y-11415650D02*
X13821763Y-11415650D01*
X13821763Y-11415650D02*
X13840810Y-11425174D01*
X13840810Y-11425174D02*
X13850334Y-11444222D01*
X13850334Y-11444222D02*
X13850334Y-11548984D01*
X13850334Y-11444222D02*
X13859858Y-11425174D01*
X13859858Y-11425174D02*
X13878905Y-11415650D01*
X13878905Y-11415650D02*
X13907477Y-11415650D01*
X13907477Y-11415650D02*
X13926524Y-11425174D01*
X13926524Y-11425174D02*
X13936048Y-11444222D01*
X13936048Y-11444222D02*
X13936048Y-11548984D01*
X14031286Y-11548984D02*
X14031286Y-11415650D01*
X14031286Y-11434698D02*
X14040810Y-11425174D01*
X14040810Y-11425174D02*
X14059858Y-11415650D01*
X14059858Y-11415650D02*
X14088429Y-11415650D01*
X14088429Y-11415650D02*
X14107477Y-11425174D01*
X14107477Y-11425174D02*
X14117001Y-11444222D01*
X14117001Y-11444222D02*
X14117001Y-11548984D01*
X14117001Y-11444222D02*
X14126524Y-11425174D01*
X14126524Y-11425174D02*
X14145572Y-11415650D01*
X14145572Y-11415650D02*
X14174143Y-11415650D01*
X14174143Y-11415650D02*
X14193191Y-11425174D01*
X14193191Y-11425174D02*
X14202715Y-11444222D01*
X14202715Y-11444222D02*
X14202715Y-11548984D01*
X14593191Y-11339460D02*
X14421763Y-11596603D01*
X14850334Y-11348984D02*
X14869382Y-11348984D01*
X14869382Y-11348984D02*
X14888429Y-11358508D01*
X14888429Y-11358508D02*
X14897953Y-11368031D01*
X14897953Y-11368031D02*
X14907477Y-11387079D01*
X14907477Y-11387079D02*
X14917001Y-11425174D01*
X14917001Y-11425174D02*
X14917001Y-11472793D01*
X14917001Y-11472793D02*
X14907477Y-11510889D01*
X14907477Y-11510889D02*
X14897953Y-11529936D01*
X14897953Y-11529936D02*
X14888429Y-11539460D01*
X14888429Y-11539460D02*
X14869382Y-11548984D01*
X14869382Y-11548984D02*
X14850334Y-11548984D01*
X14850334Y-11548984D02*
X14831286Y-11539460D01*
X14831286Y-11539460D02*
X14821763Y-11529936D01*
X14821763Y-11529936D02*
X14812239Y-11510889D01*
X14812239Y-11510889D02*
X14802715Y-11472793D01*
X14802715Y-11472793D02*
X14802715Y-11425174D01*
X14802715Y-11425174D02*
X14812239Y-11387079D01*
X14812239Y-11387079D02*
X14821763Y-11368031D01*
X14821763Y-11368031D02*
X14831286Y-11358508D01*
X14831286Y-11358508D02*
X14850334Y-11348984D01*
X15002715Y-11529936D02*
X15012239Y-11539460D01*
X15012239Y-11539460D02*
X15002715Y-11548984D01*
X15002715Y-11548984D02*
X14993191Y-11539460D01*
X14993191Y-11539460D02*
X15002715Y-11529936D01*
X15002715Y-11529936D02*
X15002715Y-11548984D01*
X15136048Y-11348984D02*
X15155096Y-11348984D01*
X15155096Y-11348984D02*
X15174144Y-11358508D01*
X15174144Y-11358508D02*
X15183667Y-11368031D01*
X15183667Y-11368031D02*
X15193191Y-11387079D01*
X15193191Y-11387079D02*
X15202715Y-11425174D01*
X15202715Y-11425174D02*
X15202715Y-11472793D01*
X15202715Y-11472793D02*
X15193191Y-11510889D01*
X15193191Y-11510889D02*
X15183667Y-11529936D01*
X15183667Y-11529936D02*
X15174144Y-11539460D01*
X15174144Y-11539460D02*
X15155096Y-11548984D01*
X15155096Y-11548984D02*
X15136048Y-11548984D01*
X15136048Y-11548984D02*
X15117001Y-11539460D01*
X15117001Y-11539460D02*
X15107477Y-11529936D01*
X15107477Y-11529936D02*
X15097953Y-11510889D01*
X15097953Y-11510889D02*
X15088429Y-11472793D01*
X15088429Y-11472793D02*
X15088429Y-11425174D01*
X15088429Y-11425174D02*
X15097953Y-11387079D01*
X15097953Y-11387079D02*
X15107477Y-11368031D01*
X15107477Y-11368031D02*
X15117001Y-11358508D01*
X15117001Y-11358508D02*
X15136048Y-11348984D01*
X15269382Y-11348984D02*
X15393191Y-11348984D01*
X15393191Y-11348984D02*
X15326525Y-11425174D01*
X15326525Y-11425174D02*
X15355096Y-11425174D01*
X15355096Y-11425174D02*
X15374144Y-11434698D01*
X15374144Y-11434698D02*
X15383667Y-11444222D01*
X15383667Y-11444222D02*
X15393191Y-11463270D01*
X15393191Y-11463270D02*
X15393191Y-11510889D01*
X15393191Y-11510889D02*
X15383667Y-11529936D01*
X15383667Y-11529936D02*
X15374144Y-11539460D01*
X15374144Y-11539460D02*
X15355096Y-11548984D01*
X15355096Y-11548984D02*
X15297953Y-11548984D01*
X15297953Y-11548984D02*
X15278906Y-11539460D01*
X15278906Y-11539460D02*
X15269382Y-11529936D01*
X15459858Y-11348984D02*
X15593191Y-11348984D01*
X15593191Y-11348984D02*
X15507477Y-11548984D01*
X15755096Y-11415650D02*
X15755096Y-11548984D01*
X15707477Y-11339460D02*
X15659858Y-11482317D01*
X15659858Y-11482317D02*
X15783667Y-11482317D01*
X15850334Y-11348984D02*
X15850334Y-11387079D01*
X15926525Y-11348984D02*
X15926525Y-11387079D01*
X16221763Y-11625174D02*
X16212239Y-11615650D01*
X16212239Y-11615650D02*
X16193191Y-11587079D01*
X16193191Y-11587079D02*
X16183668Y-11568031D01*
X16183668Y-11568031D02*
X16174144Y-11539460D01*
X16174144Y-11539460D02*
X16164620Y-11491841D01*
X16164620Y-11491841D02*
X16164620Y-11453746D01*
X16164620Y-11453746D02*
X16174144Y-11406127D01*
X16174144Y-11406127D02*
X16183668Y-11377555D01*
X16183668Y-11377555D02*
X16193191Y-11358508D01*
X16193191Y-11358508D02*
X16212239Y-11329936D01*
X16212239Y-11329936D02*
X16221763Y-11320412D01*
X16383668Y-11415650D02*
X16383668Y-11548984D01*
X16336048Y-11339460D02*
X16288429Y-11482317D01*
X16288429Y-11482317D02*
X16412239Y-11482317D01*
X16640810Y-11548984D02*
X16640810Y-11348984D01*
X16726525Y-11548984D02*
X16726525Y-11444222D01*
X16726525Y-11444222D02*
X16717001Y-11425174D01*
X16717001Y-11425174D02*
X16697953Y-11415650D01*
X16697953Y-11415650D02*
X16669382Y-11415650D01*
X16669382Y-11415650D02*
X16650334Y-11425174D01*
X16650334Y-11425174D02*
X16640810Y-11434698D01*
X16850334Y-11548984D02*
X16831287Y-11539460D01*
X16831287Y-11539460D02*
X16821763Y-11529936D01*
X16821763Y-11529936D02*
X16812239Y-11510889D01*
X16812239Y-11510889D02*
X16812239Y-11453746D01*
X16812239Y-11453746D02*
X16821763Y-11434698D01*
X16821763Y-11434698D02*
X16831287Y-11425174D01*
X16831287Y-11425174D02*
X16850334Y-11415650D01*
X16850334Y-11415650D02*
X16878906Y-11415650D01*
X16878906Y-11415650D02*
X16897953Y-11425174D01*
X16897953Y-11425174D02*
X16907477Y-11434698D01*
X16907477Y-11434698D02*
X16917001Y-11453746D01*
X16917001Y-11453746D02*
X16917001Y-11510889D01*
X16917001Y-11510889D02*
X16907477Y-11529936D01*
X16907477Y-11529936D02*
X16897953Y-11539460D01*
X16897953Y-11539460D02*
X16878906Y-11548984D01*
X16878906Y-11548984D02*
X16850334Y-11548984D01*
X17031287Y-11548984D02*
X17012239Y-11539460D01*
X17012239Y-11539460D02*
X17002715Y-11520412D01*
X17002715Y-11520412D02*
X17002715Y-11348984D01*
X17183668Y-11539460D02*
X17164620Y-11548984D01*
X17164620Y-11548984D02*
X17126525Y-11548984D01*
X17126525Y-11548984D02*
X17107477Y-11539460D01*
X17107477Y-11539460D02*
X17097953Y-11520412D01*
X17097953Y-11520412D02*
X17097953Y-11444222D01*
X17097953Y-11444222D02*
X17107477Y-11425174D01*
X17107477Y-11425174D02*
X17126525Y-11415650D01*
X17126525Y-11415650D02*
X17164620Y-11415650D01*
X17164620Y-11415650D02*
X17183668Y-11425174D01*
X17183668Y-11425174D02*
X17193192Y-11444222D01*
X17193192Y-11444222D02*
X17193192Y-11463270D01*
X17193192Y-11463270D02*
X17097953Y-11482317D01*
X17269382Y-11539460D02*
X17288430Y-11548984D01*
X17288430Y-11548984D02*
X17326525Y-11548984D01*
X17326525Y-11548984D02*
X17345573Y-11539460D01*
X17345573Y-11539460D02*
X17355096Y-11520412D01*
X17355096Y-11520412D02*
X17355096Y-11510889D01*
X17355096Y-11510889D02*
X17345573Y-11491841D01*
X17345573Y-11491841D02*
X17326525Y-11482317D01*
X17326525Y-11482317D02*
X17297953Y-11482317D01*
X17297953Y-11482317D02*
X17278906Y-11472793D01*
X17278906Y-11472793D02*
X17269382Y-11453746D01*
X17269382Y-11453746D02*
X17269382Y-11444222D01*
X17269382Y-11444222D02*
X17278906Y-11425174D01*
X17278906Y-11425174D02*
X17297953Y-11415650D01*
X17297953Y-11415650D02*
X17326525Y-11415650D01*
X17326525Y-11415650D02*
X17345573Y-11425174D01*
X17421763Y-11625174D02*
X17431287Y-11615650D01*
X17431287Y-11615650D02*
X17450334Y-11587079D01*
X17450334Y-11587079D02*
X17459858Y-11568031D01*
X17459858Y-11568031D02*
X17469382Y-11539460D01*
X17469382Y-11539460D02*
X17478906Y-11491841D01*
X17478906Y-11491841D02*
X17478906Y-11453746D01*
X17478906Y-11453746D02*
X17469382Y-11406127D01*
X17469382Y-11406127D02*
X17459858Y-11377555D01*
X17459858Y-11377555D02*
X17450334Y-11358508D01*
X17450334Y-11358508D02*
X17431287Y-11329936D01*
X17431287Y-11329936D02*
X17421763Y-11320412D01*
D14*
X12629961Y-11761912D02*
X12629961Y-11681089D01*
X12549138Y-11681089D01*
X12549138Y-11761912D01*
X12629961Y-11761912D01*
D12*
X13012239Y-11812984D02*
X12897953Y-11812984D01*
X12955096Y-11812984D02*
X12955096Y-11612984D01*
X12955096Y-11612984D02*
X12936048Y-11641555D01*
X12936048Y-11641555D02*
X12917001Y-11660603D01*
X12917001Y-11660603D02*
X12897953Y-11670127D01*
X13097953Y-11793936D02*
X13107477Y-11803460D01*
X13107477Y-11803460D02*
X13097953Y-11812984D01*
X13097953Y-11812984D02*
X13088429Y-11803460D01*
X13088429Y-11803460D02*
X13097953Y-11793936D01*
X13097953Y-11793936D02*
X13097953Y-11812984D01*
X13297953Y-11812984D02*
X13183667Y-11812984D01*
X13240810Y-11812984D02*
X13240810Y-11612984D01*
X13240810Y-11612984D02*
X13221762Y-11641555D01*
X13221762Y-11641555D02*
X13202715Y-11660603D01*
X13202715Y-11660603D02*
X13183667Y-11670127D01*
X13469382Y-11679650D02*
X13469382Y-11812984D01*
X13421762Y-11603460D02*
X13374143Y-11746317D01*
X13374143Y-11746317D02*
X13497953Y-11746317D01*
X13555096Y-11612984D02*
X13678905Y-11612984D01*
X13678905Y-11612984D02*
X13612239Y-11689174D01*
X13612239Y-11689174D02*
X13640810Y-11689174D01*
X13640810Y-11689174D02*
X13659858Y-11698698D01*
X13659858Y-11698698D02*
X13669382Y-11708222D01*
X13669382Y-11708222D02*
X13678905Y-11727270D01*
X13678905Y-11727270D02*
X13678905Y-11774889D01*
X13678905Y-11774889D02*
X13669382Y-11793936D01*
X13669382Y-11793936D02*
X13659858Y-11803460D01*
X13659858Y-11803460D02*
X13640810Y-11812984D01*
X13640810Y-11812984D02*
X13583667Y-11812984D01*
X13583667Y-11812984D02*
X13564620Y-11803460D01*
X13564620Y-11803460D02*
X13555096Y-11793936D01*
X13764620Y-11812984D02*
X13764620Y-11679650D01*
X13764620Y-11698698D02*
X13774143Y-11689174D01*
X13774143Y-11689174D02*
X13793191Y-11679650D01*
X13793191Y-11679650D02*
X13821763Y-11679650D01*
X13821763Y-11679650D02*
X13840810Y-11689174D01*
X13840810Y-11689174D02*
X13850334Y-11708222D01*
X13850334Y-11708222D02*
X13850334Y-11812984D01*
X13850334Y-11708222D02*
X13859858Y-11689174D01*
X13859858Y-11689174D02*
X13878905Y-11679650D01*
X13878905Y-11679650D02*
X13907477Y-11679650D01*
X13907477Y-11679650D02*
X13926524Y-11689174D01*
X13926524Y-11689174D02*
X13936048Y-11708222D01*
X13936048Y-11708222D02*
X13936048Y-11812984D01*
X14031286Y-11812984D02*
X14031286Y-11679650D01*
X14031286Y-11698698D02*
X14040810Y-11689174D01*
X14040810Y-11689174D02*
X14059858Y-11679650D01*
X14059858Y-11679650D02*
X14088429Y-11679650D01*
X14088429Y-11679650D02*
X14107477Y-11689174D01*
X14107477Y-11689174D02*
X14117001Y-11708222D01*
X14117001Y-11708222D02*
X14117001Y-11812984D01*
X14117001Y-11708222D02*
X14126524Y-11689174D01*
X14126524Y-11689174D02*
X14145572Y-11679650D01*
X14145572Y-11679650D02*
X14174143Y-11679650D01*
X14174143Y-11679650D02*
X14193191Y-11689174D01*
X14193191Y-11689174D02*
X14202715Y-11708222D01*
X14202715Y-11708222D02*
X14202715Y-11812984D01*
X14593191Y-11603460D02*
X14421763Y-11860603D01*
X14850334Y-11612984D02*
X14869382Y-11612984D01*
X14869382Y-11612984D02*
X14888429Y-11622508D01*
X14888429Y-11622508D02*
X14897953Y-11632031D01*
X14897953Y-11632031D02*
X14907477Y-11651079D01*
X14907477Y-11651079D02*
X14917001Y-11689174D01*
X14917001Y-11689174D02*
X14917001Y-11736793D01*
X14917001Y-11736793D02*
X14907477Y-11774889D01*
X14907477Y-11774889D02*
X14897953Y-11793936D01*
X14897953Y-11793936D02*
X14888429Y-11803460D01*
X14888429Y-11803460D02*
X14869382Y-11812984D01*
X14869382Y-11812984D02*
X14850334Y-11812984D01*
X14850334Y-11812984D02*
X14831286Y-11803460D01*
X14831286Y-11803460D02*
X14821763Y-11793936D01*
X14821763Y-11793936D02*
X14812239Y-11774889D01*
X14812239Y-11774889D02*
X14802715Y-11736793D01*
X14802715Y-11736793D02*
X14802715Y-11689174D01*
X14802715Y-11689174D02*
X14812239Y-11651079D01*
X14812239Y-11651079D02*
X14821763Y-11632031D01*
X14821763Y-11632031D02*
X14831286Y-11622508D01*
X14831286Y-11622508D02*
X14850334Y-11612984D01*
X15002715Y-11793936D02*
X15012239Y-11803460D01*
X15012239Y-11803460D02*
X15002715Y-11812984D01*
X15002715Y-11812984D02*
X14993191Y-11803460D01*
X14993191Y-11803460D02*
X15002715Y-11793936D01*
X15002715Y-11793936D02*
X15002715Y-11812984D01*
X15136048Y-11612984D02*
X15155096Y-11612984D01*
X15155096Y-11612984D02*
X15174144Y-11622508D01*
X15174144Y-11622508D02*
X15183667Y-11632031D01*
X15183667Y-11632031D02*
X15193191Y-11651079D01*
X15193191Y-11651079D02*
X15202715Y-11689174D01*
X15202715Y-11689174D02*
X15202715Y-11736793D01*
X15202715Y-11736793D02*
X15193191Y-11774889D01*
X15193191Y-11774889D02*
X15183667Y-11793936D01*
X15183667Y-11793936D02*
X15174144Y-11803460D01*
X15174144Y-11803460D02*
X15155096Y-11812984D01*
X15155096Y-11812984D02*
X15136048Y-11812984D01*
X15136048Y-11812984D02*
X15117001Y-11803460D01*
X15117001Y-11803460D02*
X15107477Y-11793936D01*
X15107477Y-11793936D02*
X15097953Y-11774889D01*
X15097953Y-11774889D02*
X15088429Y-11736793D01*
X15088429Y-11736793D02*
X15088429Y-11689174D01*
X15088429Y-11689174D02*
X15097953Y-11651079D01*
X15097953Y-11651079D02*
X15107477Y-11632031D01*
X15107477Y-11632031D02*
X15117001Y-11622508D01*
X15117001Y-11622508D02*
X15136048Y-11612984D01*
X15374144Y-11679650D02*
X15374144Y-11812984D01*
X15326525Y-11603460D02*
X15278906Y-11746317D01*
X15278906Y-11746317D02*
X15402715Y-11746317D01*
X15574144Y-11612984D02*
X15478906Y-11612984D01*
X15478906Y-11612984D02*
X15469382Y-11708222D01*
X15469382Y-11708222D02*
X15478906Y-11698698D01*
X15478906Y-11698698D02*
X15497953Y-11689174D01*
X15497953Y-11689174D02*
X15545572Y-11689174D01*
X15545572Y-11689174D02*
X15564620Y-11698698D01*
X15564620Y-11698698D02*
X15574144Y-11708222D01*
X15574144Y-11708222D02*
X15583667Y-11727270D01*
X15583667Y-11727270D02*
X15583667Y-11774889D01*
X15583667Y-11774889D02*
X15574144Y-11793936D01*
X15574144Y-11793936D02*
X15564620Y-11803460D01*
X15564620Y-11803460D02*
X15545572Y-11812984D01*
X15545572Y-11812984D02*
X15497953Y-11812984D01*
X15497953Y-11812984D02*
X15478906Y-11803460D01*
X15478906Y-11803460D02*
X15469382Y-11793936D01*
X15707477Y-11612984D02*
X15726525Y-11612984D01*
X15726525Y-11612984D02*
X15745572Y-11622508D01*
X15745572Y-11622508D02*
X15755096Y-11632031D01*
X15755096Y-11632031D02*
X15764620Y-11651079D01*
X15764620Y-11651079D02*
X15774144Y-11689174D01*
X15774144Y-11689174D02*
X15774144Y-11736793D01*
X15774144Y-11736793D02*
X15764620Y-11774889D01*
X15764620Y-11774889D02*
X15755096Y-11793936D01*
X15755096Y-11793936D02*
X15745572Y-11803460D01*
X15745572Y-11803460D02*
X15726525Y-11812984D01*
X15726525Y-11812984D02*
X15707477Y-11812984D01*
X15707477Y-11812984D02*
X15688429Y-11803460D01*
X15688429Y-11803460D02*
X15678906Y-11793936D01*
X15678906Y-11793936D02*
X15669382Y-11774889D01*
X15669382Y-11774889D02*
X15659858Y-11736793D01*
X15659858Y-11736793D02*
X15659858Y-11689174D01*
X15659858Y-11689174D02*
X15669382Y-11651079D01*
X15669382Y-11651079D02*
X15678906Y-11632031D01*
X15678906Y-11632031D02*
X15688429Y-11622508D01*
X15688429Y-11622508D02*
X15707477Y-11612984D01*
X15850334Y-11612984D02*
X15850334Y-11651079D01*
X15926525Y-11612984D02*
X15926525Y-11651079D01*
X16221763Y-11889174D02*
X16212239Y-11879650D01*
X16212239Y-11879650D02*
X16193191Y-11851079D01*
X16193191Y-11851079D02*
X16183668Y-11832031D01*
X16183668Y-11832031D02*
X16174144Y-11803460D01*
X16174144Y-11803460D02*
X16164620Y-11755841D01*
X16164620Y-11755841D02*
X16164620Y-11717746D01*
X16164620Y-11717746D02*
X16174144Y-11670127D01*
X16174144Y-11670127D02*
X16183668Y-11641555D01*
X16183668Y-11641555D02*
X16193191Y-11622508D01*
X16193191Y-11622508D02*
X16212239Y-11593936D01*
X16212239Y-11593936D02*
X16221763Y-11584412D01*
X16383668Y-11679650D02*
X16383668Y-11812984D01*
X16336048Y-11603460D02*
X16288429Y-11746317D01*
X16288429Y-11746317D02*
X16412239Y-11746317D01*
X16640810Y-11812984D02*
X16640810Y-11612984D01*
X16726525Y-11812984D02*
X16726525Y-11708222D01*
X16726525Y-11708222D02*
X16717001Y-11689174D01*
X16717001Y-11689174D02*
X16697953Y-11679650D01*
X16697953Y-11679650D02*
X16669382Y-11679650D01*
X16669382Y-11679650D02*
X16650334Y-11689174D01*
X16650334Y-11689174D02*
X16640810Y-11698698D01*
X16850334Y-11812984D02*
X16831287Y-11803460D01*
X16831287Y-11803460D02*
X16821763Y-11793936D01*
X16821763Y-11793936D02*
X16812239Y-11774889D01*
X16812239Y-11774889D02*
X16812239Y-11717746D01*
X16812239Y-11717746D02*
X16821763Y-11698698D01*
X16821763Y-11698698D02*
X16831287Y-11689174D01*
X16831287Y-11689174D02*
X16850334Y-11679650D01*
X16850334Y-11679650D02*
X16878906Y-11679650D01*
X16878906Y-11679650D02*
X16897953Y-11689174D01*
X16897953Y-11689174D02*
X16907477Y-11698698D01*
X16907477Y-11698698D02*
X16917001Y-11717746D01*
X16917001Y-11717746D02*
X16917001Y-11774889D01*
X16917001Y-11774889D02*
X16907477Y-11793936D01*
X16907477Y-11793936D02*
X16897953Y-11803460D01*
X16897953Y-11803460D02*
X16878906Y-11812984D01*
X16878906Y-11812984D02*
X16850334Y-11812984D01*
X17031287Y-11812984D02*
X17012239Y-11803460D01*
X17012239Y-11803460D02*
X17002715Y-11784412D01*
X17002715Y-11784412D02*
X17002715Y-11612984D01*
X17183668Y-11803460D02*
X17164620Y-11812984D01*
X17164620Y-11812984D02*
X17126525Y-11812984D01*
X17126525Y-11812984D02*
X17107477Y-11803460D01*
X17107477Y-11803460D02*
X17097953Y-11784412D01*
X17097953Y-11784412D02*
X17097953Y-11708222D01*
X17097953Y-11708222D02*
X17107477Y-11689174D01*
X17107477Y-11689174D02*
X17126525Y-11679650D01*
X17126525Y-11679650D02*
X17164620Y-11679650D01*
X17164620Y-11679650D02*
X17183668Y-11689174D01*
X17183668Y-11689174D02*
X17193192Y-11708222D01*
X17193192Y-11708222D02*
X17193192Y-11727270D01*
X17193192Y-11727270D02*
X17097953Y-11746317D01*
X17269382Y-11803460D02*
X17288430Y-11812984D01*
X17288430Y-11812984D02*
X17326525Y-11812984D01*
X17326525Y-11812984D02*
X17345573Y-11803460D01*
X17345573Y-11803460D02*
X17355096Y-11784412D01*
X17355096Y-11784412D02*
X17355096Y-11774889D01*
X17355096Y-11774889D02*
X17345573Y-11755841D01*
X17345573Y-11755841D02*
X17326525Y-11746317D01*
X17326525Y-11746317D02*
X17297953Y-11746317D01*
X17297953Y-11746317D02*
X17278906Y-11736793D01*
X17278906Y-11736793D02*
X17269382Y-11717746D01*
X17269382Y-11717746D02*
X17269382Y-11708222D01*
X17269382Y-11708222D02*
X17278906Y-11689174D01*
X17278906Y-11689174D02*
X17297953Y-11679650D01*
X17297953Y-11679650D02*
X17326525Y-11679650D01*
X17326525Y-11679650D02*
X17345573Y-11689174D01*
X17421763Y-11889174D02*
X17431287Y-11879650D01*
X17431287Y-11879650D02*
X17450334Y-11851079D01*
X17450334Y-11851079D02*
X17459858Y-11832031D01*
X17459858Y-11832031D02*
X17469382Y-11803460D01*
X17469382Y-11803460D02*
X17478906Y-11755841D01*
X17478906Y-11755841D02*
X17478906Y-11717746D01*
X17478906Y-11717746D02*
X17469382Y-11670127D01*
X17469382Y-11670127D02*
X17459858Y-11641555D01*
X17459858Y-11641555D02*
X17450334Y-11622508D01*
X17450334Y-11622508D02*
X17431287Y-11593936D01*
X17431287Y-11593936D02*
X17421763Y-11584412D01*
M02*
