%TF.GenerationSoftware,KiCad,Pcbnew,8.0.9-8.0.9-0~ubuntu24.04.1*%
%TF.CreationDate,2025-03-26T17:41:02-03:00*%
%TF.ProjectId,pm100,706d3130-302e-46b6-9963-61645f706362,rev?*%
%TF.SameCoordinates,Original*%
%TF.FileFunction,Soldermask,Bot*%
%TF.FilePolarity,Negative*%
%FSLAX46Y46*%
G04 Gerber Fmt 4.6, Leading zero omitted, Abs format (unit mm)*
G04 Created by KiCad (PCBNEW 8.0.9-8.0.9-0~ubuntu24.04.1) date 2025-03-26 17:41:02*
%MOMM*%
%LPD*%
G01*
G04 APERTURE LIST*
G04 Aperture macros list*
%AMRoundRect*
0 Rectangle with rounded corners*
0 $1 Rounding radius*
0 $2 $3 $4 $5 $6 $7 $8 $9 X,Y pos of 4 corners*
0 Add a 4 corners polygon primitive as box body*
4,1,4,$2,$3,$4,$5,$6,$7,$8,$9,$2,$3,0*
0 Add four circle primitives for the rounded corners*
1,1,$1+$1,$2,$3*
1,1,$1+$1,$4,$5*
1,1,$1+$1,$6,$7*
1,1,$1+$1,$8,$9*
0 Add four rect primitives between the rounded corners*
20,1,$1+$1,$2,$3,$4,$5,0*
20,1,$1+$1,$4,$5,$6,$7,0*
20,1,$1+$1,$6,$7,$8,$9,0*
20,1,$1+$1,$8,$9,$2,$3,0*%
G04 Aperture macros list end*
%ADD10C,2.286000*%
%ADD11C,3.200000*%
%ADD12RoundRect,0.225000X-0.250000X0.225000X-0.250000X-0.225000X0.250000X-0.225000X0.250000X0.225000X0*%
%ADD13C,2.000000*%
%ADD14RoundRect,0.225000X0.225000X0.250000X-0.225000X0.250000X-0.225000X-0.250000X0.225000X-0.250000X0*%
%ADD15RoundRect,0.200000X-0.200000X-0.275000X0.200000X-0.275000X0.200000X0.275000X-0.200000X0.275000X0*%
%ADD16RoundRect,0.150000X-0.150000X0.587500X-0.150000X-0.587500X0.150000X-0.587500X0.150000X0.587500X0*%
%ADD17O,2.000000X4.000000*%
%ADD18R,1.100000X0.400000*%
%ADD19R,1.000000X0.800000*%
%ADD20C,0.900000*%
%ADD21R,0.700000X1.500000*%
%ADD22RoundRect,0.200000X0.275000X-0.200000X0.275000X0.200000X-0.275000X0.200000X-0.275000X-0.200000X0*%
%ADD23RoundRect,0.200000X0.200000X0.275000X-0.200000X0.275000X-0.200000X-0.275000X0.200000X-0.275000X0*%
%ADD24RoundRect,0.225000X0.225000X0.375000X-0.225000X0.375000X-0.225000X-0.375000X0.225000X-0.375000X0*%
%ADD25RoundRect,0.225000X-0.225000X-0.250000X0.225000X-0.250000X0.225000X0.250000X-0.225000X0.250000X0*%
%ADD26RoundRect,0.250000X0.250000X0.475000X-0.250000X0.475000X-0.250000X-0.475000X0.250000X-0.475000X0*%
%ADD27RoundRect,0.200000X-0.275000X0.200000X-0.275000X-0.200000X0.275000X-0.200000X0.275000X0.200000X0*%
%ADD28RoundRect,0.250000X0.925000X-0.412500X0.925000X0.412500X-0.925000X0.412500X-0.925000X-0.412500X0*%
%ADD29R,1.000000X0.700000*%
%ADD30RoundRect,0.250000X-0.250000X-0.475000X0.250000X-0.475000X0.250000X0.475000X-0.250000X0.475000X0*%
%ADD31RoundRect,0.375000X0.375000X-0.625000X0.375000X0.625000X-0.375000X0.625000X-0.375000X-0.625000X0*%
%ADD32RoundRect,0.500000X1.400000X-0.500000X1.400000X0.500000X-1.400000X0.500000X-1.400000X-0.500000X0*%
%ADD33RoundRect,0.375000X-0.375000X0.625000X-0.375000X-0.625000X0.375000X-0.625000X0.375000X0.625000X0*%
%ADD34RoundRect,0.500000X-1.400000X0.500000X-1.400000X-0.500000X1.400000X-0.500000X1.400000X0.500000X0*%
%ADD35RoundRect,0.250000X-0.600000X-0.725000X0.600000X-0.725000X0.600000X0.725000X-0.600000X0.725000X0*%
%ADD36O,1.700000X1.950000*%
%ADD37R,1.800000X0.820000*%
%ADD38RoundRect,0.150000X0.150000X-0.587500X0.150000X0.587500X-0.150000X0.587500X-0.150000X-0.587500X0*%
%ADD39RoundRect,0.250000X-0.450000X-0.425000X0.450000X-0.425000X0.450000X0.425000X-0.450000X0.425000X0*%
%ADD40RoundRect,0.175000X0.325000X-0.175000X0.325000X0.175000X-0.325000X0.175000X-0.325000X-0.175000X0*%
%ADD41RoundRect,0.150000X0.150000X-0.200000X0.150000X0.200000X-0.150000X0.200000X-0.150000X-0.200000X0*%
%ADD42R,0.400000X1.750000*%
%ADD43O,0.800000X1.900000*%
%ADD44R,1.575000X1.900000*%
%ADD45O,0.900000X1.150000*%
%ADD46R,1.800000X1.900000*%
G04 APERTURE END LIST*
D10*
%TO.C,J11*%
X133350000Y-51000000D03*
X135890000Y-51000000D03*
X138430000Y-51000000D03*
X140970000Y-51000000D03*
%TD*%
D11*
%TO.C,H1*%
X133350000Y-84582000D03*
%TD*%
D12*
%TO.C,C7*%
X140462000Y-46977000D03*
X140462000Y-48527000D03*
%TD*%
D13*
%TO.C,J8*%
X129540000Y-91440000D03*
%TD*%
D14*
%TO.C,C3*%
X148389999Y-59049000D03*
X146839999Y-59049000D03*
%TD*%
D15*
%TO.C,R2*%
X167135000Y-79707500D03*
X168785000Y-79707500D03*
%TD*%
D13*
%TO.C,J17*%
X129540000Y-68580000D03*
%TD*%
D16*
%TO.C,Q5*%
X166690000Y-75262500D03*
X168590000Y-75262500D03*
X167640000Y-77137501D03*
%TD*%
D17*
%TO.C,J7*%
X170902000Y-53340000D03*
X168402000Y-53340000D03*
X165902000Y-53340000D03*
%TD*%
D18*
%TO.C,U7*%
X152350000Y-84475001D03*
X152350000Y-83825000D03*
X152350000Y-83175000D03*
X152350000Y-82524999D03*
X156650000Y-82524999D03*
X156650000Y-83175000D03*
X156650000Y-83825000D03*
X156650000Y-84475001D03*
%TD*%
D19*
%TO.C,SW1*%
X148660000Y-93665000D03*
X148660000Y-91455000D03*
D20*
X146010000Y-92565000D03*
X141010000Y-92565000D03*
D19*
X138360000Y-93665000D03*
X138360000Y-91455000D03*
D21*
X146510000Y-90805000D03*
X145010000Y-90805000D03*
X142010000Y-90805000D03*
X140510000Y-90805000D03*
%TD*%
D17*
%TO.C,J6*%
X170902000Y-83820000D03*
X168402000Y-83820000D03*
X165902000Y-83820000D03*
%TD*%
D22*
%TO.C,R7*%
X147955001Y-88709000D03*
X147955001Y-87059000D03*
%TD*%
D13*
%TO.C,J9*%
X129540000Y-87630000D03*
%TD*%
%TO.C,J15*%
X129540000Y-60960000D03*
%TD*%
%TO.C,J14*%
X129540000Y-72390000D03*
%TD*%
D23*
%TO.C,R4*%
X169227000Y-58117500D03*
X167577000Y-58117500D03*
%TD*%
D24*
%TO.C,D3*%
X136398000Y-47752000D03*
X133098000Y-47752000D03*
%TD*%
D25*
%TO.C,C10*%
X155181000Y-80772000D03*
X156731000Y-80772000D03*
%TD*%
D26*
%TO.C,C8*%
X145009000Y-59049000D03*
X143109002Y-59049000D03*
%TD*%
D13*
%TO.C,J13*%
X129540000Y-80010000D03*
%TD*%
D27*
%TO.C,R26*%
X150622000Y-82487000D03*
X150622000Y-84137000D03*
%TD*%
D14*
%TO.C,C9*%
X160541000Y-86868000D03*
X158991000Y-86868000D03*
%TD*%
%TO.C,C4*%
X153075000Y-69621000D03*
X151525000Y-69621000D03*
%TD*%
D28*
%TO.C,C11*%
X159258000Y-84849500D03*
X159258000Y-81774500D03*
%TD*%
D29*
%TO.C,D1*%
X162125000Y-69818000D03*
X162125000Y-65818000D03*
X168075000Y-65818000D03*
X168075000Y-69818000D03*
%TD*%
D30*
%TO.C,C5*%
X155655001Y-69621000D03*
X157554999Y-69621000D03*
%TD*%
D13*
%TO.C,J12*%
X129511000Y-76200000D03*
%TD*%
D31*
%TO.C,U3*%
X157000000Y-67056000D03*
X154700000Y-67055999D03*
D32*
X154700000Y-60756001D03*
D31*
X152400000Y-67056000D03*
%TD*%
D15*
%TO.C,R5*%
X167577000Y-63832500D03*
X169227000Y-63832500D03*
%TD*%
D33*
%TO.C,U5*%
X143242000Y-61721999D03*
X145542000Y-61722000D03*
D34*
X145542000Y-68021998D03*
D33*
X147842000Y-61721999D03*
%TD*%
D13*
%TO.C,J10*%
X129540000Y-83820000D03*
%TD*%
%TO.C,J16*%
X129540000Y-64770000D03*
%TD*%
D35*
%TO.C,J5*%
X144850000Y-49650000D03*
D36*
X147350000Y-49650000D03*
X149850000Y-49650000D03*
X152350000Y-49650000D03*
%TD*%
D37*
%TO.C,D2*%
X140522000Y-45504000D03*
X140522000Y-43904000D03*
X135322000Y-43904000D03*
X135322000Y-45504000D03*
%TD*%
D38*
%TO.C,Q6*%
X169352000Y-61897500D03*
X167452000Y-61897500D03*
X168402000Y-60022499D03*
%TD*%
D39*
%TO.C,C16*%
X144018000Y-70612000D03*
X146718000Y-70612000D03*
%TD*%
D23*
%TO.C,R3*%
X168595000Y-72722500D03*
X166945000Y-72722500D03*
%TD*%
D27*
%TO.C,R6*%
X146050000Y-87059000D03*
X146050000Y-88709000D03*
%TD*%
D40*
%TO.C,D4*%
X157000000Y-89000000D03*
D41*
X155300000Y-89000000D03*
X155300000Y-87000000D03*
X157200000Y-87000000D03*
%TD*%
D42*
%TO.C,J3*%
X155920000Y-90925000D03*
X155270000Y-90925000D03*
X154620000Y-90925000D03*
X153970000Y-90925000D03*
X153320000Y-90925000D03*
D43*
X158795000Y-93800000D03*
D44*
X158007500Y-93800000D03*
D45*
X156845000Y-90800000D03*
D46*
X155770000Y-93800000D03*
X153470000Y-93800000D03*
D45*
X152395000Y-90800000D03*
D44*
X151232500Y-93800000D03*
D43*
X150445000Y-93800000D03*
%TD*%
M02*
