%TF.GenerationSoftware,KiCad,Pcbnew,8.0.9-8.0.9-0~ubuntu24.04.1*%
%TF.CreationDate,2025-03-26T17:41:02-03:00*%
%TF.ProjectId,pm100,706d3130-302e-46b6-9963-61645f706362,rev?*%
%TF.SameCoordinates,Original*%
%TF.FileFunction,Profile,NP*%
%FSLAX46Y46*%
G04 Gerber Fmt 4.6, Leading zero omitted, Abs format (unit mm)*
G04 Created by KiCad (PCBNEW 8.0.9-8.0.9-0~ubuntu24.04.1) date 2025-03-26 17:41:02*
%MOMM*%
%LPD*%
G01*
G04 APERTURE LIST*
%TA.AperFunction,Profile*%
%ADD10C,0.050000*%
%TD*%
%TA.AperFunction,Profile*%
%ADD11C,0.120000*%
%TD*%
G04 APERTURE END LIST*
D10*
X163829999Y-38735000D02*
G75*
G02*
X160655000Y-41909999I-3174999J0D01*
G01*
X137668000Y-41909999D02*
G75*
G02*
X135636001Y-39878000I0J2031999D01*
G01*
X137668000Y-41909999D02*
X160655000Y-41909999D01*
X140558185Y-94488000D02*
G75*
G02*
X141320185Y-93725985I762015J0D01*
G01*
X133604000Y-38862000D02*
G75*
G02*
X128524000Y-38862000I-2540000J0D01*
G01*
X128524000Y-38862000D02*
G75*
G02*
X133604000Y-38862000I2540000J0D01*
G01*
X147162185Y-95249999D02*
G75*
G02*
X146400201Y-94488000I15J761999D01*
G01*
X145638185Y-93726001D02*
G75*
G02*
X146400199Y-94488000I15J-761999D01*
G01*
X126500000Y-98298000D02*
X126492000Y-38862000D01*
X172720001Y-38735000D02*
X172720001Y-98425000D01*
X172720001Y-98425000D02*
G75*
G02*
X163829999Y-98425000I-4445001J0D01*
G01*
X163829999Y-38735000D02*
G75*
G02*
X172720001Y-38735000I4445001J0D01*
G01*
X135636001Y-97282000D02*
X135636000Y-98298000D01*
X160655000Y-95250001D02*
G75*
G02*
X163829999Y-98425000I0J-3174999D01*
G01*
X147162185Y-95249999D02*
X160655000Y-95250001D01*
X135636000Y-98298000D02*
G75*
G02*
X126492000Y-98298000I-4572000J0D01*
G01*
X170815000Y-38735000D02*
G75*
G02*
X165735000Y-38735000I-2540000J0D01*
G01*
X165735000Y-38735000D02*
G75*
G02*
X170815000Y-38735000I2540000J0D01*
G01*
X139796185Y-95250000D02*
X137668000Y-95250001D01*
X135636001Y-97282000D02*
G75*
G02*
X137668000Y-95250001I2031999J0D01*
G01*
X170815000Y-98425000D02*
G75*
G02*
X165735000Y-98425000I-2540000J0D01*
G01*
X165735000Y-98425000D02*
G75*
G02*
X170815000Y-98425000I2540000J0D01*
G01*
X135636000Y-38862000D02*
X135636001Y-39878000D01*
X133604000Y-98298000D02*
G75*
G02*
X128524000Y-98298000I-2540000J0D01*
G01*
X128524000Y-98298000D02*
G75*
G02*
X133604000Y-98298000I2540000J0D01*
G01*
X145638185Y-93726001D02*
X141320185Y-93726000D01*
X126492000Y-38862000D02*
G75*
G02*
X135636000Y-38862000I4572000J0D01*
G01*
X140558185Y-94488000D02*
G75*
G02*
X139796185Y-95249985I-761985J0D01*
G01*
D11*
%TO.C,D2*%
X139522000Y-46104000D02*
X136322000Y-46104000D01*
X136322000Y-43304000D01*
X139522000Y-43304000D01*
X139522000Y-46104000D01*
%TD*%
M02*
