M48
; DRILL file {KiCad 8.0.9-8.0.9-0~ubuntu24.04.1} date 2025-04-16T20:51:43-0300
; FORMAT={-:-/ absolute / inch / decimal}
; #@! TF.CreationDate,2025-04-16T20:51:43-03:00
; #@! TF.GenerationSoftware,Kicad,Pcbnew,8.0.9-8.0.9-0~ubuntu24.04.1
; #@! TF.FileFunction,Plated,1,2,PTH
FMAT,2
INCH
; #@! TA.AperFunction,Plated,PTH,ViaDrill
T1C0.0118
; #@! TA.AperFunction,Plated,PTH,ComponentDrill
T2C0.0236
; #@! TA.AperFunction,Plated,PTH,ComponentDrill
T3C0.0374
; #@! TA.AperFunction,Plated,PTH,ComponentDrill
T4C0.0450
%
G90
G05
T1
X5.02Y-2.68
X5.0989Y-3.0
X5.1Y-2.85
X5.1Y-3.15
X5.1Y-3.3
X5.1Y-3.45
X5.1Y-3.6
X5.1895Y-2.9467
X5.195Y-2.16
X5.21Y-1.84
X5.27Y-3.01
X5.32Y-2.11
X5.36Y-2.94
X5.385Y-3.36
X5.395Y-3.135
X5.415Y-3.305
X5.424Y-3.176
X5.45Y-3.285
X5.465Y-3.455
X5.472Y-2.92
X5.4783Y-2.3817
X5.489Y-3.224
X5.55Y-3.37
X5.6Y-2.98
X5.64Y-2.6
X5.65Y-2.85
X5.65Y-3.34
X5.6506Y-2.0604
X5.6714Y-2.4888
X5.7Y-2.5144
X5.71Y-2.25
X5.76Y-2.84
X5.76Y-3.1
X5.8Y-2.58
X5.852Y-2.746
X5.88Y-2.25
X5.894Y-3.075
X5.948Y-2.07
X5.958Y-3.448
X5.975Y-3.115
X6.0Y-2.54
X6.0Y-2.84
X6.011Y-3.207
X6.06Y-3.186
X6.07Y-2.76
X6.1Y-3.37
X6.14Y-3.4
X6.15Y-2.96
X6.19Y-3.07
X6.44Y-3.4
X6.5Y-2.84
X6.51Y-2.92
X6.52Y-3.09
X6.54Y-2.36
X6.54Y-3.05
X6.56Y-2.29
X6.58Y-2.36
X6.69Y-3.14
X6.72Y-2.29
X6.75Y-2.34
X6.75Y-3.07
T3
X5.7028Y-1.9547
X5.8012Y-1.9547
X5.8996Y-1.9547
X5.998Y-1.9547
T4
X5.25Y-2.0079
X5.35Y-2.0079
X5.45Y-2.0079
X5.55Y-2.0079
T2
G00X5.923Y-3.7067
M15
G01X5.923Y-3.6791
M16
G05
G00X5.9998Y-3.5797
M15
G01X5.9998Y-3.5699
M16
G05
G00X6.175Y-3.5797
M15
G01X6.175Y-3.5699
M16
G05
G00X6.2518Y-3.7067
M15
G01X6.2518Y-3.6791
M16
G05
M30
